<svg width="14" height="13" viewBox="0 0 14 13" fill="none" xmlns="http://www.w3.org/2000/svg">
<path id="Vector" d="M12.7477 5.7453L11.9359 4.79516C11.7856 4.61476 11.6593 4.278 11.6593 4.03746V3.01516C11.6593 2.37772 11.1361 1.85455 10.4987 1.85455H9.47638C9.23584 1.85455 8.89307 1.72826 8.71266 1.57793L7.76252 0.766099C7.34759 0.4113 6.66806 0.4113 6.25313 0.766099L5.29096 1.57793C5.11056 1.72826 4.7738 1.85455 4.53326 1.85455H3.49292C2.85548 1.85455 2.3323 2.37772 2.3323 3.01516V4.03746C2.3323 4.27199 2.21203 4.60874 2.0617 4.78915L1.24987 5.7453C0.901085 6.16625 0.901085 6.83976 1.24987 7.24868L2.0617 8.20484C2.21203 8.37923 2.3323 8.722 2.3323 8.95653V9.98484C2.3323 10.6223 2.85548 11.1455 3.49292 11.1455H4.53927C4.7738 11.1455 5.11657 11.2717 5.29698 11.4221L6.24711 12.2339C6.66205 12.5887 7.34158 12.5887 7.75651 12.2339L8.70665 11.4221C8.88705 11.2717 9.22381 11.1455 9.46435 11.1455H10.4867C11.1241 11.1455 11.6473 10.6223 11.6473 9.98484V8.96254C11.6473 8.722 11.7735 8.38524 11.9239 8.20484L12.7357 7.2547C13.1025 6.84578 13.1025 6.16625 12.7477 5.7453ZM6.54779 4.17577C6.54779 3.92922 6.75225 3.72476 6.9988 3.72476C7.24536 3.72476 7.44982 3.92922 7.44982 4.17577V7.08031C7.44982 7.32686 7.24536 7.53132 6.9988 7.53132C6.75225 7.53132 6.54779 7.32686 6.54779 7.08031V4.17577ZM6.9988 9.4316C6.66806 9.4316 6.39745 9.16099 6.39745 8.83024C6.39745 8.4995 6.66205 8.22889 6.9988 8.22889C7.32955 8.22889 7.60016 8.4995 7.60016 8.83024C7.60016 9.16099 7.33556 9.4316 6.9988 9.4316Z" fill="#0030AD"/>
</svg>
