<svg width="1440" height="900" viewBox="0 0 1440 900" fill="none" xmlns="http://www.w3.org/2000/svg">
<g clip-path="url(#clip0_47_342)">
<path d="M168.873 399.232H152.401L147.502 414H137.065L154.744 365.01H167.027L184.351 414H173.701L168.873 399.232ZM160.708 373.388L154.886 391.493H166.388L160.708 373.388ZM197.967 414H188.169V365.01H197.967V414ZM228.308 382.973V400.439C228.308 401.717 228.308 402.782 228.379 403.776C228.663 407.468 230.012 408.32 235.479 407.894V414.284C233.278 414.639 231.219 414.781 229.018 414.781C221.705 414.781 219.078 412.367 218.652 407.042C218.51 405.338 218.51 403.705 218.51 401.575V382.973H212.972V376.512H218.51V367.211H228.308V376.512H236.118V382.973H228.308ZM275.333 385.813C275.546 387.73 275.617 389.647 275.617 392.7V414H265.819V394.049C265.819 392.487 265.819 390.712 265.677 388.795C265.393 384.819 263.192 382.121 258.435 382.121C253.678 382.192 249.915 386.239 249.915 396.747V414H240.117V361.46H249.915V382.334L252.826 377.861C255.524 375.944 258.293 375.234 261.914 375.234C269.937 375.234 274.552 379.21 275.333 385.813ZM304.024 414L303.314 408.462L301.468 412.509C298.841 414.284 295.646 414.994 292.096 414.994C285.564 414.994 279.955 411.16 279.955 403.989C279.955 395.682 287.055 390.996 300.758 390.996H303.172V390.215C303.172 389.079 303.172 387.943 303.03 386.665C302.746 384.038 301.042 382.121 297.208 382.121C293.303 382.121 291.173 384.393 290.889 388.511L281.375 388.582C281.659 380.062 288.546 375.234 297.563 375.234C308.142 375.234 312.118 379.849 312.686 386.381C312.828 388.156 312.899 390.144 312.899 392.203V404.415C312.899 407.255 313.041 409.811 313.609 414H304.024ZM295.859 408.107C299.835 408.107 303.172 405.338 303.172 400.084V397.031C295.362 396.463 290.108 398.238 290.108 403.208C290.108 406.545 292.38 408.107 295.859 408.107ZM331.538 382.973V400.439C331.538 401.717 331.538 402.782 331.609 403.776C331.893 407.468 333.242 408.32 338.709 407.894V414.284C336.508 414.639 334.449 414.781 332.248 414.781C324.935 414.781 322.308 412.367 321.882 407.042C321.74 405.338 321.74 403.705 321.74 401.575V382.973H316.202V376.512H321.74V367.211H331.538V376.512H339.348V382.973H331.538ZM377.451 375.234C388.03 375.234 394.278 383.257 394.278 394.404C394.278 408.036 385.9 414.994 376.173 414.994C373.049 414.994 369.215 414.213 367.298 412.864L364.813 408.959V414H355.015V361.815H364.813V381.979L367.653 377.861C369.783 376.157 373.617 375.234 377.451 375.234ZM374.256 408.107C379.936 408.107 384.125 403.776 384.125 395.043C384.125 387.304 380.433 382.121 374.611 382.121C369.215 382.121 364.813 385.458 364.813 394.688V396.463C364.813 405.054 369.712 408.107 374.256 408.107ZM433.369 376.228V414H423.571V407.61L420.66 412.438C417.891 414.284 415.193 414.994 411.572 414.994C403.762 414.994 399.076 410.592 398.224 405.409C397.94 403.492 397.869 401.575 397.869 398.522V376.228H407.667V396.463C407.667 397.67 407.738 399.729 407.951 401.646C408.448 405.551 410.72 408.036 415.264 408.036C420.163 408.036 423.571 403.989 423.571 395.469V376.228H433.369ZM445.167 362.17C448.362 362.17 450.563 364.3 450.563 367.353C450.563 370.477 448.362 372.536 445.167 372.536C441.972 372.536 439.771 370.477 439.771 367.353C439.771 364.3 441.972 362.17 445.167 362.17ZM450.066 414H440.268V376.228H450.066V414ZM466.511 361.815V401.646C466.511 403.137 466.511 404.131 466.582 405.125C466.795 407.042 467.647 407.681 470.984 407.468V414.213C469.067 414.426 467.15 414.497 464.949 414.497C460.121 414.497 457.068 412.722 456.855 407.823C456.713 406.119 456.713 404.344 456.713 401.859V361.815H466.511ZM511.404 361.815V414H501.606V408.178L498.766 412.367C496.636 414 492.802 414.994 488.968 414.994C478.389 414.994 472.141 406.971 472.141 395.824C472.141 382.121 480.519 375.234 490.246 375.234C493.37 375.234 497.204 376.015 499.121 377.364L501.606 381.269V361.815H511.404ZM491.808 408.107C497.204 408.107 501.606 404.77 501.606 395.54V393.694C501.606 385.174 496.707 382.121 492.163 382.121C486.483 382.121 482.294 386.452 482.294 395.185C482.294 402.924 485.986 408.107 491.808 408.107ZM531.819 375.234C540.836 375.234 545.948 380.275 546.8 387.162H537.002C536.363 383.683 534.446 381.695 531.18 381.695C528.269 381.695 526.707 383.399 526.707 385.742C526.707 388.582 529.05 390.073 535.298 391.635C543.037 393.623 547.581 396.747 547.581 403.705C547.581 411.302 540.694 414.994 532.032 414.994C522.873 414.994 516.412 411.018 515.347 402.498H525.145C525.926 406.616 528.766 408.533 532.174 408.533C535.298 408.533 537.712 407.184 537.712 404.415C537.712 401.504 535.227 399.871 528.695 398.238C521.666 396.463 516.838 393.41 516.838 386.878C516.838 379.636 522.802 375.234 531.819 375.234ZM585.098 414L584.388 408.462L582.542 412.509C579.915 414.284 576.72 414.994 573.17 414.994C566.638 414.994 561.029 411.16 561.029 403.989C561.029 395.682 568.129 390.996 581.832 390.996H584.246V390.215C584.246 389.079 584.246 387.943 584.104 386.665C583.82 384.038 582.116 382.121 578.282 382.121C574.377 382.121 572.247 384.393 571.963 388.511L562.449 388.582C562.733 380.062 569.62 375.234 578.637 375.234C589.216 375.234 593.192 379.849 593.76 386.381C593.902 388.156 593.973 390.144 593.973 392.203V404.415C593.973 407.255 594.115 409.811 594.683 414H585.098ZM576.933 408.107C580.909 408.107 584.246 405.338 584.246 400.084V397.031C576.436 396.463 571.182 398.238 571.182 403.208C571.182 406.545 573.454 408.107 576.933 408.107ZM195.072 450.228L183.073 488H171.997L165.607 459.245L159.146 488H147.999L136 450.228H146.934L153.608 479.835L159.785 450.37H171.571L177.961 479.764L184.564 450.228H195.072ZM231.641 468.333C231.641 469.256 231.641 470.392 231.499 471.67H204.661C205.3 479.622 208.85 482.107 213.394 482.107C217.583 482.107 220.636 479.764 221.275 475.717H231.073C229.156 484.521 222.056 488.994 213.181 488.994C202.815 488.994 194.792 482.533 194.792 469.256C194.792 457.683 202.389 449.234 213.962 449.234C225.535 449.234 231.641 458.038 231.641 468.333ZM213.536 456.121C208.992 456.121 205.797 459.032 204.945 465.28H221.559C220.92 459.316 218.222 456.121 213.536 456.121ZM258.701 449.234C269.28 449.234 275.528 457.257 275.528 468.404C275.528 482.036 267.15 488.994 257.423 488.994C254.299 488.994 250.465 488.213 248.548 486.864L246.063 482.959V488H236.265V435.815H246.063V455.979L248.903 451.861C251.033 450.157 254.867 449.234 258.701 449.234ZM255.506 482.107C261.186 482.107 265.375 477.776 265.375 469.043C265.375 461.304 261.683 456.121 255.861 456.121C250.465 456.121 246.063 459.458 246.063 468.688V470.463C246.063 479.054 250.962 482.107 255.506 482.107ZM293.248 449.234C302.265 449.234 307.377 454.275 308.229 461.162H298.431C297.792 457.683 295.875 455.695 292.609 455.695C289.698 455.695 288.136 457.399 288.136 459.742C288.136 462.582 290.479 464.073 296.727 465.635C304.466 467.623 309.01 470.747 309.01 477.705C309.01 485.302 302.123 488.994 293.461 488.994C284.302 488.994 277.841 485.018 276.776 476.498H286.574C287.355 480.616 290.195 482.533 293.603 482.533C296.727 482.533 299.141 481.184 299.141 478.415C299.141 475.504 296.656 473.871 290.124 472.238C283.095 470.463 278.267 467.41 278.267 460.878C278.267 453.636 284.231 449.234 293.248 449.234ZM317.819 436.17C321.014 436.17 323.215 438.3 323.215 441.353C323.215 444.477 321.014 446.536 317.819 446.536C314.624 446.536 312.423 444.477 312.423 441.353C312.423 438.3 314.624 436.17 317.819 436.17ZM322.718 488H312.92V450.228H322.718V488ZM341.364 456.973V474.439C341.364 475.717 341.364 476.782 341.435 477.776C341.719 481.468 343.068 482.32 348.535 481.894V488.284C346.334 488.639 344.275 488.781 342.074 488.781C334.761 488.781 332.134 486.367 331.708 481.042C331.566 479.338 331.566 477.705 331.566 475.575V456.973H326.028V450.512H331.566V441.211H341.364V450.512H349.174V456.973H341.364ZM386.842 468.333C386.842 469.256 386.842 470.392 386.7 471.67H359.862C360.501 479.622 364.051 482.107 368.595 482.107C372.784 482.107 375.837 479.764 376.476 475.717H386.274C384.357 484.521 377.257 488.994 368.382 488.994C358.016 488.994 349.993 482.533 349.993 469.256C349.993 457.683 357.59 449.234 369.163 449.234C380.736 449.234 386.842 458.038 386.842 468.333ZM368.737 456.121C364.193 456.121 360.998 459.032 360.146 465.28H376.76C376.121 459.316 373.423 456.121 368.737 456.121ZM414.068 445.4C413.926 446.394 413.926 447.672 413.926 448.666V450.512H421.665V456.973H413.926V488H404.128V456.973H400.081V450.512H404.128V448.95C404.128 447.672 404.128 445.897 404.27 444.619C404.838 438.229 409.027 434.466 417.973 434.466C419.535 434.466 421.026 434.679 422.304 434.963V441.779C417.689 440.927 414.423 442.205 414.068 445.4ZM442.034 449.234C454.601 449.234 461.63 457.612 461.63 469.114C461.63 480.545 454.601 488.994 442.034 488.994C429.467 488.994 422.438 480.545 422.438 469.114C422.438 457.612 429.467 449.234 442.034 449.234ZM442.034 482.107C447.927 482.107 451.477 477.208 451.477 469.114C451.477 460.949 447.927 456.121 442.034 456.121C436.141 456.121 432.591 460.949 432.591 469.114C432.591 477.208 436.141 482.107 442.034 482.107ZM485.163 449.305C486.299 449.305 487.08 449.376 487.932 449.589V457.47C479.767 456.902 475.72 460.523 475.72 470.676V488H465.922V450.228H475.72V457.115L478.702 451.861C480.548 450.157 483.033 449.305 485.163 449.305ZM538.216 450.228L523.022 489.42C519.046 499.644 514.928 502.91 507.26 502.91C505.485 502.91 504.278 502.839 502.858 502.626V495.881C503.852 496.023 504.775 496.023 505.769 496.023C509.106 496.023 511.307 494.745 512.869 490.982L513.366 489.775L497.959 450.228H508.893L518.265 480.545L527.495 450.228H538.216ZM556.239 449.234C568.806 449.234 575.835 457.612 575.835 469.114C575.835 480.545 568.806 488.994 556.239 488.994C543.672 488.994 536.643 480.545 536.643 469.114C536.643 457.612 543.672 449.234 556.239 449.234ZM556.239 482.107C562.132 482.107 565.682 477.208 565.682 469.114C565.682 460.949 562.132 456.121 556.239 456.121C550.346 456.121 546.796 460.949 546.796 469.114C546.796 477.208 550.346 482.107 556.239 482.107ZM614.988 450.228V488H605.19V481.61L602.279 486.438C599.51 488.284 596.812 488.994 593.191 488.994C585.381 488.994 580.695 484.592 579.843 479.409C579.559 477.492 579.488 475.575 579.488 472.522V450.228H589.286V470.463C589.286 471.67 589.357 473.729 589.57 475.646C590.067 479.551 592.339 482.036 596.883 482.036C601.782 482.036 605.19 477.989 605.19 469.469V450.228H614.988ZM626.075 477.066C629.625 477.066 632.039 479.551 632.039 483.03C632.039 486.509 629.625 488.994 626.075 488.994C622.596 488.994 620.182 486.509 620.182 483.03C620.182 479.551 622.596 477.066 626.075 477.066Z" fill="#000103"/>
<path d="M143.98 530.34H148.92V537H147.4V534.6L146.78 535.88C146 536.76 144.78 537.28 143.2 537.28C139.18 537.28 136.94 534.2 136.94 530.16C136.94 525.96 139.54 522.92 143.46 522.92C146.96 522.92 148.8 524.9 149.08 527.6L149.1 527.8H147.38L147.34 527.6C146.94 525.62 145.72 524.28 143.42 524.28C140.6 524.28 138.86 526.74 138.86 530.08C138.86 533.48 140.58 535.92 143.3 535.92C145.54 535.92 147.2 534.2 147.2 531.74H143.98V530.34ZM160.179 531.4C160.179 531.56 160.179 531.84 160.139 532.22H152.459C152.619 535.02 153.939 535.96 155.499 535.96C156.879 535.96 157.999 535.1 158.239 533.58H160.039C159.619 536.14 157.599 537.28 155.419 537.28C152.659 537.28 150.599 535.48 150.599 531.74C150.599 528.3 152.739 526.12 155.639 526.12C158.559 526.12 160.179 528.3 160.179 531.4ZM155.599 527.44C153.919 527.44 152.679 528.64 152.479 530.9H158.439C158.279 528.7 157.339 527.44 155.599 527.44ZM164.316 527.8V533.9C164.316 534.26 164.316 534.44 164.336 534.72C164.416 535.74 164.836 535.96 166.176 535.8V537.06C165.676 537.14 165.196 537.16 164.716 537.16C163.396 537.16 162.716 536.62 162.616 535.3C162.596 535.02 162.596 534.58 162.596 533.98V527.8H161.176V526.48H162.596V524.02H164.316V526.48H166.296V527.8H164.316ZM181.102 526.4L176.742 537.9C175.882 540.14 174.742 541.2 173.022 541.2C172.642 541.2 172.402 541.2 172.142 541.16V539.76C172.402 539.78 172.582 539.78 172.762 539.78C173.822 539.78 174.522 539.32 175.062 537.92L175.202 537.54L170.982 526.4H172.922L176.082 535.72L179.222 526.4H181.102ZM186.719 526.12C190.319 526.12 191.979 528.7 191.979 531.7C191.979 534.68 190.319 537.28 186.719 537.28C183.119 537.28 181.459 534.68 181.459 531.7C181.459 528.7 183.119 526.12 186.719 526.12ZM186.719 535.96C188.859 535.96 190.099 534.18 190.099 531.7C190.099 529.2 188.859 527.44 186.719 527.44C184.579 527.44 183.339 529.2 183.339 531.7C183.339 534.18 184.579 535.96 186.719 535.96ZM202.658 526.4V537H200.938V535.2L200.278 536.44C199.378 537.1 198.598 537.28 197.518 537.28C195.318 537.28 194.038 536.04 193.798 534.58C193.718 534.04 193.698 533.62 193.698 532.76V526.4H195.418V532.44C195.418 532.78 195.438 533.36 195.498 533.9C195.658 535.1 196.518 535.92 197.958 535.92C199.618 535.92 200.938 534.68 200.938 531.06V526.4H202.658ZM209.654 526.16C209.934 526.16 210.174 526.2 210.374 526.3V527.6C208.574 527.48 207.214 528.54 207.214 530.96V537H205.494V526.4H207.214V528.06L208.174 526.64C208.614 526.34 209.154 526.16 209.654 526.16ZM221.332 526.12C224.432 526.12 226.152 528.44 226.152 531.54C226.152 535.46 223.712 537.28 220.972 537.28C220.092 537.28 218.972 537.02 218.432 536.58L217.732 535.54V537H216.012V522.3H217.732V528.1L218.532 526.96C219.132 526.46 220.252 526.12 221.332 526.12ZM220.972 535.96C222.832 535.96 224.272 534.52 224.272 531.74C224.272 529.34 223.192 527.44 221.072 527.44C219.312 527.44 217.732 528.56 217.732 531.6V532.18C217.732 534.92 219.452 535.96 220.972 535.96ZM236.839 526.4V537H235.119V535.2L234.459 536.44C233.559 537.1 232.779 537.28 231.699 537.28C229.499 537.28 228.219 536.04 227.979 534.58C227.899 534.04 227.879 533.62 227.879 532.76V526.4H229.599V532.44C229.599 532.78 229.619 533.36 229.679 533.9C229.839 535.1 230.699 535.92 232.139 535.92C233.799 535.92 235.119 534.68 235.119 531.06V526.4H236.839ZM242.755 526.12C245.135 526.12 246.435 527.48 246.655 529.42H244.855C244.615 528.18 243.855 527.44 242.615 527.44C241.415 527.44 240.855 528.1 240.855 529.02C240.855 530.08 241.735 530.5 243.175 530.88C245.615 531.52 246.775 532.48 246.775 534.28C246.775 536.28 245.075 537.28 242.835 537.28C240.655 537.28 238.995 536.28 238.675 533.88H240.475C240.755 535.42 241.735 535.96 242.955 535.96C244.095 535.96 245.015 535.44 245.015 534.42C245.015 533.4 244.295 532.86 242.515 532.38C240.615 531.86 239.095 531.08 239.095 529.22C239.095 527.28 240.575 526.12 242.755 526.12ZM249.514 522.92C250.134 522.92 250.614 523.4 250.614 524.02C250.614 524.64 250.134 525.12 249.514 525.12C248.894 525.12 248.414 524.64 248.414 524.02C248.414 523.4 248.894 522.92 249.514 522.92ZM250.374 537H248.654V526.4H250.374V537ZM262.14 529.22C262.18 529.76 262.18 530.18 262.18 531.04V537H260.46V531.16C260.46 530.62 260.46 530.18 260.42 529.64C260.32 528.4 259.64 527.48 258 527.48C256.34 527.48 254.94 528.72 254.94 532.34V537H253.22V526.4H254.94V528.22L255.6 527C256.5 526.3 257.28 526.12 258.36 526.12C260.68 526.12 261.98 527.36 262.14 529.22ZM273.575 531.4C273.575 531.56 273.575 531.84 273.535 532.22H265.855C266.015 535.02 267.335 535.96 268.895 535.96C270.275 535.96 271.395 535.1 271.635 533.58H273.435C273.015 536.14 270.995 537.28 268.815 537.28C266.055 537.28 263.995 535.48 263.995 531.74C263.995 528.3 266.135 526.12 269.035 526.12C271.955 526.12 273.575 528.3 273.575 531.4ZM268.995 527.44C267.315 527.44 266.075 528.64 265.875 530.9H271.835C271.675 528.7 270.735 527.44 268.995 527.44ZM278.732 526.12C281.112 526.12 282.412 527.48 282.632 529.42H280.832C280.592 528.18 279.832 527.44 278.592 527.44C277.392 527.44 276.832 528.1 276.832 529.02C276.832 530.08 277.712 530.5 279.152 530.88C281.592 531.52 282.752 532.48 282.752 534.28C282.752 536.28 281.052 537.28 278.812 537.28C276.632 537.28 274.972 536.28 274.652 533.88H276.452C276.732 535.42 277.712 535.96 278.932 535.96C280.072 535.96 280.992 535.44 280.992 534.42C280.992 533.4 280.272 532.86 278.492 532.38C276.592 531.86 275.072 531.08 275.072 529.22C275.072 527.28 276.552 526.12 278.732 526.12ZM287.712 526.12C290.092 526.12 291.392 527.48 291.612 529.42H289.812C289.572 528.18 288.812 527.44 287.572 527.44C286.372 527.44 285.812 528.1 285.812 529.02C285.812 530.08 286.692 530.5 288.132 530.88C290.572 531.52 291.732 532.48 291.732 534.28C291.732 536.28 290.032 537.28 287.792 537.28C285.612 537.28 283.952 536.28 283.632 533.88H285.432C285.712 535.42 286.692 535.96 287.912 535.96C289.052 535.96 289.972 535.44 289.972 534.42C289.972 533.4 289.252 532.86 287.472 532.38C285.572 531.86 284.052 531.08 284.052 529.22C284.052 527.28 285.532 526.12 287.712 526.12ZM302.108 526.12C305.708 526.12 307.368 528.7 307.368 531.7C307.368 534.68 305.708 537.28 302.108 537.28C298.508 537.28 296.848 534.68 296.848 531.7C296.848 528.7 298.508 526.12 302.108 526.12ZM302.108 535.96C304.248 535.96 305.488 534.18 305.488 531.7C305.488 529.2 304.248 527.44 302.108 527.44C299.968 527.44 298.728 529.2 298.728 531.7C298.728 534.18 299.968 535.96 302.108 535.96ZM318.166 529.22C318.206 529.76 318.206 530.18 318.206 531.04V537H316.486V531.16C316.486 530.62 316.486 530.18 316.446 529.64C316.346 528.4 315.666 527.48 314.026 527.48C312.366 527.48 310.966 528.72 310.966 532.34V537H309.246V526.4H310.966V528.22L311.626 527C312.526 526.3 313.306 526.12 314.386 526.12C316.706 526.12 318.006 527.36 318.166 529.22ZM322.542 522.3V533.96C322.542 534.28 322.542 534.62 322.562 534.96C322.602 535.64 322.922 535.86 323.862 535.76V537C323.482 537.06 323.042 537.08 322.642 537.08C321.642 537.08 320.902 536.76 320.842 535.42C320.822 535.06 320.822 534.6 320.822 534.02V522.3H322.542ZM326.503 522.92C327.123 522.92 327.603 523.4 327.603 524.02C327.603 524.64 327.123 525.12 326.503 525.12C325.883 525.12 325.403 524.64 325.403 524.02C325.403 523.4 325.883 522.92 326.503 522.92ZM327.363 537H325.643V526.4H327.363V537ZM339.129 529.22C339.169 529.76 339.169 530.18 339.169 531.04V537H337.449V531.16C337.449 530.62 337.449 530.18 337.409 529.64C337.309 528.4 336.629 527.48 334.989 527.48C333.329 527.48 331.929 528.72 331.929 532.34V537H330.209V526.4H331.929V528.22L332.589 527C333.489 526.3 334.269 526.12 335.349 526.12C337.669 526.12 338.969 527.36 339.129 529.22ZM350.564 531.4C350.564 531.56 350.564 531.84 350.524 532.22H342.844C343.004 535.02 344.324 535.96 345.884 535.96C347.264 535.96 348.384 535.1 348.624 533.58H350.424C350.004 536.14 347.984 537.28 345.804 537.28C343.044 537.28 340.984 535.48 340.984 531.74C340.984 528.3 343.124 526.12 346.024 526.12C348.944 526.12 350.564 528.3 350.564 531.4ZM345.984 527.44C344.304 527.44 343.064 528.64 342.864 530.9H348.824C348.664 528.7 347.724 527.44 345.984 527.44ZM357.617 522.92C358.237 522.92 358.717 523.4 358.717 524.02C358.717 524.64 358.237 525.12 357.617 525.12C356.997 525.12 356.517 524.64 356.517 524.02C356.517 523.4 356.997 522.92 357.617 522.92ZM358.477 537H356.757V526.4H358.477V537ZM370.243 529.22C370.283 529.76 370.283 530.18 370.283 531.04V537H368.563V531.16C368.563 530.62 368.563 530.18 368.523 529.64C368.423 528.4 367.743 527.48 366.103 527.48C364.443 527.48 363.043 528.72 363.043 532.34V537H361.323V526.4H363.043V528.22L363.703 527C364.603 526.3 365.383 526.12 366.463 526.12C368.783 526.12 370.083 527.36 370.243 529.22ZM383.535 529.66C385.235 530.14 386.295 531.36 386.295 533.16C386.295 535.74 383.955 537.28 381.295 537.28C378.675 537.28 376.835 536.1 376.535 533.12L376.515 532.92H378.235L378.255 533.12C378.455 535.06 379.775 535.92 381.455 535.92C383.155 535.92 384.375 534.94 384.375 533.26C384.375 531.64 383.335 530.72 381.095 530.72H380.755V529.32H381.095C382.735 529.32 384.055 528.36 384.055 526.62C384.055 525.24 383.075 524.28 381.615 524.28C380.155 524.28 378.975 525.16 378.795 526.98L378.775 527.18H377.055L377.075 526.98C377.335 524.48 379.035 522.92 381.835 522.92C384.375 522.92 385.975 524.34 385.975 526.42C385.975 528 384.975 529.24 383.535 529.66ZM392.816 522.92C396.616 522.92 397.796 526.08 397.796 530.1C397.796 534.1 396.616 537.28 392.816 537.28C389.016 537.28 387.836 534.1 387.836 530.1C387.836 526.08 389.016 522.92 392.816 522.92ZM392.816 535.92C395.016 535.92 395.876 533.7 395.876 530.1C395.876 526.48 395.016 524.28 392.816 524.28C390.616 524.28 389.756 526.48 389.756 530.1C389.756 533.7 390.616 535.92 392.816 535.92ZM407.094 526.12C409.474 526.12 410.774 527.48 410.994 529.42H409.194C408.954 528.18 408.194 527.44 406.954 527.44C405.754 527.44 405.194 528.1 405.194 529.02C405.194 530.08 406.074 530.5 407.514 530.88C409.954 531.52 411.114 532.48 411.114 534.28C411.114 536.28 409.414 537.28 407.174 537.28C404.994 537.28 403.334 536.28 403.014 533.88H404.814C405.094 535.42 406.074 535.96 407.294 535.96C408.434 535.96 409.354 535.44 409.354 534.42C409.354 533.4 408.634 532.86 406.854 532.38C404.954 531.86 403.434 531.08 403.434 529.22C403.434 527.28 404.914 526.12 407.094 526.12ZM421.694 531.4C421.694 531.56 421.694 531.84 421.654 532.22H413.974C414.134 535.02 415.454 535.96 417.014 535.96C418.394 535.96 419.514 535.1 419.754 533.58H421.554C421.134 536.14 419.114 537.28 416.934 537.28C414.174 537.28 412.114 535.48 412.114 531.74C412.114 528.3 414.254 526.12 417.154 526.12C420.074 526.12 421.694 528.3 421.694 531.4ZM417.114 527.44C415.434 527.44 414.194 528.64 413.994 530.9H419.954C419.794 528.7 418.854 527.44 417.114 527.44ZM427.871 526.12C430.411 526.12 432.031 527.64 432.351 529.96H430.551C430.171 528.26 429.251 527.44 427.831 527.44C426.171 527.44 424.771 528.74 424.771 531.6C424.771 534.68 426.131 535.96 427.711 535.96C429.111 535.96 430.091 535.16 430.451 533.62H432.251C431.731 536.08 429.971 537.28 427.611 537.28C424.931 537.28 422.891 535.6 422.891 531.72C422.891 528.14 425.211 526.12 427.871 526.12ZM438.537 526.12C442.137 526.12 443.797 528.7 443.797 531.7C443.797 534.68 442.137 537.28 438.537 537.28C434.937 537.28 433.277 534.68 433.277 531.7C433.277 528.7 434.937 526.12 438.537 526.12ZM438.537 535.96C440.677 535.96 441.917 534.18 441.917 531.7C441.917 529.2 440.677 527.44 438.537 527.44C436.397 527.44 435.157 529.2 435.157 531.7C435.157 534.18 436.397 535.96 438.537 535.96ZM454.595 529.22C454.635 529.76 454.635 530.18 454.635 531.04V537H452.915V531.16C452.915 530.62 452.915 530.18 452.875 529.64C452.775 528.4 452.095 527.48 450.455 527.48C448.795 527.48 447.395 528.72 447.395 532.34V537H445.675V526.4H447.395V528.22L448.055 527C448.955 526.3 449.735 526.12 450.815 526.12C453.135 526.12 454.435 527.36 454.595 529.22ZM466.591 522.3V537H464.871V535.3L464.071 536.44C463.471 536.94 462.351 537.28 461.271 537.28C458.171 537.28 456.451 534.96 456.451 531.86C456.451 527.94 458.891 526.12 461.631 526.12C462.511 526.12 463.631 526.38 464.171 526.82L464.871 527.86V522.3H466.591ZM461.531 535.96C463.291 535.96 464.871 534.84 464.871 531.8V531.22C464.871 528.48 463.151 527.44 461.631 527.44C459.771 527.44 458.331 528.88 458.331 531.66C458.331 534.06 459.411 535.96 461.531 535.96ZM472.515 526.12C474.895 526.12 476.195 527.48 476.415 529.42H474.615C474.375 528.18 473.615 527.44 472.375 527.44C471.175 527.44 470.615 528.1 470.615 529.02C470.615 530.08 471.495 530.5 472.935 530.88C475.375 531.52 476.535 532.48 476.535 534.28C476.535 536.28 474.835 537.28 472.595 537.28C470.415 537.28 468.755 536.28 468.435 533.88H470.235C470.515 535.42 471.495 535.96 472.715 535.96C473.855 535.96 474.775 535.44 474.775 534.42C474.775 533.4 474.055 532.86 472.275 532.38C470.375 531.86 468.855 531.08 468.855 529.22C468.855 527.28 470.335 526.12 472.515 526.12ZM496.632 526.4L493.252 537H491.212L488.852 528.08L486.492 537H484.452L481.072 526.4H483.052L485.512 535.36L487.832 526.4H489.972L492.332 535.3L494.792 526.4H496.632ZM498.895 522.92C499.515 522.92 499.995 523.4 499.995 524.02C499.995 524.64 499.515 525.12 498.895 525.12C498.275 525.12 497.795 524.64 497.795 524.02C497.795 523.4 498.275 522.92 498.895 522.92ZM499.755 537H498.035V526.4H499.755V537ZM504.66 527.8V533.9C504.66 534.26 504.66 534.44 504.68 534.72C504.76 535.74 505.18 535.96 506.52 535.8V537.06C506.02 537.14 505.54 537.16 505.06 537.16C503.74 537.16 503.06 536.62 502.96 535.3C502.94 535.02 502.94 534.58 502.94 533.98V527.8H501.52V526.48H502.94V524.02H504.66V526.48H506.64V527.8H504.66ZM517.59 529.22C517.63 529.76 517.63 530.18 517.63 531.04V537H515.91V531.16C515.91 530.62 515.91 530.18 515.87 529.64C515.77 528.4 515.09 527.44 513.45 527.48C511.79 527.52 510.39 528.72 510.39 532.34V537H508.67V522.2H510.39V528.22L511.05 527C511.95 526.3 512.73 526.12 513.81 526.12C516.13 526.12 517.43 527.36 517.59 529.22ZM526.502 527.8V533.9C526.502 534.26 526.502 534.44 526.522 534.72C526.602 535.74 527.022 535.96 528.362 535.8V537.06C527.862 537.14 527.382 537.16 526.902 537.16C525.582 537.16 524.902 536.62 524.802 535.3C524.782 535.02 524.782 534.58 524.782 533.98V527.8H523.362V526.48H524.782V524.02H526.502V526.48H528.482V527.8H526.502ZM539.431 529.22C539.471 529.76 539.471 530.18 539.471 531.04V537H537.751V531.16C537.751 530.62 537.751 530.18 537.711 529.64C537.611 528.4 536.931 527.44 535.291 527.48C533.631 527.52 532.231 528.72 532.231 532.34V537H530.511V522.2H532.231V528.22L532.891 527C533.791 526.3 534.571 526.12 535.651 526.12C537.971 526.12 539.271 527.36 539.431 529.22ZM550.867 531.4C550.867 531.56 550.867 531.84 550.827 532.22H543.147C543.307 535.02 544.627 535.96 546.187 535.96C547.567 535.96 548.687 535.1 548.927 533.58H550.727C550.307 536.14 548.287 537.28 546.107 537.28C543.347 537.28 541.287 535.48 541.287 531.74C541.287 528.3 543.427 526.12 546.327 526.12C549.247 526.12 550.867 528.3 550.867 531.4ZM546.287 527.44C544.607 527.44 543.367 528.64 543.167 530.9H549.127C548.967 528.7 548.027 527.44 546.287 527.44ZM563.74 528.7L563.16 531.5H565.18V532.62H562.92L561.98 537H560.82L561.76 532.62H559.94L559 537H557.84L558.78 532.62H556.98V531.5H559.02L559.6 528.7H557.58V527.58H559.84L560.78 523.2H561.94L561 527.58H562.82L563.76 523.2H564.92L563.98 527.58H565.78V528.7H563.74ZM562.6 528.7H560.78L560.18 531.5H562L562.6 528.7ZM575.101 523.2V537H573.381V525.02L569.581 527.28V525.46L572.501 523.64C573.041 523.3 573.521 523.2 574.001 523.2H575.101ZM591.619 532.12H586.539L584.919 537H583.079L588.039 523.2H590.359L595.119 537H593.259L591.619 532.12ZM587.019 530.72H591.159L589.159 524.56L587.019 530.72ZM598.793 537H597.073V523.2H598.793V537ZM151.58 556.4L148.2 567H146.16L143.8 558.08L141.44 567H139.4L136.02 556.4H138L140.46 565.36L142.78 556.4H144.92L147.28 565.3L149.74 556.4H151.58ZM161.683 561.4C161.683 561.56 161.683 561.84 161.643 562.22H153.963C154.123 565.02 155.443 565.96 157.003 565.96C158.383 565.96 159.503 565.1 159.743 563.58H161.543C161.123 566.14 159.103 567.28 156.923 567.28C154.163 567.28 152.103 565.48 152.103 561.74C152.103 558.3 154.243 556.12 157.143 556.12C160.063 556.12 161.683 558.3 161.683 561.4ZM157.103 557.44C155.423 557.44 154.183 558.64 153.983 560.9H159.943C159.783 558.7 158.843 557.44 157.103 557.44ZM169.08 556.12C172.18 556.12 173.9 558.44 173.9 561.54C173.9 565.46 171.46 567.28 168.72 567.28C167.84 567.28 166.72 567.02 166.18 566.58L165.48 565.54V567H163.76V552.3H165.48V558.1L166.28 556.96C166.88 556.46 168 556.12 169.08 556.12ZM168.72 565.96C170.58 565.96 172.02 564.52 172.02 561.74C172.02 559.34 170.94 557.44 168.82 557.44C167.06 557.44 165.48 558.56 165.48 561.6V562.18C165.48 564.92 167.2 565.96 168.72 565.96ZM178.866 556.12C181.246 556.12 182.546 557.48 182.766 559.42H180.966C180.726 558.18 179.966 557.44 178.726 557.44C177.526 557.44 176.966 558.1 176.966 559.02C176.966 560.08 177.846 560.5 179.286 560.88C181.726 561.52 182.886 562.48 182.886 564.28C182.886 566.28 181.186 567.28 178.946 567.28C176.766 567.28 175.106 566.28 174.786 563.88H176.586C176.866 565.42 177.846 565.96 179.066 565.96C180.206 565.96 181.126 565.44 181.126 564.42C181.126 563.4 180.406 562.86 178.626 562.38C176.726 561.86 175.206 561.08 175.206 559.22C175.206 557.28 176.686 556.12 178.866 556.12ZM185.626 552.92C186.246 552.92 186.726 553.4 186.726 554.02C186.726 554.64 186.246 555.12 185.626 555.12C185.006 555.12 184.526 554.64 184.526 554.02C184.526 553.4 185.006 552.92 185.626 552.92ZM186.486 567H184.766V556.4H186.486V567ZM191.392 557.8V563.9C191.392 564.26 191.392 564.44 191.412 564.72C191.492 565.74 191.912 565.96 193.252 565.8V567.06C192.752 567.14 192.272 567.16 191.792 567.16C190.472 567.16 189.792 566.62 189.692 565.3C189.672 565.02 189.672 564.58 189.672 563.98V557.8H188.252V556.48H189.672V554.02H191.392V556.48H193.372V557.8H191.392ZM203.847 561.4C203.847 561.56 203.847 561.84 203.807 562.22H196.127C196.287 565.02 197.607 565.96 199.167 565.96C200.547 565.96 201.667 565.1 201.907 563.58H203.707C203.287 566.14 201.267 567.28 199.087 567.28C196.327 567.28 194.267 565.48 194.267 561.74C194.267 558.3 196.407 556.12 199.307 556.12C202.227 556.12 203.847 558.3 203.847 561.4ZM199.267 557.44C197.587 557.44 196.347 558.64 196.147 560.9H202.107C201.947 558.7 201.007 557.44 199.267 557.44ZM215.36 556.12C218.46 556.12 220.18 558.44 220.18 561.54C220.18 565.46 217.74 567.28 215 567.28C214.12 567.28 213 567.02 212.46 566.58L211.76 565.54V567H210.04V552.3H211.76V558.1L212.56 556.96C213.16 556.46 214.28 556.12 215.36 556.12ZM215 565.96C216.86 565.96 218.3 564.52 218.3 561.74C218.3 559.34 217.22 557.44 215.1 557.44C213.34 557.44 211.76 558.56 211.76 561.6V562.18C211.76 564.92 213.48 565.96 215 565.96ZM230.867 556.4V567H229.147V565.2L228.487 566.44C227.587 567.1 226.807 567.28 225.727 567.28C223.527 567.28 222.247 566.04 222.007 564.58C221.927 564.04 221.907 563.62 221.907 562.76V556.4H223.627V562.44C223.627 562.78 223.647 563.36 223.707 563.9C223.867 565.1 224.727 565.92 226.167 565.92C227.827 565.92 229.147 564.68 229.147 561.06V556.4H230.867ZM234.563 552.92C235.183 552.92 235.663 553.4 235.663 554.02C235.663 554.64 235.183 555.12 234.563 555.12C233.943 555.12 233.463 554.64 233.463 554.02C233.463 553.4 233.943 552.92 234.563 552.92ZM235.423 567H233.703V556.4H235.423V567ZM239.908 552.3V563.96C239.908 564.28 239.908 564.62 239.928 564.96C239.968 565.64 240.288 565.86 241.228 565.76V567C240.848 567.06 240.408 567.08 240.008 567.08C239.008 567.08 238.268 566.76 238.208 565.42C238.188 565.06 238.188 564.6 238.188 564.02V552.3H239.908ZM252.27 552.3V567H250.55V565.3L249.75 566.44C249.15 566.94 248.03 567.28 246.95 567.28C243.85 567.28 242.13 564.96 242.13 561.86C242.13 557.94 244.57 556.12 247.31 556.12C248.19 556.12 249.31 556.38 249.85 556.82L250.55 557.86V552.3H252.27ZM247.21 565.96C248.97 565.96 250.55 564.84 250.55 561.8V561.22C250.55 558.48 248.83 557.44 247.31 557.44C245.45 557.44 244.01 558.88 244.01 561.66C244.01 564.06 245.09 565.96 247.21 565.96ZM263.814 561.4C263.814 561.56 263.814 561.84 263.774 562.22H256.094C256.254 565.02 257.574 565.96 259.134 565.96C260.514 565.96 261.634 565.1 261.874 563.58H263.674C263.254 566.14 261.234 567.28 259.054 567.28C256.294 567.28 254.234 565.48 254.234 561.74C254.234 558.3 256.374 556.12 259.274 556.12C262.194 556.12 263.814 558.3 263.814 561.4ZM259.234 557.44C257.554 557.44 256.314 558.64 256.114 560.9H262.074C261.914 558.7 260.974 557.44 259.234 557.44ZM270.051 556.16C270.331 556.16 270.571 556.2 270.771 556.3V557.6C268.971 557.48 267.611 558.54 267.611 560.96V567H265.891V556.4H267.611V558.06L268.571 556.64C269.011 556.34 269.551 556.16 270.051 556.16ZM282.489 567L282.309 565.48L281.729 566.62C281.009 567.12 280.089 567.28 279.069 567.28C277.149 567.28 275.649 566.22 275.649 564.26C275.649 561.86 277.449 560.62 281.609 560.62H282.289V560.34C282.289 559.88 282.289 559.46 282.249 559.06C282.169 558.08 281.609 557.44 280.189 557.44C278.749 557.44 278.029 558.22 277.909 559.68H276.109C276.269 557.42 277.849 556.12 280.189 556.12C282.709 556.12 283.769 557.18 283.949 558.92C283.989 559.34 284.009 559.86 284.009 560.32V564.3C284.009 565.1 284.049 565.82 284.209 567H282.489ZM279.649 565.96C281.249 565.96 282.289 564.9 282.289 562.98V561.9C279.369 561.68 277.529 562.3 277.529 564.12C277.529 565.4 278.349 565.96 279.649 565.96ZM295.754 559.22C295.794 559.76 295.794 560.18 295.794 561.04V567H294.074V561.16C294.074 560.62 294.074 560.18 294.034 559.64C293.934 558.4 293.254 557.48 291.614 557.48C289.954 557.48 288.554 558.72 288.554 562.34V567H286.834V556.4H288.554V558.22L289.214 557C290.114 556.3 290.894 556.12 291.974 556.12C294.294 556.12 295.594 557.36 295.754 559.22ZM307.749 552.3V567H306.029V565.3L305.229 566.44C304.629 566.94 303.509 567.28 302.429 567.28C299.329 567.28 297.609 564.96 297.609 561.86C297.609 557.94 300.049 556.12 302.789 556.12C303.669 556.12 304.789 556.38 305.329 556.82L306.029 557.86V552.3H307.749ZM302.689 565.96C304.449 565.96 306.029 564.84 306.029 561.8V561.22C306.029 558.48 304.309 557.44 302.789 557.44C300.929 557.44 299.489 558.88 299.489 561.66C299.489 564.06 300.569 565.96 302.689 565.96ZM328.81 558.7C328.89 559.24 328.91 559.66 328.91 560.52V567H327.19V561.32C327.19 560.38 327.17 559.8 327.11 559.26C326.95 558.06 326.19 557.48 324.99 557.48C323.65 557.48 322.67 558.54 322.67 561.76V567H320.95V561.32C320.95 560.38 320.93 559.8 320.87 559.26C320.71 558.06 319.95 557.48 318.75 557.48C317.41 557.48 316.43 558.54 316.43 561.76V567H314.71V556.4H316.43V557.94L317.11 556.74C317.65 556.3 318.41 556.12 319.35 556.12C320.97 556.12 322.01 556.94 322.41 558.1L323.35 556.74C323.89 556.3 324.65 556.12 325.59 556.12C327.49 556.12 328.57 557.24 328.81 558.7ZM337.7 567L337.52 565.48L336.94 566.62C336.22 567.12 335.3 567.28 334.28 567.28C332.36 567.28 330.86 566.22 330.86 564.26C330.86 561.86 332.66 560.62 336.82 560.62H337.5V560.34C337.5 559.88 337.5 559.46 337.46 559.06C337.38 558.08 336.82 557.44 335.4 557.44C333.96 557.44 333.24 558.22 333.12 559.68H331.32C331.48 557.42 333.06 556.12 335.4 556.12C337.92 556.12 338.98 557.18 339.16 558.92C339.2 559.34 339.22 559.86 339.22 560.32V564.3C339.22 565.1 339.26 565.82 339.42 567H337.7ZM334.86 565.96C336.46 565.96 337.5 564.9 337.5 562.98V561.9C334.58 561.68 332.74 562.3 332.74 564.12C332.74 565.4 333.56 565.96 334.86 565.96ZM346.205 556.16C346.485 556.16 346.725 556.2 346.925 556.3V557.6C345.125 557.48 343.765 558.54 343.765 560.96V567H342.045V556.4H343.765V558.06L344.725 556.64C345.165 556.34 345.705 556.16 346.205 556.16ZM355.026 567L351.166 562.52L350.166 563.62V567H348.446V552.3H350.166V561.74L355.106 556.4H357.306L352.366 561.4L357.366 567H355.026ZM367.22 561.4C367.22 561.56 367.22 561.84 367.18 562.22H359.5C359.66 565.02 360.98 565.96 362.54 565.96C363.92 565.96 365.04 565.1 365.28 563.58H367.08C366.66 566.14 364.64 567.28 362.46 567.28C359.7 567.28 357.64 565.48 357.64 561.74C357.64 558.3 359.78 556.12 362.68 556.12C365.6 556.12 367.22 558.3 367.22 561.4ZM362.64 557.44C360.96 557.44 359.72 558.64 359.52 560.9H365.48C365.32 558.7 364.38 557.44 362.64 557.44ZM371.356 557.8V563.9C371.356 564.26 371.356 564.44 371.376 564.72C371.456 565.74 371.876 565.96 373.216 565.8V567.06C372.716 567.14 372.236 567.16 371.756 567.16C370.436 567.16 369.756 566.62 369.656 565.3C369.636 565.02 369.636 564.58 369.636 563.98V557.8H368.216V556.48H369.636V554.02H371.356V556.48H373.336V557.8H371.356ZM376.226 552.92C376.846 552.92 377.326 553.4 377.326 554.02C377.326 554.64 376.846 555.12 376.226 555.12C375.606 555.12 375.126 554.64 375.126 554.02C375.126 553.4 375.606 552.92 376.226 552.92ZM377.086 567H375.366V556.4H377.086V567ZM388.852 559.22C388.892 559.76 388.892 560.18 388.892 561.04V567H387.172V561.16C387.172 560.62 387.172 560.18 387.132 559.64C387.032 558.4 386.352 557.48 384.712 557.48C383.052 557.48 381.652 558.72 381.652 562.34V567H379.932V556.4H381.652V558.22L382.312 557C383.212 556.3 383.992 556.12 385.072 556.12C387.392 556.12 388.692 557.36 388.852 559.22ZM400.847 556.4V564.4C400.847 565.06 400.847 565.88 400.827 566.46C400.727 569.56 398.847 571.2 395.787 571.2C392.767 571.2 391.267 569.94 391.047 567.7L391.027 567.5H392.767L392.787 567.68C392.927 568.98 393.967 569.88 395.787 569.88C397.887 569.88 399.027 568.68 399.107 566.64C399.127 566.14 399.127 565.8 399.127 565.48V565.3L398.327 566.44C397.727 566.94 396.607 567.28 395.527 567.28C392.427 567.28 390.707 564.96 390.707 561.86C390.707 557.94 393.147 556.12 395.887 556.12C396.767 556.12 397.887 556.38 398.427 556.82L399.127 557.86V556.4H400.847ZM395.787 565.96C397.547 565.96 399.127 564.84 399.127 561.8V561.22C399.127 558.48 397.407 557.44 395.887 557.44C394.027 557.44 392.587 558.88 392.587 561.66C392.587 564.06 393.667 565.96 395.787 565.96ZM413.128 556.12C416.228 556.12 417.948 558.44 417.948 561.54C417.948 565.46 415.508 567.28 412.768 567.28C411.888 567.28 410.768 567.02 410.228 566.58L409.528 565.54V570.92H407.808V556.4H409.528V558.1L410.328 556.96C410.928 556.46 412.048 556.12 413.128 556.12ZM412.768 565.96C414.628 565.96 416.068 564.52 416.068 561.74C416.068 559.34 414.988 557.44 412.868 557.44C411.108 557.44 409.528 558.56 409.528 561.6V562.18C409.528 564.92 411.248 565.96 412.768 565.96ZM421.475 552.3V563.96C421.475 564.28 421.475 564.62 421.495 564.96C421.535 565.64 421.855 565.86 422.795 565.76V567C422.415 567.06 421.975 567.08 421.575 567.08C420.575 567.08 419.835 566.76 419.775 565.42C419.755 565.06 419.755 564.6 419.755 564.02V552.3H421.475ZM431.008 567L430.828 565.48L430.248 566.62C429.528 567.12 428.608 567.28 427.588 567.28C425.668 567.28 424.168 566.22 424.168 564.26C424.168 561.86 425.968 560.62 430.128 560.62H430.808V560.34C430.808 559.88 430.808 559.46 430.768 559.06C430.688 558.08 430.128 557.44 428.708 557.44C427.268 557.44 426.548 558.22 426.428 559.68H424.628C424.788 557.42 426.368 556.12 428.708 556.12C431.228 556.12 432.288 557.18 432.468 558.92C432.508 559.34 432.528 559.86 432.528 560.32V564.3C432.528 565.1 432.568 565.82 432.728 567H431.008ZM428.168 565.96C429.768 565.96 430.808 564.9 430.808 562.98V561.9C427.888 561.68 426.048 562.3 426.048 564.12C426.048 565.4 426.868 565.96 428.168 565.96ZM437.413 557.8V563.9C437.413 564.26 437.413 564.44 437.433 564.72C437.513 565.74 437.933 565.96 439.273 565.8V567.06C438.773 567.14 438.293 567.16 437.813 567.16C436.493 567.16 435.813 566.62 435.713 565.3C435.693 565.02 435.693 564.58 435.693 563.98V557.8H434.273V556.48H435.693V554.02H437.413V556.48H439.393V557.8H437.413ZM443.282 554.36C443.242 554.64 443.222 555.14 443.222 555.44V556.48H445.402V557.8H443.222V567H441.502V557.8H440.362V556.48H441.502V555.6C441.502 555.2 441.522 554.68 441.562 554.32C441.742 552.78 442.782 551.92 444.362 551.92C444.802 551.92 445.222 551.96 445.582 552.02V553.44C444.282 553.2 443.422 553.5 443.282 554.36ZM451.403 556.12C455.003 556.12 456.663 558.7 456.663 561.7C456.663 564.68 455.003 567.28 451.403 567.28C447.803 567.28 446.143 564.68 446.143 561.7C446.143 558.7 447.803 556.12 451.403 556.12ZM451.403 565.96C453.543 565.96 454.783 564.18 454.783 561.7C454.783 559.2 453.543 557.44 451.403 557.44C449.263 557.44 448.023 559.2 448.023 561.7C448.023 564.18 449.263 565.96 451.403 565.96ZM462.702 556.16C462.982 556.16 463.222 556.2 463.422 556.3V557.6C461.622 557.48 460.262 558.54 460.262 560.96V567H458.542V556.4H460.262V558.06L461.222 556.64C461.662 556.34 462.202 556.16 462.702 556.16ZM479.043 558.7C479.123 559.24 479.143 559.66 479.143 560.52V567H477.423V561.32C477.423 560.38 477.403 559.8 477.343 559.26C477.183 558.06 476.423 557.48 475.223 557.48C473.883 557.48 472.903 558.54 472.903 561.76V567H471.183V561.32C471.183 560.38 471.163 559.8 471.103 559.26C470.943 558.06 470.183 557.48 468.983 557.48C467.643 557.48 466.663 558.54 466.663 561.76V567H464.943V556.4H466.663V557.94L467.343 556.74C467.883 556.3 468.643 556.12 469.583 556.12C471.203 556.12 472.243 556.94 472.643 558.1L473.583 556.74C474.123 556.3 474.883 556.12 475.823 556.12C477.723 556.12 478.803 557.24 479.043 558.7ZM482.393 564.72C483.133 564.72 483.673 565.26 483.673 566C483.673 566.74 483.133 567.28 482.393 567.28C481.653 567.28 481.113 566.74 481.113 566C481.113 565.26 481.653 564.72 482.393 564.72Z" fill="#000103" fill-opacity="0.8"/>
<rect x="136" y="616" width="224" height="56" rx="8" fill="#0030AD"/>
<path d="M170.48 643.868H174.928V649.5H173.152L173.008 647.708L172.512 648.828C171.888 649.436 171.04 649.724 169.824 649.724C166.752 649.724 164.816 647.548 164.816 644.044C164.816 640.428 167.168 638.236 170.256 638.236C173.248 638.236 174.8 639.868 175.024 642.044L175.04 642.204H172.832L172.8 642.044C172.528 640.684 171.696 639.884 170.224 639.884C168.432 639.884 167.152 641.404 167.152 643.916C167.152 646.668 168.432 648.076 170.16 648.076C171.584 648.076 172.592 647.148 172.816 645.596H170.48V643.868ZM184.373 645.068C184.373 645.276 184.373 645.532 184.341 645.82H178.293C178.437 647.612 179.237 648.172 180.261 648.172C181.205 648.172 181.893 647.644 182.037 646.732H184.245C183.813 648.716 182.213 649.724 180.213 649.724C177.877 649.724 176.069 648.268 176.069 645.276C176.069 642.668 177.781 640.764 180.389 640.764C182.997 640.764 184.373 642.748 184.373 645.068ZM180.293 642.316C179.269 642.316 178.549 642.972 178.357 644.38H182.101C181.957 643.036 181.349 642.316 180.293 642.316ZM193.671 643.148C193.719 643.58 193.735 644.012 193.735 644.7V649.5H191.527V645.004C191.527 644.652 191.527 644.252 191.495 643.82C191.431 642.924 190.935 642.316 189.863 642.316C188.791 642.316 187.943 643.244 187.943 645.612V649.5H185.735V640.988H187.943V642.364L188.599 641.356C189.207 640.924 189.831 640.764 190.647 640.764C192.455 640.764 193.495 641.66 193.671 643.148ZM203.24 645.068C203.24 645.276 203.24 645.532 203.208 645.82H197.16C197.304 647.612 198.104 648.172 199.128 648.172C200.072 648.172 200.76 647.644 200.904 646.732H203.112C202.68 648.716 201.08 649.724 199.08 649.724C196.744 649.724 194.936 648.268 194.936 645.276C194.936 642.668 196.648 640.764 199.256 640.764C201.864 640.764 203.24 642.748 203.24 645.068ZM199.16 642.316C198.136 642.316 197.416 642.972 197.224 644.38H200.968C200.824 643.036 200.216 642.316 199.16 642.316ZM208.938 640.78C209.194 640.78 209.37 640.796 209.562 640.844V642.62C207.722 642.492 206.81 643.308 206.81 645.596V649.5H204.602V640.988H206.81V642.54L207.482 641.356C207.898 640.972 208.458 640.78 208.938 640.78ZM215.465 649.5L215.305 648.252L214.889 649.164C214.297 649.564 213.577 649.724 212.777 649.724C211.305 649.724 210.041 648.86 210.041 647.244C210.041 645.372 211.641 644.316 214.729 644.316H215.273V644.14C215.273 643.884 215.273 643.628 215.241 643.34C215.177 642.748 214.793 642.316 213.929 642.316C213.049 642.316 212.569 642.828 212.505 643.756L210.361 643.772C210.425 641.852 211.977 640.764 214.009 640.764C216.393 640.764 217.289 641.804 217.417 643.276C217.449 643.676 217.465 644.124 217.465 644.588V647.34C217.465 647.98 217.497 648.556 217.625 649.5H215.465ZM213.625 648.172C214.521 648.172 215.273 647.548 215.273 646.364V645.676C213.513 645.548 212.329 645.948 212.329 647.068C212.329 647.82 212.841 648.172 213.625 648.172ZM221.985 642.508V646.444C221.985 646.732 221.985 646.972 222.001 647.196C222.065 648.028 222.369 648.22 223.601 648.124V649.564C223.105 649.644 222.641 649.676 222.145 649.676C220.497 649.676 219.905 649.132 219.809 647.932C219.777 647.548 219.777 647.18 219.777 646.7V642.508H218.529V641.052H219.777V638.956H221.985V641.052H223.745V642.508H221.985ZM232.554 645.068C232.554 645.276 232.554 645.532 232.522 645.82H226.474C226.618 647.612 227.418 648.172 228.442 648.172C229.386 648.172 230.074 647.644 230.218 646.732H232.426C231.994 648.716 230.394 649.724 228.394 649.724C226.058 649.724 224.25 648.268 224.25 645.276C224.25 642.668 225.962 640.764 228.57 640.764C231.178 640.764 232.554 642.748 232.554 645.068ZM228.474 642.316C227.45 642.316 226.73 642.972 226.538 644.38H230.282C230.138 643.036 229.53 642.316 228.474 642.316ZM244.929 640.988L241.505 649.82C240.609 652.124 239.681 652.86 237.953 652.86C237.553 652.86 237.281 652.844 236.961 652.796V651.276C237.185 651.308 237.393 651.308 237.617 651.308C238.369 651.308 238.865 651.02 239.217 650.172L239.329 649.9L235.857 640.988H238.321L240.433 647.82L242.513 640.988H244.929ZM249.311 640.764C252.143 640.764 253.727 642.652 253.727 645.244C253.727 647.82 252.143 649.724 249.311 649.724C246.479 649.724 244.895 647.82 244.895 645.244C244.895 642.652 246.479 640.764 249.311 640.764ZM249.311 648.172C250.639 648.172 251.439 647.068 251.439 645.244C251.439 643.404 250.639 642.316 249.311 642.316C247.983 642.316 247.183 643.404 247.183 645.244C247.183 647.068 247.983 648.172 249.311 648.172ZM262.87 640.988V649.5H260.662V648.06L260.006 649.148C259.382 649.564 258.774 649.724 257.958 649.724C256.198 649.724 255.142 648.732 254.95 647.564C254.886 647.132 254.87 646.7 254.87 646.012V640.988H257.078V645.548C257.078 645.82 257.094 646.284 257.142 646.716C257.254 647.596 257.766 648.156 258.79 648.156C259.894 648.156 260.662 647.244 260.662 645.324V640.988H262.87ZM269.08 640.78C269.336 640.78 269.512 640.796 269.704 640.844V642.62C267.864 642.492 266.952 643.308 266.952 645.596V649.5H264.744V640.988H266.952V642.54L267.624 641.356C268.04 640.972 268.6 640.78 269.08 640.78ZM285.916 640.988L283.212 649.5H280.716L279.276 643.02L277.82 649.5H275.308L272.604 640.988H275.068L276.572 647.66L277.964 641.02H280.62L282.06 647.644L283.548 640.988H285.916ZM294.477 645.068C294.477 645.276 294.477 645.532 294.445 645.82H288.397C288.541 647.612 289.341 648.172 290.365 648.172C291.309 648.172 291.997 647.644 292.141 646.732H294.349C293.917 648.716 292.317 649.724 290.317 649.724C287.981 649.724 286.173 648.268 286.173 645.276C286.173 642.668 287.885 640.764 290.493 640.764C293.101 640.764 294.477 642.748 294.477 645.068ZM290.397 642.316C289.373 642.316 288.653 642.972 288.461 644.38H292.205C292.061 643.036 291.453 642.316 290.397 642.316ZM300.895 640.764C303.279 640.764 304.687 642.572 304.687 645.084C304.687 648.156 302.799 649.724 300.607 649.724C299.903 649.724 299.039 649.548 298.607 649.244L298.047 648.364V649.5H295.839V637.74H298.047V642.284L298.687 641.356C299.167 640.972 300.031 640.764 300.895 640.764ZM300.175 648.172C301.455 648.172 302.399 647.196 302.399 645.228C302.399 643.484 301.567 642.316 300.255 642.316C299.039 642.316 298.047 643.068 298.047 645.148V645.548C298.047 647.484 299.151 648.172 300.175 648.172ZM309 640.764C311.032 640.764 312.184 641.9 312.376 643.452H310.168C310.024 642.668 309.592 642.22 308.856 642.22C308.2 642.22 307.848 642.604 307.848 643.132C307.848 643.772 308.376 644.108 309.784 644.46C311.528 644.908 312.552 645.612 312.552 647.18C312.552 648.892 311 649.724 309.048 649.724C306.984 649.724 305.528 648.828 305.288 646.908H307.496C307.672 647.836 308.312 648.268 309.08 648.268C309.784 648.268 310.328 647.964 310.328 647.34C310.328 646.684 309.768 646.316 308.296 645.948C306.712 645.548 305.624 644.86 305.624 643.388C305.624 641.756 306.968 640.764 309 640.764ZM314.857 637.82C315.577 637.82 316.073 638.3 316.073 638.988C316.073 639.692 315.577 640.156 314.857 640.156C314.137 640.156 313.641 639.692 313.641 638.988C313.641 638.3 314.137 637.82 314.857 637.82ZM315.961 649.5H313.753V640.988H315.961V649.5ZM320.483 642.508V646.444C320.483 646.732 320.483 646.972 320.499 647.196C320.563 648.028 320.867 648.22 322.099 648.124V649.564C321.603 649.644 321.139 649.676 320.643 649.676C318.995 649.676 318.403 649.132 318.307 647.932C318.275 647.548 318.275 647.18 318.275 646.7V642.508H317.027V641.052H318.275V638.956H320.483V641.052H322.243V642.508H320.483ZM331.052 645.068C331.052 645.276 331.052 645.532 331.02 645.82H324.972C325.116 647.612 325.916 648.172 326.94 648.172C327.884 648.172 328.572 647.644 328.716 646.732H330.924C330.492 648.716 328.892 649.724 326.892 649.724C324.556 649.724 322.748 648.268 322.748 645.276C322.748 642.668 324.46 640.764 327.068 640.764C329.676 640.764 331.052 642.748 331.052 645.068ZM326.972 642.316C325.948 642.316 325.228 642.972 325.036 644.38H328.78C328.636 643.036 328.028 642.316 326.972 642.316Z" fill="white"/>
<path opacity="0.5" d="M1312.93 -469.356C1124.07 -587.017 759.595 -605.018 759.595 -605.018C759.595 -605.018 1368.24 -793.301 1625.1 -573.151C1827.63 -399.56 1899.95 -139.761 1858.99 68.7396C1818.04 277.24 1761.99 521.662 1533.18 574.058C1123.63 667.837 1181.27 875.427 1157.31 1012H715C715 1012 715 701.525 1172.78 503.04C1424.8 393.768 1688.15 317.505 1705.19 43.2461C1720.82 -208.377 1526.85 -336.086 1312.93 -469.356Z" fill="url(#paint0_linear_47_342)"/>
<path opacity="0.5" d="M1400.93 -469.356C1212.07 -587.017 847.595 -605.018 847.595 -605.018C847.595 -605.018 1456.24 -793.301 1713.1 -573.151C1915.63 -399.56 1987.95 -139.761 1946.99 68.7396C1906.04 277.24 1815.98 515.515 1585.5 560C1228 629 1268 789 1245.31 1012H803C803 1012 803 701.525 1260.78 503.04C1512.8 393.768 1776.15 317.505 1793.19 43.2461C1808.82 -208.377 1614.85 -336.086 1400.93 -469.356Z" fill="url(#paint1_linear_47_342)"/>
<g opacity="0.6">
<rect opacity="0.55" x="899.626" y="234" width="68.7192" height="502" fill="url(#paint2_linear_47_342)"/>
<rect opacity="0.55" x="983.005" y="234" width="68.7192" height="502" fill="url(#paint3_linear_47_342)"/>
<rect opacity="0.55" x="1065.47" y="234" width="68.7192" height="502" fill="url(#paint4_linear_47_342)"/>
<rect opacity="0.55" x="1148.85" y="234" width="68.7192" height="502" fill="url(#paint5_linear_47_342)"/>
<rect opacity="0.55" x="1232.23" y="234" width="68.7192" height="502" fill="url(#paint6_linear_47_342)"/>
</g>
<path d="M858 258.33L1337.2 258.33M858 294.064L1337.2 294.064M858 329.798L1337.2 329.798M858 365.532L1337.2 365.532M858 401.266L1337.2 401.266M858 437L1337.2 437M858 472.734L1337.2 472.734M858 508.468L1337.2 508.468M858 544.202L1337.2 544.202M858 579.936L1337.2 579.936M858 615.67L1337.2 615.67M858 651.404L1337.2 651.404M858 687.138L1337.2 687.138M858 722.872L1337.2 722.872" stroke="url(#paint7_linear_47_342)" stroke-opacity="0.1" stroke-width="0.916256"/>
<path d="M1329.87 251L1329.87 730.202M1294.14 251L1294.14 730.202M1258.4 251L1258.4 730.202M1222.67 251L1222.67 730.202M1186.94 251L1186.94 730.202M1151.2 251L1151.2 730.202M1115.47 251L1115.47 730.202M1079.73 251L1079.73 730.202M1044 251L1044 730.202M1008.27 251L1008.27 730.202M972.532 251L972.532 730.202M936.798 251L936.798 730.202M901.064 251L901.064 730.202M865.33 251L865.33 730.202" stroke="url(#paint8_linear_47_342)" stroke-opacity="0.1" stroke-width="0.916256"/>
<rect x="934" y="388" width="330" height="329" rx="29.3202" fill="#E9EDFF" fill-opacity="0.27"/>
<rect x="934.5" y="388.5" width="329" height="328" rx="28.8202" stroke="white" stroke-opacity="0.89"/>
<rect x="915.5" y="337.5" width="367" height="366" rx="28.8202" fill="#EFF3FF" stroke="white"/>
<rect x="896.877" y="286.217" width="404.069" height="404.069" rx="29.3202" fill="white"/>
<rect x="928.946" y="637.143" width="56.8079" height="12.8276" rx="6.41379" fill="#DBE0F8"/>
<rect x="928.946" y="427.32" width="56.8079" height="12.8276" rx="6.41379" fill="#DBE0F8"/>
<rect x="928.946" y="452.975" width="122.778" height="12.8276" rx="6.41379" fill="#DBE0F8"/>
<rect x="928.946" y="478.631" width="100.788" height="24.7389" rx="12.3695" fill="#DBE0F8"/>
<rect x="916.118" y="387.005" width="365.586" height="159.429" rx="10.9951" fill="#E1E7FC" fill-opacity="0.44"/>
<rect x="917.08" y="562.498" width="112.99" height="104.759" rx="10.9951" fill="#E1E7FC" fill-opacity="0.44"/>
<rect x="1038.9" y="359.517" width="33.9015" height="12.8276" rx="6.41379" fill="#04030D" fill-opacity="0.53"/>
<rect x="1081.96" y="359.517" width="33.9015" height="12.8276" rx="6.41379" fill="#04030D" fill-opacity="0.53"/>
<rect x="1125.02" y="359.517" width="33.9015" height="12.8276" rx="6.41379" fill="#04030D" fill-opacity="0.53"/>
<rect x="1247.8" y="359.517" width="33.9015" height="12.8276" rx="6.41379" fill="#679887"/>
<rect x="917.034" y="359.517" width="33.9015" height="12.8276" rx="6.41379" fill="#F2F4FE"/>
<rect x="1042.04" y="562.498" width="112.99" height="104.759" rx="10.9951" fill="#E1E7FC" fill-opacity="0.44"/>
<rect x="1055.39" y="638.059" width="56.8079" height="12.8276" rx="6.41379" fill="#DBE0F8"/>
<rect x="1167" y="562.498" width="112.99" height="104.759" rx="10.9951" fill="#E1E7FC" fill-opacity="0.44"/>
<rect x="1181.83" y="638.059" width="56.8079" height="12.8276" rx="6.41379" fill="#DBE0F8"/>
<circle cx="922.074" cy="315.079" r="5.03941" fill="#C8563A"/>
<circle cx="938.567" cy="315.079" r="5.03941" fill="#E5C364"/>
<circle cx="955.059" cy="315.079" r="5.03941" fill="#507743"/>
<rect x="808" y="444.729" width="161.261" height="161.261" rx="21.0739" fill="white"/>
<rect x="827" y="463" width="61.5237" height="25.3997" rx="12.6998" fill="#F2F2F2"/>
<path d="M839.955 471.403V479.7H838.296V473.146L835.879 474.481V472.918L837.803 471.776C838.248 471.523 838.68 471.403 839.137 471.403H839.955ZM845.198 471.235C847.542 471.235 848.42 472.93 848.42 475.551C848.42 478.149 847.542 479.868 845.198 479.868C842.841 479.868 841.963 478.149 841.963 475.551C841.963 472.93 842.841 471.235 845.198 471.235ZM845.198 478.63C846.208 478.63 846.665 477.644 846.665 475.551C846.665 473.435 846.208 472.473 845.198 472.473C844.176 472.473 843.719 473.435 843.719 475.551C843.719 477.644 844.176 478.63 845.198 478.63ZM852.232 471.235C854.577 471.235 855.455 472.93 855.455 475.551C855.455 478.149 854.577 479.868 852.232 479.868C849.875 479.868 848.997 478.149 848.997 475.551C848.997 472.93 849.875 471.235 852.232 471.235ZM852.232 478.63C853.242 478.63 853.699 477.644 853.699 475.551C853.699 473.435 853.242 472.473 852.232 472.473C851.21 472.473 850.753 473.435 850.753 475.551C850.753 477.644 851.21 478.63 852.232 478.63ZM857.787 471.259C858.942 471.259 859.651 471.992 859.651 473.231C859.651 474.469 858.942 475.215 857.787 475.215C856.645 475.215 855.935 474.469 855.935 473.231C855.935 471.992 856.645 471.259 857.787 471.259ZM858.076 479.7H856.789L862.176 471.403H863.463L858.076 479.7ZM857.787 472.136C857.342 472.136 857.102 472.521 857.102 473.231C857.102 473.94 857.342 474.337 857.787 474.337C858.232 474.337 858.485 473.94 858.485 473.231C858.485 472.521 858.232 472.136 857.787 472.136ZM862.393 475.912C863.547 475.912 864.256 476.646 864.256 477.884C864.256 479.123 863.547 479.868 862.393 479.868C861.25 479.868 860.529 479.123 860.529 477.884C860.529 476.646 861.25 475.912 862.393 475.912ZM862.393 476.79C861.948 476.79 861.707 477.175 861.707 477.884C861.707 478.594 861.948 478.99 862.393 478.99C862.838 478.99 863.078 478.594 863.078 477.884C863.078 477.175 862.838 476.79 862.393 476.79Z" fill="#04030D" fill-opacity="0.7"/>
<path d="M874.815 472.258C874.815 472.358 874.854 472.453 874.925 472.524C874.995 472.594 875.091 472.634 875.191 472.634L877.637 472.634L871.377 478.89C871.307 478.96 871.267 479.056 871.267 479.155C871.267 479.254 871.307 479.35 871.377 479.42C871.412 479.455 871.453 479.483 871.499 479.502C871.545 479.521 871.594 479.531 871.643 479.531C871.693 479.531 871.742 479.521 871.788 479.502C871.834 479.483 871.875 479.455 871.91 479.42L878.159 473.171L878.159 475.598C878.159 475.698 878.199 475.794 878.269 475.864C878.34 475.935 878.435 475.974 878.535 475.974C878.635 475.974 878.73 475.935 878.801 475.864C878.871 475.794 878.911 475.698 878.911 475.598L878.911 472.217C878.911 472.127 878.875 472.041 878.812 471.977C878.748 471.914 878.662 471.878 878.573 471.878L875.191 471.878C875.141 471.878 875.092 471.888 875.046 471.907C875 471.926 874.959 471.954 874.924 471.99C874.889 472.025 874.861 472.067 874.842 472.113C874.824 472.159 874.814 472.208 874.815 472.258Z" fill="#4F4F56"/>
<path d="M948.187 481.379C948.187 481.379 937.558 520.739 889.089 529.627C840.619 538.514 829.99 570.256 829.99 570.256" stroke="url(#paint9_linear_47_342)" stroke-width="5.49754" stroke-linecap="round"/>
<rect x="1217.57" y="459.389" width="148.434" height="109.951" rx="10.0788" fill="white"/>
<rect x="1232.23" y="473.133" width="56.8079" height="8.24631" rx="4.12315" fill="#DBE0F8"/>
<path d="M1232.23 492.374C1232.23 489.844 1234.28 487.793 1236.81 487.793H1260.63V518.03H1236.81C1234.28 518.03 1232.23 515.978 1232.23 513.448V492.374Z" fill="#4D4D69"/>
<path d="M1260.63 487.793H1289.03V518.03H1260.63V487.793Z" fill="#679887"/>
<rect x="1289.03" y="487.793" width="28.4039" height="30.2365" fill="#EEF5F0"/>
<path d="M1317.44 487.793H1341.26C1343.79 487.793 1345.84 489.844 1345.84 492.374V513.448C1345.84 515.978 1343.79 518.03 1341.26 518.03H1317.44V487.793Z" fill="#F8F5E9"/>
<path d="M1232.23 526.276C1232.23 523.746 1234.28 521.695 1236.81 521.695H1260.63V551.931H1236.81C1234.28 551.931 1232.23 549.88 1232.23 547.35V526.276Z" fill="#B19D34"/>
<path d="M1260.63 521.695H1289.03V551.931H1260.63V521.695Z" fill="#986767"/>
<rect x="1289.03" y="521.695" width="28.4039" height="30.2365" fill="#EDE5FF"/>
<path d="M1317.44 521.695H1341.26C1343.79 521.695 1345.84 523.746 1345.84 526.276V547.35C1345.84 549.88 1343.79 551.931 1341.26 551.931H1317.44V521.695Z" fill="#B8B8B8"/>
</g>
<defs>
<linearGradient id="paint0_linear_47_342" x1="1494" y1="421" x2="2099.26" y2="26.8662" gradientUnits="userSpaceOnUse">
<stop stop-color="#F9FBFF"/>
<stop offset="1" stop-opacity="0"/>
</linearGradient>
<linearGradient id="paint1_linear_47_342" x1="1464.5" y1="527.5" x2="2187.27" y2="26.8681" gradientUnits="userSpaceOnUse">
<stop stop-color="#F2F6FF"/>
<stop offset="1" stop-color="#0035BD" stop-opacity="0"/>
</linearGradient>
<linearGradient id="paint2_linear_47_342" x1="933.985" y1="234" x2="933.985" y2="690.436" gradientUnits="userSpaceOnUse">
<stop stop-color="#004AAD" stop-opacity="0"/>
<stop offset="0.239644" stop-color="#92ABCB" stop-opacity="0.22"/>
<stop offset="0.464205" stop-color="#D9D9D9" stop-opacity="0.17"/>
<stop offset="1" stop-color="#D9D9D9" stop-opacity="0"/>
</linearGradient>
<linearGradient id="paint3_linear_47_342" x1="1017.36" y1="234" x2="1017.36" y2="690.436" gradientUnits="userSpaceOnUse">
<stop stop-color="#004AAD" stop-opacity="0"/>
<stop offset="0.219374" stop-color="#92ABCB" stop-opacity="0.22"/>
<stop offset="0.464205" stop-color="#D9D9D9" stop-opacity="0.17"/>
<stop offset="1" stop-color="#D9D9D9" stop-opacity="0"/>
</linearGradient>
<linearGradient id="paint4_linear_47_342" x1="1099.83" y1="234" x2="1099.83" y2="690.436" gradientUnits="userSpaceOnUse">
<stop stop-color="#004AAD" stop-opacity="0"/>
<stop offset="0.239644" stop-color="#92ABCB" stop-opacity="0.22"/>
<stop offset="0.464205" stop-color="#D9D9D9" stop-opacity="0.17"/>
<stop offset="1" stop-color="#D9D9D9" stop-opacity="0"/>
</linearGradient>
<linearGradient id="paint5_linear_47_342" x1="1183.21" y1="234" x2="1183.21" y2="690.436" gradientUnits="userSpaceOnUse">
<stop stop-color="#004AAD" stop-opacity="0"/>
<stop offset="0.395955" stop-color="#92ABCB" stop-opacity="0.22"/>
<stop offset="0.464205" stop-color="#D9D9D9" stop-opacity="0.17"/>
<stop offset="1" stop-color="#D9D9D9" stop-opacity="0"/>
</linearGradient>
<linearGradient id="paint6_linear_47_342" x1="1266.59" y1="234" x2="1266.59" y2="690.436" gradientUnits="userSpaceOnUse">
<stop stop-color="#004AAD" stop-opacity="0"/>
<stop offset="0.395955" stop-color="#92ABCB" stop-opacity="0.22"/>
<stop offset="0.464205" stop-color="#D9D9D9" stop-opacity="0.17"/>
<stop offset="1" stop-color="#D9D9D9" stop-opacity="0"/>
</linearGradient>
<linearGradient id="paint7_linear_47_342" x1="795.695" y1="482.354" x2="1318.88" y2="483.729" gradientUnits="userSpaceOnUse">
<stop stop-color="#014BAE"/>
<stop offset="0.547343" stop-color="white" stop-opacity="0.79"/>
<stop offset="1" stop-color="white" stop-opacity="0"/>
</linearGradient>
<linearGradient id="paint8_linear_47_342" x1="1105.85" y1="188.695" x2="1104.47" y2="711.877" gradientUnits="userSpaceOnUse">
<stop stop-color="#014BAE"/>
<stop offset="0.547343" stop-color="white" stop-opacity="0.79"/>
<stop offset="1" stop-color="white" stop-opacity="0"/>
</linearGradient>
<linearGradient id="paint9_linear_47_342" x1="942.69" y1="486.877" x2="829.99" y2="570.256" gradientUnits="userSpaceOnUse">
<stop stop-color="#63C653" stop-opacity="0"/>
<stop offset="0.480041" stop-color="#5FE54B"/>
<stop offset="1" stop-color="#63C653" stop-opacity="0"/>
</linearGradient>
<clipPath id="clip0_47_342">
<rect width="1440" height="1024" fill="white"/>
</clipPath>
</defs>
</svg>
