<svg width="29" height="29" viewBox="0 0 29 29" fill="none" xmlns="http://www.w3.org/2000/svg">
<path fill-rule="evenodd" clip-rule="evenodd" d="M24.8432 27.2573C24.6502 26.6221 23.6531 25.8438 23.1127 26.2294C20.7114 27.9425 17.7269 28.9575 14.4929 28.9575C11.0435 28.9575 7.87792 27.8028 5.40109 25.8779C4.90232 25.4903 4.16181 25.5924 3.87458 26.155C3.73599 26.4264 3.60589 26.6987 3.48386 26.9696C3.02408 27.99 1.04884 27.8953 0.890071 26.7874C0.353797 23.0452 -0.171767 18.1341 0.0535246 14.3466C0.282855 10.4911 1.4206 5.6076 2.44625 1.84844C2.74441 0.755603 4.81459 0.931658 5.14645 2.01474C5.26752 2.40988 5.40407 2.80778 5.55807 3.20268C5.78083 3.77393 6.47821 3.95364 7.00841 3.64568C9.18829 2.37954 11.7509 1.64987 14.4929 1.64987C17.2447 1.64987 19.816 2.38483 22.0009 3.65943C22.5308 3.9685 23.2288 3.78984 23.4522 3.21862C23.6769 2.64441 23.8646 2.0637 24.0214 1.49418C24.3174 0.419073 26.2412 0.215536 26.5618 1.28357C27.5931 4.71938 28.7392 9.20448 28.9556 12.7578C29.2158 17.033 28.287 22.5367 27.3684 26.7259C27.1264 27.8293 25.1716 28.3383 24.8432 27.2573ZM4.88654 17.3557C6.0683 14.8744 10.6841 18.2787 12.8264 20.0508C13.3684 20.4991 13.2417 21.3226 12.5809 21.5638C11.0997 22.1045 8.71921 22.7492 7.11642 22.0638C5.18136 21.2363 3.89466 19.4382 4.88654 17.3557ZM16.2985 21.5638C15.6377 21.3226 15.511 20.4991 16.053 20.0508C18.1952 18.2787 22.8111 14.8744 23.9928 17.3557C24.9847 19.4382 23.698 21.2363 21.763 22.0638C20.1602 22.7492 17.7797 22.1045 16.2985 21.5638Z" fill="#0030AD"/>
<path d="M15.2076 6.94702C15.365 6.17788 14.6152 5.53562 13.8794 5.80922L13.3418 6.00909C12.9648 6.14925 12.7085 6.50164 12.6912 6.90348L12.507 11.1907C12.4905 11.5747 12.8751 11.8483 13.2325 11.7068C13.5808 11.5689 13.9585 11.8256 13.9585 12.2002V12.3958C13.9585 13.1638 15.0456 13.3181 15.2594 12.5805L16.0679 9.79076C16.1737 9.42548 15.8347 9.08722 15.4697 9.19394C15.1212 9.29583 14.7894 8.99038 14.8622 8.63465L15.2076 6.94702Z" fill="white"/>
</svg>
