<svg width="36" height="35" viewBox="0 0 36 35" fill="none" xmlns="http://www.w3.org/2000/svg">
<rect x="1.24087" y="0.398098" width="33.4402" height="33.4402" rx="5.97147" stroke="#313131" stroke-width="0.796196"/>
<path d="M17.5631 11.7504C14.8663 11.7504 12.6318 13.9463 12.6318 16.6816C12.6318 19.417 14.8278 21.6129 17.5631 21.6129C20.2984 21.6129 22.4944 19.3784 22.4944 16.6816C22.4944 13.9849 20.2599 11.7504 17.5631 11.7504ZM17.5631 19.8407C15.8295 19.8407 14.404 18.4153 14.404 16.6816C14.404 14.948 15.8295 13.5225 17.5631 13.5225C19.2968 13.5225 20.7222 14.948 20.7222 16.6816C20.7222 18.4153 19.2968 19.8407 17.5631 19.8407Z" fill="#000103"/>
<path d="M22.6866 12.7517C23.3036 12.7517 23.8038 12.2515 23.8038 11.6345C23.8038 11.0174 23.3036 10.5172 22.6866 10.5172C22.0695 10.5172 21.5693 11.0174 21.5693 11.6345C21.5693 12.2515 22.0695 12.7517 22.6866 12.7517Z" fill="#000103"/>
<path d="M25.5765 8.74483C24.5748 7.70464 23.1493 7.16528 21.5313 7.16528H13.595C10.2433 7.16528 8.00879 9.39977 8.00879 12.7515V20.6492C8.00879 22.3058 8.54815 23.7313 9.62686 24.7715C10.6671 25.7731 12.054 26.274 13.6335 26.274H21.4927C23.1493 26.274 24.5363 25.7346 25.5379 24.7715C26.5781 23.7698 27.1175 22.3444 27.1175 20.6878V12.7515C27.1175 11.1334 26.5781 9.7465 25.5765 8.74483ZM25.4224 20.6878C25.4224 21.8821 24.9986 22.8452 24.3051 23.5001C23.6117 24.1551 22.6485 24.5018 21.4927 24.5018H13.6335C12.4778 24.5018 11.5146 24.1551 10.8212 23.5001C10.1277 22.8067 9.78097 21.8435 9.78097 20.6492V12.7515C9.78097 11.5957 10.1277 10.6326 10.8212 9.93913C11.4761 9.28419 12.4778 8.93746 13.6335 8.93746H21.5698C22.7256 8.93746 23.6887 9.28419 24.3822 9.97765C25.0371 10.6711 25.4224 11.6343 25.4224 12.7515V20.6878Z" fill="#000103"/>
</svg>
