<svg width="608" height="475" viewBox="0 0 608 475" fill="none" xmlns="http://www.w3.org/2000/svg">
<g filter="url(#filter0_i_1268_576)">
<path d="M502.228 243C502.228 352.048 413.827 440.448 304.78 440.448C195.732 440.448 107.331 352.048 107.331 243C107.331 133.952 195.732 45.5518 304.78 45.5518C413.827 45.5518 502.228 133.952 502.228 243Z" fill="#F8F9FA"/>
</g>
<g filter="url(#filter1_i_1268_576)">
<path d="M477.357 243C477.357 338.312 400.091 415.577 304.78 415.577C209.468 415.577 132.203 338.312 132.203 243C132.203 147.689 209.468 70.4233 304.78 70.4233C400.091 70.4233 477.357 147.689 477.357 243Z" fill="#F8F9FA"/>
</g>
<g filter="url(#filter2_i_1268_576)">
<path d="M456.038 243C456.038 326.538 388.318 394.259 304.78 394.259C221.242 394.259 153.521 326.538 153.521 243C153.521 159.462 221.242 91.7415 304.78 91.7415C388.318 91.7415 456.038 159.462 456.038 243Z" fill="#F8F9FA"/>
</g>
<g filter="url(#filter3_i_1268_576)">
<path d="M436.75 243C436.75 315.885 377.665 374.971 304.78 374.971C231.894 374.971 172.809 315.885 172.809 243C172.809 170.115 231.894 111.029 304.78 111.029C377.665 111.029 436.75 170.115 436.75 243Z" fill="#F8F9FA"/>
</g>
<g filter="url(#filter4_i_1268_576)">
<path d="M420.508 243C420.508 306.915 368.695 358.728 304.78 358.728C240.865 358.728 189.052 306.915 189.052 243C189.052 179.085 240.865 127.272 304.78 127.272C368.695 127.272 420.508 179.085 420.508 243Z" fill="#F8F9FA"/>
</g>
<g filter="url(#filter5_i_1268_576)">
<path d="M405.788 243C405.788 298.785 360.565 344.008 304.78 344.008C248.994 344.008 203.771 298.785 203.771 243C203.771 187.215 248.994 141.992 304.78 141.992C360.565 141.992 405.788 187.215 405.788 243Z" fill="#F8F9FA"/>
</g>
<g filter="url(#filter6_i_1268_576)">
<path d="M393.099 243C393.099 291.777 353.557 331.319 304.78 331.319C256.003 331.319 216.461 291.777 216.461 243C216.461 194.223 256.003 154.681 304.78 154.681C353.557 154.681 393.099 194.223 393.099 243Z" fill="#F8F9FA"/>
</g>
<g filter="url(#filter7_i_1268_576)">
<path d="M381.932 243C381.932 285.61 347.39 320.152 304.78 320.152C262.17 320.152 227.628 285.61 227.628 243C227.628 200.39 262.17 165.848 304.78 165.848C347.39 165.848 381.932 200.39 381.932 243Z" fill="#F8F9FA"/>
</g>
<g filter="url(#filter8_i_1268_576)">
<path fill-rule="evenodd" clip-rule="evenodd" d="M304.78 469.57C429.911 469.57 531.35 368.131 531.35 243C531.35 117.869 429.911 16.4294 304.78 16.4294C179.648 16.4294 78.2091 117.869 78.2091 243C78.2091 368.131 179.648 469.57 304.78 469.57ZM304.78 441.031C414.149 441.031 502.81 352.369 502.81 243C502.81 133.631 414.149 44.9692 304.78 44.9692C195.41 44.9692 106.749 133.631 106.749 243C106.749 352.369 195.41 441.031 304.78 441.031Z" fill="#F8F9FA"/>
</g>
<g filter="url(#filter9_i_1268_576)">
<path d="M372.926 243C372.926 280.636 342.416 311.146 304.78 311.146C267.144 311.146 236.634 280.636 236.634 243C236.634 205.364 267.144 174.854 304.78 174.854C342.416 174.854 372.926 205.364 372.926 243Z" fill="#F8F9FA"/>
</g>
<rect x="141.718" y="77.5703" width="141.38" height="141.38" rx="14.0274" fill="white"/>
<rect x="161.005" y="129.296" width="103.452" height="72.7673" rx="8.76714" fill="#DE3F35"/>
<path fill-rule="evenodd" clip-rule="evenodd" d="M205.975 152.253C206.304 151.602 206.894 151.121 207.599 150.932L209.775 150.349C211.142 149.983 212.547 150.794 212.914 152.161L218.355 172.469C218.721 173.836 217.91 175.241 216.543 175.607L214.318 176.203C213.671 176.377 212.981 176.29 212.397 175.961L204.565 171.548L201.238 172.439L204.143 176.125C205.079 177.313 204.788 179.049 203.515 179.867L199.732 182.298C198.568 183.046 197.021 182.735 196.237 181.596L192.206 175.747C192.032 175.496 191.911 175.228 191.838 174.955C190.509 175.245 189.174 174.442 188.818 173.114L187.271 167.34C186.905 165.973 187.716 164.568 189.083 164.202L201.642 160.836L205.975 152.253ZM194.338 174.302L198.35 180.123L202.11 177.708L198.538 173.176L194.338 174.302ZM198.533 173.169L198.533 173.169ZM198.358 180.135L198.358 180.134ZM208.272 153.419L203.939 162.003C203.611 162.654 203.02 163.134 202.315 163.323L189.763 166.687L191.303 172.434L203.904 169.057C204.551 168.884 205.241 168.971 205.825 169.3L205.192 170.422L205.825 169.3L213.657 173.713L215.863 173.122L210.429 152.841L208.272 153.419Z" fill="white"/>
<path fill-rule="evenodd" clip-rule="evenodd" d="M221.01 157.169L220.541 156.606L222.925 154.62L223.394 155.183C225.297 157.466 226.276 160.379 226.139 163.349L226.071 164.809L222.971 164.666L223.039 163.205C223.14 161.01 222.417 158.857 221.01 157.169Z" fill="white"/>
<path fill-rule="evenodd" clip-rule="evenodd" d="M227.217 155.066L223.563 150.499L225.986 148.561L229.64 153.128C231.441 155.379 232.363 158.207 232.235 161.088L231.901 168.608L228.801 168.471L229.135 160.95C229.229 158.821 228.548 156.73 227.217 155.066Z" fill="white"/>
<path fill-rule="evenodd" clip-rule="evenodd" d="M235.986 154.057L232.61 147.013L235.409 145.672L238.784 152.717C240.096 155.453 240.312 158.588 239.387 161.479L236.501 170.511L233.544 169.566L236.431 160.534C237.114 158.397 236.955 156.08 235.986 154.057Z" fill="white"/>
<rect x="158.375" y="93.5886" width="46.0482" height="22.2683" rx="11.1341" fill="#F2F2F2"/>
<path d="M169.796 106.836H167.53L166.918 108.723H164.905L167.53 101.449H169.849L172.474 108.723H170.408L169.796 106.836ZM168.668 103.125L167.994 105.36H169.343L168.668 103.125ZM178.275 100.974V108.723H176.377V107.9L175.956 108.522C175.64 108.754 175.091 108.87 174.522 108.87C172.993 108.87 172.045 107.7 172.045 106.034C172.045 104.031 173.268 102.946 174.712 102.946C175.176 102.946 175.724 103.051 176.009 103.22L176.377 103.821V100.974H178.275ZM175.176 107.584C175.871 107.584 176.377 107.162 176.377 105.982V105.739C176.377 104.611 175.798 104.232 175.228 104.232C174.49 104.232 173.984 104.79 173.984 105.94C173.984 106.994 174.512 107.584 175.176 107.584ZM181.311 102.946C182.713 102.946 183.524 103.715 183.672 104.738H181.806C181.722 104.348 181.532 104.126 181.195 104.126C180.931 104.126 180.741 104.295 180.741 104.537C180.741 104.854 180.994 105.065 182.07 105.328C183.092 105.581 183.82 106.024 183.82 107.11C183.82 108.312 182.692 108.87 181.332 108.87C179.803 108.87 178.759 108.238 178.612 106.973H180.478C180.583 107.405 180.921 107.69 181.321 107.69C181.658 107.69 181.922 107.552 181.922 107.257C181.922 106.899 181.564 106.699 180.562 106.467C179.487 106.214 178.844 105.718 178.844 104.759C178.844 103.641 179.814 102.946 181.311 102.946Z" fill="#04030D" fill-opacity="0.7"/>
<path d="M193.117 101.705C193.117 101.793 193.152 101.876 193.214 101.938C193.275 102 193.359 102.035 193.447 102.035L195.591 102.035L190.103 107.52C190.041 107.582 190.007 107.665 190.007 107.752C190.007 107.839 190.041 107.923 190.103 107.984C190.133 108.015 190.17 108.04 190.21 108.056C190.25 108.073 190.293 108.082 190.337 108.082C190.38 108.082 190.423 108.073 190.463 108.056C190.504 108.04 190.54 108.015 190.571 107.984L196.049 102.506L196.049 104.634C196.049 104.721 196.084 104.805 196.146 104.867C196.207 104.929 196.291 104.963 196.379 104.963C196.466 104.963 196.55 104.929 196.612 104.867C196.673 104.805 196.708 104.721 196.708 104.634L196.708 101.669C196.708 101.59 196.677 101.515 196.621 101.459C196.566 101.404 196.49 101.373 196.412 101.373L193.447 101.373C193.403 101.373 193.36 101.381 193.32 101.398C193.28 101.415 193.243 101.439 193.212 101.47C193.182 101.501 193.158 101.538 193.141 101.578C193.125 101.619 193.117 101.662 193.117 101.705Z" fill="#4F4F56"/>
<rect x="310.159" y="93.7666" width="141.38" height="141.38" rx="14.0274" fill="white"/>
<rect x="329.447" y="145.493" width="103.452" height="72.7673" rx="8.76714" fill="#35DE97"/>
<rect x="341.721" y="158.643" width="81.5344" height="12.274" rx="6.137" fill="white"/>
<rect x="353.118" y="175.301" width="58.7399" height="8.76714" rx="4.38357" fill="white"/>
<rect x="346.104" y="192.835" width="72.7673" height="3.50686" rx="1.75343" fill="white" fill-opacity="0.71"/>
<rect x="346.104" y="198.972" width="72.7673" height="4.38357" rx="2.19179" fill="white" fill-opacity="0.71"/>
<rect x="346.104" y="205.986" width="72.7673" height="3.50686" rx="1.75343" fill="white" fill-opacity="0.71"/>
<rect x="326.817" y="109.785" width="49.5551" height="22.2683" rx="11.1341" fill="#F2F2F2"/>
<path d="M338.87 120.966C339.787 121.229 340.209 121.841 340.209 122.726C340.209 124.086 339.102 124.761 338.122 124.877C337.753 124.919 337.51 124.919 337.046 124.919H334.147V117.645H337.131C337.521 117.645 337.689 117.645 338.058 117.687C339.26 117.835 339.935 118.594 339.935 119.543C339.935 120.207 339.587 120.713 338.87 120.966ZM336.045 119.121V120.512H336.899C337.067 120.512 337.226 120.502 337.363 120.481C337.711 120.428 337.953 120.249 337.953 119.817C337.953 119.405 337.732 119.205 337.373 119.152C337.236 119.131 337.067 119.121 336.899 119.121H336.045ZM337.542 123.433C337.879 123.411 338.227 123.137 338.227 122.663C338.227 122.178 337.879 121.925 337.489 121.893C337.352 121.883 337.183 121.883 337.015 121.883H336.045V123.443H337.067C337.236 123.443 337.405 123.443 337.542 123.433ZM342.483 117.171V122.895C342.483 123.158 342.483 123.274 342.504 123.411C342.535 123.633 342.63 123.707 343.126 123.686V124.972C342.778 125.003 342.44 125.024 342.019 125.024C341.144 125.024 340.648 124.676 340.606 123.928C340.585 123.633 340.585 123.348 340.585 122.927V117.171H342.483ZM346.127 119.142C347.972 119.142 349.152 120.291 349.152 122.104C349.152 123.907 347.972 125.067 346.127 125.067C344.282 125.067 343.101 123.907 343.101 122.104C343.101 120.291 344.282 119.142 346.127 119.142ZM346.127 123.78C346.801 123.78 347.213 123.222 347.213 122.104C347.213 120.976 346.801 120.428 346.127 120.428C345.452 120.428 345.041 120.976 345.041 122.104C345.041 123.222 345.452 123.78 346.127 123.78ZM355.468 119.29V123.485C355.468 123.833 355.468 124.265 355.457 124.571C355.394 126.416 354.129 127.238 352.221 127.238C350.534 127.238 349.511 126.553 349.374 125.267L349.364 125.161H351.198L351.209 125.267C351.251 125.636 351.683 125.847 352.274 125.847C352.98 125.847 353.496 125.541 353.549 124.782C353.56 124.613 353.57 124.35 353.57 124.044V123.886L353.148 124.508C352.832 124.74 352.389 124.856 351.82 124.856C350.292 124.856 349.237 123.812 349.237 122.146C349.237 120.143 350.46 119.142 351.905 119.142C352.368 119.142 352.917 119.247 353.201 119.416L353.57 120.017V119.29H355.468ZM352.368 123.57C353.064 123.57 353.57 123.148 353.57 121.967V121.936C353.57 120.808 352.99 120.428 352.421 120.428C351.683 120.428 351.177 120.86 351.177 122.009C351.177 123.064 351.704 123.57 352.368 123.57Z" fill="#04030D" fill-opacity="0.7"/>
<path d="M364.558 117.902C364.558 117.989 364.593 118.073 364.655 118.134C364.717 118.196 364.8 118.231 364.888 118.231L367.032 118.231L361.544 123.716C361.483 123.778 361.448 123.861 361.448 123.948C361.448 124.035 361.483 124.119 361.544 124.181C361.575 124.212 361.611 124.236 361.651 124.253C361.691 124.269 361.734 124.278 361.778 124.278C361.821 124.278 361.864 124.269 361.905 124.253C361.945 124.236 361.981 124.212 362.012 124.181L367.49 118.702L367.49 120.83C367.49 120.918 367.525 121.001 367.587 121.063C367.649 121.125 367.732 121.16 367.82 121.16C367.907 121.16 367.991 121.125 368.053 121.063C368.114 121.001 368.149 120.918 368.149 120.83L368.149 117.865C368.149 117.787 368.118 117.711 368.062 117.656C368.007 117.6 367.931 117.569 367.853 117.569L364.888 117.569C364.844 117.569 364.801 117.577 364.761 117.594C364.721 117.611 364.684 117.636 364.654 117.666C364.623 117.697 364.599 117.734 364.582 117.774C364.566 117.815 364.558 117.858 364.558 117.902Z" fill="#4F4F56"/>
<rect x="234.576" y="177.987" width="141.38" height="141.38" rx="14.0274" fill="white"/>
<rect x="251.234" y="194.005" width="47.8017" height="22.2683" rx="11.1341" fill="#F2F2F2"/>
<path d="M261.116 201.718C263.034 201.718 263.836 202.761 263.994 204.111H262.096C262.012 203.51 261.696 203.109 261.074 203.109C260.641 203.109 260.346 203.32 260.346 203.763C260.346 204.227 260.684 204.511 261.885 204.796C263.488 205.176 264.141 205.977 264.141 207.094C264.141 208.549 262.75 209.287 261.285 209.287C259.44 209.287 258.196 208.549 258.08 206.915H259.977C260.104 207.6 260.663 207.895 261.232 207.895C261.759 207.895 262.16 207.621 262.16 207.221C262.16 206.841 261.885 206.514 260.989 206.293C259.334 205.882 258.364 205.365 258.364 203.911C258.364 202.508 259.672 201.718 261.116 201.718ZM270.319 207.664V209.139H264.742V201.865H270.213V203.341H266.64V204.754H270.003V206.23H266.64V207.664H270.319ZM274.501 201.718C276.767 201.718 278.222 203.162 278.222 205.502C278.222 207.832 276.767 209.287 274.501 209.287C272.234 209.287 270.779 207.832 270.779 205.502C270.779 203.162 272.234 201.718 274.501 201.718ZM274.501 207.895C275.597 207.895 276.282 207.042 276.282 205.502C276.282 203.953 275.597 203.109 274.501 203.109C273.404 203.109 272.719 203.953 272.719 205.502C272.719 207.042 273.404 207.895 274.501 207.895Z" fill="#04030D" fill-opacity="0.7"/>
<path d="M286.976 202.122C286.976 202.209 287.01 202.293 287.072 202.355C287.134 202.416 287.218 202.451 287.305 202.451L289.45 202.451L283.961 207.936C283.9 207.998 283.865 208.082 283.865 208.169C283.865 208.256 283.9 208.339 283.961 208.401C283.992 208.432 284.028 208.456 284.068 208.473C284.109 208.49 284.152 208.498 284.195 208.498C284.239 208.498 284.282 208.49 284.322 208.473C284.362 208.456 284.398 208.432 284.429 208.401L289.908 202.922L289.908 205.05C289.908 205.138 289.942 205.222 290.004 205.283C290.066 205.345 290.15 205.38 290.237 205.38C290.324 205.38 290.408 205.345 290.47 205.283C290.532 205.222 290.567 205.138 290.567 205.05L290.567 202.086C290.567 202.007 290.535 201.931 290.48 201.876C290.424 201.82 290.349 201.789 290.27 201.789L287.305 201.789C287.262 201.789 287.218 201.798 287.178 201.814C287.138 201.831 287.102 201.856 287.071 201.887C287.04 201.918 287.016 201.954 287 201.995C286.983 202.035 286.975 202.078 286.976 202.122Z" fill="#4F4F56"/>
<path d="M252.987 293.275L285.597 250.367C285.95 249.902 286.65 249.906 286.998 250.374L300.494 268.497C300.944 269.1 301.894 268.895 302.054 268.159L309.845 232.32C310.025 231.493 311.156 231.375 311.502 232.148L322.952 257.719C323.226 258.33 324.056 258.421 324.455 257.884L354.248 217.877" stroke="url(#paint0_linear_1268_576)" stroke-width="4.38357" stroke-linecap="round"/>
<path d="M255.179 291.96H353.371H357.755V212.617L323.124 257.768L309.974 232.343L300.768 268.289L285.426 251.193L255.179 291.96Z" fill="url(#paint1_linear_1268_576)"/>
<rect x="315.558" y="265.447" width="141.38" height="141.38" rx="14.0274" fill="white"/>
<rect x="334.845" y="317.173" width="103.452" height="72.7673" rx="8.76714" fill="#DE8635"/>
<rect x="357.64" y="343.475" width="22.7946" height="9.64386" rx="4.82193" transform="rotate(90 357.64 343.475)" fill="white"/>
<rect x="354.133" y="361.009" width="16.6576" height="2.63014" rx="1.31507" transform="rotate(90 354.133 361.009)" fill="white"/>
<rect x="354.133" y="330.324" width="16.6576" height="2.63014" rx="1.31507" transform="rotate(90 354.133 330.324)" fill="white"/>
<rect x="390.955" y="351.365" width="22.7946" height="9.64386" rx="4.82193" transform="rotate(90 390.955 351.365)" fill="white"/>
<rect x="387.448" y="361.009" width="16.6576" height="2.63014" rx="1.31507" transform="rotate(90 387.448 361.009)" fill="white"/>
<rect x="387.448" y="330.324" width="23.6713" height="2.63014" rx="1.31507" transform="rotate(90 387.448 330.324)" fill="white"/>
<rect x="374.297" y="333.831" width="22.7946" height="9.64386" rx="4.82193" transform="rotate(90 374.297 333.831)" fill="white"/>
<rect x="370.791" y="350.488" width="27.1781" height="2.63014" rx="1.31507" transform="rotate(90 370.791 350.488)" fill="white"/>
<rect x="370.791" y="330.324" width="16.6576" height="2.63014" rx="1.31507" transform="rotate(90 370.791 330.324)" fill="white"/>
<rect x="407.174" y="334.269" width="21.9179" height="8.76714" rx="4.38357" transform="rotate(90 407.174 334.269)" stroke="white" stroke-width="0.876714"/>
<rect x="403.667" y="356.187" width="21.0411" height="1.75343" rx="0.876714" transform="rotate(90 403.667 356.187)" stroke="white" stroke-width="0.876714"/>
<rect x="403.667" y="330.762" width="3.50686" height="1.75343" rx="0.876714" transform="rotate(90 403.667 330.762)" stroke="white" stroke-width="0.876714"/>
<rect x="423.832" y="334.269" width="21.9179" height="8.76714" rx="4.38357" transform="rotate(90 423.832 334.269)" stroke="white" stroke-width="0.876714"/>
<rect x="420.325" y="356.187" width="21.0411" height="1.75343" rx="0.876714" transform="rotate(90 420.325 356.187)" stroke="white" stroke-width="0.876714"/>
<rect x="420.325" y="330.762" width="3.50686" height="1.75343" rx="0.876714" transform="rotate(90 420.325 330.762)" stroke="white" stroke-width="0.876714"/>
<rect x="332.215" y="281.466" width="77.61" height="22.2683" rx="11.1341" fill="#F2F2F2"/>
<path d="M347.864 289.326V296.6H345.966V293.542C345.966 292.91 345.966 291.972 345.987 291.234C345.861 291.972 345.65 292.899 345.481 293.542L344.68 296.6H342.73L341.918 293.542C341.749 292.91 341.538 291.972 341.422 291.234C341.444 291.972 341.444 292.91 341.444 293.542V296.6H339.546V289.326H342.508L343.742 294.755L344.975 289.326H347.864ZM351.879 296.6L351.752 295.777L351.52 296.368C351.12 296.621 350.645 296.747 350.129 296.747C349.201 296.747 348.326 296.167 348.326 295.082C348.326 293.88 349.464 293.142 351.373 293.142H351.731V293.057C351.731 292.942 351.731 292.826 351.71 292.646C351.678 292.362 351.446 292.109 351.035 292.109C350.592 292.109 350.339 292.393 350.308 292.878L348.516 292.889C348.526 291.571 349.696 290.823 351.12 290.823C352.901 290.823 353.513 291.613 353.597 292.636C353.618 292.92 353.629 293.247 353.629 293.595V295.176C353.629 295.598 353.65 295.978 353.734 296.6H351.879ZM350.909 295.461C351.288 295.461 351.731 295.176 351.731 294.586V294.217C350.877 294.154 350.266 294.375 350.266 294.934C350.266 295.271 350.529 295.461 350.909 295.461ZM357.75 290.823C357.929 290.823 358.045 290.833 358.182 290.854V292.404C356.759 292.309 356.242 292.836 356.242 294.533V296.6H354.345V290.97H356.242V292.109L356.643 291.318C356.948 290.981 357.391 290.823 357.75 290.823ZM360.648 294.512L360.247 294.955V296.6H358.35V288.851H360.247V293.332L362.229 290.97H364.454L362.071 293.553L364.485 296.6H362.155L360.648 294.512ZM369.804 293.711C369.804 293.88 369.793 294.07 369.772 294.259H365.85C365.945 295.198 366.357 295.461 366.894 295.461C367.432 295.461 367.759 295.187 367.832 294.755H369.698C369.372 296.03 368.317 296.747 366.873 296.747C365.26 296.747 363.974 295.788 363.974 293.806C363.974 292.161 365.102 290.823 366.978 290.823C368.855 290.823 369.804 292.256 369.804 293.711ZM366.884 292.109C366.388 292.109 366.04 292.404 365.914 293.1H367.822C367.716 292.436 367.39 292.109 366.884 292.109ZM372.477 292.193V294.27C372.477 294.46 372.477 294.67 372.488 294.818C372.53 295.387 372.709 295.514 373.605 295.472V296.652C373.236 296.716 372.888 296.747 372.488 296.747C371.086 296.747 370.664 296.315 370.601 295.451C370.579 295.124 370.579 294.86 370.579 294.544V292.193H369.683V291.012H370.579V289.558H372.477V291.012H373.721V292.193H372.477ZM374.948 288.683C375.538 288.683 375.928 289.041 375.928 289.61C375.928 290.18 375.538 290.538 374.948 290.538C374.358 290.538 373.968 290.18 373.968 289.61C373.968 289.041 374.358 288.683 374.948 288.683ZM375.897 296.6H373.999V290.97H375.897V296.6ZM382.276 292.351C382.318 292.636 382.328 292.963 382.328 293.416V296.6H380.431V293.732C380.431 293.553 380.431 293.247 380.41 292.963C380.368 292.425 380.072 292.109 379.503 292.109C378.923 292.109 378.512 292.667 378.512 293.943V296.6H376.615V290.97H378.512V291.845L379.018 291.149C379.366 290.939 379.767 290.823 380.283 290.823C381.443 290.823 382.128 291.371 382.276 292.351ZM388.891 290.97V295.166C388.891 295.514 388.891 295.946 388.881 296.252C388.818 298.097 387.552 298.919 385.644 298.919C383.958 298.919 382.935 298.234 382.798 296.947L382.787 296.842H384.622L384.632 296.947C384.675 297.316 385.107 297.527 385.697 297.527C386.403 297.527 386.92 297.222 386.973 296.463C386.983 296.294 386.994 296.03 386.994 295.725V295.566L386.572 296.188C386.256 296.42 385.813 296.536 385.244 296.536C383.715 296.536 382.661 295.493 382.661 293.827C382.661 291.824 383.884 290.823 385.328 290.823C385.792 290.823 386.34 290.928 386.625 291.097L386.994 291.698V290.97H388.891ZM385.792 295.25C386.488 295.25 386.994 294.829 386.994 293.648V293.616C386.994 292.488 386.414 292.109 385.845 292.109C385.107 292.109 384.601 292.541 384.601 293.69C384.601 294.744 385.128 295.25 385.792 295.25Z" fill="#04030D" fill-opacity="0.7"/>
<path d="M397.957 289.582C397.957 289.669 397.992 289.753 398.053 289.815C398.115 289.877 398.199 289.911 398.286 289.911L400.431 289.911L394.943 295.397C394.881 295.458 394.847 295.542 394.847 295.629C394.847 295.716 394.881 295.799 394.943 295.861C394.973 295.892 395.01 295.916 395.05 295.933C395.09 295.95 395.133 295.958 395.177 295.958C395.22 295.958 395.263 295.95 395.303 295.933C395.343 295.916 395.38 295.892 395.41 295.861L400.889 290.382L400.889 292.511C400.889 292.598 400.924 292.682 400.985 292.744C401.047 292.805 401.131 292.84 401.218 292.84C401.306 292.84 401.39 292.805 401.451 292.744C401.513 292.682 401.548 292.598 401.548 292.511L401.548 289.546C401.548 289.467 401.517 289.392 401.461 289.336C401.405 289.28 401.33 289.249 401.251 289.249L398.286 289.249C398.243 289.249 398.2 289.258 398.16 289.275C398.119 289.291 398.083 289.316 398.052 289.347C398.022 289.378 397.997 289.415 397.981 289.455C397.965 289.495 397.957 289.538 397.957 289.582Z" fill="#4F4F56"/>
<rect x="132" y="229.815" width="141.38" height="141.38" rx="14.0274" fill="white"/>
<rect x="148.196" y="246.011" width="70.1838" height="21.595" rx="10.7975" fill="#F2F2F2"/>
<path d="M158.078 253.387C159.997 253.387 160.798 254.431 160.956 255.781H159.059C158.974 255.18 158.658 254.779 158.036 254.779C157.604 254.779 157.309 254.99 157.309 255.433C157.309 255.896 157.646 256.181 158.848 256.466C160.45 256.845 161.104 257.646 161.104 258.764C161.104 260.219 159.712 260.957 158.247 260.957C156.402 260.957 155.158 260.219 155.042 258.585H156.94C157.066 259.27 157.625 259.565 158.194 259.565C158.721 259.565 159.122 259.291 159.122 258.89C159.122 258.511 158.848 258.184 157.952 257.963C156.297 257.552 155.327 257.035 155.327 255.58C155.327 254.178 156.634 253.387 158.078 253.387ZM163.707 256.403V258.479C163.707 258.669 163.707 258.88 163.718 259.027C163.76 259.597 163.939 259.723 164.835 259.681V260.862C164.466 260.925 164.119 260.957 163.718 260.957C162.316 260.957 161.894 260.524 161.831 259.66C161.81 259.333 161.81 259.07 161.81 258.753V256.403H160.914V255.222H161.81V253.767H163.707V255.222H164.951V256.403H163.707ZM168.635 255.032C168.814 255.032 168.93 255.043 169.067 255.064V256.613C167.644 256.518 167.127 257.046 167.127 258.743V260.809H165.23V255.18H167.127V256.318L167.528 255.528C167.833 255.19 168.276 255.032 168.635 255.032ZM172.534 260.809L172.408 259.987L172.176 260.577C171.775 260.83 171.301 260.957 170.784 260.957C169.857 260.957 168.982 260.377 168.982 259.291C168.982 258.089 170.12 257.351 172.028 257.351H172.387V257.267C172.387 257.151 172.387 257.035 172.366 256.856C172.334 256.571 172.102 256.318 171.691 256.318C171.248 256.318 170.995 256.603 170.964 257.088L169.172 257.098C169.182 255.781 170.352 255.032 171.775 255.032C173.557 255.032 174.168 255.823 174.253 256.845C174.274 257.13 174.284 257.457 174.284 257.805V259.386C174.284 259.808 174.305 260.187 174.39 260.809H172.534ZM171.565 259.671C171.944 259.671 172.387 259.386 172.387 258.796V258.427C171.533 258.363 170.921 258.585 170.921 259.143C170.921 259.481 171.185 259.671 171.565 259.671ZM177.277 256.403V258.479C177.277 258.669 177.277 258.88 177.288 259.027C177.33 259.597 177.509 259.723 178.405 259.681V260.862C178.036 260.925 177.689 260.957 177.288 260.957C175.886 260.957 175.464 260.524 175.401 259.66C175.38 259.333 175.38 259.07 175.38 258.753V256.403H174.484V255.222H175.38V253.767H177.277V255.222H178.521V256.403H177.277ZM184.251 257.921C184.251 258.089 184.241 258.279 184.22 258.469H180.298C180.393 259.407 180.804 259.671 181.342 259.671C181.879 259.671 182.206 259.396 182.28 258.964H184.146C183.819 260.24 182.765 260.957 181.321 260.957C179.708 260.957 178.422 259.997 178.422 258.015C178.422 256.371 179.55 255.032 181.426 255.032C183.303 255.032 184.251 256.466 184.251 257.921ZM181.331 256.318C180.836 256.318 180.488 256.613 180.361 257.309H182.269C182.164 256.645 181.837 256.318 181.331 256.318ZM190.562 255.18V259.375C190.562 259.723 190.562 260.155 190.551 260.461C190.488 262.306 189.223 263.128 187.315 263.128C185.628 263.128 184.605 262.443 184.468 261.157L184.458 261.052H186.292L186.303 261.157C186.345 261.526 186.777 261.737 187.367 261.737C188.074 261.737 188.59 261.431 188.643 260.672C188.653 260.503 188.664 260.24 188.664 259.934V259.776L188.242 260.398C187.926 260.63 187.483 260.746 186.914 260.746C185.385 260.746 184.331 259.702 184.331 258.037C184.331 256.034 185.554 255.032 186.998 255.032C187.462 255.032 188.01 255.137 188.295 255.306L188.664 255.907V255.18H190.562ZM187.462 259.46C188.158 259.46 188.664 259.038 188.664 257.857V257.826C188.664 256.698 188.084 256.318 187.515 256.318C186.777 256.318 186.271 256.75 186.271 257.899C186.271 258.954 186.798 259.46 187.462 259.46ZM197.203 255.18L194.978 260.809C194.272 262.591 193.66 263.023 192.322 263.023C192.016 263.023 191.794 263.012 191.52 262.97V261.747C191.678 261.768 191.847 261.768 192.037 261.768C192.48 261.768 192.785 261.621 192.965 261.22L193.038 261.062L190.709 255.18H192.817L193.977 259.302L195.126 255.18H197.203Z" fill="#04030D" fill-opacity="0.7"/>
<path d="M205.938 253.791C205.938 253.879 205.973 253.963 206.035 254.024C206.096 254.086 206.18 254.121 206.267 254.121L208.412 254.121L202.924 259.606C202.862 259.668 202.828 259.751 202.828 259.838C202.828 259.925 202.862 260.009 202.924 260.071C202.954 260.101 202.991 260.126 203.031 260.143C203.071 260.159 203.114 260.168 203.158 260.168C203.201 260.168 203.244 260.159 203.284 260.143C203.324 260.126 203.361 260.101 203.391 260.071L208.87 254.592L208.87 256.72C208.87 256.808 208.905 256.891 208.967 256.953C209.028 257.015 209.112 257.05 209.199 257.05C209.287 257.05 209.371 257.015 209.432 256.953C209.494 256.891 209.529 256.808 209.529 256.72L209.529 253.755C209.529 253.677 209.498 253.601 209.442 253.546C209.386 253.49 209.311 253.459 209.232 253.459L206.267 253.459C206.224 253.459 206.181 253.467 206.141 253.484C206.1 253.501 206.064 253.525 206.033 253.556C206.003 253.587 205.979 253.624 205.962 253.664C205.946 253.705 205.938 253.748 205.938 253.791Z" fill="#4F4F56"/>
<rect x="148.196" y="278.404" width="109.055" height="76.6623" rx="9.71776" fill="#FACD59"/>
<path d="M196.923 331.244C196.923 332.966 196.412 334.649 195.456 336.081C194.5 337.512 193.141 338.628 191.551 339.287C189.961 339.946 188.212 340.118 186.524 339.783C184.836 339.447 183.285 338.617 182.068 337.4C180.852 336.183 180.023 334.631 179.687 332.943C179.351 331.254 179.524 329.504 180.182 327.913C180.841 326.322 181.956 324.963 183.387 324.006C184.818 323.049 186.5 322.539 188.221 322.539C190.529 322.539 192.742 323.456 194.374 325.089C196.006 326.721 196.923 328.935 196.923 331.244ZM180.076 314.244C180.445 314.602 180.939 314.802 181.454 314.802C181.968 314.802 182.462 314.602 182.831 314.244L186.288 310.762L189.744 314.244C190.114 314.602 190.608 314.802 191.122 314.802C191.636 314.802 192.13 314.602 192.5 314.244C192.863 313.878 193.066 313.382 193.066 312.866C193.066 312.35 192.863 311.854 192.5 311.488L189.019 308.03L192.5 304.572C192.808 304.196 192.965 303.719 192.942 303.233C192.918 302.747 192.714 302.288 192.371 301.944C192.027 301.6 191.568 301.396 191.082 301.373C190.597 301.349 190.12 301.506 189.744 301.815L186.288 305.297L182.831 301.815C182.456 301.506 181.979 301.349 181.493 301.373C181.008 301.396 180.549 301.6 180.205 301.944C179.861 302.288 179.658 302.747 179.634 303.233C179.61 303.719 179.767 304.196 180.076 304.572L183.556 308.03L180.076 311.488C179.713 311.854 179.509 312.35 179.509 312.866C179.509 313.382 179.713 313.878 180.076 314.244ZM221.891 331.244L225.372 327.786C225.68 327.41 225.837 326.933 225.814 326.448C225.79 325.962 225.586 325.502 225.243 325.159C224.899 324.815 224.44 324.611 223.954 324.587C223.469 324.563 222.992 324.721 222.616 325.03L219.16 328.512L215.703 325.03C215.328 324.721 214.851 324.563 214.365 324.587C213.88 324.611 213.421 324.815 213.077 325.159C212.733 325.502 212.53 325.962 212.506 326.448C212.482 326.933 212.639 327.41 212.948 327.786L216.428 331.244L212.948 334.702C212.585 335.069 212.381 335.564 212.381 336.081C212.381 336.597 212.585 337.092 212.948 337.459C213.317 337.817 213.811 338.016 214.326 338.016C214.84 338.016 215.334 337.817 215.703 337.459L219.16 333.977L222.616 337.459C222.986 337.817 223.48 338.016 223.994 338.016C224.508 338.016 225.002 337.817 225.372 337.459C225.735 337.092 225.938 336.597 225.938 336.081C225.938 335.564 225.735 335.069 225.372 334.702L221.891 331.244ZM209.902 297.946L209.322 297.39H214.326C214.838 297.39 215.33 297.186 215.693 296.823C216.055 296.46 216.259 295.968 216.259 295.455C216.259 294.942 216.055 294.45 215.693 294.087C215.33 293.724 214.838 293.521 214.326 293.521H204.657C204.144 293.521 203.653 293.724 203.29 294.087C202.927 294.45 202.724 294.942 202.724 295.455V305.128C202.724 305.641 202.927 306.133 203.29 306.496C203.653 306.859 204.144 307.062 204.657 307.062C205.17 307.062 205.662 306.859 206.025 306.496C206.387 306.133 206.591 305.641 206.591 305.128V300.122L207.147 300.703C211.498 305.031 211.473 309.263 210.724 312.044C209.588 316.082 206.035 319.71 202.264 320.653C201.767 320.779 201.339 321.095 201.072 321.534C200.805 321.972 200.721 322.498 200.838 322.998C200.941 323.42 201.184 323.795 201.525 324.063C201.867 324.33 202.29 324.475 202.724 324.473L203.183 324.425C208.331 323.143 212.948 318.476 214.446 313.059C215.945 307.643 214.301 302.371 209.902 297.946Z" fill="#F15382"/>
<defs>
<filter id="filter0_i_1268_576" x="107.331" y="45.5518" width="394.897" height="398.189" filterUnits="userSpaceOnUse" color-interpolation-filters="sRGB">
<feFlood flood-opacity="0" result="BackgroundImageFix"/>
<feBlend mode="normal" in="SourceGraphic" in2="BackgroundImageFix" result="shape"/>
<feColorMatrix in="SourceAlpha" type="matrix" values="0 0 0 0 0 0 0 0 0 0 0 0 0 0 0 0 0 0 127 0" result="hardAlpha"/>
<feOffset dy="3.29237"/>
<feGaussianBlur stdDeviation="6.54359"/>
<feComposite in2="hardAlpha" operator="arithmetic" k2="-1" k3="1"/>
<feColorMatrix type="matrix" values="0 0 0 0 0 0 0 0 0 0 0 0 0 0 0 0 0 0 0.02 0"/>
<feBlend mode="normal" in2="shape" result="effect1_innerShadow_1268_576"/>
</filter>
<filter id="filter1_i_1268_576" x="132.203" y="70.4233" width="345.154" height="348.446" filterUnits="userSpaceOnUse" color-interpolation-filters="sRGB">
<feFlood flood-opacity="0" result="BackgroundImageFix"/>
<feBlend mode="normal" in="SourceGraphic" in2="BackgroundImageFix" result="shape"/>
<feColorMatrix in="SourceAlpha" type="matrix" values="0 0 0 0 0 0 0 0 0 0 0 0 0 0 0 0 0 0 127 0" result="hardAlpha"/>
<feOffset dy="3.29237"/>
<feGaussianBlur stdDeviation="6.54359"/>
<feComposite in2="hardAlpha" operator="arithmetic" k2="-1" k3="1"/>
<feColorMatrix type="matrix" values="0 0 0 0 0 0 0 0 0 0 0 0 0 0 0 0 0 0 0.07 0"/>
<feBlend mode="normal" in2="shape" result="effect1_innerShadow_1268_576"/>
</filter>
<filter id="filter2_i_1268_576" x="153.521" y="91.7415" width="302.517" height="305.81" filterUnits="userSpaceOnUse" color-interpolation-filters="sRGB">
<feFlood flood-opacity="0" result="BackgroundImageFix"/>
<feBlend mode="normal" in="SourceGraphic" in2="BackgroundImageFix" result="shape"/>
<feColorMatrix in="SourceAlpha" type="matrix" values="0 0 0 0 0 0 0 0 0 0 0 0 0 0 0 0 0 0 127 0" result="hardAlpha"/>
<feOffset dy="3.29237"/>
<feGaussianBlur stdDeviation="6.54359"/>
<feComposite in2="hardAlpha" operator="arithmetic" k2="-1" k3="1"/>
<feColorMatrix type="matrix" values="0 0 0 0 0 0 0 0 0 0 0 0 0 0 0 0 0 0 0.07 0"/>
<feBlend mode="normal" in2="shape" result="effect1_innerShadow_1268_576"/>
</filter>
<filter id="filter3_i_1268_576" x="172.809" y="111.029" width="263.941" height="267.234" filterUnits="userSpaceOnUse" color-interpolation-filters="sRGB">
<feFlood flood-opacity="0" result="BackgroundImageFix"/>
<feBlend mode="normal" in="SourceGraphic" in2="BackgroundImageFix" result="shape"/>
<feColorMatrix in="SourceAlpha" type="matrix" values="0 0 0 0 0 0 0 0 0 0 0 0 0 0 0 0 0 0 127 0" result="hardAlpha"/>
<feOffset dy="3.29237"/>
<feGaussianBlur stdDeviation="6.54359"/>
<feComposite in2="hardAlpha" operator="arithmetic" k2="-1" k3="1"/>
<feColorMatrix type="matrix" values="0 0 0 0 0 0 0 0 0 0 0 0 0 0 0 0 0 0 0.07 0"/>
<feBlend mode="normal" in2="shape" result="effect1_innerShadow_1268_576"/>
</filter>
<filter id="filter4_i_1268_576" x="189.052" y="127.272" width="231.456" height="234.749" filterUnits="userSpaceOnUse" color-interpolation-filters="sRGB">
<feFlood flood-opacity="0" result="BackgroundImageFix"/>
<feBlend mode="normal" in="SourceGraphic" in2="BackgroundImageFix" result="shape"/>
<feColorMatrix in="SourceAlpha" type="matrix" values="0 0 0 0 0 0 0 0 0 0 0 0 0 0 0 0 0 0 127 0" result="hardAlpha"/>
<feOffset dy="3.29237"/>
<feGaussianBlur stdDeviation="6.54359"/>
<feComposite in2="hardAlpha" operator="arithmetic" k2="-1" k3="1"/>
<feColorMatrix type="matrix" values="0 0 0 0 0 0 0 0 0 0 0 0 0 0 0 0 0 0 0.07 0"/>
<feBlend mode="normal" in2="shape" result="effect1_innerShadow_1268_576"/>
</filter>
<filter id="filter5_i_1268_576" x="203.771" y="141.992" width="202.017" height="205.309" filterUnits="userSpaceOnUse" color-interpolation-filters="sRGB">
<feFlood flood-opacity="0" result="BackgroundImageFix"/>
<feBlend mode="normal" in="SourceGraphic" in2="BackgroundImageFix" result="shape"/>
<feColorMatrix in="SourceAlpha" type="matrix" values="0 0 0 0 0 0 0 0 0 0 0 0 0 0 0 0 0 0 127 0" result="hardAlpha"/>
<feOffset dy="3.29237"/>
<feGaussianBlur stdDeviation="6.54359"/>
<feComposite in2="hardAlpha" operator="arithmetic" k2="-1" k3="1"/>
<feColorMatrix type="matrix" values="0 0 0 0 0 0 0 0 0 0 0 0 0 0 0 0 0 0 0.07 0"/>
<feBlend mode="normal" in2="shape" result="effect1_innerShadow_1268_576"/>
</filter>
<filter id="filter6_i_1268_576" x="216.461" y="154.681" width="176.638" height="179.93" filterUnits="userSpaceOnUse" color-interpolation-filters="sRGB">
<feFlood flood-opacity="0" result="BackgroundImageFix"/>
<feBlend mode="normal" in="SourceGraphic" in2="BackgroundImageFix" result="shape"/>
<feColorMatrix in="SourceAlpha" type="matrix" values="0 0 0 0 0 0 0 0 0 0 0 0 0 0 0 0 0 0 127 0" result="hardAlpha"/>
<feOffset dy="3.29237"/>
<feGaussianBlur stdDeviation="6.54359"/>
<feComposite in2="hardAlpha" operator="arithmetic" k2="-1" k3="1"/>
<feColorMatrix type="matrix" values="0 0 0 0 0 0 0 0 0 0 0 0 0 0 0 0 0 0 0.07 0"/>
<feBlend mode="normal" in2="shape" result="effect1_innerShadow_1268_576"/>
</filter>
<filter id="filter7_i_1268_576" x="227.628" y="165.848" width="154.304" height="157.597" filterUnits="userSpaceOnUse" color-interpolation-filters="sRGB">
<feFlood flood-opacity="0" result="BackgroundImageFix"/>
<feBlend mode="normal" in="SourceGraphic" in2="BackgroundImageFix" result="shape"/>
<feColorMatrix in="SourceAlpha" type="matrix" values="0 0 0 0 0 0 0 0 0 0 0 0 0 0 0 0 0 0 127 0" result="hardAlpha"/>
<feOffset dy="3.29237"/>
<feGaussianBlur stdDeviation="6.54359"/>
<feComposite in2="hardAlpha" operator="arithmetic" k2="-1" k3="1"/>
<feColorMatrix type="matrix" values="0 0 0 0 0 0 0 0 0 0 0 0 0 0 0 0 0 0 0.07 0"/>
<feBlend mode="normal" in2="shape" result="effect1_innerShadow_1268_576"/>
</filter>
<filter id="filter8_i_1268_576" x="78.2091" y="16.4294" width="453.141" height="456.433" filterUnits="userSpaceOnUse" color-interpolation-filters="sRGB">
<feFlood flood-opacity="0" result="BackgroundImageFix"/>
<feBlend mode="normal" in="SourceGraphic" in2="BackgroundImageFix" result="shape"/>
<feColorMatrix in="SourceAlpha" type="matrix" values="0 0 0 0 0 0 0 0 0 0 0 0 0 0 0 0 0 0 127 0" result="hardAlpha"/>
<feOffset dy="3.29237"/>
<feGaussianBlur stdDeviation="6.54359"/>
<feComposite in2="hardAlpha" operator="arithmetic" k2="-1" k3="1"/>
<feColorMatrix type="matrix" values="0 0 0 0 0 0 0 0 0 0 0 0 0 0 0 0 0 0 0.07 0"/>
<feBlend mode="normal" in2="shape" result="effect1_innerShadow_1268_576"/>
</filter>
<filter id="filter9_i_1268_576" x="236.634" y="174.854" width="136.292" height="139.584" filterUnits="userSpaceOnUse" color-interpolation-filters="sRGB">
<feFlood flood-opacity="0" result="BackgroundImageFix"/>
<feBlend mode="normal" in="SourceGraphic" in2="BackgroundImageFix" result="shape"/>
<feColorMatrix in="SourceAlpha" type="matrix" values="0 0 0 0 0 0 0 0 0 0 0 0 0 0 0 0 0 0 127 0" result="hardAlpha"/>
<feOffset dy="3.29237"/>
<feGaussianBlur stdDeviation="6.54359"/>
<feComposite in2="hardAlpha" operator="arithmetic" k2="-1" k3="1"/>
<feColorMatrix type="matrix" values="0 0 0 0 0 0 0 0 0 0 0 0 0 0 0 0 0 0 0.07 0"/>
<feBlend mode="normal" in2="shape" result="effect1_innerShadow_1268_576"/>
</filter>
<linearGradient id="paint0_linear_1268_576" x1="353.809" y1="218.316" x2="252.987" y2="289.768" gradientUnits="userSpaceOnUse">
<stop stop-color="#9435DE" stop-opacity="0"/>
<stop offset="0.46999" stop-color="#9435DE"/>
<stop offset="1" stop-color="#9435DE" stop-opacity="0"/>
</linearGradient>
<linearGradient id="paint1_linear_1268_576" x1="306.467" y1="212.617" x2="306.467" y2="291.96" gradientUnits="userSpaceOnUse">
<stop stop-color="#E3BEFF"/>
<stop offset="1" stop-color="#EACFFF" stop-opacity="0"/>
</linearGradient>
</defs>
</svg>
