<svg width="415" height="546" viewBox="0 0 415 546" fill="none" xmlns="http://www.w3.org/2000/svg">
<path fill-rule="evenodd" clip-rule="evenodd" d="M355.301 0L354.665 0.22701H353.989L355.301 0ZM368.448 545.814C369.097 546 369.098 545.998 369.098 545.998L369.135 545.867C369.161 545.78 369.198 545.649 369.247 545.476C369.346 545.129 369.492 544.614 369.683 543.936C370.064 542.582 370.621 540.581 371.328 537.992C372.742 532.815 374.754 525.289 377.147 515.89C381.931 497.093 388.239 470.804 394.33 440.836C406.509 380.915 417.835 306.223 414.365 247.291C411.445 197.706 396.671 135.871 382.641 86.464C375.624 61.7538 368.79 40.1397 363.71 24.7028C361.169 16.9842 359.068 10.8097 357.601 6.56421C356.867 4.44148 356.293 2.80101 355.901 1.69094C355.705 1.1359 355.555 0.713457 355.454 0.429629L355.34 0.108599L355.302 0.00180325C355.302 0.00180325 355.301 0 354.665 0.22701C353.989 0.22701 353.989 0.22701 353.989 0.22701V0.2382L353.989 0.273665L353.988 0.416528C353.987 0.543439 353.986 0.733287 353.982 0.983674C353.976 1.48445 353.963 2.22737 353.938 3.19326C353.887 5.12505 353.785 7.94857 353.581 11.5104C353.174 18.6343 352.358 28.7098 350.727 40.5099C347.492 63.9082 341.054 94.0534 328.251 121.409C294.324 97.1649 252.56 82.864 207.398 82.864C162.382 82.864 120.742 97.0725 86.8755 121.174C74.1268 93.8414 67.7164 63.7546 64.4954 40.4092C62.871 28.6357 62.0589 18.5854 61.6529 11.48C61.4499 7.92744 61.3485 5.11153 61.2978 3.18502C61.2724 2.22178 61.2598 1.48092 61.2535 0.981538C61.2503 0.731851 61.2487 0.542538 61.2479 0.415986L61.2472 0.27353L61.2472 0.238166L61.2472 0.229548V0.227518C61.2472 0.227518 61.2472 0.22701 60.5713 0.22701L61.2472 0.227518L59.9283 0.0191895L60.5713 0.22701C59.9283 0.0191895 59.9277 0.0211491 59.9277 0.0211491L59.8897 0.138258L59.7758 0.490542C59.6753 0.802031 59.5262 1.26568 59.3314 1.87487C58.9419 3.09324 58.37 4.89376 57.64 7.22337C56.18 11.8826 54.0876 18.6583 51.5575 27.1261C46.4973 44.0616 39.6857 67.7668 32.6798 94.8467C18.6712 148.994 3.87387 216.68 0.764526 270.719C-2.23718 322.888 4.09341 389.461 11.1669 442.963C14.7045 469.72 18.4294 493.219 21.27 510.029C22.6903 518.434 23.8896 525.168 24.7338 529.8C25.156 532.116 25.4894 533.907 25.7173 535.12C25.8313 535.726 25.9188 536.187 25.978 536.497L26.0675 536.964C26.0675 536.964 26.0679 536.966 26.7315 536.839L26.0679 536.966L27.4003 536.937L26.7315 536.839C27.4003 536.937 27.4003 536.937 27.4003 536.937L27.4006 536.934L27.4063 536.896L27.4252 536.772C27.4422 536.661 27.4679 536.496 27.5027 536.277C27.5723 535.841 27.6783 535.193 27.8237 534.35C28.1145 532.664 28.5627 530.198 29.1916 527.085C30.4493 520.857 32.4293 512.039 35.3174 501.679C41.0378 481.162 50.3142 454.627 64.5819 430.221C101.574 465.3 151.922 486.879 207.398 486.879C260.346 486.879 308.623 467.222 345.075 434.932C356.006 460.993 361.681 488.554 364.622 509.693C366.109 520.377 366.896 529.414 367.312 535.778C367.52 538.96 367.635 541.473 367.698 543.19C367.729 544.049 367.748 544.708 367.759 545.152C367.764 545.374 367.767 545.542 367.769 545.654L367.771 545.781L367.772 545.812L367.772 545.82L367.772 545.821L369.097 546L368.448 545.814ZM26.6922 532.977C26.9771 531.378 27.3646 529.303 27.8663 526.819C29.1294 520.565 31.1167 511.714 34.015 501.319C39.8101 480.533 49.254 453.549 63.8477 428.804L64.2812 428.069L64.8984 428.659C101.703 463.853 151.972 485.532 207.398 485.532C260.346 485.532 308.586 465.749 344.88 433.299L345.584 432.669L345.953 433.538C357.188 460.003 362.978 488.07 365.961 509.508C367.453 520.229 368.243 529.299 368.661 535.69C368.809 537.956 368.91 539.885 368.979 541.432C369.277 540.36 369.627 539.092 370.024 537.638C371.436 532.468 373.446 524.949 375.836 515.559C380.617 496.778 386.92 470.511 393.005 440.569C405.18 380.667 416.475 306.118 413.015 247.37C410.104 197.938 395.366 136.221 381.34 86.8308C374.33 62.1423 367.501 40.5463 362.425 25.1226C359.887 17.4109 357.788 11.2426 356.323 7.0028C355.923 5.84491 355.57 4.83086 355.268 3.96849C355.212 5.86608 355.111 8.44047 354.931 11.5871C354.521 18.7401 353.703 28.852 352.066 40.6937C348.792 64.3697 342.243 94.9953 329.128 122.717L328.781 123.451L328.121 122.976C294.3 98.6049 252.562 84.2112 207.398 84.2112C162.38 84.2112 120.765 98.5123 87.0028 122.74L86.3422 123.215L85.996 122.48C72.9372 94.7816 66.4155 64.2154 63.1562 40.5927C61.5261 28.7776 60.7109 18.691 60.3033 11.5566C60.1345 8.60361 60.0356 6.15609 59.9776 4.30075C59.6781 5.24603 59.3277 6.35695 58.9303 7.62492C57.4719 12.279 55.3813 19.049 52.8531 27.5106C47.7965 44.434 40.9896 68.1228 33.9888 95.183C19.9841 149.316 5.21549 216.895 2.1141 270.796C-0.879936 322.832 5.43559 389.3 12.5071 442.787C16.0421 469.525 19.7644 493.007 22.603 509.806C24.0223 518.204 25.2205 524.932 26.0639 529.559C26.3028 530.87 26.5133 532.013 26.6922 532.977Z" fill="url(#paint0_linear_1508_149)"/>
<path fill-rule="evenodd" clip-rule="evenodd" d="M331.795 44L331.26 44.1904H330.692L331.795 44ZM342.851 501.844C343.397 502 343.398 501.998 343.398 501.998L343.429 501.889C343.451 501.815 343.482 501.705 343.524 501.56C343.607 501.27 343.73 500.837 343.89 500.269C344.21 499.133 344.679 497.454 345.274 495.283C346.463 490.94 348.155 484.627 350.167 476.743C354.191 460.976 359.495 438.924 364.617 413.785C374.859 363.523 384.385 300.868 381.466 251.434C379.01 209.841 366.586 157.972 354.787 116.528C348.886 95.8008 343.139 77.6703 338.867 64.7214C336.73 58.2468 334.963 53.0674 333.729 49.5062C333.113 47.7256 332.629 46.3496 332.3 45.4184C332.135 44.9528 332.009 44.5985 331.924 44.3604L331.828 44.0911L331.796 44.0015C331.796 44.0015 331.795 44 331.26 44.1904C330.692 44.1904 330.692 44.1904 330.692 44.1904V44.1998L330.692 44.2296L330.691 44.3494C330.69 44.4559 330.689 44.6151 330.686 44.8251C330.681 45.2452 330.67 45.8684 330.649 46.6786C330.606 48.299 330.521 50.6675 330.349 53.6552C330.006 59.631 329.32 68.0826 327.948 77.9808C325.228 97.608 319.814 122.895 309.047 145.841C280.516 125.505 245.394 113.509 207.414 113.509C169.558 113.509 134.54 125.427 106.059 145.644C95.3379 122.717 89.9471 97.4791 87.2383 77.8964C85.8722 68.0204 85.1893 59.5899 84.8478 53.6297C84.6771 50.6498 84.5918 48.2877 84.5492 46.6717C84.5279 45.8637 84.5173 45.2422 84.5119 44.8233C84.5093 44.6139 84.508 44.4551 84.5073 44.3489L84.5067 44.2294L84.5067 44.1998L84.5066 44.1926V44.1908C84.5066 44.1908 84.5066 44.1904 83.9382 44.1904L84.5066 44.1908L83.3976 44.0161L83.9382 44.1904C83.3976 44.0161 83.397 44.0177 83.397 44.0177L83.3651 44.116L83.2693 44.4115C83.1848 44.6728 83.0593 45.0617 82.8956 45.5727C82.568 46.5947 82.0871 48.105 81.4732 50.0592C80.2453 53.9674 78.4857 59.6511 76.358 66.7542C72.1025 80.9601 66.3742 100.845 60.4825 123.56C48.7018 168.981 36.2578 225.757 33.6429 271.087C31.1186 314.847 36.4424 370.69 42.391 415.57C45.3659 438.014 48.4985 457.726 50.8873 471.827C52.0817 478.877 53.0902 484.525 53.8003 488.411C54.1553 490.354 54.4356 491.856 54.6273 492.873C54.7232 493.382 54.7968 493.769 54.8465 494.029L54.9218 494.421C54.9218 494.421 54.9221 494.422 55.4803 494.315L54.9221 494.422L56.0426 494.397L55.4803 494.315C56.0426 494.397 56.0426 494.397 56.0426 494.397L56.0429 494.396L56.0477 494.363L56.0636 494.259C56.0779 494.166 56.0995 494.027 56.1288 493.844C56.1873 493.478 56.2765 492.934 56.3988 492.227C56.6433 490.813 57.0202 488.745 57.549 486.133C58.6067 480.91 60.2718 473.512 62.7007 464.823C67.5113 447.612 75.3124 425.354 87.311 404.881C118.42 434.307 160.761 452.408 207.414 452.408C251.942 452.408 292.541 435.919 323.196 408.833C332.388 430.694 337.16 453.813 339.634 471.544C340.884 480.507 341.546 488.087 341.896 493.425C342.071 496.095 342.168 498.203 342.221 499.643C342.247 500.363 342.263 500.916 342.272 501.289C342.276 501.475 342.279 501.616 342.281 501.71L342.282 501.816L342.283 501.842L342.283 501.849L342.283 501.85L343.397 502L342.851 501.844ZM55.4472 491.076C55.6868 489.735 56.0126 487.994 56.4346 485.91C57.4967 480.665 59.168 473.24 61.6054 464.52C66.4789 447.085 74.4208 424.45 86.6936 403.693L87.0581 403.076L87.5772 403.571C118.529 433.093 160.803 451.278 207.414 451.278C251.941 451.278 292.51 434.683 323.031 407.464L323.624 406.935L323.934 407.664C333.382 429.863 338.251 453.407 340.76 471.389C342.015 480.383 342.679 487.991 343.031 493.352C343.155 495.252 343.24 496.871 343.298 498.168C343.549 497.269 343.843 496.205 344.177 494.986C345.364 490.649 347.054 484.342 349.065 476.465C353.085 460.711 358.385 438.678 363.503 413.561C373.742 363.314 383.241 300.78 380.331 251.501C377.883 210.036 365.488 158.266 353.694 116.836C347.798 96.1267 342.055 78.0113 337.786 65.0735C335.652 58.6048 333.886 53.4306 332.654 49.8741C332.318 48.9029 332.021 48.0523 331.768 47.3289C331.72 48.9206 331.635 51.0801 331.484 53.7196C331.14 59.7197 330.451 68.2018 329.075 78.135C326.322 97.9951 320.814 123.685 309.785 146.939L309.493 147.554L308.938 147.155C280.496 126.712 245.395 114.639 207.414 114.639C169.556 114.639 134.559 126.635 106.166 146.958L105.611 147.356L105.32 146.74C94.3376 123.505 88.853 97.8656 86.1121 78.0503C84.7412 68.1395 84.0557 59.6785 83.7129 53.694C83.571 51.2169 83.4878 49.1639 83.439 47.6076C83.1871 48.4005 82.8924 49.3324 82.5583 50.396C81.3318 54.3 79.5737 59.9788 77.4475 67.0766C73.1951 81.2725 67.4708 101.143 61.5834 123.842C49.8059 169.25 37.386 225.938 34.7779 271.152C32.26 314.8 37.5711 370.555 43.518 415.422C46.4908 437.85 49.6212 457.548 52.0083 471.639C53.2018 478.684 54.2095 484.328 54.9188 488.209C55.1197 489.309 55.2967 490.267 55.4472 491.076Z" fill="url(#paint1_linear_1508_149)"/>
<path fill-rule="evenodd" clip-rule="evenodd" d="M306.153 91L305.728 91.1513H305.277L306.153 91ZM314.928 454.876C315.361 455 315.362 454.999 315.362 454.999L315.387 454.912C315.404 454.853 315.429 454.766 315.461 454.65C315.527 454.419 315.625 454.076 315.752 453.624C316.006 452.721 316.378 451.387 316.85 449.661C317.794 446.21 319.137 441.193 320.734 434.927C323.928 422.396 328.138 404.87 332.204 384.891C340.333 344.944 347.893 295.149 345.576 255.86C343.627 222.804 333.766 181.581 324.401 148.643C319.718 132.169 315.156 117.76 311.765 107.469C310.07 102.323 308.667 98.2064 307.688 95.3761C307.198 93.961 306.815 92.8673 306.553 92.1273C306.423 91.7573 306.323 91.4756 306.255 91.2864L306.179 91.0724L306.153 91.0012C306.153 91.0012 306.153 91 305.728 91.1513C305.277 91.1513 305.277 91.1513 305.277 91.1513V91.1588L305.277 91.1824L305.276 91.2777C305.276 91.3623 305.275 91.4889 305.273 91.6558C305.268 91.9896 305.26 92.4849 305.243 93.1288C305.209 94.4167 305.141 96.299 305.005 98.6736C304.733 103.423 304.188 110.14 303.099 118.007C300.94 133.605 296.643 153.702 288.097 171.939C265.453 155.777 237.576 146.243 207.432 146.243C177.385 146.243 149.592 155.715 126.987 171.783C118.477 153.561 114.199 133.503 112.049 117.939C110.965 110.09 110.422 103.39 110.151 98.6533C110.016 96.285 109.948 94.4077 109.914 93.1233C109.898 92.4812 109.889 91.9873 109.885 91.6544C109.883 91.4879 109.882 91.3617 109.881 91.2773L109.881 91.1824L109.881 91.1588L109.881 91.153V91.1517C109.881 91.1517 109.881 91.1513 109.429 91.1513L109.881 91.1517L109 91.0128L109.429 91.1513C109 91.0128 109 91.0141 109 91.0141L108.975 91.0922L108.899 91.327C108.831 91.5347 108.732 91.8438 108.602 92.2499C108.342 93.0622 107.96 94.2625 107.473 95.8156C106.498 98.9217 105.102 103.439 103.413 109.084C100.036 120.374 95.489 136.178 90.8128 154.231C81.4625 190.33 71.5857 235.453 69.5103 271.48C67.5067 306.259 71.7322 350.64 76.4536 386.309C78.8148 404.147 81.3011 419.813 83.1971 431.019C84.1451 436.623 84.9456 441.112 85.5091 444.2C85.7909 445.744 86.0134 446.938 86.1655 447.746C86.2416 448.15 86.3 448.458 86.3395 448.665L86.3993 448.976C86.3993 448.976 86.3995 448.977 86.8425 448.893L86.3995 448.978L87.2889 448.958L86.8425 448.893C87.2889 448.958 87.2889 448.958 87.2889 448.958L87.2891 448.956L87.2929 448.931L87.3055 448.848C87.3168 448.774 87.334 448.664 87.3572 448.518C87.4037 448.227 87.4745 447.795 87.5715 447.233C87.7656 446.109 88.0648 444.466 88.4845 442.39C89.324 438.238 90.6456 432.359 92.5733 425.453C96.3915 411.775 102.583 394.085 112.106 377.814C136.798 401.2 170.403 415.586 207.432 415.586C242.773 415.586 274.997 402.482 299.327 380.954C306.623 398.329 310.411 416.703 312.374 430.795C313.366 437.918 313.892 443.942 314.17 448.185C314.308 450.307 314.385 451.982 314.427 453.127C314.448 453.699 314.461 454.139 314.468 454.435C314.471 454.583 314.473 454.695 314.475 454.77L314.476 454.854L314.477 454.875L314.477 454.88L314.477 454.881L315.361 455L314.928 454.876ZM86.8163 446.318C87.0064 445.252 87.2651 443.869 87.5999 442.213C88.443 438.043 89.7694 432.143 91.704 425.213C95.572 411.356 101.876 393.366 111.616 376.869L111.906 376.379L112.318 376.773C136.884 400.236 170.437 414.688 207.432 414.688C242.773 414.688 274.972 401.499 299.197 379.866L299.667 379.446L299.913 380.026C307.412 397.669 311.277 416.38 313.268 430.672C314.264 437.82 314.791 443.866 315.07 448.127C315.169 449.637 315.236 450.923 315.282 451.955C315.481 451.24 315.715 450.395 315.98 449.426C316.922 445.979 318.264 440.966 319.859 434.706C323.05 422.185 327.257 404.674 331.319 384.712C339.446 344.778 346.985 295.079 344.675 255.913C342.732 222.959 332.895 181.814 323.533 148.887C318.854 132.428 314.296 118.031 310.908 107.748C309.214 102.607 307.812 98.4951 306.835 95.6685C306.568 94.8966 306.332 94.2206 306.131 93.6457C306.093 94.9107 306.026 96.627 305.906 98.7247C305.632 103.493 305.086 110.235 303.993 118.129C301.808 133.913 297.437 154.33 288.683 172.811L288.451 173.301L288.011 172.984C265.437 156.737 237.577 147.141 207.432 147.141C177.384 147.141 149.607 156.675 127.072 172.827L126.631 173.143L126.4 172.654C117.683 154.188 113.33 133.81 111.155 118.062C110.067 110.185 109.523 103.461 109.251 98.7044C109.138 96.7357 109.072 95.1041 109.033 93.8672C108.833 94.4974 108.599 95.238 108.334 96.0833C107.361 99.186 105.965 103.699 104.278 109.34C100.903 120.623 96.3593 136.415 91.6865 154.455C82.3388 190.544 72.4812 235.597 70.4111 271.531C68.4127 306.221 72.6281 350.533 77.3481 386.191C79.7076 404.016 82.1922 419.672 84.0868 430.87C85.0341 436.47 85.8339 440.955 86.3968 444.04C86.5563 444.914 86.6968 445.675 86.8163 446.318Z" fill="url(#paint2_linear_1508_149)"/>
<g style="mix-blend-mode:plus-lighter" filter="url(#filter0_ii_1508_149)">
<path fill-rule="evenodd" clip-rule="evenodd" d="M276.205 364.501C275.475 362.574 273.043 362.027 271.453 363.338C254.255 377.515 232.113 386.047 207.951 386.047C182.44 386.047 159.181 376.536 141.616 360.912C140.168 359.624 137.881 359.94 136.957 361.644C130.993 372.642 127.007 384.229 124.463 393.372C123.558 396.627 118.105 396.563 117.561 393.227C113.308 367.167 106.316 317.255 108.369 281.401C110.48 244.546 123.752 194.573 131.449 168.137C132.405 164.856 137.993 165.527 138.445 168.914C139.865 179.535 142.642 193.181 148.072 205.939C148.808 207.668 150.957 208.223 152.52 207.18C168.341 196.628 187.417 190.465 207.951 190.465C228.555 190.465 247.69 196.669 263.542 207.288C265.104 208.334 267.255 207.782 267.993 206.053C273.746 192.582 276.534 178.106 277.885 167.24C278.3 163.9 283.61 163.168 284.638 166.373C292.356 190.43 305.707 236.14 307.693 270.022C310.06 310.394 298.171 366.062 290.983 395.278C290.157 398.633 284.42 398.102 283.894 394.687C282.527 385.806 280.192 375.027 276.205 364.501ZM141.7 302.953C150.831 283.042 189.691 316.045 200.981 326.237C202.515 327.622 202.124 330.037 200.23 330.864C191.612 334.631 170.432 342.603 157.079 336.673C143.734 330.746 134.86 317.868 141.7 302.953ZM214.938 330.864C213.044 330.037 212.653 327.622 214.187 326.237C225.477 316.045 264.337 283.042 273.468 302.953C280.308 317.868 271.435 330.746 258.089 336.673C244.736 342.603 223.556 334.631 214.938 330.864Z" fill="#006DFF" fill-opacity="0.29"/>
<path d="M214.32 221.095C214.777 218.777 212.5 216.865 210.296 217.716L197.558 222.635C196.443 223.065 195.69 224.116 195.641 225.309L194.207 259.972C194.116 262.158 196.321 263.703 198.345 262.871L200.125 262.139C202.099 261.327 204.266 262.779 204.266 264.914V278.99C204.266 282.48 209.217 283.158 210.155 279.797L219.029 247.998C219.665 245.718 217.533 243.633 215.268 244.321L214.173 244.653C212.006 245.311 209.92 243.424 210.358 241.203L214.32 221.095Z" fill="white"/>
</g>
<g filter="url(#filter1_di_1508_149)">
<path fill-rule="evenodd" clip-rule="evenodd" d="M244.398 171.833C244.694 171.214 244.25 170.511 243.568 170.427C239.22 169.891 234.996 167.943 231.64 164.587C228.076 161.024 226.1 156.48 225.717 151.849C225.664 151.205 225.051 150.74 224.435 150.936C223.035 151.383 221.709 151.942 220.528 152.514C219.514 153.006 218.207 151.615 218.876 150.709C222.253 146.131 227.589 139.32 232.373 135.055C237.269 130.689 244.817 126.109 249.95 123.206C250.942 122.645 252.196 124.181 251.568 125.131C250.72 126.416 249.877 127.885 249.205 129.454C248.958 130.029 249.334 130.666 249.946 130.803C253.594 131.619 257.072 133.454 259.923 136.305C262.783 139.166 264.621 142.658 265.433 146.32C265.569 146.932 266.205 147.309 266.782 147.063C268.553 146.307 270.198 145.332 271.596 144.375C272.521 143.741 273.989 144.896 273.462 145.887C270.917 150.67 266.854 157.721 262.842 162.233C258.054 167.616 250.025 173.114 244.554 176.547C243.579 177.16 242.241 175.618 242.85 174.64C243.392 173.771 243.923 172.828 244.398 171.833ZM234.076 142.991C238.055 141.514 239.024 150.766 239.25 154.384C239.293 155.072 238.635 155.553 237.999 155.287C236.021 154.46 232.406 152.643 231.424 150.091C230.351 147.304 230.93 144.159 234.076 142.991ZM240.835 158.122C240.569 157.487 241.05 156.828 241.738 156.871C245.355 157.097 254.607 158.066 253.13 162.046C251.963 165.192 248.817 165.771 246.03 164.698C243.478 163.715 241.662 160.101 240.835 158.122Z" fill="#006DFF" fill-opacity="0.29"/>
<path d="M255.832 142.046C256.486 141.607 256.4 140.62 255.68 140.301L253.999 139.557C253.635 139.395 253.21 139.466 252.917 139.735L248.032 144.232C247.634 144.599 247.749 145.255 248.249 145.464V145.464C248.736 145.667 248.861 146.3 248.488 146.674L248.279 146.883C247.505 147.657 248.452 148.905 249.406 148.368L253.098 146.287C253.566 146.023 253.559 145.346 253.085 145.093V145.093C252.632 144.851 252.6 144.214 253.026 143.928L255.832 142.046Z" fill="white"/>
</g>
<g filter="url(#filter2_di_1508_149)">
<path fill-rule="evenodd" clip-rule="evenodd" d="M179.832 430.019C177.439 429.89 175.072 428.905 173.233 427.065C171.307 425.14 170.317 422.636 170.267 420.129C167.542 420.838 165.215 422.57 165.215 422.57C165.215 422.57 169.763 415.855 173.595 412.438C177.565 408.898 185.054 405.074 185.054 405.074C185.054 405.074 182.733 407.396 181.713 410.219C183.732 410.546 185.677 411.493 187.241 413.057C188.81 414.626 189.758 416.579 190.082 418.604C192.91 417.587 195.239 415.259 195.239 415.259C195.239 415.259 191.929 422.253 188.687 425.899C184.833 430.233 176.736 434.716 176.736 434.716C176.736 434.716 178.772 432.631 179.832 430.019ZM174.439 416.369C176.88 415.463 177.034 422.707 177.034 422.707C177.034 422.707 173.806 421.653 173.125 419.885C172.594 418.505 172.881 416.947 174.439 416.369ZM177.538 423.211C177.538 423.211 184.783 423.365 183.877 425.806C183.298 427.365 181.74 427.651 180.36 427.12C178.593 426.44 177.538 423.211 177.538 423.211Z" fill="#006DFF" fill-opacity="0.29"/>
<path d="M185.961 415.4L184.01 414.536L180.929 417.372L181.965 417.805L179.067 420.703L184.396 417.699L183.359 417.145L185.961 415.4Z" fill="white"/>
</g>
<g style="mix-blend-mode:plus-lighter" filter="url(#filter3_f_1508_149)">
<circle cx="249" cy="323" r="36" fill="#FDFFB3" fill-opacity="0.7"/>
</g>
<g style="mix-blend-mode:plus-lighter" filter="url(#filter4_f_1508_149)">
<circle cx="164.091" cy="317.091" r="36" transform="rotate(15 164.091 317.091)" fill="#FDFFB3" fill-opacity="0.7"/>
</g>
<defs>
<filter id="filter0_ii_1508_149" x="108" y="164.315" width="200" height="236.516" filterUnits="userSpaceOnUse" color-interpolation-filters="sRGB">
<feFlood flood-opacity="0" result="BackgroundImageFix"/>
<feBlend mode="normal" in="SourceGraphic" in2="BackgroundImageFix" result="shape"/>
<feColorMatrix in="SourceAlpha" type="matrix" values="0 0 0 0 0 0 0 0 0 0 0 0 0 0 0 0 0 0 127 0" result="hardAlpha"/>
<feOffset dy="3.29237"/>
<feGaussianBlur stdDeviation="20.2"/>
<feComposite in2="hardAlpha" operator="arithmetic" k2="-1" k3="1"/>
<feColorMatrix type="matrix" values="0 0 0 0 1 0 0 0 0 1 0 0 0 0 1 0 0 0 0.52 0"/>
<feBlend mode="normal" in2="shape" result="effect1_innerShadow_1508_149"/>
<feColorMatrix in="SourceAlpha" type="matrix" values="0 0 0 0 0 0 0 0 0 0 0 0 0 0 0 0 0 0 127 0" result="hardAlpha"/>
<feOffset dy="3"/>
<feGaussianBlur stdDeviation="1.85"/>
<feComposite in2="hardAlpha" operator="arithmetic" k2="-1" k3="1"/>
<feColorMatrix type="matrix" values="0 0 0 0 0.803359 0 0 0 0 0.811225 0 0 0 0 1 0 0 0 1 0"/>
<feBlend mode="normal" in2="effect1_innerShadow_1508_149" result="effect2_innerShadow_1508_149"/>
</filter>
<filter id="filter1_di_1508_149" x="214.693" y="122.085" width="62.8802" height="61.6016" filterUnits="userSpaceOnUse" color-interpolation-filters="sRGB">
<feFlood flood-opacity="0" result="BackgroundImageFix"/>
<feColorMatrix in="SourceAlpha" type="matrix" values="0 0 0 0 0 0 0 0 0 0 0 0 0 0 0 0 0 0 127 0" result="hardAlpha"/>
<feOffset dy="3"/>
<feGaussianBlur stdDeviation="2"/>
<feComposite in2="hardAlpha" operator="out"/>
<feColorMatrix type="matrix" values="0 0 0 0 0.015859 0 0 0 0 0.0552246 0 0 0 0 1 0 0 0 1 0"/>
<feBlend mode="normal" in2="BackgroundImageFix" result="effect1_dropShadow_1508_149"/>
<feBlend mode="normal" in="SourceGraphic" in2="effect1_dropShadow_1508_149" result="shape"/>
<feColorMatrix in="SourceAlpha" type="matrix" values="0 0 0 0 0 0 0 0 0 0 0 0 0 0 0 0 0 0 127 0" result="hardAlpha"/>
<feOffset dy="3.29237"/>
<feGaussianBlur stdDeviation="20.2"/>
<feComposite in2="hardAlpha" operator="arithmetic" k2="-1" k3="1"/>
<feColorMatrix type="matrix" values="0 0 0 0 1 0 0 0 0 1 0 0 0 0 1 0 0 0 0.52 0"/>
<feBlend mode="normal" in2="shape" result="effect2_innerShadow_1508_149"/>
</filter>
<filter id="filter2_di_1508_149" x="161.215" y="404.074" width="38.0243" height="37.6421" filterUnits="userSpaceOnUse" color-interpolation-filters="sRGB">
<feFlood flood-opacity="0" result="BackgroundImageFix"/>
<feColorMatrix in="SourceAlpha" type="matrix" values="0 0 0 0 0 0 0 0 0 0 0 0 0 0 0 0 0 0 127 0" result="hardAlpha"/>
<feOffset dy="3"/>
<feGaussianBlur stdDeviation="2"/>
<feComposite in2="hardAlpha" operator="out"/>
<feColorMatrix type="matrix" values="0 0 0 0 0.015859 0 0 0 0 0.0552246 0 0 0 0 1 0 0 0 1 0"/>
<feBlend mode="normal" in2="BackgroundImageFix" result="effect1_dropShadow_1508_149"/>
<feBlend mode="normal" in="SourceGraphic" in2="effect1_dropShadow_1508_149" result="shape"/>
<feColorMatrix in="SourceAlpha" type="matrix" values="0 0 0 0 0 0 0 0 0 0 0 0 0 0 0 0 0 0 127 0" result="hardAlpha"/>
<feOffset dy="3.29237"/>
<feGaussianBlur stdDeviation="20.2"/>
<feComposite in2="hardAlpha" operator="arithmetic" k2="-1" k3="1"/>
<feColorMatrix type="matrix" values="0 0 0 0 1 0 0 0 0 1 0 0 0 0 1 0 0 0 0.52 0"/>
<feBlend mode="normal" in2="shape" result="effect2_innerShadow_1508_149"/>
</filter>
<filter id="filter3_f_1508_149" x="173.2" y="247.2" width="151.6" height="151.6" filterUnits="userSpaceOnUse" color-interpolation-filters="sRGB">
<feFlood flood-opacity="0" result="BackgroundImageFix"/>
<feBlend mode="normal" in="SourceGraphic" in2="BackgroundImageFix" result="shape"/>
<feGaussianBlur stdDeviation="19.9" result="effect1_foregroundBlur_1508_149"/>
</filter>
<filter id="filter4_f_1508_149" x="88.2819" y="241.282" width="151.618" height="151.618" filterUnits="userSpaceOnUse" color-interpolation-filters="sRGB">
<feFlood flood-opacity="0" result="BackgroundImageFix"/>
<feBlend mode="normal" in="SourceGraphic" in2="BackgroundImageFix" result="shape"/>
<feGaussianBlur stdDeviation="19.9" result="effect1_foregroundBlur_1508_149"/>
</filter>
<linearGradient id="paint0_linear_1508_149" x1="202" y1="83.5" x2="207.5" y2="546" gradientUnits="userSpaceOnUse">
<stop offset="0.081354" stop-color="white" stop-opacity="0"/>
<stop offset="0.443522" stop-color="white" stop-opacity="0.4"/>
<stop offset="0.732325" stop-color="white" stop-opacity="0"/>
</linearGradient>
<linearGradient id="paint1_linear_1508_149" x1="202.875" y1="114.042" x2="207.477" y2="502" gradientUnits="userSpaceOnUse">
<stop offset="0.081354" stop-color="white" stop-opacity="0"/>
<stop offset="0.443522" stop-color="white" stop-opacity="0.4"/>
<stop offset="0.732325" stop-color="white" stop-opacity="0"/>
</linearGradient>
<linearGradient id="paint2_linear_1508_149" x1="203.829" y1="146.667" x2="207.491" y2="455" gradientUnits="userSpaceOnUse">
<stop offset="0.081354" stop-color="white" stop-opacity="0"/>
<stop offset="0.443522" stop-color="white" stop-opacity="0.4"/>
<stop offset="0.732325" stop-color="white" stop-opacity="0"/>
</linearGradient>
</defs>
</svg>
