<svg xmlns="http://www.w3.org/2000/svg" width="615" height="546" viewBox="0 0 615 546" fill="none">
<path d="M604.642 0.98291L604.642 615.017M558.854 0.982908L558.854 615.017M513.065 0.982906L513.065 615.017M467.277 0.982904L467.277 615.017M421.488 0.982902L421.488 615.017M375.7 0.9829L375.7 615.017M329.911 0.982898L329.911 615.017M284.123 0.982896L284.123 615.017M238.334 0.982894L238.334 615.017M192.546 0.982892L192.546 615.017M146.758 0.98289L146.757 615.017M100.969 0.982888L100.969 615.017M55.1806 0.982886L55.1805 615.017M9.3921 0.982884L9.39204 615.017M614.034 605.625L-4.91334e-05 605.625M614.034 559.837L-4.71319e-05 559.837M614.034 514.048L-4.51304e-05 514.048M614.034 468.26L-4.31289e-05 468.26M614.034 422.471L-2.39115e-06 422.471M614.034 376.683L-3.89672e-07 376.683M614.034 330.894L1.61181e-06 330.894M614.034 285.106L3.61328e-06 285.106M614.034 239.317L5.61476e-06 239.317M614.034 193.529L7.61623e-06 193.529M614.034 147.741L9.61771e-06 147.74M614.034 101.952L1.16192e-05 101.952M614.034 56.1635L1.36207e-05 56.1634M614.034 10.3751L1.56221e-05 10.375" stroke="url(#paint0_linear_49_179)" stroke-opacity="0.1"/>
<defs>
<linearGradient id="paint0_linear_49_179" x1="614.034" y1="308" x2="-1.34201e-05" y2="308" gradientUnits="userSpaceOnUse">
<stop stop-color="white" stop-opacity="0"/>
<stop offset="0.226569" stop-color="white"/>
<stop offset="0.815841" stop-color="white"/>
<stop offset="1" stop-color="white" stop-opacity="0"/>
</linearGradient>
</defs>
</svg>