<svg width="29" height="28" viewBox="0 0 29 28" fill="none" xmlns="http://www.w3.org/2000/svg">
<circle cx="14.5" cy="13.9921" r="10.09" transform="rotate(45 14.5 13.9921)" fill="#202022" stroke="black"/>
<path d="M16.2171 16.826L16.2171 17.0739C16.0725 17.0739 15.9339 17.0164 15.8317 16.9142C15.7295 16.812 15.6721 16.6734 15.6721 16.5289L15.9221 16.5289L16.2171 16.826ZM16.2171 16.826L16.2171 17.0739C16.3616 17.0739 16.5002 17.0164 16.6024 16.9142L18.4796 15.037C18.5763 14.9404 18.6306 14.8092 18.6306 14.6725C18.6306 14.5358 18.5763 14.4047 18.4796 14.308L16.6024 12.4308L16.2171 16.826ZM16.7605 14.1345L10.4165 14.1326L10.4157 14.1326C10.2718 14.133 10.1338 14.1904 10.032 14.2922C9.93025 14.394 9.87288 14.5318 9.87237 14.6757C9.87237 14.6758 9.87237 14.6759 9.87237 14.676L10.1224 14.6767C10.1222 14.7156 10.1298 14.7542 10.1446 14.7902C10.1594 14.8262 10.1812 14.859 10.2088 14.8865C10.2363 14.914 10.269 14.9358 10.305 14.9507C10.341 14.9655 10.3796 14.973 10.4186 14.9729L16.7605 14.1345Z" fill="#D1DEFF" stroke="#D1DEFF" stroke-width="0.5"/>
</svg>
