<svg width="16" height="17" viewBox="0 0 16 17" fill="none" xmlns="http://www.w3.org/2000/svg">
<circle cx="8" cy="8.42969" r="8" fill="#0030AD"/>
<path d="M7.78476 5.7202C7.78476 5.79843 7.81584 5.87346 7.87116 5.92878C7.92648 5.98409 8.00151 6.01517 8.07974 6.01517L10 6.01517L5.08574 10.9265C5.0308 10.9818 4.99996 11.0565 4.99996 11.1345C4.99996 11.2124 5.0308 11.2872 5.08574 11.3424C5.11316 11.3701 5.14578 11.392 5.18173 11.407C5.21767 11.422 5.25623 11.4297 5.29517 11.4297C5.33411 11.4297 5.37266 11.422 5.40861 11.407C5.44456 11.392 5.47718 11.3701 5.5046 11.3424L10.41 6.43699L10.41 8.34253C10.41 8.42076 10.4411 8.49579 10.4964 8.55111C10.5518 8.60643 10.6268 8.63751 10.705 8.63751C10.7833 8.63751 10.8583 8.60643 10.9136 8.55111C10.9689 8.49579 11 8.42076 11 8.34253L11 5.68775C11 5.61734 10.972 5.54981 10.9222 5.50003C10.8725 5.45024 10.8049 5.42227 10.7345 5.42227L8.07974 5.42227C8.04075 5.42227 8.00215 5.42999 7.96617 5.445C7.93019 5.46001 7.89754 5.482 7.87011 5.50971C7.84268 5.53741 7.82102 5.57028 7.80637 5.60641C7.79172 5.64254 7.78437 5.68121 7.78476 5.7202Z" fill="white"/>
</svg>
