<svg width="60" height="25" viewBox="0 0 60 25" fill="none" xmlns="http://www.w3.org/2000/svg">
<g clip-path="url(#clip0_377_286)">
<path d="M46.0891 8.95731H42.9296C42.7438 8.95731 42.5579 9.14316 42.465 9.32901L41.1641 17.5064C41.1641 17.6922 41.257 17.7852 41.4428 17.7852H43.1155C43.3013 17.7852 43.3943 17.6922 43.3943 17.5064L43.766 15.1833C43.766 14.9974 43.9518 14.8116 44.2306 14.8116H45.2528C47.39 14.8116 48.5981 13.7894 48.8768 11.7451C49.0627 10.9087 48.8768 10.1653 48.5051 9.7007C47.9476 9.23608 47.1113 8.95731 46.0891 8.95731ZM46.4608 12.0238C46.2749 13.1389 45.4386 13.1389 44.6023 13.1389H44.0447L44.4164 11.0017C44.4164 10.9087 44.5094 10.8158 44.6952 10.8158H44.8811C45.4386 10.8158 45.9962 10.8158 46.2749 11.1875C46.4608 11.2804 46.4608 11.5592 46.4608 12.0238Z" fill="#139AD6"/>
<path d="M23.3225 8.95731H20.163C19.9772 8.95731 19.7913 9.14316 19.6984 9.32901L18.3975 17.5064C18.3975 17.6922 18.4904 17.7852 18.6762 17.7852H20.163C20.3489 17.7852 20.5347 17.5993 20.6277 17.4135L20.9994 15.1833C20.9994 14.9974 21.1852 14.8116 21.464 14.8116H22.4862C24.6234 14.8116 25.8315 13.7894 26.1102 11.7451C26.2961 10.9087 26.1102 10.1653 25.7385 9.7007C25.181 9.23608 24.4376 8.95731 23.3225 8.95731ZM23.6942 12.0238C23.5083 13.1389 22.672 13.1389 21.8357 13.1389H21.3711L21.7428 11.0017C21.7428 10.9087 21.8357 10.8158 22.0215 10.8158H22.2074C22.7649 10.8158 23.3225 10.8158 23.6013 11.1875C23.6942 11.2804 23.7871 11.5592 23.6942 12.0238Z" fill="#263B80"/>
<path d="M32.8941 11.9309H31.4073C31.3144 11.9309 31.1285 12.0238 31.1285 12.1168L31.0356 12.5814L30.9427 12.3955C30.571 11.9309 29.9205 11.7451 29.1771 11.7451C27.5045 11.7451 26.0177 13.046 25.7389 14.8116C25.553 15.7408 25.8318 16.5772 26.2964 17.1347C26.7611 17.6923 27.4115 17.8781 28.2479 17.8781C29.6417 17.8781 30.3851 17.0418 30.3851 17.0418L30.2922 17.5064C30.2922 17.6923 30.3851 17.7852 30.571 17.7852H31.9648C32.1507 17.7852 32.3365 17.5993 32.4295 17.4135L33.2658 12.2097C33.1729 12.1168 32.987 11.9309 32.8941 11.9309ZM30.7568 14.9045C30.571 15.7408 29.9205 16.3913 28.9912 16.3913C28.5266 16.3913 28.1549 16.2055 27.9691 16.0196C27.7832 15.7408 27.6903 15.3691 27.6903 14.9045C27.7832 14.0682 28.5266 13.4177 29.363 13.4177C29.8276 13.4177 30.1063 13.6036 30.3851 13.7894C30.6639 14.0682 30.7568 14.5328 30.7568 14.9045Z" fill="#263B80"/>
<path d="M55.5679 11.9309H54.0811C53.9882 11.9309 53.8024 12.0238 53.8024 12.1168L53.7094 12.5814L53.6165 12.3955C53.2448 11.9309 52.5943 11.7451 51.8509 11.7451C50.1783 11.7451 48.6915 13.046 48.4127 14.8116C48.2269 15.7408 48.5056 16.5772 48.9703 17.1347C49.4349 17.6923 50.0854 17.8781 50.9217 17.8781C52.3156 17.8781 53.059 17.0418 53.059 17.0418L52.966 17.5064C52.966 17.6923 53.059 17.7852 53.2448 17.7852H54.6387C54.8245 17.7852 55.0104 17.5993 55.1033 17.4135L55.9396 12.2097C55.8467 12.1168 55.7538 11.9309 55.5679 11.9309ZM53.4306 14.9045C53.2448 15.7408 52.5943 16.3913 51.6651 16.3913C51.2005 16.3913 50.8288 16.2055 50.6429 16.0196C50.4571 15.7408 50.3641 15.3691 50.3641 14.9045C50.4571 14.0682 51.2005 13.4177 52.0368 13.4177C52.5014 13.4177 52.7802 13.6036 53.059 13.7894C53.4307 14.0682 53.5236 14.5328 53.4306 14.9045Z" fill="#139AD6"/>
<path d="M40.9785 11.9309H39.3987C39.2129 11.9309 39.12 12.0238 39.027 12.1168L36.9827 15.2762L36.0534 12.3026C35.9605 12.1168 35.8676 12.0238 35.5888 12.0238H34.102C33.9162 12.0238 33.8232 12.2097 33.8232 12.3955L35.4959 17.3206L33.9162 19.5508C33.8232 19.7366 33.9162 20.0154 34.102 20.0154H35.5888C35.7747 20.0154 35.8676 19.9225 35.9605 19.8295L41.0714 12.4885C41.3502 12.2097 41.1643 11.9309 40.9785 11.9309Z" fill="#263B80"/>
<path d="M57.3332 9.2361L56.0322 17.5993C56.0322 17.7852 56.1252 17.8781 56.311 17.8781H57.6119C57.7978 17.8781 57.9836 17.6923 58.0766 17.5064L59.3775 9.32902C59.3775 9.14317 59.2846 9.05025 59.0987 9.05025H57.6119C57.519 8.95732 57.4261 9.05025 57.3332 9.2361Z" fill="#139AD6"/>
<path d="M11.5213 6.16957C10.8709 5.42617 9.66283 5.05447 7.99018 5.05447H3.34393C3.06516 5.05447 2.78638 5.33325 2.69346 5.61202L0.834961 17.7852C0.834961 18.064 1.02081 18.2498 1.20666 18.2498H4.08733L4.83073 13.6965V13.8823C4.92366 13.6036 5.20243 13.3248 5.48121 13.3248H6.87508C9.5699 13.3248 11.6143 12.2097 12.2647 9.14317C12.2647 9.05025 12.2647 8.95732 12.2647 8.8644C12.1718 8.8644 12.1718 8.8644 12.2647 8.8644C12.3577 7.65637 12.1718 6.91297 11.5213 6.16957Z" fill="#263B80"/>
<path d="M12.1718 8.86441C12.1718 8.95734 12.1718 9.05026 12.1718 9.14318C11.5214 12.3026 9.47701 13.3248 6.78219 13.3248H5.38832C5.10954 13.3248 4.83077 13.6036 4.73784 13.8824L3.80859 19.5508C3.80859 19.7366 3.90152 19.9225 4.18029 19.9225H6.59634C6.87512 19.9225 7.15389 19.7366 7.15389 19.4579V19.3649L7.61852 16.4843V16.2984C7.61852 16.0196 7.89729 15.8338 8.17606 15.8338H8.54776C10.8709 15.8338 12.7294 14.9045 13.194 12.1168C13.3799 11.0017 13.2869 9.97951 12.7294 9.32903C12.6365 9.14319 12.4506 8.95734 12.1718 8.86441Z" fill="#139AD6"/>
<path d="M11.5216 8.58563C11.4287 8.58563 11.3358 8.4927 11.2429 8.4927C11.1499 8.4927 11.057 8.4927 10.9641 8.39978C10.5924 8.30685 10.2207 8.30685 9.75608 8.30685H6.132C6.03908 8.30685 5.94615 8.30685 5.85323 8.39978C5.66738 8.4927 5.57445 8.67855 5.57445 8.8644L4.83105 13.6965V13.8823C4.92398 13.6036 5.20275 13.3248 5.48153 13.3248H6.8754C9.57023 13.3248 11.6146 12.2097 12.265 9.14318C12.265 9.05025 12.265 8.95733 12.358 8.8644C12.1721 8.77148 12.0792 8.67855 11.8933 8.67855C11.6146 8.58563 11.6146 8.58563 11.5216 8.58563Z" fill="#232C65"/>
</g>
<defs>
<clipPath id="clip0_377_286">
<rect width="59.4719" height="24.4884" fill="white" transform="translate(0.370117 0.244232)"/>
</clipPath>
</defs>
</svg>
