<svg width="314" height="203" viewBox="0 0 314 203" fill="none" xmlns="http://www.w3.org/2000/svg">
<circle cx="22" cy="20.5" r="1.5" fill="#D9D9D9"/>
<circle cx="58" cy="20.5" r="1.5" fill="#D9D9D9"/>
<circle cx="94" cy="20.5" r="1.5" fill="#D9D9D9"/>
<circle cx="130" cy="20.5" r="1.5" fill="#D9D9D9"/>
<circle cx="166" cy="20.5" r="1.5" fill="#D9D9D9"/>
<circle cx="202" cy="20.5" r="1.5" fill="#D9D9D9"/>
<circle cx="238" cy="20.5" r="1.5" fill="#D9D9D9"/>
<circle cx="274" cy="20.5" r="1.5" fill="#D9D9D9"/>
<circle cx="40" cy="20.5" r="1.5" fill="#D9D9D9"/>
<circle cx="76" cy="20.5" r="1.5" fill="#D9D9D9"/>
<circle cx="112" cy="20.5" r="1.5" fill="#D9D9D9"/>
<circle cx="148" cy="20.5" r="1.5" fill="#D9D9D9"/>
<circle cx="184" cy="20.5" r="1.5" fill="#D9D9D9"/>
<circle cx="220" cy="20.5" r="1.5" fill="#D9D9D9"/>
<circle cx="256" cy="20.5" r="1.5" fill="#D9D9D9"/>
<circle cx="292" cy="20.5" r="1.5" fill="#D9D9D9"/>
<circle cx="22" cy="41.5" r="1.5" fill="#D9D9D9"/>
<circle cx="58" cy="41.5" r="1.5" fill="#D9D9D9"/>
<circle cx="94" cy="41.5" r="1.5" fill="#D9D9D9"/>
<circle cx="130" cy="41.5" r="1.5" fill="#D9D9D9"/>
<circle cx="166" cy="41.5" r="1.5" fill="#D9D9D9"/>
<circle cx="202" cy="41.5" r="1.5" fill="#D9D9D9"/>
<circle cx="238" cy="41.5" r="1.5" fill="#D9D9D9"/>
<circle cx="274" cy="41.5" r="1.5" fill="#D9D9D9"/>
<circle cx="40" cy="41.5" r="1.5" fill="#D9D9D9"/>
<circle cx="76" cy="41.5" r="1.5" fill="#D9D9D9"/>
<circle cx="112" cy="41.5" r="1.5" fill="#D9D9D9"/>
<circle cx="148" cy="41.5" r="1.5" fill="#D9D9D9"/>
<circle cx="184" cy="41.5" r="1.5" fill="#D9D9D9"/>
<circle cx="220" cy="41.5" r="1.5" fill="#D9D9D9"/>
<circle cx="256" cy="41.5" r="1.5" fill="#D9D9D9"/>
<circle cx="292" cy="41.5" r="1.5" fill="#D9D9D9"/>
<circle cx="22" cy="62.5" r="1.5" fill="#D9D9D9"/>
<circle cx="58" cy="62.5" r="1.5" fill="#D9D9D9"/>
<circle cx="94" cy="62.5" r="1.5" fill="#D9D9D9"/>
<circle cx="130" cy="62.5" r="1.5" fill="#D9D9D9"/>
<circle cx="166" cy="62.5" r="1.5" fill="#D9D9D9"/>
<circle cx="202" cy="62.5" r="1.5" fill="#D9D9D9"/>
<circle cx="238" cy="62.5" r="1.5" fill="#D9D9D9"/>
<circle cx="274" cy="62.5" r="1.5" fill="#D9D9D9"/>
<circle cx="40" cy="62.5" r="1.5" fill="#D9D9D9"/>
<circle cx="76" cy="62.5" r="1.5" fill="#D9D9D9"/>
<circle cx="112" cy="62.5" r="1.5" fill="#D9D9D9"/>
<circle cx="148" cy="62.5" r="1.5" fill="#D9D9D9"/>
<circle cx="184" cy="62.5" r="1.5" fill="#D9D9D9"/>
<circle cx="220" cy="62.5" r="1.5" fill="#D9D9D9"/>
<circle cx="256" cy="62.5" r="1.5" fill="#D9D9D9"/>
<circle cx="292" cy="62.5" r="1.5" fill="#D9D9D9"/>
<circle cx="22" cy="83.5" r="1.5" fill="#D9D9D9"/>
<circle cx="58" cy="83.5" r="1.5" fill="#D9D9D9"/>
<circle cx="94" cy="83.5" r="1.5" fill="#D9D9D9"/>
<circle cx="130" cy="83.5" r="1.5" fill="#D9D9D9"/>
<circle cx="166" cy="83.5" r="1.5" fill="#D9D9D9"/>
<circle cx="202" cy="83.5" r="1.5" fill="#D9D9D9"/>
<circle cx="238" cy="83.5" r="1.5" fill="#D9D9D9"/>
<circle cx="274" cy="83.5" r="1.5" fill="#D9D9D9"/>
<circle cx="40" cy="83.5" r="1.5" fill="#D9D9D9"/>
<circle cx="76" cy="83.5" r="1.5" fill="#D9D9D9"/>
<circle cx="112" cy="83.5" r="1.5" fill="#D9D9D9"/>
<circle cx="148" cy="83.5" r="1.5" fill="#D9D9D9"/>
<circle cx="184" cy="83.5" r="1.5" fill="#D9D9D9"/>
<circle cx="220" cy="83.5" r="1.5" fill="#D9D9D9"/>
<circle cx="256" cy="83.5" r="1.5" fill="#D9D9D9"/>
<circle cx="292" cy="83.5" r="1.5" fill="#D9D9D9"/>
<circle cx="22" cy="104.5" r="1.5" fill="#D9D9D9"/>
<circle cx="58" cy="104.5" r="1.5" fill="#D9D9D9"/>
<circle cx="94" cy="104.5" r="1.5" fill="#D9D9D9"/>
<circle cx="130" cy="104.5" r="1.5" fill="#D9D9D9"/>
<circle cx="166" cy="104.5" r="1.5" fill="#D9D9D9"/>
<circle cx="202" cy="104.5" r="1.5" fill="#D9D9D9"/>
<circle cx="238" cy="104.5" r="1.5" fill="#D9D9D9"/>
<circle cx="274" cy="104.5" r="1.5" fill="#D9D9D9"/>
<circle cx="40" cy="104.5" r="1.5" fill="#D9D9D9"/>
<circle cx="76" cy="104.5" r="1.5" fill="#D9D9D9"/>
<circle cx="112" cy="104.5" r="1.5" fill="#D9D9D9"/>
<circle cx="148" cy="104.5" r="1.5" fill="#D9D9D9"/>
<circle cx="184" cy="104.5" r="1.5" fill="#D9D9D9"/>
<circle cx="220" cy="104.5" r="1.5" fill="#D9D9D9"/>
<circle cx="256" cy="104.5" r="1.5" fill="#D9D9D9"/>
<circle cx="292" cy="104.5" r="1.5" fill="#D9D9D9"/>
<circle cx="22" cy="125.5" r="1.5" fill="#D9D9D9"/>
<circle cx="58" cy="125.5" r="1.5" fill="#D9D9D9"/>
<circle cx="94" cy="125.5" r="1.5" fill="#D9D9D9"/>
<circle cx="130" cy="125.5" r="1.5" fill="#D9D9D9"/>
<circle cx="166" cy="125.5" r="1.5" fill="#D9D9D9"/>
<circle cx="202" cy="125.5" r="1.5" fill="#D9D9D9"/>
<circle cx="238" cy="125.5" r="1.5" fill="#D9D9D9"/>
<circle cx="274" cy="125.5" r="1.5" fill="#D9D9D9"/>
<circle cx="40" cy="125.5" r="1.5" fill="#D9D9D9"/>
<circle cx="76" cy="125.5" r="1.5" fill="#D9D9D9"/>
<circle cx="112" cy="125.5" r="1.5" fill="#D9D9D9"/>
<circle cx="148" cy="125.5" r="1.5" fill="#D9D9D9"/>
<circle cx="184" cy="125.5" r="1.5" fill="#D9D9D9"/>
<circle cx="220" cy="125.5" r="1.5" fill="#D9D9D9"/>
<circle cx="256" cy="125.5" r="1.5" fill="#D9D9D9"/>
<circle cx="292" cy="125.5" r="1.5" fill="#D9D9D9"/>
<circle cx="22" cy="146.5" r="1.5" fill="#D9D9D9"/>
<circle cx="58" cy="146.5" r="1.5" fill="#D9D9D9"/>
<circle cx="94" cy="146.5" r="1.5" fill="#D9D9D9"/>
<circle cx="130" cy="146.5" r="1.5" fill="#D9D9D9"/>
<circle cx="166" cy="146.5" r="1.5" fill="#D9D9D9"/>
<circle cx="202" cy="146.5" r="1.5" fill="#D9D9D9"/>
<circle cx="238" cy="146.5" r="1.5" fill="#D9D9D9"/>
<circle cx="274" cy="146.5" r="1.5" fill="#D9D9D9"/>
<circle cx="40" cy="146.5" r="1.5" fill="#D9D9D9"/>
<circle cx="76" cy="146.5" r="1.5" fill="#D9D9D9"/>
<circle cx="112" cy="146.5" r="1.5" fill="#D9D9D9"/>
<circle cx="148" cy="146.5" r="1.5" fill="#D9D9D9"/>
<circle cx="184" cy="146.5" r="1.5" fill="#D9D9D9"/>
<circle cx="220" cy="146.5" r="1.5" fill="#D9D9D9"/>
<circle cx="256" cy="146.5" r="1.5" fill="#D9D9D9"/>
<circle cx="292" cy="146.5" r="1.5" fill="#D9D9D9"/>
<circle cx="22" cy="167.5" r="1.5" fill="#D9D9D9"/>
<circle cx="58" cy="167.5" r="1.5" fill="#D9D9D9"/>
<circle cx="94" cy="167.5" r="1.5" fill="#D9D9D9"/>
<circle cx="130" cy="167.5" r="1.5" fill="#D9D9D9"/>
<circle cx="166" cy="167.5" r="1.5" fill="#D9D9D9"/>
<circle cx="202" cy="167.5" r="1.5" fill="#D9D9D9"/>
<circle cx="238" cy="167.5" r="1.5" fill="#D9D9D9"/>
<circle cx="274" cy="167.5" r="1.5" fill="#D9D9D9"/>
<circle cx="40" cy="167.5" r="1.5" fill="#D9D9D9"/>
<circle cx="76" cy="167.5" r="1.5" fill="#D9D9D9"/>
<circle cx="112" cy="167.5" r="1.5" fill="#D9D9D9"/>
<circle cx="148" cy="167.5" r="1.5" fill="#D9D9D9"/>
<circle cx="184" cy="167.5" r="1.5" fill="#D9D9D9"/>
<circle cx="220" cy="167.5" r="1.5" fill="#D9D9D9"/>
<circle cx="256" cy="167.5" r="1.5" fill="#D9D9D9"/>
<circle cx="292" cy="167.5" r="1.5" fill="#D9D9D9"/>
<g filter="url(#filter0_d_56_487)">
<rect x="127.5" y="112" width="59" height="59" rx="7.71023" fill="white"/>
</g>
<path d="M178.79 125.409C178.79 125.409 174.901 139.809 157.168 143.061C139.434 146.313 135.545 157.926 135.545 157.926" stroke="url(#paint0_linear_56_487)" stroke-width="2.01136" stroke-linecap="round"/>
<rect x="130.852" y="116.023" width="22.2976" height="9.20545" rx="4.60272" fill="#F2F2F2"/>
<path d="M135.547 119.357V122.364H134.946V119.989L134.07 120.472V119.906L134.767 119.492C134.929 119.4 135.085 119.357 135.251 119.357H135.547ZM137.448 119.296C138.297 119.296 138.615 119.91 138.615 120.86C138.615 121.801 138.297 122.425 137.448 122.425C136.593 122.425 136.275 121.801 136.275 120.86C136.275 119.91 136.593 119.296 137.448 119.296ZM137.448 121.976C137.814 121.976 137.979 121.618 137.979 120.86C137.979 120.093 137.814 119.745 137.448 119.745C137.077 119.745 136.911 120.093 136.911 120.86C136.911 121.618 137.077 121.976 137.448 121.976ZM139.997 119.296C140.847 119.296 141.165 119.91 141.165 120.86C141.165 121.801 140.847 122.425 139.997 122.425C139.143 122.425 138.825 121.801 138.825 120.86C138.825 119.91 139.143 119.296 139.997 119.296ZM139.997 121.976C140.363 121.976 140.529 121.618 140.529 120.86C140.529 120.093 140.363 119.745 139.997 119.745C139.626 119.745 139.461 120.093 139.461 120.86C139.461 121.618 139.626 121.976 139.997 121.976ZM142.01 119.304C142.429 119.304 142.686 119.57 142.686 120.019C142.686 120.468 142.429 120.738 142.01 120.738C141.596 120.738 141.339 120.468 141.339 120.019C141.339 119.57 141.596 119.304 142.01 119.304ZM142.115 122.364H141.649L143.601 119.357H144.067L142.115 122.364ZM142.01 119.622C141.849 119.622 141.762 119.762 141.762 120.019C141.762 120.276 141.849 120.42 142.01 120.42C142.172 120.42 142.263 120.276 142.263 120.019C142.263 119.762 142.172 119.622 142.01 119.622ZM143.679 120.991C144.098 120.991 144.355 121.257 144.355 121.706C144.355 122.154 144.098 122.425 143.679 122.425C143.265 122.425 143.004 122.154 143.004 121.706C143.004 121.257 143.265 120.991 143.679 120.991ZM143.679 121.309C143.518 121.309 143.431 121.448 143.431 121.706C143.431 121.963 143.518 122.107 143.679 122.107C143.841 122.107 143.928 121.963 143.928 121.706C143.928 121.448 143.841 121.309 143.679 121.309Z" fill="#04030D" fill-opacity="0.7"/>
<g clip-path="url(#clip0_56_487)">
<path d="M148.182 119.378C148.182 119.414 148.196 119.449 148.221 119.474C148.247 119.5 148.282 119.514 148.318 119.514L149.204 119.514L146.935 121.782C146.91 121.807 146.896 121.842 146.896 121.878C146.896 121.914 146.91 121.948 146.935 121.974C146.948 121.986 146.963 121.997 146.98 122.004C146.996 122.01 147.014 122.014 147.032 122.014C147.05 122.014 147.068 122.01 147.085 122.004C147.101 121.997 147.116 121.986 147.129 121.974L149.394 119.709L149.394 120.589C149.394 120.625 149.408 120.659 149.434 120.685C149.459 120.711 149.494 120.725 149.53 120.725C149.566 120.725 149.601 120.711 149.626 120.685C149.652 120.659 149.666 120.625 149.666 120.589L149.666 119.363C149.666 119.331 149.653 119.299 149.63 119.276C149.607 119.253 149.576 119.24 149.543 119.24L148.318 119.24C148.3 119.24 148.282 119.244 148.265 119.251C148.249 119.258 148.234 119.268 148.221 119.281C148.208 119.294 148.198 119.309 148.192 119.325C148.185 119.342 148.181 119.36 148.182 119.378Z" fill="#4F4F56"/>
</g>
<g filter="url(#filter1_d_56_487)">
<rect x="26.5" y="112" width="59" height="59" rx="7.71023" fill="white"/>
</g>
<path d="M65.4582 136H47.4582C45.8429 136 44.5 137.343 44.5 139V154C44.5 155.657 45.843 157 47.4578 157H65.4578C67.1148 157 68.4578 155.657 68.4578 154V139C68.4582 137.343 67.1551 136 65.4582 136ZM49.7082 139C50.9509 139 51.9582 140.007 51.9582 141.25C51.9582 142.493 50.9926 143.5 49.7082 143.5C48.4239 143.5 47.4582 142.493 47.4582 141.25C47.4582 140.007 48.5073 139 49.7082 139ZM65.4114 153.606C65.2801 153.85 65.027 154 64.7504 154H48.3446C48.0624 154 47.8042 153.842 47.6762 153.59C47.5482 153.338 47.5724 153.036 47.7387 152.808L51.02 148.308C51.1614 148.113 51.3864 148 51.6254 148C51.8645 148 52.0902 148.114 52.2315 148.308L53.7531 150.395L58.1265 143.874C58.2676 143.627 58.502 143.5 58.7504 143.5C58.9989 143.5 59.2356 143.625 59.3743 143.834L65.3743 152.834C65.5285 153.062 65.5426 153.358 65.4114 153.606Z" fill="url(#paint1_linear_56_487)"/>
<rect x="30.5" y="117" width="22.2976" height="9.20545" rx="4.60272" fill="#F2F2F2"/>
<path d="M35.1952 120.334V123.341H34.5938V120.966L33.7178 121.45V120.883L34.4151 120.469C34.5763 120.378 34.7332 120.334 34.8988 120.334H35.1952ZM37.0952 120.273C37.945 120.273 38.2632 120.887 38.2632 121.837C38.2632 122.779 37.945 123.402 37.0952 123.402C36.2411 123.402 35.923 122.779 35.923 121.837C35.923 120.887 36.2411 120.273 37.0952 120.273ZM37.0952 122.953C37.4613 122.953 37.6269 122.596 37.6269 121.837C37.6269 121.07 37.4613 120.722 37.0952 120.722C36.7248 120.722 36.5592 121.07 36.5592 121.837C36.5592 122.596 36.7248 122.953 37.0952 122.953ZM39.6446 120.273C40.4944 120.273 40.8126 120.887 40.8126 121.837C40.8126 122.779 40.4944 123.402 39.6446 123.402C38.7905 123.402 38.4724 122.779 38.4724 121.837C38.4724 120.887 38.7905 120.273 39.6446 120.273ZM39.6446 122.953C40.0107 122.953 40.1763 122.596 40.1763 121.837C40.1763 121.07 40.0107 120.722 39.6446 120.722C39.2742 120.722 39.1086 121.07 39.1086 121.837C39.1086 122.596 39.2742 122.953 39.6446 122.953ZM41.658 120.282C42.0764 120.282 42.3335 120.547 42.3335 120.996C42.3335 121.445 42.0764 121.715 41.658 121.715C41.244 121.715 40.9869 121.445 40.9869 120.996C40.9869 120.547 41.244 120.282 41.658 120.282ZM41.7626 123.341H41.2963L43.2487 120.334H43.715L41.7626 123.341ZM41.658 120.6C41.4968 120.6 41.4096 120.739 41.4096 120.996C41.4096 121.253 41.4968 121.397 41.658 121.397C41.8193 121.397 41.9108 121.253 41.9108 120.996C41.9108 120.739 41.8193 120.6 41.658 120.6ZM43.3271 121.968C43.7455 121.968 44.0026 122.234 44.0026 122.683C44.0026 123.132 43.7455 123.402 43.3271 123.402C42.9131 123.402 42.6516 123.132 42.6516 122.683C42.6516 122.234 42.9131 121.968 43.3271 121.968ZM43.3271 122.286C43.1659 122.286 43.0787 122.426 43.0787 122.683C43.0787 122.94 43.1659 123.084 43.3271 123.084C43.4884 123.084 43.5755 122.94 43.5755 122.683C43.5755 122.426 43.4884 122.286 43.3271 122.286Z" fill="#04030D" fill-opacity="0.7"/>
<path d="M47.8293 120.355C47.8293 120.391 47.8437 120.426 47.8692 120.452C47.8948 120.477 47.9294 120.491 47.9655 120.491L48.8521 120.491L46.5832 122.759C46.5579 122.784 46.5436 122.819 46.5436 122.855C46.5436 122.891 46.5579 122.925 46.5832 122.951C46.5959 122.964 46.611 122.974 46.6275 122.981C46.6441 122.988 46.6619 122.991 46.6799 122.991C46.6979 122.991 46.7157 122.988 46.7323 122.981C46.7489 122.974 46.764 122.964 46.7766 122.951L49.0414 120.686L49.0414 121.566C49.0414 121.602 49.0557 121.637 49.0813 121.662C49.1068 121.688 49.1415 121.702 49.1776 121.702C49.2137 121.702 49.2483 121.688 49.2739 121.662C49.2994 121.637 49.3138 121.602 49.3138 121.566L49.3138 120.34C49.3138 120.308 49.3008 120.277 49.2779 120.254C49.2549 120.231 49.2237 120.218 49.1912 120.218L47.9655 120.218C47.9475 120.218 47.9297 120.221 47.9131 120.228C47.8965 120.235 47.8814 120.245 47.8687 120.258C47.8561 120.271 47.8461 120.286 47.8393 120.303C47.8325 120.319 47.8292 120.337 47.8293 120.355Z" fill="#4F4F56"/>
<g filter="url(#filter2_d_56_487)">
<rect x="228.5" y="112" width="59" height="59" rx="7.71023" fill="white"/>
</g>
<rect x="232.5" y="117" width="22.2976" height="9.20545" rx="4.60272" fill="#F2F2F2"/>
<path d="M237.195 120.334V123.341H236.594V120.966L235.718 121.45V120.883L236.415 120.469C236.576 120.378 236.733 120.334 236.899 120.334H237.195ZM239.095 120.273C239.945 120.273 240.263 120.887 240.263 121.837C240.263 122.779 239.945 123.402 239.095 123.402C238.241 123.402 237.923 122.779 237.923 121.837C237.923 120.887 238.241 120.273 239.095 120.273ZM239.095 122.953C239.461 122.953 239.627 122.596 239.627 121.837C239.627 121.07 239.461 120.722 239.095 120.722C238.725 120.722 238.559 121.07 238.559 121.837C238.559 122.596 238.725 122.953 239.095 122.953ZM241.645 120.273C242.494 120.273 242.813 120.887 242.813 121.837C242.813 122.779 242.494 123.402 241.645 123.402C240.79 123.402 240.472 122.779 240.472 121.837C240.472 120.887 240.79 120.273 241.645 120.273ZM241.645 122.953C242.011 122.953 242.176 122.596 242.176 121.837C242.176 121.07 242.011 120.722 241.645 120.722C241.274 120.722 241.109 121.07 241.109 121.837C241.109 122.596 241.274 122.953 241.645 122.953ZM243.658 120.282C244.076 120.282 244.333 120.547 244.333 120.996C244.333 121.445 244.076 121.715 243.658 121.715C243.244 121.715 242.987 121.445 242.987 120.996C242.987 120.547 243.244 120.282 243.658 120.282ZM243.763 123.341H243.296L245.249 120.334H245.715L243.763 123.341ZM243.658 120.6C243.497 120.6 243.41 120.739 243.41 120.996C243.41 121.253 243.497 121.397 243.658 121.397C243.819 121.397 243.911 121.253 243.911 120.996C243.911 120.739 243.819 120.6 243.658 120.6ZM245.327 121.968C245.745 121.968 246.003 122.234 246.003 122.683C246.003 123.132 245.745 123.402 245.327 123.402C244.913 123.402 244.652 123.132 244.652 122.683C244.652 122.234 244.913 121.968 245.327 121.968ZM245.327 122.286C245.166 122.286 245.079 122.426 245.079 122.683C245.079 122.94 245.166 123.084 245.327 123.084C245.488 123.084 245.576 122.94 245.576 122.683C245.576 122.426 245.488 122.286 245.327 122.286Z" fill="#04030D" fill-opacity="0.7"/>
<path d="M249.829 120.355C249.829 120.391 249.844 120.426 249.869 120.452C249.895 120.477 249.929 120.491 249.966 120.491L250.852 120.491L248.583 122.759C248.558 122.784 248.544 122.819 248.544 122.855C248.544 122.891 248.558 122.925 248.583 122.951C248.596 122.964 248.611 122.974 248.628 122.981C248.644 122.988 248.662 122.991 248.68 122.991C248.698 122.991 248.716 122.988 248.732 122.981C248.749 122.974 248.764 122.964 248.777 122.951L251.041 120.686L251.041 121.566C251.041 121.602 251.056 121.637 251.081 121.662C251.107 121.688 251.141 121.702 251.178 121.702C251.214 121.702 251.248 121.688 251.274 121.662C251.299 121.637 251.314 121.602 251.314 121.566L251.314 120.34C251.314 120.308 251.301 120.277 251.278 120.254C251.255 120.231 251.224 120.218 251.191 120.218L249.966 120.218C249.948 120.218 249.93 120.221 249.913 120.228C249.896 120.235 249.881 120.245 249.869 120.258C249.856 120.271 249.846 120.286 249.839 120.303C249.833 120.319 249.829 120.337 249.829 120.355Z" fill="#4F4F56"/>
<path d="M263.053 134.745C262.024 133.62 260.587 133 259 133C257.405 133 255.963 133.616 254.939 134.735C253.903 135.866 253.399 137.403 253.517 139.062C253.752 142.336 256.211 145 259 145C261.789 145 264.244 142.337 264.483 139.063C264.603 137.419 264.095 135.885 263.053 134.745Z" fill="url(#paint2_linear_56_487)"/>
<path d="M267.807 157H249.193C248.949 157.003 248.708 156.953 248.486 156.852C248.265 156.752 248.069 156.604 247.913 156.42C247.569 156.016 247.43 155.463 247.533 154.904C247.979 152.466 249.372 150.417 251.562 148.979C253.507 147.703 255.971 147 258.5 147C261.029 147 263.493 147.703 265.438 148.979C267.628 150.417 269.021 152.465 269.467 154.904C269.57 155.462 269.431 156.015 269.087 156.42C268.931 156.604 268.735 156.752 268.514 156.852C268.292 156.952 268.051 157.003 267.807 157Z" fill="url(#paint3_linear_56_487)"/>
<g filter="url(#filter3_d_56_487)">
<rect x="127.5" y="22" width="59" height="59" rx="29.5" fill="white"/>
</g>
<path d="M162.6 56.4029H151.4C150.459 56.4015 149.531 56.1895 148.683 55.7825C147.835 55.3755 147.089 54.7839 146.5 54.0509V58.5029C146.5 59.4312 146.869 60.3214 147.525 60.9778C147.85 61.3028 148.236 61.5606 148.661 61.7365C149.085 61.9124 149.54 62.0029 150 62.0029H164C164.928 62.0029 165.818 61.6342 166.475 60.9778C167.131 60.3214 167.5 59.4312 167.5 58.5029V54.0509C166.911 54.7839 166.165 55.3755 165.317 55.7825C164.469 56.1895 163.541 56.4015 162.6 56.4029Z" fill="url(#paint4_linear_56_487)"/>
<path d="M151.4 55.0029V53.2529C151.4 53.0673 151.474 52.8892 151.605 52.758C151.736 52.6267 151.914 52.5529 152.1 52.5529C152.286 52.5529 152.464 52.6267 152.595 52.758C152.726 52.8892 152.8 53.0673 152.8 53.2529V55.0029H161.2V53.2529C161.2 53.0673 161.274 52.8892 161.405 52.758C161.536 52.6267 161.714 52.5529 161.9 52.5529C162.086 52.5529 162.264 52.6267 162.395 52.758C162.526 52.8892 162.6 53.0673 162.6 53.2529V55.0029C163.9 55.0029 165.146 54.4867 166.065 53.5678C166.984 52.6488 167.5 51.4025 167.5 50.1029C167.5 49.1747 167.131 48.2844 166.475 47.6281C165.818 46.9717 164.928 46.6029 164 46.6029H150C149.54 46.6029 149.085 46.6935 148.661 46.8694C148.236 47.0452 147.85 47.3031 147.525 47.6281C146.869 48.2844 146.5 49.1747 146.5 50.1029C146.5 51.4025 147.016 52.6488 147.935 53.5678C148.854 54.4867 150.1 55.0029 151.4 55.0029Z" fill="url(#paint5_linear_56_487)"/>
<path d="M157 42.4029C158.046 42.4046 159.076 42.6604 160.002 43.1481C160.927 43.6358 161.72 44.341 162.313 45.2029H163.958C163.291 43.9348 162.291 42.873 161.064 42.1323C159.838 41.3915 158.433 41 157 41C155.567 41 154.162 41.3915 152.936 42.1323C151.709 42.873 150.709 43.9348 150.042 45.2029H151.687C152.28 44.341 153.073 43.6358 153.998 43.1481C154.924 42.6604 155.954 42.4046 157 42.4029Z" fill="url(#paint6_linear_56_487)"/>
<defs>
<filter id="filter0_d_56_487" x="101.319" y="90.8472" width="111.363" height="111.363" filterUnits="userSpaceOnUse" color-interpolation-filters="sRGB">
<feFlood flood-opacity="0" result="BackgroundImageFix"/>
<feColorMatrix in="SourceAlpha" type="matrix" values="0 0 0 0 0 0 0 0 0 0 0 0 0 0 0 0 0 0 127 0" result="hardAlpha"/>
<feOffset dy="5.02841"/>
<feGaussianBlur stdDeviation="13.0906"/>
<feComposite in2="hardAlpha" operator="out"/>
<feColorMatrix type="matrix" values="0 0 0 0 0 0 0 0 0 0 0 0 0 0 0 0 0 0 0.07 0"/>
<feBlend mode="normal" in2="BackgroundImageFix" result="effect1_dropShadow_56_487"/>
<feBlend mode="normal" in="SourceGraphic" in2="effect1_dropShadow_56_487" result="shape"/>
</filter>
<filter id="filter1_d_56_487" x="0.318748" y="90.8472" width="111.363" height="111.363" filterUnits="userSpaceOnUse" color-interpolation-filters="sRGB">
<feFlood flood-opacity="0" result="BackgroundImageFix"/>
<feColorMatrix in="SourceAlpha" type="matrix" values="0 0 0 0 0 0 0 0 0 0 0 0 0 0 0 0 0 0 127 0" result="hardAlpha"/>
<feOffset dy="5.02841"/>
<feGaussianBlur stdDeviation="13.0906"/>
<feComposite in2="hardAlpha" operator="out"/>
<feColorMatrix type="matrix" values="0 0 0 0 0 0 0 0 0 0 0 0 0 0 0 0 0 0 0.07 0"/>
<feBlend mode="normal" in2="BackgroundImageFix" result="effect1_dropShadow_56_487"/>
<feBlend mode="normal" in="SourceGraphic" in2="effect1_dropShadow_56_487" result="shape"/>
</filter>
<filter id="filter2_d_56_487" x="202.319" y="90.8472" width="111.363" height="111.363" filterUnits="userSpaceOnUse" color-interpolation-filters="sRGB">
<feFlood flood-opacity="0" result="BackgroundImageFix"/>
<feColorMatrix in="SourceAlpha" type="matrix" values="0 0 0 0 0 0 0 0 0 0 0 0 0 0 0 0 0 0 127 0" result="hardAlpha"/>
<feOffset dy="5.02841"/>
<feGaussianBlur stdDeviation="13.0906"/>
<feComposite in2="hardAlpha" operator="out"/>
<feColorMatrix type="matrix" values="0 0 0 0 0 0 0 0 0 0 0 0 0 0 0 0 0 0 0.07 0"/>
<feBlend mode="normal" in2="BackgroundImageFix" result="effect1_dropShadow_56_487"/>
<feBlend mode="normal" in="SourceGraphic" in2="effect1_dropShadow_56_487" result="shape"/>
</filter>
<filter id="filter3_d_56_487" x="101.319" y="0.847158" width="111.363" height="111.363" filterUnits="userSpaceOnUse" color-interpolation-filters="sRGB">
<feFlood flood-opacity="0" result="BackgroundImageFix"/>
<feColorMatrix in="SourceAlpha" type="matrix" values="0 0 0 0 0 0 0 0 0 0 0 0 0 0 0 0 0 0 127 0" result="hardAlpha"/>
<feOffset dy="5.02841"/>
<feGaussianBlur stdDeviation="13.0906"/>
<feComposite in2="hardAlpha" operator="out"/>
<feColorMatrix type="matrix" values="0 0 0 0 0 0 0 0 0 0 0 0 0 0 0 0 0 0 0.07 0"/>
<feBlend mode="normal" in2="BackgroundImageFix" result="effect1_dropShadow_56_487"/>
<feBlend mode="normal" in="SourceGraphic" in2="effect1_dropShadow_56_487" result="shape"/>
</filter>
<linearGradient id="paint0_linear_56_487" x1="176.778" y1="127.42" x2="135.545" y2="157.926" gradientUnits="userSpaceOnUse">
<stop stop-color="#0030AD" stop-opacity="0"/>
<stop offset="0.480041" stop-color="#0030AD"/>
<stop offset="1" stop-color="#0030AD" stop-opacity="0"/>
</linearGradient>
<linearGradient id="paint1_linear_56_487" x1="56.4789" y1="136" x2="56.4789" y2="157" gradientUnits="userSpaceOnUse">
<stop stop-color="#0030AD"/>
<stop offset="0.570081" stop-color="#4D35DE"/>
<stop offset="1" stop-color="#0030AD"/>
</linearGradient>
<linearGradient id="paint2_linear_56_487" x1="259" y1="133" x2="259" y2="145" gradientUnits="userSpaceOnUse">
<stop stop-color="#0030AD"/>
<stop offset="0.570081" stop-color="#4D35DE"/>
<stop offset="1" stop-color="#0030AD"/>
</linearGradient>
<linearGradient id="paint3_linear_56_487" x1="258.5" y1="147" x2="258.5" y2="157" gradientUnits="userSpaceOnUse">
<stop stop-color="#0030AD"/>
<stop offset="0.570081" stop-color="#4D35DE"/>
<stop offset="1" stop-color="#0030AD"/>
</linearGradient>
<linearGradient id="paint4_linear_56_487" x1="157" y1="54.0509" x2="157" y2="62.0029" gradientUnits="userSpaceOnUse">
<stop stop-color="#0030AD"/>
<stop offset="0.570081" stop-color="#4D35DE"/>
<stop offset="1" stop-color="#0030AD"/>
</linearGradient>
<linearGradient id="paint5_linear_56_487" x1="157" y1="46.6029" x2="157" y2="55.0029" gradientUnits="userSpaceOnUse">
<stop stop-color="#0030AD"/>
<stop offset="0.570081" stop-color="#4D35DE"/>
<stop offset="1" stop-color="#0030AD"/>
</linearGradient>
<linearGradient id="paint6_linear_56_487" x1="157" y1="41" x2="157" y2="45.2029" gradientUnits="userSpaceOnUse">
<stop stop-color="#0030AD"/>
<stop offset="0.570081" stop-color="#4D35DE"/>
<stop offset="1" stop-color="#0030AD"/>
</linearGradient>
<clipPath id="clip0_56_487">
<rect width="4.35795" height="4.35795" fill="white" transform="translate(150.468 122.804) rotate(-180)"/>
</clipPath>
</defs>
</svg>
