<svg width="245" height="211" viewBox="0 0 245 211" fill="none" xmlns="http://www.w3.org/2000/svg">
<g id="Group 1000001842">
<g id="Group 1000001834">
<g id="Group 1000001830">
<rect id="Rectangle 1" x="0.5" width="244" height="210.641" rx="8.57812" fill="url(#paint0_linear_49_87)"/>
<circle id="Ellipse 1" cx="20.5156" cy="12.8672" r="3.8125" fill="#E6E6E7"/>
<circle id="Ellipse 2" cx="31.9531" cy="12.8672" r="3.8125" fill="#E6E6E7"/>
<circle id="Ellipse 3" cx="43.3906" cy="12.8672" r="3.8125" fill="#E6E6E7"/>
<g id="Rectangle 2" filter="url(#filter0_d_49_87)">
<rect x="51.0156" y="8.57812" width="158.219" height="8.57812" rx="1.90625" fill="#E6E6E7"/>
</g>
<circle id="Ellipse 4" cx="216.859" cy="12.8672" r="3.8125" fill="#E6E6E7"/>
<rect id="Rectangle 3" x="5.26562" y="26.6875" width="234.469" height="178.234" rx="8.57812" fill="url(#paint1_linear_49_87)"/>
<g id="Group 1000001827">
<line id="Line 13" x1="128.457" y1="88.6406" x2="128.457" y2="142.016" stroke="#CDCDCF" stroke-opacity="0.5" stroke-width="0.476562"/>
<line id="Line 2" x1="38.8633" y1="88.6406" x2="38.8633" y2="142.016" stroke="#CDCDCF" stroke-opacity="0.5" stroke-width="0.476562"/>
<line id="Line 14" x1="146.566" y1="88.6406" x2="146.566" y2="142.016" stroke="#CDCDCF" stroke-opacity="0.5" stroke-width="0.476562"/>
<line id="Line 8" x1="218.766" y1="88.8789" x2="20.5156" y2="88.8789" stroke="#CDCDCF" stroke-opacity="0.5" stroke-width="0.476562"/>
<line id="Line 3" x1="56.9727" y1="88.6406" x2="56.9727" y2="142.016" stroke="#CDCDCF" stroke-opacity="0.5" stroke-width="0.476562"/>
<line id="Line 15" x1="164.676" y1="88.6406" x2="164.676" y2="142.016" stroke="#CDCDCF" stroke-opacity="0.5" stroke-width="0.476562"/>
<line id="Line 9" x1="218.766" y1="106.988" x2="20.5156" y2="106.988" stroke="#CDCDCF" stroke-opacity="0.5" stroke-width="0.476562"/>
<line id="Line 4" x1="75.082" y1="88.6406" x2="75.082" y2="142.016" stroke="#CDCDCF" stroke-opacity="0.5" stroke-width="0.476562"/>
<line id="Line 16" x1="182.785" y1="88.6406" x2="182.785" y2="142.016" stroke="#CDCDCF" stroke-opacity="0.5" stroke-width="0.476562"/>
<line id="Line 10" x1="218.766" y1="124.145" x2="20.5156" y2="124.145" stroke="#CDCDCF" stroke-opacity="0.5" stroke-width="0.476562"/>
<line id="Line 5" x1="93.1914" y1="88.6406" x2="93.1914" y2="142.016" stroke="#CDCDCF" stroke-opacity="0.5" stroke-width="0.476562"/>
<line id="Line 17" x1="200.895" y1="88.6406" x2="200.895" y2="142.016" stroke="#CDCDCF" stroke-opacity="0.5" stroke-width="0.476562"/>
<line id="Line 11" x1="218.766" y1="142.254" x2="20.5156" y2="142.254" stroke="#CDCDCF" stroke-opacity="0.5" stroke-width="0.476562"/>
<line id="Line 6" x1="111.301" y1="88.6406" x2="111.301" y2="142.016" stroke="#CDCDCF" stroke-opacity="0.5" stroke-width="0.476562"/>
</g>
<g id="Group 1000001833">
<g id="Group 1000001832">
<g id="Vector" filter="url(#filter1_f_49_87)">
<path d="M102.468 113.357C104.451 113.023 105.861 112.857 106.7 112.857C107.304 112.857 107.884 112.909 108.311 113.003C108.738 113.097 108.978 113.224 108.978 113.357C108.978 113.49 108.738 113.617 108.311 113.711C107.884 113.805 107.304 113.858 106.7 113.858C105.861 113.858 104.451 113.691 102.468 113.357Z" fill="#4D35DE"/>
</g>
<g id="Vector_2" filter="url(#filter2_f_49_87)">
<path d="M140.529 108.85C142.511 108.516 143.922 108.349 144.76 108.349C145.365 108.349 145.944 108.402 146.372 108.496C146.799 108.59 147.039 108.717 147.039 108.85C147.039 108.983 146.799 109.11 146.372 109.204C145.944 109.298 145.365 109.351 144.76 109.351C143.922 109.351 142.511 109.184 140.529 108.85Z" fill="#4D35DE"/>
</g>
<g id="Vector_3" filter="url(#filter3_f_49_87)">
<path d="M144.535 115.36C146.517 115.026 147.928 114.86 148.767 114.86C149.371 114.86 149.951 114.912 150.378 115.006C150.805 115.1 151.045 115.228 151.045 115.36C151.045 115.493 150.805 115.621 150.378 115.714C149.951 115.808 149.371 115.861 148.767 115.861C147.928 115.861 146.517 115.694 144.535 115.36Z" fill="#4D35DE"/>
</g>
<g id="Vector_4" filter="url(#filter4_f_49_87)">
<path d="M102.468 121.62C105.213 121.119 107.166 120.869 108.327 120.869C109.164 120.869 109.967 120.948 110.558 121.089C111.15 121.23 111.482 121.421 111.482 121.62C111.482 121.819 111.15 122.011 110.558 122.151C109.967 122.292 109.164 122.371 108.327 122.371C107.166 122.371 105.213 122.121 102.468 121.62Z" fill="#4D35DE"/>
</g>
<g id="Vector_5" filter="url(#filter5_f_49_87)">
<path d="M106.475 117.614C107.847 117.447 108.824 117.364 109.404 117.364C109.823 117.364 110.224 117.39 110.52 117.437C110.816 117.484 110.982 117.548 110.982 117.614C110.982 117.68 110.816 117.744 110.52 117.791C110.224 117.838 109.823 117.864 109.404 117.864C108.824 117.864 107.847 117.781 106.475 117.614Z" fill="#4D35DE"/>
</g>
<g id="Vector_6" filter="url(#filter6_f_49_87)">
<path d="M109.479 108.349C111.462 108.015 112.872 107.849 113.711 107.849C114.315 107.849 114.895 107.901 115.322 107.995C115.75 108.089 115.99 108.217 115.99 108.349C115.99 108.482 115.75 108.61 115.322 108.703C114.895 108.797 114.315 108.85 113.711 108.85C112.872 108.85 111.462 108.683 109.479 108.349Z" fill="#4D35DE"/>
</g>
<g id="Vector_7" filter="url(#filter7_f_49_87)">
<path d="M92.9531 117.864C94.9355 117.53 96.346 117.364 97.1848 117.364C97.7892 117.364 98.3687 117.416 98.7961 117.51C99.2234 117.604 99.4635 117.732 99.4635 117.864C99.4635 117.997 99.2234 118.125 98.7961 118.218C98.3687 118.312 97.7892 118.365 97.1848 118.365C96.346 118.365 94.9355 118.198 92.9531 117.864Z" fill="#4D35DE"/>
</g>
<g id="Vector_8" filter="url(#filter8_f_49_87)">
<path d="M98.4619 109.852C100.444 109.518 101.855 109.351 102.694 109.351C103.298 109.351 103.877 109.404 104.305 109.498C104.732 109.591 104.972 109.719 104.972 109.852C104.972 109.984 104.732 110.112 104.305 110.206C103.877 110.3 103.298 110.352 102.694 110.352C101.855 110.352 100.444 110.186 98.4619 109.852Z" fill="#4D35DE"/>
</g>
<g id="Vector_9" filter="url(#filter9_f_49_87)">
<path d="M110.481 114.609C113.226 114.108 115.179 113.858 116.34 113.858C117.177 113.858 117.979 113.937 118.571 114.078C119.163 114.219 119.495 114.41 119.495 114.609C119.495 114.808 119.163 114.999 118.571 115.14C117.979 115.281 117.177 115.36 116.34 115.36C115.179 115.36 113.226 115.11 110.481 114.609Z" fill="#4D35DE"/>
</g>
<g id="Vector_10" filter="url(#filter10_f_49_87)">
<path d="M113.987 124.124C116.731 123.623 118.684 123.373 119.846 123.373C120.683 123.373 121.485 123.452 122.077 123.593C122.668 123.734 123.001 123.925 123.001 124.124C123.001 124.323 122.668 124.515 122.077 124.655C121.485 124.796 120.683 124.875 119.846 124.875C118.684 124.875 116.731 124.625 113.987 124.124Z" fill="#4D35DE"/>
</g>
<g id="Vector_11" filter="url(#filter11_f_49_87)">
<path d="M136.522 123.123C139.267 122.622 141.22 122.371 142.382 122.371C143.218 122.371 144.021 122.451 144.612 122.591C145.204 122.732 145.537 122.923 145.537 123.123C145.537 123.322 145.204 123.513 144.612 123.654C144.021 123.795 143.218 123.874 142.382 123.874C141.22 123.874 139.267 123.623 136.522 123.123Z" fill="#4D35DE"/>
</g>
<g id="Vector_12" filter="url(#filter12_f_49_87)">
<path d="M120.998 117.113C123.742 116.612 125.695 116.362 126.857 116.362C127.694 116.362 128.496 116.441 129.088 116.582C129.68 116.723 130.012 116.914 130.012 117.113C130.012 117.312 129.68 117.504 129.088 117.644C128.496 117.785 127.694 117.864 126.857 117.864C125.695 117.864 123.742 117.614 120.998 117.113Z" fill="#4D35DE"/>
</g>
<g id="Vector_13" filter="url(#filter13_f_49_87)">
<path d="M128.009 120.619C129.991 120.118 131.402 119.867 132.24 119.867C132.845 119.867 133.424 119.947 133.852 120.088C134.279 120.228 134.519 120.419 134.519 120.619C134.519 120.818 134.279 121.009 133.852 121.15C133.424 121.291 132.845 121.37 132.24 121.37C131.402 121.37 129.991 121.12 128.009 120.619Z" fill="#4D35DE"/>
</g>
<g id="Vector_14" filter="url(#filter14_f_49_87)">
<path d="M134.018 113.107C136.001 112.606 137.411 112.356 138.25 112.356C138.854 112.356 139.434 112.435 139.861 112.576C140.288 112.717 140.529 112.908 140.529 113.107C140.529 113.306 140.288 113.497 139.861 113.638C139.434 113.779 138.854 113.858 138.25 113.858C137.411 113.858 136.001 113.608 134.018 113.107Z" fill="#4D35DE"/>
</g>
<g id="Vector_15" filter="url(#filter15_f_49_87)">
<path d="M122.5 108.6C125.245 108.099 127.198 107.849 128.359 107.849C129.196 107.849 129.999 107.928 130.59 108.069C131.182 108.209 131.514 108.4 131.514 108.6C131.514 108.799 131.182 108.99 130.59 109.131C129.999 109.272 129.196 109.351 128.359 109.351C127.198 109.351 125.245 109.101 122.5 108.6Z" fill="#4D35DE"/>
</g>
<g id="Vector_16" filter="url(#filter16_f_49_87)">
<path d="M114.487 110.603C115.86 110.436 116.836 110.352 117.417 110.352C117.835 110.352 118.237 110.379 118.532 110.426C118.828 110.473 118.994 110.536 118.994 110.603C118.994 110.669 118.828 110.733 118.532 110.78C118.237 110.827 117.835 110.853 117.417 110.853C116.836 110.853 115.86 110.77 114.487 110.603Z" fill="#4D35DE"/>
</g>
<g id="Vector_17" filter="url(#filter17_f_49_87)">
<path d="M137.023 117.614C138.395 117.447 139.372 117.364 139.953 117.364C140.371 117.364 140.772 117.39 141.068 117.437C141.364 117.484 141.53 117.548 141.53 117.614C141.53 117.68 141.364 117.744 141.068 117.791C140.772 117.838 140.371 117.864 139.953 117.864C139.372 117.864 138.395 117.781 137.023 117.614Z" fill="#4D35DE"/>
</g>
<g id="Vector_18" filter="url(#filter18_f_49_87)">
<path d="M117.993 120.118C119.365 119.951 120.342 119.867 120.923 119.867C121.341 119.867 121.742 119.894 122.038 119.941C122.334 119.988 122.5 120.051 122.5 120.118C122.5 120.184 122.334 120.248 122.038 120.295C121.742 120.342 121.341 120.368 120.923 120.368C120.342 120.368 119.365 120.285 117.993 120.118Z" fill="#4D35DE"/>
</g>
<g id="Vector_19" filter="url(#filter19_f_49_87)">
<path d="M125.004 113.107C126.376 112.94 127.353 112.856 127.934 112.856C128.352 112.856 128.753 112.883 129.049 112.93C129.345 112.977 129.511 113.04 129.511 113.107C129.511 113.173 129.345 113.237 129.049 113.284C128.753 113.331 128.352 113.357 127.934 113.357C127.353 113.357 126.376 113.274 125.004 113.107Z" fill="#4D35DE"/>
</g>
<g id="Vector_20" filter="url(#filter20_f_49_87)">
<path d="M147.54 120.118C148.912 119.951 149.889 119.867 150.469 119.867C150.888 119.867 151.289 119.894 151.585 119.941C151.881 119.988 152.047 120.051 152.047 120.118C152.047 120.184 151.881 120.248 151.585 120.295C151.289 120.342 150.888 120.368 150.469 120.368C149.889 120.368 148.912 120.285 147.54 120.118Z" fill="#4D35DE"/>
</g>
</g>
</g>
<g id="Ellipse 6" filter="url(#filter21_f_49_87)">
<circle cx="66.7422" cy="114.852" r="27.1641" fill="url(#paint2_linear_49_87)" fill-opacity="0.3"/>
<circle cx="66.7422" cy="114.852" r="21.4453" stroke="white" stroke-width="11.4375"/>
</g>
<g id="Ellipse 8" filter="url(#filter22_di_49_87)">
<circle cx="66.7422" cy="114.852" r="27.1641" fill="white"/>
</g>
<g id="Ellipse 10" filter="url(#filter23_di_49_87)">
<circle cx="66.7422" cy="114.852" r="27.1641" fill="url(#paint3_linear_49_87)" shape-rendering="crispEdges"/>
</g>
<g id="Ellipse 9" filter="url(#filter24_f_49_87)">
<circle cx="179.211" cy="114.852" r="27.1641" fill="url(#paint4_linear_49_87)" fill-opacity="0.15"/>
<circle cx="179.211" cy="114.852" r="27.1641" fill="url(#paint5_linear_49_87)" fill-opacity="0.2"/>
</g>
<circle id="Ellipse 7" cx="179.211" cy="114.852" r="27.1641" fill="url(#paint6_linear_49_87)"/>
<g id="Group 1000001831">
<g id="Ellipse 7_2" filter="url(#filter25_f_49_87)">
<circle cx="65.7891" cy="114.852" r="9.05469" fill="#4D35DE" fill-opacity="0.24"/>
</g>
<path id="Vector_21" d="M75.4056 116.386L67.8393 128.09C67.722 128.269 67.5593 128.416 67.367 128.516C67.1748 128.615 66.9596 128.664 66.7422 128.658C66.6252 128.676 66.5061 128.676 66.3891 128.658C66.1187 128.581 65.8824 128.418 65.7178 128.194C65.5533 127.97 65.4699 127.698 65.4811 127.422V120.007H60.21C59.7585 120.007 59.3152 119.889 58.9265 119.664C58.5378 119.439 58.2179 119.115 58.0002 118.728C57.7824 118.34 57.6749 117.902 57.6887 117.46C57.7025 117.018 57.8372 116.587 58.0788 116.213L65.6451 104.51C65.7865 104.269 66.0065 104.082 66.2696 103.979C66.5327 103.876 66.8235 103.863 67.0953 103.941C67.3657 104.018 67.602 104.182 67.7666 104.406C67.9311 104.63 68.0144 104.901 68.0032 105.177V112.592H73.2744C73.7259 112.592 74.1692 112.711 74.5579 112.936C74.9466 113.161 75.2665 113.484 75.4842 113.872C75.702 114.26 75.8095 114.697 75.7957 115.14C75.7819 115.582 75.6471 116.012 75.4056 116.386Z" fill="url(#paint7_linear_49_87)"/>
</g>
<g id="Group 1000001828">
<path id="Vector_22" d="M189.113 106.068C189.105 106.029 189.086 105.993 189.058 105.964C189.03 105.935 188.994 105.914 188.955 105.905C186.338 105.264 180.292 107.546 177.016 110.824C176.432 111.404 175.899 112.034 175.424 112.707C174.414 112.617 173.404 112.692 172.543 113.067C170.114 114.138 169.406 116.93 169.209 118.131C169.198 118.197 169.202 118.264 169.222 118.328C169.241 118.392 169.275 118.45 169.32 118.499C169.366 118.547 169.422 118.585 169.485 118.608C169.547 118.631 169.614 118.639 169.681 118.632L173.581 118.201C173.584 118.496 173.602 118.79 173.635 119.082C173.654 119.285 173.744 119.475 173.889 119.619L175.4 121.127C175.543 121.272 175.733 121.362 175.936 121.382C176.227 121.415 176.519 121.432 176.811 121.435L176.383 125.335C176.376 125.401 176.384 125.468 176.407 125.531C176.431 125.593 176.468 125.649 176.516 125.695C176.565 125.741 176.623 125.775 176.687 125.794C176.751 125.813 176.818 125.818 176.884 125.806C178.081 125.614 180.876 124.906 181.939 122.475C182.314 121.613 182.391 120.607 182.304 119.601C182.978 119.125 183.609 118.592 184.19 118.007C187.476 114.735 189.743 108.818 189.113 106.068ZM180.912 114.103C180.612 113.803 180.407 113.421 180.325 113.004C180.242 112.588 180.284 112.156 180.446 111.764C180.609 111.371 180.883 111.036 181.236 110.8C181.589 110.564 182.004 110.438 182.428 110.438C182.852 110.438 183.267 110.564 183.619 110.8C183.972 111.036 184.247 111.371 184.409 111.764C184.572 112.156 184.614 112.588 184.531 113.004C184.448 113.421 184.244 113.803 183.944 114.103C183.745 114.303 183.508 114.461 183.248 114.569C182.988 114.677 182.709 114.732 182.428 114.732C182.146 114.732 181.867 114.677 181.607 114.569C181.347 114.461 181.111 114.303 180.912 114.103Z" fill="url(#paint8_linear_49_87)"/>
<path id="Vector_23" d="M175.387 122.064C175.148 122.303 174.765 122.397 174.303 122.477C173.266 122.653 172.35 121.757 172.536 120.708C172.608 120.311 172.818 119.754 172.949 119.623C172.977 119.595 172.996 119.558 173.003 119.519C173.01 119.479 173.004 119.439 172.987 119.403C172.969 119.367 172.94 119.337 172.905 119.318C172.87 119.299 172.829 119.292 172.79 119.298C172.21 119.369 171.67 119.632 171.257 120.045C170.231 121.071 170.134 124.882 170.134 124.882C170.134 124.882 173.946 124.785 174.972 123.758C175.386 123.345 175.649 122.804 175.719 122.224C175.735 122.041 175.513 121.932 175.387 122.064Z" fill="url(#paint9_linear_49_87)"/>
</g>
</g>
</g>
</g>
<defs>
<filter id="filter0_d_49_87" x="50.0625" y="7.625" width="160.125" height="10.4844" filterUnits="userSpaceOnUse" color-interpolation-filters="sRGB">
<feFlood flood-opacity="0" result="BackgroundImageFix"/>
<feColorMatrix in="SourceAlpha" type="matrix" values="0 0 0 0 0 0 0 0 0 0 0 0 0 0 0 0 0 0 127 0" result="hardAlpha"/>
<feOffset/>
<feGaussianBlur stdDeviation="0.476562"/>
<feComposite in2="hardAlpha" operator="out"/>
<feColorMatrix type="matrix" values="0 0 0 0 0 0 0 0 0 0 0 0 0 0 0 0 0 0 0.25 0"/>
<feBlend mode="normal" in2="BackgroundImageFix" result="effect1_dropShadow_49_87"/>
<feBlend mode="normal" in="SourceGraphic" in2="effect1_dropShadow_49_87" result="shape"/>
</filter>
<filter id="filter1_f_49_87" x="101.134" y="111.522" width="9.17906" height="3.67034" filterUnits="userSpaceOnUse" color-interpolation-filters="sRGB">
<feFlood flood-opacity="0" result="BackgroundImageFix"/>
<feBlend mode="normal" in="SourceGraphic" in2="BackgroundImageFix" result="shape"/>
<feGaussianBlur stdDeviation="0.667187" result="effect1_foregroundBlur_49_87"/>
</filter>
<filter id="filter2_f_49_87" x="139.194" y="107.015" width="9.17906" height="3.67034" filterUnits="userSpaceOnUse" color-interpolation-filters="sRGB">
<feFlood flood-opacity="0" result="BackgroundImageFix"/>
<feBlend mode="normal" in="SourceGraphic" in2="BackgroundImageFix" result="shape"/>
<feGaussianBlur stdDeviation="0.667187" result="effect1_foregroundBlur_49_87"/>
</filter>
<filter id="filter3_f_49_87" x="143.201" y="113.525" width="9.17906" height="3.67034" filterUnits="userSpaceOnUse" color-interpolation-filters="sRGB">
<feFlood flood-opacity="0" result="BackgroundImageFix"/>
<feBlend mode="normal" in="SourceGraphic" in2="BackgroundImageFix" result="shape"/>
<feGaussianBlur stdDeviation="0.667187" result="effect1_foregroundBlur_49_87"/>
</filter>
<filter id="filter4_f_49_87" x="101.134" y="119.535" width="11.683" height="4.17113" filterUnits="userSpaceOnUse" color-interpolation-filters="sRGB">
<feFlood flood-opacity="0" result="BackgroundImageFix"/>
<feBlend mode="normal" in="SourceGraphic" in2="BackgroundImageFix" result="shape"/>
<feGaussianBlur stdDeviation="0.667187" result="effect1_foregroundBlur_49_87"/>
</filter>
<filter id="filter5_f_49_87" x="106.093" y="116.982" width="5.26964" height="1.26329" filterUnits="userSpaceOnUse" color-interpolation-filters="sRGB">
<feFlood flood-opacity="0" result="BackgroundImageFix"/>
<feBlend mode="normal" in="SourceGraphic" in2="BackgroundImageFix" result="shape"/>
<feGaussianBlur stdDeviation="0.190625" result="effect1_foregroundBlur_49_87"/>
</filter>
<filter id="filter6_f_49_87" x="108.145" y="106.514" width="9.17906" height="3.67034" filterUnits="userSpaceOnUse" color-interpolation-filters="sRGB">
<feFlood flood-opacity="0" result="BackgroundImageFix"/>
<feBlend mode="normal" in="SourceGraphic" in2="BackgroundImageFix" result="shape"/>
<feGaussianBlur stdDeviation="0.667187" result="effect1_foregroundBlur_49_87"/>
</filter>
<filter id="filter7_f_49_87" x="91.6188" y="116.029" width="9.17906" height="3.67034" filterUnits="userSpaceOnUse" color-interpolation-filters="sRGB">
<feFlood flood-opacity="0" result="BackgroundImageFix"/>
<feBlend mode="normal" in="SourceGraphic" in2="BackgroundImageFix" result="shape"/>
<feGaussianBlur stdDeviation="0.667187" result="effect1_foregroundBlur_49_87"/>
</filter>
<filter id="filter8_f_49_87" x="97.1275" y="108.016" width="9.17906" height="3.67034" filterUnits="userSpaceOnUse" color-interpolation-filters="sRGB">
<feFlood flood-opacity="0" result="BackgroundImageFix"/>
<feBlend mode="normal" in="SourceGraphic" in2="BackgroundImageFix" result="shape"/>
<feGaussianBlur stdDeviation="0.667187" result="effect1_foregroundBlur_49_87"/>
</filter>
<filter id="filter9_f_49_87" x="109.147" y="112.524" width="11.683" height="4.17113" filterUnits="userSpaceOnUse" color-interpolation-filters="sRGB">
<feFlood flood-opacity="0" result="BackgroundImageFix"/>
<feBlend mode="normal" in="SourceGraphic" in2="BackgroundImageFix" result="shape"/>
<feGaussianBlur stdDeviation="0.667187" result="effect1_foregroundBlur_49_87"/>
</filter>
<filter id="filter10_f_49_87" x="112.652" y="122.039" width="11.683" height="4.17113" filterUnits="userSpaceOnUse" color-interpolation-filters="sRGB">
<feFlood flood-opacity="0" result="BackgroundImageFix"/>
<feBlend mode="normal" in="SourceGraphic" in2="BackgroundImageFix" result="shape"/>
<feGaussianBlur stdDeviation="0.667187" result="effect1_foregroundBlur_49_87"/>
</filter>
<filter id="filter11_f_49_87" x="135.188" y="121.037" width="11.683" height="4.17113" filterUnits="userSpaceOnUse" color-interpolation-filters="sRGB">
<feFlood flood-opacity="0" result="BackgroundImageFix"/>
<feBlend mode="normal" in="SourceGraphic" in2="BackgroundImageFix" result="shape"/>
<feGaussianBlur stdDeviation="0.667187" result="effect1_foregroundBlur_49_87"/>
</filter>
<filter id="filter12_f_49_87" x="119.663" y="115.028" width="11.683" height="4.17113" filterUnits="userSpaceOnUse" color-interpolation-filters="sRGB">
<feFlood flood-opacity="0" result="BackgroundImageFix"/>
<feBlend mode="normal" in="SourceGraphic" in2="BackgroundImageFix" result="shape"/>
<feGaussianBlur stdDeviation="0.667187" result="effect1_foregroundBlur_49_87"/>
</filter>
<filter id="filter13_f_49_87" x="126.674" y="118.533" width="9.17906" height="4.17113" filterUnits="userSpaceOnUse" color-interpolation-filters="sRGB">
<feFlood flood-opacity="0" result="BackgroundImageFix"/>
<feBlend mode="normal" in="SourceGraphic" in2="BackgroundImageFix" result="shape"/>
<feGaussianBlur stdDeviation="0.667187" result="effect1_foregroundBlur_49_87"/>
</filter>
<filter id="filter14_f_49_87" x="132.684" y="111.021" width="9.17906" height="4.17113" filterUnits="userSpaceOnUse" color-interpolation-filters="sRGB">
<feFlood flood-opacity="0" result="BackgroundImageFix"/>
<feBlend mode="normal" in="SourceGraphic" in2="BackgroundImageFix" result="shape"/>
<feGaussianBlur stdDeviation="0.667187" result="effect1_foregroundBlur_49_87"/>
</filter>
<filter id="filter15_f_49_87" x="121.166" y="106.514" width="11.683" height="4.17113" filterUnits="userSpaceOnUse" color-interpolation-filters="sRGB">
<feFlood flood-opacity="0" result="BackgroundImageFix"/>
<feBlend mode="normal" in="SourceGraphic" in2="BackgroundImageFix" result="shape"/>
<feGaussianBlur stdDeviation="0.667187" result="effect1_foregroundBlur_49_87"/>
</filter>
<filter id="filter16_f_49_87" x="114.106" y="109.971" width="5.26964" height="1.26329" filterUnits="userSpaceOnUse" color-interpolation-filters="sRGB">
<feFlood flood-opacity="0" result="BackgroundImageFix"/>
<feBlend mode="normal" in="SourceGraphic" in2="BackgroundImageFix" result="shape"/>
<feGaussianBlur stdDeviation="0.190625" result="effect1_foregroundBlur_49_87"/>
</filter>
<filter id="filter17_f_49_87" x="136.642" y="116.982" width="5.26964" height="1.26329" filterUnits="userSpaceOnUse" color-interpolation-filters="sRGB">
<feFlood flood-opacity="0" result="BackgroundImageFix"/>
<feBlend mode="normal" in="SourceGraphic" in2="BackgroundImageFix" result="shape"/>
<feGaussianBlur stdDeviation="0.190625" result="effect1_foregroundBlur_49_87"/>
</filter>
<filter id="filter18_f_49_87" x="117.612" y="119.486" width="5.26964" height="1.26329" filterUnits="userSpaceOnUse" color-interpolation-filters="sRGB">
<feFlood flood-opacity="0" result="BackgroundImageFix"/>
<feBlend mode="normal" in="SourceGraphic" in2="BackgroundImageFix" result="shape"/>
<feGaussianBlur stdDeviation="0.190625" result="effect1_foregroundBlur_49_87"/>
</filter>
<filter id="filter19_f_49_87" x="124.623" y="112.475" width="5.26964" height="1.26329" filterUnits="userSpaceOnUse" color-interpolation-filters="sRGB">
<feFlood flood-opacity="0" result="BackgroundImageFix"/>
<feBlend mode="normal" in="SourceGraphic" in2="BackgroundImageFix" result="shape"/>
<feGaussianBlur stdDeviation="0.190625" result="effect1_foregroundBlur_49_87"/>
</filter>
<filter id="filter20_f_49_87" x="147.158" y="119.486" width="5.26964" height="1.26329" filterUnits="userSpaceOnUse" color-interpolation-filters="sRGB">
<feFlood flood-opacity="0" result="BackgroundImageFix"/>
<feBlend mode="normal" in="SourceGraphic" in2="BackgroundImageFix" result="shape"/>
<feGaussianBlur stdDeviation="0.190625" result="effect1_foregroundBlur_49_87"/>
</filter>
<filter id="filter21_f_49_87" x="13.7484" y="61.8578" width="105.988" height="105.988" filterUnits="userSpaceOnUse" color-interpolation-filters="sRGB">
<feFlood flood-opacity="0" result="BackgroundImageFix"/>
<feBlend mode="normal" in="SourceGraphic" in2="BackgroundImageFix" result="shape"/>
<feGaussianBlur stdDeviation="12.9148" result="effect1_foregroundBlur_49_87"/>
</filter>
<filter id="filter22_di_49_87" x="30.0469" y="78.1562" width="73.3906" height="73.3906" filterUnits="userSpaceOnUse" color-interpolation-filters="sRGB">
<feFlood flood-opacity="0" result="BackgroundImageFix"/>
<feColorMatrix in="SourceAlpha" type="matrix" values="0 0 0 0 0 0 0 0 0 0 0 0 0 0 0 0 0 0 127 0" result="hardAlpha"/>
<feOffset/>
<feGaussianBlur stdDeviation="4.76562"/>
<feComposite in2="hardAlpha" operator="out"/>
<feColorMatrix type="matrix" values="0 0 0 0 0 0 0 0 0 0 0 0 0 0 0 0 0 0 0.01 0"/>
<feBlend mode="normal" in2="BackgroundImageFix" result="effect1_dropShadow_49_87"/>
<feBlend mode="normal" in="SourceGraphic" in2="effect1_dropShadow_49_87" result="shape"/>
<feColorMatrix in="SourceAlpha" type="matrix" values="0 0 0 0 0 0 0 0 0 0 0 0 0 0 0 0 0 0 127 0" result="hardAlpha"/>
<feOffset/>
<feGaussianBlur stdDeviation="1.7"/>
<feComposite in2="hardAlpha" operator="arithmetic" k2="-1" k3="1"/>
<feColorMatrix type="matrix" values="0 0 0 0 1 0 0 0 0 1 0 0 0 0 1 0 0 0 0.25 0"/>
<feBlend mode="normal" in2="shape" result="effect2_innerShadow_49_87"/>
</filter>
<filter id="filter23_di_49_87" x="30.0469" y="78.1562" width="73.3906" height="73.3906" filterUnits="userSpaceOnUse" color-interpolation-filters="sRGB">
<feFlood flood-opacity="0" result="BackgroundImageFix"/>
<feColorMatrix in="SourceAlpha" type="matrix" values="0 0 0 0 0 0 0 0 0 0 0 0 0 0 0 0 0 0 127 0" result="hardAlpha"/>
<feOffset/>
<feGaussianBlur stdDeviation="4.76562"/>
<feComposite in2="hardAlpha" operator="out"/>
<feColorMatrix type="matrix" values="0 0 0 0 0 0 0 0 0 0 0 0 0 0 0 0 0 0 0.01 0"/>
<feBlend mode="normal" in2="BackgroundImageFix" result="effect1_dropShadow_49_87"/>
<feBlend mode="normal" in="SourceGraphic" in2="effect1_dropShadow_49_87" result="shape"/>
<feColorMatrix in="SourceAlpha" type="matrix" values="0 0 0 0 0 0 0 0 0 0 0 0 0 0 0 0 0 0 127 0" result="hardAlpha"/>
<feOffset/>
<feGaussianBlur stdDeviation="1.7"/>
<feComposite in2="hardAlpha" operator="arithmetic" k2="-1" k3="1"/>
<feColorMatrix type="matrix" values="0 0 0 0 1 0 0 0 0 1 0 0 0 0 1 0 0 0 0.25 0"/>
<feBlend mode="normal" in2="shape" result="effect2_innerShadow_49_87"/>
</filter>
<filter id="filter24_f_49_87" x="117.258" y="52.8984" width="123.906" height="123.906" filterUnits="userSpaceOnUse" color-interpolation-filters="sRGB">
<feFlood flood-opacity="0" result="BackgroundImageFix"/>
<feBlend mode="normal" in="SourceGraphic" in2="BackgroundImageFix" result="shape"/>
<feGaussianBlur stdDeviation="17.3945" result="effect1_foregroundBlur_49_87"/>
</filter>
<filter id="filter25_f_49_87" x="33.7641" y="82.8266" width="64.05" height="64.05" filterUnits="userSpaceOnUse" color-interpolation-filters="sRGB">
<feFlood flood-opacity="0" result="BackgroundImageFix"/>
<feBlend mode="normal" in="SourceGraphic" in2="BackgroundImageFix" result="shape"/>
<feGaussianBlur stdDeviation="11.4852" result="effect1_foregroundBlur_49_87"/>
</filter>
<linearGradient id="paint0_linear_49_87" x1="122.5" y1="0" x2="122.5" y2="210.641" gradientUnits="userSpaceOnUse">
<stop stop-color="white"/>
<stop offset="0.795413" stop-color="white" stop-opacity="0"/>
</linearGradient>
<linearGradient id="paint1_linear_49_87" x1="122.5" y1="26.6875" x2="122.5" y2="204.922" gradientUnits="userSpaceOnUse">
<stop offset="0.534733" stop-color="#F6F6F6"/>
<stop offset="1" stop-color="#F6F6F6" stop-opacity="0"/>
</linearGradient>
<linearGradient id="paint2_linear_49_87" x1="42.9141" y1="103.414" x2="86.2813" y2="142.016" gradientUnits="userSpaceOnUse">
<stop stop-color="white" stop-opacity="0.24"/>
<stop offset="0.275069" stop-color="#C7C7C7" stop-opacity="0.43"/>
<stop offset="0.465077" stop-color="#BCB8D3" stop-opacity="0.42"/>
<stop offset="0.675085" stop-color="#A09FA4" stop-opacity="0.48"/>
<stop offset="1" stop-color="white" stop-opacity="0.13"/>
</linearGradient>
<linearGradient id="paint3_linear_49_87" x1="42.4375" y1="98.6484" x2="86.2812" y2="142.016" gradientUnits="userSpaceOnUse">
<stop stop-color="white"/>
<stop offset="0.275069" stop-color="#E3DFFF" stop-opacity="0.25"/>
<stop offset="0.473504" stop-color="#A798FF" stop-opacity="0"/>
<stop offset="0.832438" stop-color="#F8F6FF" stop-opacity="0.33"/>
<stop offset="1" stop-color="white"/>
</linearGradient>
<linearGradient id="paint4_linear_49_87" x1="155.383" y1="103.414" x2="198.75" y2="142.016" gradientUnits="userSpaceOnUse">
<stop stop-color="#4D35DE"/>
<stop offset="0.275069" stop-color="#4D35DE"/>
<stop offset="0.465077" stop-color="#2C15B8"/>
<stop offset="0.675085" stop-color="#4D35DE"/>
<stop offset="1" stop-color="#4D35DE"/>
</linearGradient>
<linearGradient id="paint5_linear_49_87" x1="195.891" y1="95.3125" x2="167.297" y2="137.727" gradientUnits="userSpaceOnUse">
<stop offset="0.329308" stop-color="white" stop-opacity="0"/>
<stop offset="0.480077" stop-color="white"/>
<stop offset="0.690648" stop-color="white" stop-opacity="0.11"/>
</linearGradient>
<linearGradient id="paint6_linear_49_87" x1="161" y1="95.5" x2="204.5" y2="136" gradientUnits="userSpaceOnUse">
<stop stop-color="#0030AD"/>
<stop offset="0.570081" stop-color="#4D35DE"/>
<stop offset="1" stop-color="#0030AD"/>
</linearGradient>
<linearGradient id="paint7_linear_49_87" x1="66.7422" y1="103.891" x2="66.7422" y2="128.672" gradientUnits="userSpaceOnUse">
<stop stop-color="#0030AD"/>
<stop offset="0.570081" stop-color="#4D35DE"/>
<stop offset="1" stop-color="#0030AD"/>
</linearGradient>
<linearGradient id="paint8_linear_49_87" x1="181.485" y1="120.354" x2="191.493" y2="98.5185" gradientUnits="userSpaceOnUse">
<stop stop-color="white"/>
<stop offset="1" stop-color="white" stop-opacity="0.74"/>
</linearGradient>
<linearGradient id="paint9_linear_49_87" x1="173.562" y1="123.358" x2="176.355" y2="117.265" gradientUnits="userSpaceOnUse">
<stop stop-color="white"/>
<stop offset="1" stop-color="white" stop-opacity="0"/>
</linearGradient>
</defs>
</svg>
