<svg width="28" height="28" viewBox="0 0 28 28" fill="none" xmlns="http://www.w3.org/2000/svg">
<path d="M26.1532 16.0434C25.7202 15.4456 25.4871 14.7264 25.4871 13.9883C25.4871 13.2502 25.7202 12.531 26.1532 11.9333L27.0406 10.7073C27.1491 10.5576 27.2205 10.3842 27.2489 10.2015C27.2773 10.0188 27.262 9.83201 27.2041 9.65642C27.1456 9.48266 27.0477 9.3248 26.918 9.19516C26.7884 9.06552 26.6305 8.96763 26.4568 8.90913L25.0206 8.44208C24.3171 8.21514 23.7038 7.77052 23.2694 7.17239C22.835 6.57427 22.6018 5.85357 22.6036 5.11433V3.59641C22.6035 3.41212 22.5597 3.23047 22.4759 3.06634C22.3921 2.9022 22.2706 2.76022 22.1215 2.65203C21.9723 2.54384 21.7996 2.4725 21.6175 2.44384C21.4355 2.41519 21.2492 2.43003 21.074 2.48716L19.6261 2.95422C18.9232 3.18167 18.1664 3.18106 17.4639 2.95247C16.7613 2.72389 16.1491 2.27903 15.7146 1.6815L14.8272 0.455485C14.7139 0.313394 14.57 0.198659 14.4063 0.119804C14.2425 0.0409486 14.0631 0 13.8814 0C13.6997 0 13.5203 0.0409486 13.3565 0.119804C13.1928 0.198659 13.0489 0.313394 12.9356 0.455485L12.0482 1.6815C11.6137 2.27903 11.0015 2.72389 10.2989 2.95247C9.59639 3.18106 8.83956 3.18167 8.13666 2.95422L6.68879 2.48716C6.51358 2.43003 6.32733 2.41519 6.14528 2.44384C5.96322 2.4725 5.79054 2.54384 5.64135 2.65203C5.49216 2.76022 5.37069 2.9022 5.28689 3.06634C5.20309 3.23047 5.15933 3.41212 5.1592 3.59641V5.11433C5.16099 5.85357 4.92785 6.57427 4.49342 7.17239C4.05899 7.77052 3.44575 8.21514 2.7422 8.44208L1.30601 8.90913C1.13226 8.96763 0.974393 9.06552 0.844755 9.19516C0.715118 9.3248 0.617224 9.48266 0.558731 9.65642C0.50083 9.83201 0.485456 10.0188 0.513876 10.2015C0.542295 10.3842 0.613695 10.5576 0.722199 10.7073L1.6096 11.9333C2.04261 12.531 2.27575 13.2502 2.27575 13.9883C2.27575 14.7264 2.04261 15.4456 1.6096 16.0434L0.722199 17.2694C0.613695 17.4191 0.542295 17.5924 0.513876 17.7751C0.485456 17.9578 0.50083 18.1446 0.558731 18.3202C0.617224 18.494 0.715118 18.6519 0.844755 18.7815C0.974393 18.9111 1.13226 19.009 1.30601 19.0675L2.7422 19.5346C3.44575 19.7615 4.05899 20.2061 4.49342 20.8043C4.92785 21.4024 5.16099 22.1231 5.1592 22.8623V24.3802C5.15933 24.5645 5.20309 24.7462 5.28689 24.9103C5.37069 25.0745 5.49216 25.2164 5.64135 25.3246C5.79054 25.4328 5.96322 25.5042 6.14528 25.5328C6.32733 25.5615 6.51358 25.5466 6.68879 25.4895L8.12498 25.0224C8.82938 24.7912 9.58907 24.7898 10.2943 25.0186C10.9995 25.2474 11.6137 25.6944 12.0482 26.2952L12.9356 27.5212C13.0446 27.6696 13.1871 27.7903 13.3514 27.8735C13.5157 27.9567 13.6972 28 13.8814 28C14.0656 28 14.2471 27.9567 14.4114 27.8735C14.5757 27.7903 14.7182 27.6696 14.8272 27.5212L15.7146 26.2952C16.1498 25.6953 16.7641 25.2489 17.469 25.0202C18.174 24.7915 18.9333 24.7923 19.6378 25.0224L21.074 25.4895C21.2492 25.5466 21.4355 25.5615 21.6175 25.5328C21.7996 25.5042 21.9723 25.4328 22.1215 25.3246C22.2706 25.2164 22.3921 25.0745 22.4759 24.9103C22.5597 24.7462 22.6035 24.5645 22.6036 24.3802V22.8623C22.6018 22.1231 22.835 21.4024 23.2694 20.8043C23.7038 20.2061 24.3171 19.7615 25.0206 19.5346L26.4568 19.0675C26.6305 19.009 26.7884 18.9111 26.918 18.7815C27.0477 18.6519 27.1456 18.494 27.2041 18.3202C27.262 18.1446 27.2773 17.9578 27.2489 17.7751C27.2205 17.5924 27.1491 17.4191 27.0406 17.2694L26.1532 16.0434ZM19.3809 12.4786L13.5428 18.3167C13.3238 18.5356 13.0269 18.6586 12.7173 18.6586C12.4077 18.6586 12.1107 18.5356 11.8918 18.3167L8.38886 14.8138C8.27734 14.7061 8.18839 14.5773 8.1272 14.4348C8.066 14.2924 8.03379 14.1392 8.03244 13.9841C8.0311 13.8291 8.06064 13.6753 8.11935 13.5318C8.17806 13.3883 8.26476 13.258 8.37439 13.1483C8.48402 13.0387 8.61439 12.952 8.75789 12.8933C8.90139 12.8346 9.05514 12.805 9.21018 12.8064C9.36522 12.8077 9.51843 12.84 9.66089 12.9011C9.80334 12.9623 9.93219 13.0513 10.0399 13.1628L12.7138 15.8402L17.7264 10.8276C17.9466 10.6149 18.2416 10.4972 18.5477 10.4998C18.8539 10.5025 19.1467 10.6253 19.3632 10.8418C19.5797 11.0583 19.7025 11.3511 19.7052 11.6573C19.7078 11.9634 19.5901 12.2584 19.3774 12.4786H19.3809Z" fill="#0030AD"/>
</svg>
