<svg width="12" height="12" viewBox="0 0 12 12" fill="none" xmlns="http://www.w3.org/2000/svg">
<path d="M3.552 6.882C4.398 6.882 5.076 7.566 5.076 8.418V10.464C5.076 11.31 4.398 12 3.552 12H1.524C0.684 12 0 11.31 0 10.464V8.418C0 7.566 0.684 6.882 1.524 6.882H3.552ZM10.476 6.882C11.316 6.882 12 7.566 12 8.418V10.464C12 11.31 11.316 12 10.476 12H8.448C7.602 12 6.924 11.31 6.924 10.464V8.418C6.924 7.566 7.602 6.882 8.448 6.882H10.476ZM3.552 0C4.398 0 5.076 0.69 5.076 1.5366V3.582C5.076 4.434 4.398 5.118 3.552 5.118H1.524C0.684 5.118 0 4.434 0 3.582V1.5366C0 0.69 0.684 0 1.524 0H3.552ZM10.476 0C11.316 0 12 0.69 12 1.5366V3.582C12 4.434 11.316 5.118 10.476 5.118H8.448C7.602 5.118 6.924 4.434 6.924 3.582V1.5366C6.92297 1.33558 6.9616 1.13634 7.03767 0.950266C7.11374 0.764196 7.22576 0.594953 7.36731 0.452227C7.50887 0.309501 7.67718 0.196093 7.86262 0.118494C8.04806 0.0408947 8.24698 0.000628523 8.448 0H10.476Z" fill="#000103" fill-opacity="0.66"/>
</svg>
