<svg width="29" height="28" viewBox="0 0 29 28" fill="none" xmlns="http://www.w3.org/2000/svg">
<path d="M27.9093 4.93518L26.8452 4.73558C26.7455 4.71761 26.6523 4.6738 26.5749 4.60852C26.4974 4.54325 26.4385 4.45879 26.4039 4.3636C26.3553 4.2259 26.2996 4.09086 26.2368 3.95904C26.1941 3.86736 26.1762 3.76608 26.1849 3.66531C26.1935 3.56454 26.2284 3.4678 26.2861 3.38474L26.8971 2.49161C26.9467 2.41914 26.9694 2.33164 26.9613 2.24422C26.9531 2.15681 26.9147 2.07498 26.8526 2.01289L26.2034 1.36377C26.1413 1.3017 26.0595 1.26327 25.972 1.25515C25.8846 1.24702 25.7971 1.2697 25.7246 1.31927L24.8314 1.93028C24.7484 1.98799 24.6516 2.02291 24.5509 2.03155C24.4501 2.0402 24.3488 2.02226 24.2571 1.97954C24.1253 1.9168 23.9903 1.86101 23.8526 1.81242C23.7574 1.7779 23.6729 1.71898 23.6076 1.64154C23.5423 1.56411 23.4985 1.47089 23.4806 1.37121L23.281 0.306978C23.2648 0.220711 23.219 0.142819 23.1514 0.0867662C23.0839 0.0307137 22.9988 2.32663e-05 22.9111 0H21.9927C21.9049 3.38395e-05 21.8199 0.0307291 21.7524 0.0867807C21.6849 0.142832 21.639 0.220718 21.6228 0.306978L21.4232 1.37117C21.4053 1.47085 21.3615 1.56408 21.2962 1.64152C21.2309 1.71895 21.1465 1.77789 21.0512 1.81242C20.9136 1.861 20.7786 1.91678 20.6468 1.97954C20.5551 2.02227 20.4538 2.04019 20.353 2.03154C20.2522 2.02289 20.1555 1.98796 20.0724 1.93023L19.1792 1.31927C19.1067 1.26972 19.0193 1.24704 18.9318 1.25516C18.8444 1.26328 18.7626 1.30168 18.7005 1.36373L18.0512 2.01289C17.9891 2.07495 17.9506 2.15678 17.9425 2.24421C17.9344 2.33164 17.9571 2.41916 18.0067 2.49161L18.6177 3.38478C18.6754 3.46785 18.7103 3.56459 18.7189 3.66536C18.7276 3.76613 18.7097 3.86741 18.667 3.95909C18.6042 4.09091 18.5485 4.22595 18.5 4.36364C18.4654 4.45884 18.4064 4.54329 18.329 4.60856C18.2515 4.67384 18.1583 4.71765 18.0586 4.73563L16.9945 4.93523C16.9082 4.95143 16.8303 4.99727 16.7743 5.06482C16.7182 5.13237 16.6875 5.21739 16.6875 5.30517V6.22347C16.6875 6.31126 16.7182 6.39629 16.7743 6.46385C16.8303 6.53141 16.9082 6.57726 16.9945 6.59346L18.0586 6.79306C18.1583 6.81103 18.2515 6.85484 18.329 6.92012C18.4064 6.98539 18.4654 7.06985 18.5 7.16505C18.5485 7.30273 18.6042 7.43776 18.667 7.56956C18.7097 7.66125 18.7276 7.76253 18.7189 7.8633C18.7103 7.96408 18.6754 8.06083 18.6177 8.14391L18.0067 9.03712C17.9571 9.10955 17.9344 9.19704 17.9426 9.28443C17.9507 9.37182 17.9891 9.45362 18.0512 9.51567L18.7005 10.165C18.7626 10.2271 18.8444 10.2655 18.9318 10.2736C19.0192 10.2817 19.1067 10.2591 19.1792 10.2095L20.0724 9.5985C20.1555 9.54078 20.2522 9.50586 20.353 9.49722C20.4538 9.48857 20.5551 9.50651 20.6468 9.54924C20.7786 9.61195 20.9136 9.66771 21.0512 9.71627C21.1464 9.75083 21.2309 9.80978 21.2962 9.88722C21.3615 9.96466 21.4053 10.0579 21.4232 10.1576L21.6228 11.2217C21.639 11.3079 21.6849 11.3858 21.7524 11.4419C21.8199 11.498 21.9049 11.5287 21.9927 11.5287H22.9111C22.9988 11.5287 23.0839 11.498 23.1514 11.4419C23.219 11.3858 23.2648 11.3079 23.281 11.2217L23.4806 10.1576C23.4985 10.0579 23.5424 9.96464 23.6076 9.88719C23.6729 9.80974 23.7574 9.75078 23.8526 9.71622C23.9903 9.6677 24.1253 9.61196 24.2571 9.54924C24.3487 9.50651 24.45 9.48857 24.5508 9.49722C24.6516 9.50586 24.7483 9.54078 24.8314 9.5985L25.7246 10.2095C25.7971 10.2591 25.8846 10.2818 25.972 10.2736C26.0595 10.2655 26.1413 10.2271 26.2034 10.165L26.8526 9.51567C26.9147 9.45361 26.9532 9.37178 26.9613 9.28436C26.9694 9.19694 26.9467 9.10943 26.8971 9.03699L26.2861 8.14377C26.2284 8.06071 26.1935 7.96397 26.1849 7.8632C26.1762 7.76243 26.1941 7.66115 26.2368 7.56947C26.2996 7.43766 26.3553 7.30264 26.4039 7.16496C26.4384 7.06976 26.4974 6.9853 26.5749 6.92002C26.6523 6.85475 26.7455 6.81094 26.8452 6.79297L27.9093 6.59337C27.9956 6.57719 28.0735 6.53135 28.1296 6.46379C28.1857 6.39622 28.2164 6.31119 28.2164 6.22338V5.30513C28.2164 5.21733 28.1857 5.1323 28.1296 5.06475C28.0735 4.9972 27.9956 4.95137 27.9093 4.93518ZM22.4519 7.90071C22.0293 7.90071 21.6162 7.7754 21.2648 7.54062C20.9135 7.30585 20.6396 6.97215 20.4779 6.58173C20.3162 6.19131 20.2739 5.7617 20.3563 5.34724C20.4387 4.93277 20.6422 4.55206 20.9411 4.25324C21.2399 3.95443 21.6206 3.75093 22.0351 3.66849C22.4495 3.58605 22.8791 3.62836 23.2695 3.79008C23.66 3.95179 23.9937 4.22565 24.2284 4.57702C24.4632 4.92839 24.5885 5.34149 24.5885 5.76407C24.5885 6.33075 24.3634 6.87421 23.9627 7.27491C23.562 7.6756 23.0186 7.90071 22.4519 7.90071Z" fill="#0030AD"/>
<path d="M25.9368 11.4094C25.6324 11.4098 25.335 11.3178 25.084 11.1456L24.521 10.7606L24.3953 11.4304C24.3304 11.7767 24.1464 12.0894 23.8753 12.3145C23.6042 12.5395 23.263 12.6627 22.9107 12.6628H21.9925C21.6403 12.6627 21.2991 12.5396 21.028 12.3146C20.757 12.0897 20.573 11.7771 20.508 11.4309L20.3822 10.7606L19.8192 11.1456C19.5285 11.3445 19.1773 11.4355 18.8265 11.4029C18.4757 11.3703 18.1474 11.2161 17.8983 10.967L17.2492 10.3178C17 10.0687 16.8458 9.74033 16.8131 9.38951C16.7805 9.0387 16.8714 8.68749 17.0703 8.39664L17.4554 7.83385L16.7852 7.70806C16.439 7.643 16.1264 7.45904 15.9014 7.18796C15.6764 6.91688 15.5532 6.57571 15.5531 6.22344V5.31235C14.8929 5.57104 14.2877 5.95226 13.7692 6.43592C13.2775 6.29039 12.7608 6.24909 12.2523 6.31466C11.7437 6.38023 11.2544 6.55122 10.8157 6.8167C10.021 7.33426 9.43401 8.11532 9.15796 9.02266C8.65259 8.80548 8.10831 8.69341 7.55825 8.69327C6.95183 8.67931 6.35062 8.808 5.80305 9.06897C5.25549 9.32994 4.77689 9.71589 4.40582 10.1957C3.95008 10.8378 3.72054 11.6131 3.75326 12.3998C4.33301 12.4977 4.88528 12.7179 5.37334 13.0458C5.39643 13.0615 5.41848 13.0787 5.43934 13.0972C6.05076 13.6219 6.83334 13.9042 7.6389 13.8906C8.44446 13.877 9.21709 13.5686 9.81052 13.0237C9.93484 12.9209 10.0947 12.8713 10.2553 12.8857C10.416 12.9001 10.5644 12.9773 10.6685 13.1005C10.7726 13.2237 10.8239 13.383 10.8112 13.5438C10.7985 13.7046 10.7229 13.8539 10.6008 13.9593C9.77814 14.6994 8.71485 15.1159 7.60833 15.1315C6.52746 15.1208 5.48389 14.7348 4.65614 14.0397C4.19177 13.7357 3.65056 13.5701 3.09562 13.562C2.51181 13.73 1.98049 14.0441 1.55189 14.4746C1.12329 14.9051 0.811584 15.4378 0.64624 16.0224C0.547688 16.4056 0.498553 16.7998 0.500032 17.1955C0.501179 18.1846 0.867346 19.1386 1.52835 19.8745C2.18935 20.6103 3.09868 21.0764 4.08206 21.1833C4.15423 21.7684 4.37346 22.3258 4.7193 22.8033C5.06514 23.2808 5.52631 23.6629 6.05978 23.914C6.59325 24.1651 7.18163 24.2769 7.77001 24.2391C8.3584 24.2012 8.9276 24.0149 9.42452 23.6976C8.93883 22.8786 8.79836 21.9003 9.03403 20.9777C9.07709 20.8211 9.1806 20.688 9.32179 20.6077C9.46298 20.5274 9.63029 20.5065 9.78691 20.5496C9.94352 20.5926 10.0766 20.6961 10.1569 20.8373C10.2372 20.9785 10.2581 21.1458 10.2151 21.3024C10.1237 21.6982 10.1297 22.1102 10.2327 22.5031C10.3357 22.896 10.5325 23.2581 10.8063 23.5581C11.6515 24.3239 12.7519 24.7468 13.8925 24.7443H15.5719C15.7366 24.745 15.8983 24.7879 16.0416 24.8689C16.1849 24.9499 16.3051 25.0663 16.3906 25.2071L17.8304 27.5442C17.916 27.684 18.0361 27.7993 18.1793 27.8792C18.3224 27.959 18.4838 28.0006 18.6477 28H18.6499L20.5265 27.9943C20.6872 27.9937 20.8453 27.9528 20.9861 27.8752C21.1269 27.7977 21.246 27.686 21.3324 27.5504C21.4188 27.4148 21.4698 27.2597 21.4806 27.0993C21.4914 26.9389 21.4617 26.7784 21.3943 26.6324L20.6864 25.1005C20.6358 24.9844 20.615 24.8576 20.6256 24.7314C20.6363 24.6052 20.6782 24.4837 20.7475 24.3778C20.8169 24.2718 20.9115 24.1848 21.0229 24.1245C21.1343 24.0643 21.2589 24.0327 21.3855 24.0326H21.6234C22.8545 24.0461 24.0461 23.5979 24.9632 22.7765C25.8804 21.9551 26.4567 20.82 26.5785 19.5948C26.6449 18.7425 26.4855 17.8879 26.1162 17.1169C25.7921 16.8904 25.4326 16.7194 25.0523 16.6111C24.6854 16.491 24.2975 16.4491 23.9134 16.4882C23.5294 16.5273 23.1578 16.6464 22.8227 16.838C22.0806 17.3016 21.7674 18.0533 21.8644 19.136C21.8789 19.2979 21.8285 19.4588 21.7243 19.5835C21.6201 19.7081 21.4707 19.7863 21.3089 19.8008C21.2903 19.8024 21.2721 19.8032 21.2535 19.8032C21.1007 19.803 20.9534 19.7456 20.8407 19.6424C20.728 19.5391 20.658 19.3975 20.6444 19.2452C20.4698 17.296 21.3793 16.2953 22.1731 15.7991C22.6546 15.5157 23.1903 15.3368 23.7454 15.2742C24.3005 15.2115 24.8627 15.2664 25.3952 15.4354C25.7572 15.5402 26.1058 15.6867 26.434 15.8719C26.7172 15.274 26.8652 14.6211 26.8677 13.9595C26.8828 13.0612 26.7029 12.1704 26.3403 11.3484C26.2092 11.3869 26.0735 11.4074 25.9368 11.4094Z" fill="#0030AD"/>
</svg>
