<svg width="29" height="28" viewBox="0 0 29 28" fill="none" xmlns="http://www.w3.org/2000/svg">
<g clip-path="url(#clip0_741_830)">
<path d="M10.4173 4.66666H3.41732C3.26261 4.66666 3.11424 4.72811 3.00484 4.83751C2.89544 4.94691 2.83398 5.09528 2.83398 5.24999C2.83398 5.4047 2.89544 5.55307 3.00484 5.66247C3.11424 5.77186 3.26261 5.83332 3.41732 5.83332H10.4173C10.572 5.83332 10.7204 5.77186 10.8298 5.66247C10.9392 5.55307 11.0007 5.4047 11.0007 5.24999C11.0007 5.09528 10.9392 4.94691 10.8298 4.83751C10.7204 4.72811 10.572 4.66666 10.4173 4.66666Z" fill="#0030AD"/>
<path d="M26.1667 4.66668H14.1617L11.9917 2.50834C11.884 2.39844 11.7372 2.33554 11.5833 2.33334H2.83333C2.21449 2.33334 1.621 2.57918 1.18342 3.01676C0.745833 3.45435 0.5 4.04784 0.5 4.66668L0.5 22.1667C0.5 22.7855 0.745833 23.379 1.18342 23.8166C1.621 24.2542 2.21449 24.5 2.83333 24.5H5.16667V25.0833C5.16667 25.2381 5.22812 25.3864 5.33752 25.4958C5.44692 25.6052 5.59529 25.6667 5.75 25.6667H9.25C9.40471 25.6667 9.55308 25.6052 9.66248 25.4958C9.77187 25.3864 9.83333 25.2381 9.83333 25.0833V24.5H19.1667V25.0833C19.1667 25.2381 19.2281 25.3864 19.3375 25.4958C19.4469 25.6052 19.5953 25.6667 19.75 25.6667H23.25C23.4047 25.6667 23.5531 25.6052 23.6625 25.4958C23.7719 25.3864 23.8333 25.2381 23.8333 25.0833V24.5H26.1667C26.7855 24.5 27.379 24.2542 27.8166 23.8166C28.2542 23.379 28.5 22.7855 28.5 22.1667V7.00001C28.5 6.38117 28.2542 5.78768 27.8166 5.35009C27.379 4.91251 26.7855 4.66668 26.1667 4.66668ZM1.66667 4.66668C1.66667 4.35726 1.78958 4.06051 2.00838 3.84172C2.22717 3.62293 2.52391 3.50001 2.83333 3.50001H11.3383L13.0883 5.25001L11.3383 7.00001H1.66667V4.66668ZM22.6667 24.5H20.3333V18.0833C20.3333 17.9286 20.2719 17.7803 20.1625 17.6709C20.0531 17.5615 19.9047 17.5 19.75 17.5H9.25C9.09529 17.5 8.94692 17.5615 8.83752 17.6709C8.72812 17.7803 8.66667 17.9286 8.66667 18.0833V24.5H6.33333V16.3333C6.33333 16.0239 6.45625 15.7272 6.67504 15.5084C6.89383 15.2896 7.19058 15.1667 7.5 15.1667H21.5C21.8094 15.1667 22.1062 15.2896 22.325 15.5084C22.5438 15.7272 22.6667 16.0239 22.6667 16.3333V24.5Z" fill="#0030AD"/>
</g>
<defs>
<clipPath id="clip0_741_830">
<rect width="28" height="28" fill="white" transform="translate(0.5)"/>
</clipPath>
</defs>
</svg>
