<svg width="615" height="605" viewBox="0 0 615 605" fill="none" xmlns="http://www.w3.org/2000/svg">
<path d="M604.642 0.98294L604.642 615.017M558.853 0.982938L558.853 615.017M513.065 0.982936L513.065 615.017M467.276 0.982934L467.276 615.017M421.488 0.982932L421.488 615.017M375.7 0.98293L375.699 615.017M329.911 0.982928L329.911 615.017M284.123 0.982926L284.123 615.017M238.334 0.982924L238.334 615.017M192.546 0.982922L192.546 615.017M146.757 0.98292L146.757 615.017M100.969 0.982918L100.969 615.017M55.1803 0.982916L55.1802 615.017M9.3918 0.982914L9.39173 615.017M614.034 605.625L-0.000354309 605.625M614.034 559.837L-0.000352308 559.837M614.034 514.048L-0.000350306 514.048M614.034 468.26L-0.000348305 468.26M614.034 422.471L-0.000307567 422.471M614.034 376.683L-0.000305565 376.683M614.034 330.894L-0.000303564 330.894M614.034 285.106L-0.000301563 285.106M614.034 239.317L-0.000299561 239.317M614.034 193.529L-0.00029756 193.529M614.034 147.741L-0.000295558 147.74M614.034 101.952L-0.000293557 101.952M614.034 56.1636L-0.000291555 56.1635M614.034 10.3751L-0.000289554 10.375" stroke="url(#paint0_linear_126_665)" stroke-opacity="0.1"/>
<defs>
<linearGradient id="paint0_linear_126_665" x1="614.034" y1="308" x2="-0.000318596" y2="308" gradientUnits="userSpaceOnUse">
<stop stop-color="white" stop-opacity="0"/>
<stop offset="0.226569" stop-color="white"/>
<stop offset="0.815841" stop-color="white"/>
<stop offset="1" stop-color="white" stop-opacity="0"/>
</linearGradient>
</defs>
</svg>
