<svg width="1440" height="684" viewBox="0 0 1440 684" fill="none" xmlns="http://www.w3.org/2000/svg">
<path d="M746.406 -5.02665e-07L746.406 684M689.882 -2.95327e-06L689.882 684M633.358 -5.40387e-06L633.358 684M576.834 -7.85448e-06L576.834 684M520.31 -1.03051e-05L520.31 684M463.786 -1.27557e-05L463.786 684M407.262 -1.52063e-05L407.262 684M350.738 -1.76569e-05L350.738 684M294.214 -2.01075e-05L294.214 684M237.69 -2.25581e-05L237.69 684M181.166 -2.50087e-05L181.166 684M124.642 -2.74593e-05L124.642 684M68.1182 -2.99099e-05L68.1181 684M11.5942 -3.23605e-05L11.5942 684M758 673.538L1.63379e-05 673.538M758 622.532L1.85857e-05 622.532M758 571.526L2.08336e-05 571.526M758 520.52L2.30814e-05 520.52M758 469.515L7.31477e-05 469.515M758 418.509L7.53955e-05 418.509M758 367.503L7.76434e-05 367.503M758 316.497L7.98912e-05 316.497M758 265.491L8.21391e-05 265.491M758 214.486L8.43869e-05 214.486M758 163.48L8.66348e-05 163.48M758 112.474L8.88827e-05 112.474M758 61.4682L9.11305e-05 61.468M758 10.4623L9.33784e-05 10.4622" stroke="url(#paint0_linear_275_213)" stroke-opacity="0.1"/>
<path d="M1428.41 -5.02665e-07L1428.41 684M1371.88 -2.95327e-06L1371.88 684M1315.36 -5.40387e-06L1315.36 684M1258.83 -7.85448e-06L1258.83 684M1202.31 -1.03051e-05L1202.31 684M1145.79 -1.27557e-05L1145.79 684M1089.26 -1.52063e-05L1089.26 684M1032.74 -1.76569e-05L1032.74 684M976.214 -2.01075e-05L976.214 684M919.69 -2.25581e-05L919.69 684M863.166 -2.50087e-05L863.166 684M806.642 -2.74593e-05L806.642 684M750.118 -2.99099e-05L750.118 684M693.594 -3.23605e-05L693.594 684M1440 673.538L682 673.538M1440 622.532L682 622.532M1440 571.526L682 571.526M1440 520.52L682 520.52M1440 469.515L682 469.515M1440 418.509L682 418.509M1440 367.503L682 367.503M1440 316.497L682 316.497M1440 265.491L682 265.491M1440 214.486L682 214.486M1440 163.48L682 163.48M1440 112.474L682 112.474M1440 61.4682L682 61.468M1440 10.4623L682 10.4622" stroke="url(#paint1_linear_275_213)" stroke-opacity="0.1"/>
<defs>
<linearGradient id="paint0_linear_275_213" x1="758" y1="342" x2="4.5963e-05" y2="342" gradientUnits="userSpaceOnUse">
<stop stop-color="white" stop-opacity="0"/>
<stop offset="0.226569" stop-color="white"/>
<stop offset="0.815841" stop-color="white"/>
<stop offset="1" stop-color="white" stop-opacity="0"/>
</linearGradient>
<linearGradient id="paint1_linear_275_213" x1="1440" y1="342" x2="682" y2="342" gradientUnits="userSpaceOnUse">
<stop stop-color="white" stop-opacity="0"/>
<stop offset="0.226569" stop-color="white"/>
<stop offset="0.815841" stop-color="white"/>
<stop offset="1" stop-color="white" stop-opacity="0"/>
</linearGradient>
</defs>
</svg>
