<svg width="1440" height="399" viewBox="0 0 1440 399" fill="none" xmlns="http://www.w3.org/2000/svg">
<g opacity="0.5">
<path fill-rule="evenodd" clip-rule="evenodd" d="M1.53862 84.5137C1.50759 84.502 1.47075 84.4872 1.42857 84.4687C1.09919 84.3237 0.693819 84.0619 0.258264 83.6636C-0.601917 82.8769 -1.45887 81.6727 -2.16836 80.1118C-3.58451 76.9962 -4.38584 72.5214 -3.53779 67.26C-1.84112 56.7338 6.4492 43.1087 29.4665 30.9504C52.4607 18.8043 90.1529 8.11802 150.769 3.42914C211.438 -1.26391 295.252 0.0373192 410.534 11.9896C525.857 23.946 625.202 39.2881 715.104 54.3896C741.293 58.7887 766.691 63.1694 791.454 67.4404C851.651 77.8232 908.093 87.5582 963.007 95.3357C1040.55 106.318 1115.25 113.43 1193.57 112.98C1271.91 112.529 1353.69 104.513 1445.39 85.3307C1446.09 85.1848 1446.25 84.9024 1445.74 84.7001C1445.24 84.4978 1444.27 84.4521 1443.57 84.598C1352.26 103.697 1271.09 111.631 1193.51 112.077C1115.9 112.523 1041.71 105.477 964.374 94.5239C909.581 86.7637 853.312 77.0584 793.167 66.6846C768.381 62.4095 742.936 58.0207 716.665 53.6078C626.697 38.4953 527.165 23.1222 411.583 11.139C295.962 -0.84847 211.465 -2.20093 149.966 2.55627C88.4129 7.31765 50.0783 18.1856 26.7359 30.5156C3.41675 42.8334 -4.93903 56.6063 -6.64945 67.2178C-7.50495 72.5254 -6.70008 77.0544 -5.2567 80.2299C-4.53642 81.8145 -3.65028 83.0777 -2.71109 83.9366C-2.24695 84.3611 -1.73857 84.7167 -1.17226 84.9659C-0.891711 85.0893 -0.531864 85.216 -0.0660181 85.3051C0.438565 85.4015 1.12248 85.4613 1.86802 85.3977C2.69327 85.3273 3.1655 85.0762 2.92278 84.8369C2.73407 84.6508 2.16872 84.5266 1.53862 84.5137Z" fill="#EABDFF"/>
<path fill-rule="evenodd" clip-rule="evenodd" d="M2.50026 370.514C2.46923 370.502 2.43239 370.487 2.39021 370.469C2.06083 370.324 1.65546 370.062 1.2199 369.664C0.359723 368.877 -0.497232 367.673 -1.20672 366.112C-2.62287 362.996 -3.4242 358.521 -2.57615 353.26C-0.87948 342.734 7.41084 329.109 30.4282 316.95C53.4223 304.804 91.1146 294.118 151.73 289.429C212.4 284.736 296.214 286.037 411.496 297.99C526.818 309.946 626.163 325.288 716.066 340.39C742.255 344.789 767.653 349.169 792.416 353.44C852.613 363.823 909.054 373.558 963.968 381.336C1041.51 392.318 1116.21 399.43 1194.53 398.98C1272.87 398.529 1354.65 390.513 1446.35 371.331C1447.05 371.185 1447.21 370.902 1446.71 370.7C1446.2 370.498 1445.23 370.452 1444.53 370.598C1353.23 389.697 1272.05 397.631 1194.47 398.077C1116.86 398.523 1042.67 391.477 965.336 380.524C910.543 372.764 854.274 363.058 794.129 352.685C769.343 348.409 743.898 344.021 717.627 339.608C627.659 324.495 528.126 309.122 412.545 297.139C296.923 285.152 212.427 283.799 150.928 288.556C89.3746 293.318 51.0399 304.186 27.6976 316.516C4.37839 328.833 -3.97739 342.606 -5.68781 353.218C-6.54331 358.525 -5.73844 363.054 -4.29506 366.23C-3.57478 367.815 -2.68864 369.078 -1.74945 369.937C-1.28531 370.361 -0.776928 370.717 -0.210621 370.966C0.0699296 371.089 0.429776 371.216 0.895622 371.305C1.40021 371.401 2.08412 371.461 2.82966 371.398C3.65491 371.327 4.12714 371.076 3.88442 370.837C3.6957 370.651 3.13036 370.527 2.50026 370.514Z" fill="white"/>
<path fill-rule="evenodd" clip-rule="evenodd" d="M1.53862 92.2616C1.50759 92.2498 1.47075 92.2349 1.42858 92.2162C1.09919 92.07 0.693819 91.8058 0.258265 91.404C-0.601917 90.6103 -1.45887 89.3955 -2.16836 87.8208C-3.58451 84.6776 -4.38584 80.1632 -3.53779 74.8553C-1.84112 64.2359 6.44919 50.4902 29.4665 38.2243C52.4607 25.9707 90.1529 15.1899 150.769 10.4595C211.438 5.7249 295.252 7.03765 410.534 19.0957C525.857 31.158 625.202 46.6358 715.104 61.8709C741.293 66.3089 766.691 70.7284 791.454 75.0373C851.651 85.5119 908.093 95.333 963.007 103.179C1040.55 114.259 1115.25 121.434 1193.57 120.98C1271.91 120.525 1353.69 112.438 1445.39 93.0858C1446.09 92.9386 1446.25 92.6538 1445.74 92.4497C1445.24 92.2456 1444.27 92.1994 1443.57 92.3467C1352.26 111.614 1271.09 119.618 1193.51 120.068C1115.9 120.519 1041.71 113.41 964.374 102.36C909.581 94.5315 853.312 84.7403 793.167 74.2748C768.381 69.9618 742.936 65.5342 716.665 61.0822C626.697 45.8359 527.165 30.3269 411.583 18.2375C295.962 6.14402 211.465 4.77959 149.966 9.57889C88.4129 14.3824 50.0783 25.3465 26.7359 37.7857C3.41675 50.2124 -4.93903 64.1072 -6.64945 74.8127C-7.50495 80.1672 -6.70008 84.7363 -5.2567 87.9399C-4.53642 89.5386 -3.65028 90.8129 -2.71109 91.6794C-2.24695 92.1077 -1.73857 92.4664 -1.17226 92.7178C-0.891711 92.8423 -0.531864 92.9701 -0.0660181 93.06C0.438565 93.1573 1.12248 93.2176 1.86802 93.1534C2.69327 93.0824 3.1655 92.8291 2.92278 92.5877C2.73407 92.3999 2.16872 92.2747 1.53862 92.2616Z" fill="#EBBFFF"/>
<path fill-rule="evenodd" clip-rule="evenodd" d="M1.53862 100.514C1.50759 100.502 1.47075 100.487 1.42858 100.469C1.09919 100.324 0.693819 100.062 0.258265 99.6636C-0.601917 98.8769 -1.45887 97.6727 -2.16836 96.1118C-3.58451 92.9962 -4.38584 88.5214 -3.53779 83.26C-1.84112 72.7338 6.44919 59.1087 29.4665 46.9504C52.4607 34.8043 90.1529 24.118 150.769 19.4291C211.438 14.7361 295.252 16.0373 410.534 27.9896C525.857 39.946 625.202 55.2881 715.104 70.3896C741.293 74.7887 766.691 79.1694 791.454 83.4404C851.651 93.8232 908.093 103.558 963.007 111.336C1040.55 122.318 1115.25 129.43 1193.57 128.98C1271.91 128.529 1353.69 120.513 1445.39 101.331C1446.09 101.185 1446.25 100.902 1445.74 100.7C1445.24 100.498 1444.27 100.452 1443.57 100.598C1352.26 119.697 1271.09 127.631 1193.51 128.077C1115.9 128.523 1041.71 121.477 964.374 110.524C909.581 102.764 853.312 93.0584 793.167 82.6846C768.381 78.4095 742.936 74.0207 716.665 69.6078C626.697 54.4953 527.165 39.1222 411.583 27.139C295.962 15.1515 211.465 13.7991 149.966 18.5563C88.4129 23.3176 50.0783 34.1856 26.7359 46.5156C3.41675 58.8334 -4.93903 72.6063 -6.64945 83.2178C-7.50495 88.5254 -6.70008 93.0544 -5.2567 96.2299C-4.53642 97.8145 -3.65028 99.0777 -2.71109 99.9366C-2.24695 100.361 -1.73857 100.717 -1.17226 100.966C-0.891711 101.089 -0.531864 101.216 -0.0660181 101.305C0.438565 101.402 1.12248 101.461 1.86802 101.398C2.69327 101.327 3.1655 101.076 2.92278 100.837C2.73407 100.651 2.16872 100.527 1.53862 100.514Z" fill="#EBC1FF"/>
<path fill-rule="evenodd" clip-rule="evenodd" d="M1.53862 109.262C1.50759 109.25 1.47075 109.235 1.42858 109.216C1.09919 109.07 0.693819 108.806 0.258265 108.404C-0.601917 107.61 -1.45887 106.395 -2.16836 104.821C-3.58451 101.678 -4.38584 97.1632 -3.53779 91.8553C-1.84112 81.2359 6.44919 67.4902 29.4665 55.2243C52.4607 42.9707 90.1529 32.1899 150.769 27.4595C211.438 22.7249 295.252 24.0377 410.534 36.0957C525.857 48.158 625.202 63.6358 715.104 78.8709C741.293 83.3089 766.691 87.7284 791.454 92.0373C851.651 102.512 908.093 112.333 963.007 120.179C1040.55 131.259 1115.25 138.434 1193.57 137.98C1271.91 137.525 1353.69 129.438 1445.39 110.086C1446.09 109.939 1446.25 109.654 1445.74 109.45C1445.24 109.246 1444.27 109.199 1443.57 109.347C1352.26 128.614 1271.09 136.619 1193.51 137.068C1115.9 137.519 1041.71 130.41 964.374 119.36C909.581 111.531 853.312 101.74 793.167 91.2748C768.381 86.9618 742.936 82.5342 716.665 78.0822C626.697 62.8359 527.165 47.3269 411.583 35.2375C295.962 23.144 211.465 21.7796 149.966 26.5789C88.4129 31.3824 50.0783 42.3465 26.7359 54.7857C3.41675 67.2124 -4.93903 81.1072 -6.64945 91.8127C-7.50495 97.1672 -6.70008 101.736 -5.2567 104.94C-4.53642 106.539 -3.65028 107.813 -2.71109 108.679C-2.24695 109.108 -1.73857 109.466 -1.17226 109.718C-0.891711 109.842 -0.531864 109.97 -0.0660181 110.06C0.438565 110.157 1.12248 110.218 1.86802 110.153C2.69327 110.082 3.1655 109.829 2.92278 109.588C2.73407 109.4 2.16872 109.275 1.53862 109.262Z" fill="#ECC3FF"/>
<path fill-rule="evenodd" clip-rule="evenodd" d="M1.53862 118.514C1.50759 118.502 1.47075 118.487 1.42858 118.469C1.09919 118.324 0.693819 118.062 0.258265 117.664C-0.601917 116.877 -1.45887 115.673 -2.16836 114.112C-3.58451 110.996 -4.38584 106.521 -3.53779 101.26C-1.84112 90.7338 6.44919 77.1087 29.4665 64.9504C52.4607 52.8043 90.1529 42.118 150.769 37.4291C211.438 32.7361 295.252 34.0373 410.534 45.9896C525.857 57.946 625.202 73.2881 715.104 88.3896C741.293 92.7887 766.691 97.1694 791.454 101.44C851.651 111.823 908.093 121.558 963.007 129.336C1040.55 140.318 1115.25 147.43 1193.57 146.98C1271.91 146.529 1353.69 138.513 1445.39 119.331C1446.09 119.185 1446.25 118.902 1445.74 118.7C1445.24 118.498 1444.27 118.452 1443.57 118.598C1352.26 137.697 1271.09 145.631 1193.51 146.077C1115.9 146.523 1041.71 139.477 964.374 128.524C909.581 120.764 853.312 111.058 793.167 100.685C768.381 96.4095 742.936 92.0207 716.665 87.6078C626.697 72.4953 527.165 57.1222 411.583 45.139C295.962 33.1515 211.465 31.7991 149.966 36.5563C88.4129 41.3176 50.0783 52.1856 26.7359 64.5156C3.41675 76.8334 -4.93903 90.6063 -6.64945 101.218C-7.50495 106.525 -6.70008 111.054 -5.2567 114.23C-4.53642 115.815 -3.65028 117.078 -2.71109 117.937C-2.24695 118.361 -1.73857 118.717 -1.17226 118.966C-0.891711 119.089 -0.531864 119.216 -0.0660181 119.305C0.438565 119.402 1.12248 119.461 1.86802 119.398C2.69327 119.327 3.1655 119.076 2.92278 118.837C2.73407 118.651 2.16872 118.527 1.53862 118.514Z" fill="#ECC5FF"/>
<path fill-rule="evenodd" clip-rule="evenodd" d="M1.53862 128.262C1.50759 128.25 1.47075 128.235 1.42858 128.216C1.09919 128.07 0.693819 127.806 0.258265 127.404C-0.601917 126.61 -1.45887 125.395 -2.16836 123.821C-3.58451 120.678 -4.38584 116.163 -3.53779 110.855C-1.84112 100.236 6.44919 86.4902 29.4665 74.2243C52.4607 61.9707 90.1529 51.1899 150.769 46.4595C211.438 41.7249 295.252 43.0377 410.534 55.0957C525.857 67.158 625.202 82.6358 715.104 97.8709C741.293 102.309 766.691 106.728 791.454 111.037C851.651 121.512 908.093 131.333 963.007 139.179C1040.55 150.259 1115.25 157.434 1193.57 156.98C1271.91 156.525 1353.69 148.438 1445.39 129.086C1446.09 128.939 1446.25 128.654 1445.74 128.45C1445.24 128.246 1444.27 128.199 1443.57 128.347C1352.26 147.614 1271.09 155.619 1193.51 156.068C1115.9 156.519 1041.71 149.41 964.374 138.36C909.581 130.531 853.312 120.74 793.167 110.275C768.381 105.962 742.936 101.534 716.665 97.0822C626.697 81.8359 527.165 66.3269 411.583 54.2375C295.962 42.144 211.465 40.7796 149.966 45.5789C88.4129 50.3824 50.0783 61.3465 26.7359 73.7857C3.41675 86.2124 -4.93903 100.107 -6.64945 110.813C-7.50495 116.167 -6.70008 120.736 -5.2567 123.94C-4.53642 125.539 -3.65028 126.813 -2.71109 127.679C-2.24695 128.108 -1.73857 128.466 -1.17226 128.718C-0.891711 128.842 -0.531864 128.97 -0.0660181 129.06C0.438565 129.157 1.12248 129.218 1.86802 129.153C2.69327 129.082 3.1655 128.829 2.92278 128.588C2.73407 128.4 2.16872 128.275 1.53862 128.262Z" fill="#EDC7FF"/>
<path fill-rule="evenodd" clip-rule="evenodd" d="M1.53862 138.514C1.50759 138.502 1.47075 138.487 1.42858 138.469C1.09919 138.324 0.693819 138.062 0.258265 137.664C-0.601917 136.877 -1.45887 135.673 -2.16836 134.112C-3.58451 130.996 -4.38584 126.521 -3.53779 121.26C-1.84112 110.734 6.44919 97.1087 29.4665 84.9504C52.4607 72.8043 90.1529 62.118 150.769 57.4291C211.438 52.7361 295.252 54.0373 410.534 65.9896C525.857 77.946 625.202 93.2881 715.104 108.39C741.293 112.789 766.691 117.169 791.454 121.44C851.651 131.823 908.093 141.558 963.007 149.336C1040.55 160.318 1115.25 167.43 1193.57 166.98C1271.91 166.529 1353.69 158.513 1445.39 139.331C1446.09 139.185 1446.25 138.902 1445.74 138.7C1445.24 138.498 1444.27 138.452 1443.57 138.598C1352.26 157.697 1271.09 165.631 1193.51 166.077C1115.9 166.523 1041.71 159.477 964.374 148.524C909.581 140.764 853.312 131.058 793.167 120.685C768.381 116.409 742.936 112.021 716.665 107.608C626.697 92.4953 527.165 77.1222 411.583 65.139C295.962 53.1515 211.465 51.7991 149.966 56.5563C88.4129 61.3176 50.0783 72.1856 26.7359 84.5156C3.41675 96.8334 -4.93903 110.606 -6.64945 121.218C-7.50495 126.525 -6.70008 131.054 -5.2567 134.23C-4.53642 135.815 -3.65028 137.078 -2.71109 137.937C-2.24695 138.361 -1.73857 138.717 -1.17226 138.966C-0.891711 139.089 -0.531864 139.216 -0.0660181 139.305C0.438565 139.402 1.12248 139.461 1.86802 139.398C2.69327 139.327 3.1655 139.076 2.92278 138.837C2.73407 138.651 2.16872 138.527 1.53862 138.514Z" fill="#EECAFF"/>
<path fill-rule="evenodd" clip-rule="evenodd" d="M1.53862 149.514C1.50759 149.502 1.47075 149.487 1.42858 149.469C1.09919 149.324 0.693819 149.062 0.258265 148.664C-0.601917 147.877 -1.45887 146.673 -2.16836 145.112C-3.58451 141.996 -4.38584 137.521 -3.53779 132.26C-1.84112 121.734 6.44919 108.109 29.4665 95.9504C52.4607 83.8043 90.1529 73.118 150.769 68.4291C211.438 63.7361 295.252 65.0373 410.534 76.9896C525.857 88.946 625.202 104.288 715.104 119.39C741.293 123.789 766.691 128.169 791.454 132.44C851.651 142.823 908.093 152.558 963.007 160.336C1040.55 171.318 1115.25 178.43 1193.57 177.98C1271.91 177.529 1353.69 169.513 1445.39 150.331C1446.09 150.185 1446.25 149.902 1445.74 149.7C1445.24 149.498 1444.27 149.452 1443.57 149.598C1352.26 168.697 1271.09 176.631 1193.51 177.077C1115.9 177.523 1041.71 170.477 964.374 159.524C909.581 151.764 853.312 142.058 793.167 131.685C768.381 127.409 742.936 123.021 716.665 118.608C626.697 103.495 527.165 88.1222 411.583 76.139C295.962 64.1515 211.465 62.7991 149.966 67.5563C88.4129 72.3176 50.0783 83.1856 26.7359 95.5156C3.41675 107.833 -4.93903 121.606 -6.64945 132.218C-7.50495 137.525 -6.70008 142.054 -5.2567 145.23C-4.53642 146.815 -3.65028 148.078 -2.71109 148.937C-2.24695 149.361 -1.73857 149.717 -1.17226 149.966C-0.891711 150.089 -0.531864 150.216 -0.0660181 150.305C0.438565 150.402 1.12248 150.461 1.86802 150.398C2.69327 150.327 3.1655 150.076 2.92278 149.837C2.73407 149.651 2.16872 149.527 1.53862 149.514Z" fill="#EFCCFF"/>
<path fill-rule="evenodd" clip-rule="evenodd" d="M1.53862 161.514C1.50759 161.502 1.47075 161.487 1.42858 161.469C1.09919 161.324 0.693819 161.062 0.258265 160.664C-0.601917 159.877 -1.45887 158.673 -2.16836 157.112C-3.58451 153.996 -4.38584 149.521 -3.53779 144.26C-1.84112 133.734 6.44919 120.109 29.4665 107.95C52.4607 95.8043 90.1529 85.118 150.769 80.4291C211.438 75.7361 295.252 77.0373 410.534 88.9896C525.857 100.946 625.202 116.288 715.104 131.39C741.293 135.789 766.691 140.169 791.454 144.44C851.651 154.823 908.093 164.558 963.007 172.336C1040.55 183.318 1115.25 190.43 1193.57 189.98C1271.91 189.529 1353.69 181.513 1445.39 162.331C1446.09 162.185 1446.25 161.902 1445.74 161.7C1445.24 161.498 1444.27 161.452 1443.57 161.598C1352.26 180.697 1271.09 188.631 1193.51 189.077C1115.9 189.523 1041.71 182.477 964.374 171.524C909.581 163.764 853.312 154.058 793.167 143.685C768.381 139.409 742.936 135.021 716.665 130.608C626.697 115.495 527.165 100.122 411.583 88.139C295.962 76.1515 211.465 74.7991 149.966 79.5563C88.4129 84.3176 50.0783 95.1856 26.7359 107.516C3.41675 119.833 -4.93903 133.606 -6.64945 144.218C-7.50495 149.525 -6.70008 154.054 -5.2567 157.23C-4.53642 158.815 -3.65028 160.078 -2.71109 160.937C-2.24695 161.361 -1.73857 161.717 -1.17226 161.966C-0.891711 162.089 -0.531864 162.216 -0.0660181 162.305C0.438565 162.402 1.12248 162.461 1.86802 162.398C2.69327 162.327 3.1655 162.076 2.92278 161.837C2.73407 161.651 2.16872 161.527 1.53862 161.514Z" fill="#F0CFFF"/>
<path fill-rule="evenodd" clip-rule="evenodd" d="M2.49461 174.514C2.4636 174.502 2.42678 174.487 2.38464 174.469C2.05547 174.324 1.65037 174.062 1.2151 173.664C0.355489 172.877 -0.5009 171.673 -1.20991 170.112C-2.62513 166.996 -3.42593 162.521 -2.57844 157.26C-0.882895 146.734 7.40193 133.109 30.404 120.95C53.383 108.804 91.0503 98.118 151.626 93.4291C212.256 88.7361 296.014 90.0373 411.22 101.99C526.466 113.946 625.745 129.288 715.588 144.39C741.759 148.789 767.141 153.169 791.887 157.44C852.044 167.823 908.449 177.558 963.327 185.336C1040.82 196.318 1115.47 203.43 1193.73 202.98C1272.02 202.529 1353.75 194.513 1445.39 175.331C1446.09 175.185 1446.25 174.902 1445.74 174.7C1445.24 174.498 1444.27 174.452 1443.57 174.598C1352.33 193.697 1271.2 201.631 1193.67 202.077C1116.11 202.523 1041.98 195.477 964.693 184.524C909.936 176.764 853.705 167.058 793.6 156.685C768.829 152.409 743.401 148.021 717.148 143.608C627.239 128.495 527.773 113.122 412.268 101.139C296.723 89.1515 212.282 87.7991 150.824 92.5563C89.3114 97.3176 51.0021 108.186 27.6752 120.516C4.3715 132.833 -3.97875 146.606 -5.68804 157.218C-6.54297 162.525 -5.73864 167.054 -4.29621 170.23C-3.57641 171.815 -2.69086 173.078 -1.75229 173.937C-1.28846 174.361 -0.78041 174.717 -0.214478 174.966C0.065887 175.089 0.425496 175.216 0.891033 175.305C1.39528 175.402 2.07874 175.461 2.82379 175.398C3.64849 175.327 4.12041 175.076 3.87785 174.837C3.68926 174.651 3.12429 174.527 2.49461 174.514Z" fill="#F1D2FF"/>
<path fill-rule="evenodd" clip-rule="evenodd" d="M2.49461 186.766C2.4636 186.754 2.42678 186.74 2.38464 186.721C2.05547 186.578 1.65037 186.318 1.2151 185.923C0.355489 185.143 -0.5009 183.95 -1.20991 182.403C-2.62513 179.315 -3.42593 174.88 -2.57844 169.665C-0.882895 159.232 7.40193 145.727 30.404 133.676C53.383 121.638 91.0503 111.046 151.626 106.399C212.256 101.747 296.014 103.037 411.22 114.884C526.466 126.734 625.745 141.94 715.588 156.908C741.759 161.268 767.141 165.61 791.887 169.844C852.044 180.134 908.449 189.783 963.327 197.492C1040.82 208.377 1115.47 215.426 1193.73 214.98C1272.02 214.534 1353.75 206.588 1445.39 187.576C1446.09 187.431 1446.25 187.151 1445.74 186.951C1445.24 186.75 1444.27 186.705 1443.57 186.849C1352.33 205.779 1271.2 213.643 1193.67 214.085C1116.11 214.527 1041.98 207.544 964.693 196.687C909.936 188.996 853.705 179.376 793.6 169.094C768.829 164.857 743.401 160.507 717.148 156.133C627.239 141.155 527.773 125.918 412.268 114.04C296.723 102.159 212.282 100.819 150.824 105.534C89.3114 110.253 51.0021 121.025 27.6752 133.246C4.3715 145.454 -3.97875 159.105 -5.68804 169.623C-6.54297 174.884 -5.73864 179.372 -4.29621 182.52C-3.57641 184.09 -2.69086 185.342 -1.75229 186.194C-1.28846 186.615 -0.78041 186.967 -0.214478 187.214C0.065887 187.336 0.425496 187.462 0.891033 187.55C1.39528 187.646 2.07874 187.705 2.82379 187.642C3.64849 187.572 4.12041 187.323 3.87785 187.086C3.68926 186.902 3.12429 186.779 2.49461 186.766Z" fill="#F2D5FF"/>
<path fill-rule="evenodd" clip-rule="evenodd" d="M2.49461 200.514C2.4636 200.502 2.42678 200.487 2.38464 200.469C2.05547 200.324 1.65037 200.062 1.2151 199.664C0.355489 198.877 -0.5009 197.673 -1.20991 196.112C-2.62513 192.996 -3.42593 188.521 -2.57844 183.26C-0.882895 172.734 7.40193 159.109 30.404 146.95C53.383 134.804 91.0503 124.118 151.626 119.429C212.256 114.736 296.014 116.037 411.22 127.99C526.466 139.946 625.745 155.288 715.588 170.39C741.759 174.789 767.141 179.169 791.887 183.44C852.044 193.823 908.449 203.558 963.327 211.336C1040.82 222.318 1115.47 229.43 1193.73 228.98C1272.02 228.529 1353.75 220.513 1445.39 201.331C1446.09 201.185 1446.25 200.902 1445.74 200.7C1445.24 200.498 1444.27 200.452 1443.57 200.598C1352.33 219.697 1271.2 227.631 1193.67 228.077C1116.11 228.523 1041.98 221.477 964.693 210.524C909.936 202.764 853.705 193.058 793.6 182.685C768.829 178.409 743.401 174.021 717.148 169.608C627.239 154.495 527.773 139.122 412.268 127.139C296.723 115.152 212.282 113.799 150.824 118.556C89.3114 123.318 51.0021 134.186 27.6752 146.516C4.3715 158.833 -3.97875 172.606 -5.68804 183.218C-6.54297 188.525 -5.73864 193.054 -4.29621 196.23C-3.57641 197.815 -2.69086 199.078 -1.75229 199.937C-1.28846 200.361 -0.78041 200.717 -0.214478 200.966C0.065887 201.089 0.425496 201.216 0.891033 201.305C1.39528 201.402 2.07874 201.461 2.82379 201.398C3.64849 201.327 4.12041 201.076 3.87785 200.837C3.68926 200.651 3.12429 200.527 2.49461 200.514Z" fill="#F3D8FF"/>
<path fill-rule="evenodd" clip-rule="evenodd" d="M2.49461 215.262C2.4636 215.25 2.42678 215.235 2.38464 215.216C2.05547 215.07 1.65037 214.806 1.2151 214.404C0.355489 213.61 -0.5009 212.395 -1.20991 210.821C-2.62513 207.678 -3.42593 203.163 -2.57844 197.855C-0.882895 187.236 7.40193 173.49 30.404 161.224C53.383 148.971 91.0503 138.19 151.626 133.459C212.256 128.725 296.014 130.038 411.22 142.096C526.466 154.158 625.745 169.636 715.588 184.871C741.759 189.309 767.141 193.728 791.887 198.037C852.044 208.512 908.449 218.333 963.327 226.179C1040.82 237.259 1115.47 244.434 1193.73 243.98C1272.02 243.525 1353.75 235.438 1445.39 216.086C1446.09 215.939 1446.25 215.654 1445.74 215.45C1445.24 215.246 1444.27 215.199 1443.57 215.347C1352.33 234.614 1271.2 242.619 1193.67 243.068C1116.11 243.519 1041.98 236.41 964.693 225.36C909.936 217.531 853.705 207.74 793.6 197.275C768.829 192.962 743.401 188.534 717.148 184.082C627.239 168.836 527.773 153.327 412.268 141.238C296.723 129.144 212.282 127.78 150.824 132.579C89.3114 137.382 51.0021 148.347 27.6752 160.786C4.3715 173.212 -3.97875 187.107 -5.68804 197.813C-6.54297 203.167 -5.73864 207.736 -4.29621 210.94C-3.57641 212.539 -2.69086 213.813 -1.75229 214.679C-1.28846 215.108 -0.78041 215.466 -0.214478 215.718C0.065887 215.842 0.425496 215.97 0.891033 216.06C1.39528 216.157 2.07874 216.218 2.82379 216.153C3.64849 216.082 4.12041 215.829 3.87785 215.588C3.68926 215.4 3.12429 215.275 2.49461 215.262Z" fill="#F4DBFF"/>
<path fill-rule="evenodd" clip-rule="evenodd" d="M2.49461 229.514C2.4636 229.502 2.42678 229.487 2.38464 229.469C2.05547 229.324 1.65037 229.062 1.2151 228.664C0.355489 227.877 -0.5009 226.673 -1.20991 225.112C-2.62513 221.996 -3.42593 217.521 -2.57844 212.26C-0.882895 201.734 7.40193 188.109 30.404 175.95C53.383 163.804 91.0503 153.118 151.626 148.429C212.256 143.736 296.014 145.037 411.22 156.99C526.466 168.946 625.745 184.288 715.588 199.39C741.759 203.789 767.141 208.169 791.887 212.44C852.044 222.823 908.449 232.558 963.327 240.336C1040.82 251.318 1115.47 258.43 1193.73 257.98C1272.02 257.529 1353.75 249.513 1445.39 230.331C1446.09 230.185 1446.25 229.902 1445.74 229.7C1445.24 229.498 1444.27 229.452 1443.57 229.598C1352.33 248.697 1271.2 256.631 1193.67 257.077C1116.11 257.523 1041.98 250.477 964.693 239.524C909.936 231.764 853.705 222.058 793.6 211.685C768.829 207.409 743.401 203.021 717.148 198.608C627.239 183.495 527.773 168.122 412.268 156.139C296.723 144.152 212.282 142.799 150.824 147.556C89.3114 152.318 51.0021 163.186 27.6752 175.516C4.3715 187.833 -3.97875 201.606 -5.68804 212.218C-6.54297 217.525 -5.73864 222.054 -4.29621 225.23C-3.57641 226.815 -2.69086 228.078 -1.75229 228.937C-1.28846 229.361 -0.78041 229.717 -0.214478 229.966C0.065887 230.089 0.425496 230.216 0.891033 230.305C1.39528 230.402 2.07874 230.461 2.82379 230.398C3.64849 230.327 4.12041 230.076 3.87785 229.837C3.68926 229.651 3.12429 229.527 2.49461 229.514Z" fill="#F5DFFF"/>
<path fill-rule="evenodd" clip-rule="evenodd" d="M2.49461 244.766C2.4636 244.754 2.42678 244.74 2.38464 244.721C2.05547 244.578 1.65037 244.318 1.2151 243.923C0.355489 243.143 -0.5009 241.95 -1.20991 240.403C-2.62513 237.315 -3.42593 232.88 -2.57844 227.665C-0.882895 217.232 7.40193 203.727 30.404 191.676C53.383 179.638 91.0503 169.046 151.626 164.399C212.256 159.747 296.014 161.037 411.22 172.884C526.466 184.734 625.745 199.94 715.588 214.908C741.759 219.268 767.141 223.61 791.887 227.844C852.044 238.134 908.449 247.783 963.327 255.492C1040.82 266.377 1115.47 273.426 1193.73 272.98C1272.02 272.534 1353.75 264.588 1445.39 245.576C1446.09 245.431 1446.25 245.151 1445.74 244.951C1445.24 244.75 1444.27 244.705 1443.57 244.849C1352.33 263.779 1271.2 271.643 1193.67 272.085C1116.11 272.527 1041.98 265.544 964.693 254.687C909.936 246.996 853.705 237.376 793.6 227.094C768.829 222.857 743.401 218.507 717.148 214.133C627.239 199.155 527.773 183.918 412.268 172.04C296.723 160.159 212.282 158.819 150.824 163.534C89.3114 168.253 51.0021 179.025 27.6752 191.246C4.3715 203.454 -3.97875 217.105 -5.68804 227.623C-6.54297 232.884 -5.73864 237.372 -4.29621 240.52C-3.57641 242.09 -2.69086 243.342 -1.75229 244.194C-1.28846 244.615 -0.78041 244.967 -0.214478 245.214C0.065887 245.336 0.425496 245.462 0.891033 245.55C1.39528 245.646 2.07874 245.705 2.82379 245.642C3.64849 245.572 4.12041 245.323 3.87785 245.086C3.68926 244.902 3.12429 244.779 2.49461 244.766Z" fill="#F6E2FF"/>
<path fill-rule="evenodd" clip-rule="evenodd" d="M2.49461 261.514C2.4636 261.502 2.42678 261.487 2.38464 261.469C2.05547 261.324 1.65037 261.062 1.2151 260.664C0.355489 259.877 -0.5009 258.673 -1.20991 257.112C-2.62513 253.996 -3.42593 249.521 -2.57844 244.26C-0.882895 233.734 7.40193 220.109 30.404 207.95C53.383 195.804 91.0503 185.118 151.626 180.429C212.256 175.736 296.014 177.037 411.22 188.99C526.466 200.946 625.745 216.288 715.588 231.39C741.759 235.789 767.141 240.169 791.887 244.44C852.044 254.823 908.449 264.558 963.327 272.336C1040.82 283.318 1115.47 290.43 1193.73 289.98C1272.02 289.529 1353.75 281.513 1445.39 262.331C1446.09 262.185 1446.25 261.902 1445.74 261.7C1445.24 261.498 1444.27 261.452 1443.57 261.598C1352.33 280.697 1271.2 288.631 1193.67 289.077C1116.11 289.523 1041.98 282.477 964.693 271.524C909.936 263.764 853.705 254.058 793.6 243.685C768.829 239.409 743.401 235.021 717.148 230.608C627.239 215.495 527.773 200.122 412.268 188.139C296.723 176.152 212.282 174.799 150.824 179.556C89.3114 184.318 51.0021 195.186 27.6752 207.516C4.3715 219.833 -3.97875 233.606 -5.68804 244.218C-6.54297 249.525 -5.73864 254.054 -4.29621 257.23C-3.57641 258.815 -2.69086 260.078 -1.75229 260.937C-1.28846 261.361 -0.78041 261.717 -0.214478 261.966C0.065887 262.089 0.425496 262.216 0.891033 262.305C1.39528 262.401 2.07874 262.461 2.82379 262.398C3.64849 262.327 4.12041 262.076 3.87785 261.837C3.68926 261.651 3.12429 261.527 2.49461 261.514Z" fill="#F7E6FF"/>
<path fill-rule="evenodd" clip-rule="evenodd" d="M2.49461 278.262C2.4636 278.25 2.42678 278.235 2.38464 278.216C2.05547 278.07 1.65037 277.806 1.2151 277.404C0.355489 276.61 -0.5009 275.395 -1.20991 273.821C-2.62513 270.678 -3.42593 266.163 -2.57844 260.855C-0.882895 250.236 7.40193 236.49 30.404 224.224C53.383 211.971 91.0503 201.19 151.626 196.459C212.256 191.725 296.014 193.038 411.22 205.096C526.466 217.158 625.745 232.636 715.588 247.871C741.759 252.309 767.141 256.728 791.887 261.037C852.044 271.512 908.449 281.333 963.327 289.179C1040.82 300.259 1115.47 307.434 1193.73 306.98C1272.02 306.525 1353.75 298.438 1445.39 279.086C1446.09 278.939 1446.25 278.654 1445.74 278.45C1445.24 278.246 1444.27 278.199 1443.57 278.347C1352.33 297.614 1271.2 305.618 1193.67 306.068C1116.11 306.518 1041.98 299.41 964.693 288.36C909.936 280.531 853.705 270.74 793.6 260.275C768.829 255.962 743.401 251.534 717.148 247.082C627.239 231.836 527.773 216.327 412.268 204.238C296.723 192.144 212.282 190.78 150.824 195.579C89.3114 200.382 51.0021 211.347 27.6752 223.786C4.3715 236.212 -3.97875 250.107 -5.68804 260.813C-6.54297 266.167 -5.73864 270.736 -4.29621 273.94C-3.57641 275.539 -2.69086 276.813 -1.75229 277.679C-1.28846 278.108 -0.78041 278.466 -0.214478 278.718C0.065887 278.842 0.425496 278.97 0.891033 279.06C1.39528 279.157 2.07874 279.218 2.82379 279.153C3.64849 279.082 4.12041 278.829 3.87785 278.588C3.68926 278.4 3.12429 278.275 2.49461 278.262Z" fill="#F8EAFF"/>
<path fill-rule="evenodd" clip-rule="evenodd" d="M2.49461 295.514C2.4636 295.502 2.42678 295.487 2.38464 295.469C2.05547 295.324 1.65037 295.062 1.2151 294.664C0.355489 293.877 -0.5009 292.673 -1.20991 291.112C-2.62513 287.996 -3.42593 283.521 -2.57844 278.26C-0.882895 267.734 7.40193 254.109 30.404 241.95C53.383 229.804 91.0503 219.118 151.626 214.429C212.256 209.736 296.014 211.037 411.22 222.99C526.466 234.946 625.745 250.288 715.588 265.39C741.759 269.789 767.141 274.169 791.887 278.44C852.044 288.823 908.449 298.558 963.327 306.336C1040.82 317.318 1115.47 324.43 1193.73 323.98C1272.02 323.529 1353.75 315.513 1445.39 296.331C1446.09 296.185 1446.25 295.902 1445.74 295.7C1445.24 295.498 1444.27 295.452 1443.57 295.598C1352.33 314.697 1271.2 322.631 1193.67 323.077C1116.11 323.523 1041.98 316.477 964.693 305.524C909.936 297.764 853.705 288.058 793.6 277.685C768.829 273.409 743.401 269.021 717.148 264.608C627.239 249.495 527.773 234.122 412.268 222.139C296.723 210.152 212.282 208.799 150.824 213.556C89.3114 218.318 51.0021 229.186 27.6752 241.516C4.3715 253.833 -3.97875 267.606 -5.68804 278.218C-6.54297 283.525 -5.73864 288.054 -4.29621 291.23C-3.57641 292.815 -2.69086 294.078 -1.75229 294.937C-1.28846 295.361 -0.78041 295.717 -0.214478 295.966C0.065887 296.089 0.425496 296.216 0.891033 296.305C1.39528 296.401 2.07874 296.461 2.82379 296.398C3.64849 296.327 4.12041 296.076 3.87785 295.837C3.68926 295.651 3.12429 295.527 2.49461 295.514Z" fill="#F9EEFF"/>
<path fill-rule="evenodd" clip-rule="evenodd" d="M2.50026 313.514C2.46923 313.502 2.43239 313.487 2.39022 313.469C2.06083 313.324 1.65546 313.062 1.2199 312.664C0.359724 311.877 -0.497232 310.673 -1.20672 309.112C-2.62287 305.996 -3.4242 301.521 -2.57615 296.26C-0.87948 285.734 7.41083 272.109 30.4282 259.95C53.4223 247.804 91.1146 237.118 151.73 232.429C212.4 227.736 296.214 229.037 411.496 240.99C526.818 252.946 626.163 268.288 716.066 283.39C742.255 287.789 767.653 292.169 792.416 296.44C852.613 306.823 909.054 316.558 963.968 324.336C1041.51 335.318 1116.21 342.43 1194.53 341.98C1272.87 341.529 1354.65 333.513 1446.35 314.331C1447.05 314.185 1447.21 313.902 1446.71 313.7C1446.2 313.498 1445.23 313.452 1444.53 313.598C1353.23 332.697 1272.05 340.631 1194.47 341.077C1116.86 341.523 1042.67 334.477 965.336 323.524C910.543 315.764 854.274 306.058 794.129 295.685C769.343 291.409 743.898 287.021 717.627 282.608C627.659 267.495 528.126 252.122 412.545 240.139C296.923 228.152 212.427 226.799 150.928 231.556C89.3746 236.318 51.0399 247.186 27.6976 259.516C4.37839 271.833 -3.97739 285.606 -5.68781 296.218C-6.54331 301.525 -5.73844 306.054 -4.29506 309.23C-3.57478 310.815 -2.68864 312.078 -1.74945 312.937C-1.28531 313.361 -0.776928 313.717 -0.210621 313.966C0.0699296 314.089 0.429776 314.216 0.895622 314.305C1.40021 314.401 2.08412 314.461 2.82966 314.398C3.65491 314.327 4.12714 314.076 3.88442 313.837C3.69571 313.651 3.13036 313.527 2.50026 313.514Z" fill="#FBF2FF"/>
<path fill-rule="evenodd" clip-rule="evenodd" d="M2.50026 331.514C2.46923 331.502 2.43239 331.487 2.39022 331.469C2.06083 331.324 1.65546 331.062 1.2199 330.664C0.359724 329.877 -0.497232 328.673 -1.20672 327.112C-2.62287 323.996 -3.4242 319.521 -2.57615 314.26C-0.87948 303.734 7.41083 290.109 30.4282 277.95C53.4223 265.804 91.1146 255.118 151.73 250.429C212.4 245.736 296.214 247.037 411.496 258.99C526.818 270.946 626.163 286.288 716.066 301.39C742.255 305.789 767.653 310.169 792.416 314.44C852.613 324.823 909.054 334.558 963.968 342.336C1041.51 353.318 1116.21 360.43 1194.53 359.98C1272.87 359.529 1354.65 351.513 1446.35 332.331C1447.05 332.185 1447.21 331.902 1446.71 331.7C1446.2 331.498 1445.23 331.452 1444.53 331.598C1353.23 350.697 1272.05 358.631 1194.47 359.077C1116.86 359.523 1042.67 352.477 965.336 341.524C910.543 333.764 854.274 324.058 794.129 313.685C769.343 309.409 743.898 305.021 717.627 300.608C627.659 285.495 528.126 270.122 412.545 258.139C296.923 246.152 212.427 244.799 150.928 249.556C89.3746 254.318 51.0399 265.186 27.6976 277.516C4.37839 289.833 -3.97739 303.606 -5.68781 314.218C-6.54331 319.525 -5.73844 324.054 -4.29506 327.23C-3.57478 328.815 -2.68864 330.078 -1.74945 330.937C-1.28531 331.361 -0.776928 331.717 -0.210621 331.966C0.0699296 332.089 0.429776 332.216 0.895622 332.305C1.40021 332.401 2.08412 332.461 2.82966 332.398C3.65491 332.327 4.12714 332.076 3.88442 331.837C3.69571 331.651 3.13036 331.527 2.50026 331.514Z" fill="#FCF6FF"/>
<path fill-rule="evenodd" clip-rule="evenodd" d="M2.50026 350.514C2.46923 350.502 2.43239 350.487 2.39022 350.469C2.06083 350.324 1.65546 350.062 1.2199 349.664C0.359724 348.877 -0.497232 347.673 -1.20672 346.112C-2.62287 342.996 -3.4242 338.521 -2.57615 333.26C-0.87948 322.734 7.41083 309.109 30.4282 296.95C53.4223 284.804 91.1146 274.118 151.73 269.429C212.4 264.736 296.214 266.037 411.496 277.99C526.818 289.946 626.163 305.288 716.066 320.39C742.255 324.789 767.653 329.169 792.416 333.44C852.613 343.823 909.054 353.558 963.968 361.336C1041.51 372.318 1116.21 379.43 1194.53 378.98C1272.87 378.529 1354.65 370.513 1446.35 351.331C1447.05 351.185 1447.21 350.902 1446.71 350.7C1446.2 350.498 1445.23 350.452 1444.53 350.598C1353.23 369.697 1272.05 377.631 1194.47 378.077C1116.86 378.523 1042.67 371.477 965.336 360.524C910.543 352.764 854.274 343.058 794.129 332.685C769.343 328.409 743.898 324.021 717.627 319.608C627.659 304.495 528.126 289.122 412.545 277.139C296.923 265.152 212.427 263.799 150.928 268.556C89.3746 273.318 51.0399 284.186 27.6976 296.516C4.37839 308.833 -3.97739 322.606 -5.68781 333.218C-6.54331 338.525 -5.73844 343.054 -4.29506 346.23C-3.57478 347.815 -2.68864 349.078 -1.74945 349.937C-1.28531 350.361 -0.776928 350.717 -0.210621 350.966C0.0699296 351.089 0.429776 351.216 0.895622 351.305C1.40021 351.401 2.08412 351.461 2.82966 351.398C3.65491 351.327 4.12714 351.076 3.88442 350.837C3.69571 350.651 3.13036 350.527 2.50026 350.514Z" fill="#FEFAFF"/>
</g>
</svg>
