<svg width="18" height="25" viewBox="0 0 18 25" fill="none" xmlns="http://www.w3.org/2000/svg">
<g style="mix-blend-mode:plus-lighter">
<path fill-rule="evenodd" clip-rule="evenodd" d="M14.9977 19.5726C13.4132 21.0048 11.3071 21.8779 8.99557 21.8779C6.57584 21.8779 4.38117 20.9211 2.7743 19.3678C1.50774 21.5388 1.13382 24.1052 1.13382 24.1052C1.13382 24.1052 -0.227684 16.9843 0.0332222 12.4005C0.303483 7.65225 2.60636 0.5 2.60636 0.5C2.60636 0.5 2.60636 3.43592 3.73935 5.86524C5.21339 4.79593 7.03025 4.16478 8.99557 4.16478C10.9672 4.16478 12.7895 4.80002 14.2661 5.87562C15.4039 3.44429 15.4039 0.5 15.4039 0.5C15.4039 0.5 17.7187 7.01424 17.9724 11.3699C18.274 16.5466 16.0037 24.5 16.0037 24.5C16.0037 24.5 15.9727 21.8944 14.9977 19.5726ZM3.03302 14.3523C3.99739 12.2363 8.6461 16.7192 8.6461 16.7192C8.6461 16.7192 5.9549 18.0935 4.41709 17.4062C3.21602 16.8695 2.41737 15.7032 3.03302 14.3523ZM9.27903 16.7192C9.27903 16.7192 13.9277 12.2363 14.8921 14.3523C15.5078 15.7032 14.7091 16.8695 13.508 17.4062C11.9702 18.0935 9.27903 16.7192 9.27903 16.7192Z" fill="white"/>
<path d="M9.66349 6.45526L7.89498 7.14241L7.7412 10.8835L8.6639 10.5018V14.1666L10.1248 8.89845L9.12525 9.20385L9.66349 6.45526Z" fill="white"/>
</g>
</svg>
