<svg width="483" height="60" viewBox="0 0 483 60" fill="none" xmlns="http://www.w3.org/2000/svg">
<rect x="1.61914" y="0.75" width="479.763" height="58.5" rx="7.25" fill="white"/>
<rect x="1.61914" y="0.75" width="479.763" height="58.5" rx="7.25" stroke="#0030AD" stroke-width="1.5"/>
<path fill-rule="evenodd" clip-rule="evenodd" d="M26.9209 31.5577H23.388C23.2682 31.5577 23.1521 31.5162 23.0594 31.4404C22.8377 31.259 22.805 30.9321 22.9864 30.7104L29.9567 22.1903C30.0902 22.0271 30.3092 21.961 30.5107 22.0229C30.7846 22.1072 30.9384 22.3974 30.8541 22.6713L29.0791 28.4438H32.6129C32.7326 28.4438 32.8487 28.4853 32.9414 28.5611C33.1632 28.7426 33.1958 29.0694 33.0144 29.2912L26.0432 37.8097C25.9097 37.9729 25.6907 38.039 25.4892 37.977C25.2154 37.8928 25.0616 37.6025 25.1459 37.3286L26.9209 31.5577Z" fill="#72747D"/>
<path d="M56.5869 24.46L53.5789 35.5H51.2589L49.0509 26.092L46.7309 35.5H44.3949L41.5469 24.46H43.4829L45.5949 34.044L47.8829 24.62H50.2989L52.5229 34.092L54.7629 24.46H56.5869ZM61.3512 26.796C61.5912 26.796 61.7672 26.828 61.9432 26.892V28.268C60.3272 28.156 59.3192 28.988 59.3192 31.084V35.5H57.5592V27.004H59.3192V28.444L60.0392 27.276C60.4232 26.972 60.9192 26.796 61.3512 26.796ZM63.9199 24.044C64.5119 24.044 64.9599 24.476 64.9599 25.052C64.9599 25.644 64.5119 26.076 63.9199 26.076C63.3279 26.076 62.8959 25.644 62.8959 25.052C62.8959 24.476 63.3279 24.044 63.9199 24.044ZM64.7999 35.5H63.0399V27.004H64.7999V35.5ZM68.9915 28.3V32.748C68.9915 33.036 68.9915 33.228 69.0075 33.452C69.0715 34.284 69.3915 34.46 70.5435 34.348V35.564C70.0955 35.628 69.6795 35.66 69.2475 35.66C67.9195 35.66 67.3435 35.164 67.2635 34.044C67.2475 33.756 67.2475 33.388 67.2475 32.908V28.3H66.0475V27.068H67.2475V25.036H68.9915V27.068H70.6555V28.3H68.9915ZM79.2194 31.036C79.2194 31.196 79.2194 31.436 79.1874 31.74H73.0914C73.2354 33.772 74.1634 34.444 75.3154 34.444C76.3394 34.444 77.1394 33.82 77.3154 32.748H79.0914C78.7234 34.764 77.1074 35.724 75.2514 35.724C72.9794 35.724 71.2674 34.284 71.2674 31.276C71.2674 28.588 72.9794 26.78 75.4274 26.78C77.8914 26.78 79.2194 28.636 79.2194 31.036ZM75.3634 28.06C74.1634 28.06 73.2994 28.876 73.1074 30.508H77.4114C77.2834 28.94 76.5954 28.06 75.3634 28.06ZM88.7646 35.5L88.6046 34.268L88.1726 35.18C87.5966 35.58 86.8606 35.724 86.0606 35.724C84.5566 35.724 83.3246 34.86 83.3246 33.276C83.3246 31.388 84.8286 30.364 88.0446 30.364H88.5886V30.156C88.5886 29.836 88.5886 29.548 88.5566 29.228C88.5086 28.54 88.0766 28.06 87.0686 28.06C86.0446 28.06 85.5166 28.636 85.4206 29.692H83.6606C83.7726 27.836 85.1646 26.78 87.1006 26.78C89.2926 26.78 90.1566 27.708 90.3006 29.148C90.3326 29.5 90.3486 29.948 90.3486 30.348V33.34C90.3486 33.98 90.3806 34.556 90.5086 35.5H88.7646ZM86.7006 34.444C87.8046 34.444 88.5886 33.692 88.5886 32.316V31.532C86.5246 31.372 85.1806 31.836 85.1806 33.132C85.1806 34.028 85.7726 34.444 86.7006 34.444ZM100.188 26.78C102.62 26.78 104.012 28.62 104.012 31.1C104.012 34.22 102.092 35.724 99.9002 35.724C99.1962 35.724 98.3162 35.532 97.8842 35.196L97.3242 34.348V35.5H95.5642V23.74H97.3242V28.332L97.9642 27.42C98.4442 27.02 99.3242 26.78 100.188 26.78ZM99.6922 34.444C101.1 34.444 102.156 33.372 102.156 31.26C102.156 29.42 101.308 28.06 99.7722 28.06C98.4602 28.06 97.3242 28.892 97.3242 31.164V31.596C97.3242 33.676 98.5722 34.444 99.6922 34.444ZM107.116 23.74V32.908C107.116 33.196 107.116 33.452 107.132 33.708C107.164 34.188 107.388 34.348 108.14 34.284V35.516C107.788 35.564 107.388 35.596 106.988 35.596C106.06 35.596 105.436 35.26 105.372 34.172C105.356 33.852 105.356 33.468 105.356 32.956V23.74H107.116ZM113.111 26.78C115.959 26.78 117.415 28.764 117.415 31.244C117.415 33.724 115.959 35.724 113.111 35.724C110.247 35.724 108.807 33.724 108.807 31.244C108.807 28.764 110.247 26.78 113.111 26.78ZM113.111 34.444C114.647 34.444 115.543 33.164 115.543 31.244C115.543 29.324 114.647 28.06 113.111 28.06C111.559 28.06 110.663 29.324 110.663 31.244C110.663 33.164 111.559 34.444 113.111 34.444ZM126.611 27.004V33.388C126.611 33.916 126.611 34.572 126.595 35.036C126.499 37.612 124.899 38.908 122.339 38.908C119.891 38.908 118.595 37.884 118.419 36.06L118.403 35.9H120.131L120.147 36.044C120.259 36.956 121.043 37.58 122.355 37.58C123.891 37.58 124.771 36.748 124.835 35.228C124.851 34.86 124.851 34.556 124.851 34.252V34.076L124.211 35.004C123.731 35.388 122.899 35.644 122.035 35.644C119.587 35.644 118.163 33.852 118.163 31.356C118.163 28.252 120.083 26.78 122.275 26.78C122.979 26.78 123.859 26.972 124.291 27.308L124.851 28.156V27.004H126.611ZM122.387 34.364C123.715 34.364 124.851 33.532 124.851 31.26V30.892C124.851 28.828 123.603 28.06 122.467 28.06C121.075 28.06 120.019 29.084 120.019 31.196C120.019 33.036 120.867 34.364 122.387 34.364ZM136.466 26.78C138.898 26.78 140.29 28.62 140.29 31.1C140.29 34.22 138.37 35.724 136.178 35.724C135.474 35.724 134.594 35.532 134.162 35.196L133.602 34.348V38.636H131.842V27.004H133.602V28.332L134.242 27.42C134.722 27.02 135.602 26.78 136.466 26.78ZM135.97 34.444C137.378 34.444 138.434 33.372 138.434 31.26C138.434 29.42 137.586 28.06 136.05 28.06C134.738 28.06 133.602 28.892 133.602 31.164V31.596C133.602 33.676 134.85 34.444 135.97 34.444ZM145.362 26.78C148.21 26.78 149.666 28.764 149.666 31.244C149.666 33.724 148.21 35.724 145.362 35.724C142.498 35.724 141.058 33.724 141.058 31.244C141.058 28.764 142.498 26.78 145.362 26.78ZM145.362 34.444C146.898 34.444 147.794 33.164 147.794 31.244C147.794 29.324 146.898 28.06 145.362 28.06C143.81 28.06 142.914 29.324 142.914 31.244C142.914 33.164 143.81 34.444 145.362 34.444ZM153.79 26.78C155.742 26.78 156.83 27.884 157.022 29.436H155.23C155.054 28.54 154.526 28.012 153.662 28.012C152.83 28.012 152.43 28.476 152.43 29.116C152.43 29.884 153.054 30.204 154.318 30.54C156.174 31.02 157.15 31.756 157.15 33.26C157.15 34.908 155.694 35.724 153.838 35.724C151.95 35.724 150.558 34.876 150.318 32.956H152.094C152.302 34.044 153.022 34.476 153.902 34.476C154.718 34.476 155.374 34.124 155.374 33.388C155.374 32.652 154.798 32.252 153.358 31.868C151.806 31.468 150.654 30.812 150.654 29.324C150.654 27.74 151.902 26.78 153.79 26.78ZM160.599 28.3V32.748C160.599 33.036 160.599 33.228 160.615 33.452C160.679 34.284 160.999 34.46 162.151 34.348V35.564C161.703 35.628 161.287 35.66 160.855 35.66C159.527 35.66 158.951 35.164 158.871 34.044C158.855 33.756 158.855 33.388 158.855 32.908V28.3H157.655V27.068H158.855V25.036H160.599V27.068H162.263V28.3H160.599ZM174.872 35.5L174.712 34.268L174.28 35.18C173.704 35.58 172.968 35.724 172.168 35.724C170.664 35.724 169.432 34.86 169.432 33.276C169.432 31.388 170.936 30.364 174.152 30.364H174.696V30.156C174.696 29.836 174.696 29.548 174.664 29.228C174.616 28.54 174.184 28.06 173.176 28.06C172.152 28.06 171.624 28.636 171.528 29.692H169.768C169.88 27.836 171.272 26.78 173.208 26.78C175.4 26.78 176.264 27.708 176.408 29.148C176.44 29.5 176.456 29.948 176.456 30.348V33.34C176.456 33.98 176.488 34.556 176.616 35.5H174.872ZM172.808 34.444C173.912 34.444 174.696 33.692 174.696 32.316V31.532C172.632 31.372 171.288 31.836 171.288 33.132C171.288 34.028 171.88 34.444 172.808 34.444ZM183.159 26.78C185.591 26.78 186.983 28.62 186.983 31.1C186.983 34.22 185.063 35.724 182.871 35.724C182.167 35.724 181.287 35.532 180.855 35.196L180.295 34.348V35.5H178.535V23.74H180.295V28.332L180.935 27.42C181.415 27.02 182.295 26.78 183.159 26.78ZM182.663 34.444C184.071 34.444 185.127 33.372 185.127 31.26C185.127 29.42 184.279 28.06 182.743 28.06C181.431 28.06 180.295 28.892 180.295 31.164V31.596C180.295 33.676 181.543 34.444 182.663 34.444ZM192.054 26.78C194.902 26.78 196.358 28.764 196.358 31.244C196.358 33.724 194.902 35.724 192.054 35.724C189.19 35.724 187.75 33.724 187.75 31.244C187.75 28.764 189.19 26.78 192.054 26.78ZM192.054 34.444C193.59 34.444 194.486 33.164 194.486 31.244C194.486 29.324 193.59 28.06 192.054 28.06C190.502 28.06 189.606 29.324 189.606 31.244C189.606 33.164 190.502 34.444 192.054 34.444ZM205.154 27.004V35.5H203.41V34.044L202.818 35.1C202.146 35.58 201.522 35.724 200.674 35.724C198.914 35.724 197.89 34.732 197.698 33.564C197.634 33.132 197.618 32.748 197.618 32.06V27.004H199.362V31.708C199.362 31.98 199.378 32.444 199.426 32.876C199.554 33.804 200.162 34.412 201.25 34.412C202.482 34.412 203.41 33.468 203.41 31.004V27.004H205.154ZM209.338 28.3V32.748C209.338 33.036 209.338 33.228 209.354 33.452C209.418 34.284 209.738 34.46 210.89 34.348V35.564C210.442 35.628 210.026 35.66 209.594 35.66C208.266 35.66 207.69 35.164 207.61 34.044C207.594 33.756 207.594 33.388 207.594 32.908V28.3H206.394V27.068H207.594V25.036H209.338V27.068H211.002V28.3H209.338ZM222.251 27.068V35.5H220.507V28.3H217.467V35.5H215.723V28.3H214.811V27.068H215.723V26.876C215.723 26.572 215.723 26.172 215.755 25.884C215.915 24.316 216.955 23.436 219.403 23.436C219.835 23.436 220.171 23.468 220.507 23.532V24.844C218.363 24.684 217.643 25.036 217.515 25.98C217.483 26.204 217.467 26.556 217.467 26.78V27.068H222.251ZM231.844 29.212C231.876 29.644 231.892 30.028 231.892 30.716V35.5H230.132V30.908C230.132 30.508 230.132 30.14 230.1 29.708C230.02 28.748 229.508 28.076 228.308 28.076C227.092 28.076 226.1 29.036 226.1 31.692V35.5H224.34V27.004H226.1V28.412L226.676 27.436C227.348 26.924 227.972 26.78 228.82 26.78C230.644 26.78 231.684 27.724 231.844 29.212ZM235.98 28.3V32.748C235.98 33.036 235.98 33.228 235.996 33.452C236.06 34.284 236.38 34.46 237.532 34.348V35.564C237.084 35.628 236.668 35.66 236.236 35.66C234.908 35.66 234.332 35.164 234.252 34.044C234.236 33.756 234.236 33.388 234.236 32.908V28.3H233.036V27.068H234.236V25.036H235.98V27.068H237.644V28.3H235.98ZM246.207 31.036C246.207 31.196 246.207 31.436 246.175 31.74H240.079C240.223 33.772 241.151 34.444 242.303 34.444C243.327 34.444 244.127 33.82 244.303 32.748H246.079C245.711 34.764 244.095 35.724 242.239 35.724C239.967 35.724 238.255 34.284 238.255 31.276C238.255 28.588 239.967 26.78 242.415 26.78C244.879 26.78 246.207 28.636 246.207 31.036ZM242.351 28.06C241.151 28.06 240.287 28.876 240.095 30.508H244.399C244.271 28.94 243.583 28.06 242.351 28.06ZM251.192 26.78C253.336 26.78 254.696 28.076 254.904 29.948H253.128C252.872 28.652 252.184 28.06 251.144 28.06C249.912 28.06 248.936 29.036 248.936 31.164C248.936 33.468 249.896 34.444 251.08 34.444C252.088 34.444 252.808 33.836 253.064 32.684H254.856C254.456 34.716 252.984 35.724 250.984 35.724C248.76 35.724 247.08 34.316 247.08 31.292C247.08 28.396 248.968 26.78 251.192 26.78ZM263.767 29.212C263.799 29.644 263.815 30.028 263.815 30.716V35.5H262.055V30.908C262.055 30.508 262.055 30.14 262.023 29.708C261.943 28.748 261.431 28.06 260.231 28.076C259.015 28.108 258.023 29.036 258.023 31.692V35.5H256.263V23.66H258.023V28.412L258.599 27.436C259.271 26.924 259.895 26.78 260.743 26.78C262.567 26.78 263.607 27.724 263.767 29.212ZM276.255 31.036C276.255 31.196 276.255 31.436 276.223 31.74H270.127C270.271 33.772 271.199 34.444 272.351 34.444C273.375 34.444 274.175 33.82 274.351 32.748H276.127C275.759 34.764 274.143 35.724 272.287 35.724C270.015 35.724 268.303 34.284 268.303 31.276C268.303 28.588 270.015 26.78 272.463 26.78C274.927 26.78 276.255 28.636 276.255 31.036ZM272.399 28.06C271.199 28.06 270.335 28.876 270.143 30.508H274.447C274.319 28.94 273.631 28.06 272.399 28.06ZM285.223 27.004L281.975 35.5H279.927L276.679 27.004H278.615L280.999 34.204L283.351 27.004H285.223ZM289.678 26.78C292.526 26.78 293.982 28.764 293.982 31.244C293.982 33.724 292.526 35.724 289.678 35.724C286.814 35.724 285.374 33.724 285.374 31.244C285.374 28.764 286.814 26.78 289.678 26.78ZM289.678 34.444C291.214 34.444 292.11 33.164 292.11 31.244C292.11 29.324 291.214 28.06 289.678 28.06C288.126 28.06 287.23 29.324 287.23 31.244C287.23 33.164 288.126 34.444 289.678 34.444ZM297.065 23.74V32.908C297.065 33.196 297.065 33.452 297.081 33.708C297.113 34.188 297.337 34.348 298.089 34.284V35.516C297.737 35.564 297.337 35.596 296.937 35.596C296.009 35.596 295.385 35.26 295.321 34.172C295.305 33.852 295.305 33.468 295.305 32.956V23.74H297.065ZM306.805 27.004V35.5H305.061V34.044L304.469 35.1C303.797 35.58 303.173 35.724 302.325 35.724C300.565 35.724 299.541 34.732 299.349 33.564C299.285 33.132 299.269 32.748 299.269 32.06V27.004H301.013V31.708C301.013 31.98 301.029 32.444 301.077 32.876C301.205 33.804 301.813 34.412 302.901 34.412C304.133 34.412 305.061 33.468 305.061 31.004V27.004H306.805ZM310.989 28.3V32.748C310.989 33.036 310.989 33.228 311.005 33.452C311.069 34.284 311.389 34.46 312.541 34.348V35.564C312.093 35.628 311.677 35.66 311.245 35.66C309.917 35.66 309.341 35.164 309.261 34.044C309.245 33.756 309.245 33.388 309.245 32.908V28.3H308.045V27.068H309.245V25.036H310.989V27.068H312.653V28.3H310.989ZM314.972 24.044C315.564 24.044 316.012 24.476 316.012 25.052C316.012 25.644 315.564 26.076 314.972 26.076C314.38 26.076 313.948 25.644 313.948 25.052C313.948 24.476 314.38 24.044 314.972 24.044ZM315.852 35.5H314.092V27.004H315.852V35.5ZM321.612 26.78C324.46 26.78 325.916 28.764 325.916 31.244C325.916 33.724 324.46 35.724 321.612 35.724C318.748 35.724 317.308 33.724 317.308 31.244C317.308 28.764 318.748 26.78 321.612 26.78ZM321.612 34.444C323.148 34.444 324.044 33.164 324.044 31.244C324.044 29.324 323.148 28.06 321.612 28.06C320.06 28.06 319.164 29.324 319.164 31.244C319.164 33.164 320.06 34.444 321.612 34.444ZM334.808 29.212C334.84 29.644 334.856 30.028 334.856 30.716V35.5H333.096V30.908C333.096 30.508 333.096 30.14 333.064 29.708C332.984 28.748 332.472 28.076 331.272 28.076C330.056 28.076 329.064 29.036 329.064 31.692V35.5H327.304V27.004H329.064V28.412L329.64 27.436C330.312 26.924 330.936 26.78 331.784 26.78C333.608 26.78 334.648 27.724 334.808 29.212Z" fill="#141826" fill-opacity="0.6"/>
</svg>
