<svg width="467" height="60" viewBox="0 0 467 60" fill="none" xmlns="http://www.w3.org/2000/svg">
<rect x="0.75" y="0.75" width="465.5" height="58.5" rx="7.25" fill="white"/>
<rect x="0.75" y="0.75" width="465.5" height="58.5" rx="7.25" stroke="#F1F1F1" stroke-width="1.5"/>
<path fill-rule="evenodd" clip-rule="evenodd" d="M26.0518 31.5577H22.5188C22.3991 31.5577 22.283 31.5162 22.1903 31.4404C21.9685 31.259 21.9358 30.9321 22.1173 30.7104L29.0876 22.1903C29.2211 22.0271 29.4401 21.961 29.6416 22.0229C29.9155 22.1072 30.0692 22.3974 29.985 22.6713L28.2099 28.4438H31.7437C31.8635 28.4438 31.9796 28.4853 32.0723 28.5611C32.294 28.7426 32.3267 29.0694 32.1452 29.2912L25.1741 37.8097C25.0406 37.9729 24.8216 38.039 24.6201 37.977C24.3462 37.8928 24.1925 37.6025 24.2767 37.3286L26.0518 31.5577Z" fill="#72747D"/>
<path d="M45.3177 24.236C47.7657 24.236 48.9657 25.676 49.1897 27.596H47.3657C47.2377 26.332 46.5017 25.58 45.2217 25.58C44.1817 25.58 43.3657 26.06 43.3657 27.1C43.3657 28.172 44.0217 28.668 45.7337 29.068C48.1657 29.628 49.3177 30.668 49.3177 32.508C49.3177 34.508 47.5417 35.724 45.3977 35.724C42.8697 35.724 41.2537 34.524 41.0297 32.3H42.8537C43.1417 33.66 44.1017 34.38 45.3977 34.38C46.5497 34.38 47.4617 33.756 47.4617 32.748C47.4617 31.596 46.7897 31.004 44.9977 30.588C42.9017 30.092 41.5097 29.308 41.5097 27.388C41.5097 25.436 43.2537 24.236 45.3177 24.236ZM52.8173 28.3V32.748C52.8173 33.036 52.8173 33.228 52.8333 33.452C52.8973 34.284 53.2173 34.46 54.3693 34.348V35.564C53.9213 35.628 53.5053 35.66 53.0733 35.66C51.7453 35.66 51.1693 35.164 51.0893 34.044C51.0733 33.756 51.0733 33.388 51.0733 32.908V28.3H49.8733V27.068H51.0733V25.036H52.8173V27.068H54.4813V28.3H52.8173ZM60.8167 35.5L60.6567 34.268L60.2247 35.18C59.6487 35.58 58.9127 35.724 58.1127 35.724C56.6087 35.724 55.3767 34.86 55.3767 33.276C55.3767 31.388 56.8807 30.364 60.0967 30.364H60.6407V30.156C60.6407 29.836 60.6407 29.548 60.6087 29.228C60.5607 28.54 60.1287 28.06 59.1207 28.06C58.0967 28.06 57.5687 28.636 57.4727 29.692H55.7127C55.8247 27.836 57.2167 26.78 59.1527 26.78C61.3447 26.78 62.2087 27.708 62.3527 29.148C62.3847 29.5 62.4007 29.948 62.4007 30.348V33.34C62.4007 33.98 62.4327 34.556 62.5607 35.5H60.8167ZM58.7527 34.444C59.8567 34.444 60.6407 33.692 60.6407 32.316V31.532C58.5767 31.372 57.2327 31.836 57.2327 33.132C57.2327 34.028 57.8247 34.444 58.7527 34.444ZM68.2715 26.796C68.5115 26.796 68.6875 26.828 68.8635 26.892V28.268C67.2475 28.156 66.2395 28.988 66.2395 31.084V35.5H64.4795V27.004H66.2395V28.444L66.9595 27.276C67.3435 26.972 67.8395 26.796 68.2715 26.796ZM72.0561 28.3V32.748C72.0561 33.036 72.0561 33.228 72.0721 33.452C72.1361 34.284 72.4561 34.46 73.6081 34.348V35.564C73.1601 35.628 72.7441 35.66 72.3121 35.66C70.9841 35.66 70.4081 35.164 70.3281 34.044C70.3121 33.756 70.3121 33.388 70.3121 32.908V28.3H69.1121V27.068H70.3121V25.036H72.0561V27.068H73.7201V28.3H72.0561ZM80.3923 28.3V32.748C80.3923 33.036 80.3923 33.228 80.4083 33.452C80.4723 34.284 80.7923 34.46 81.9443 34.348V35.564C81.4963 35.628 81.0803 35.66 80.6483 35.66C79.3203 35.66 78.7443 35.164 78.6643 34.044C78.6483 33.756 78.6483 33.388 78.6483 32.908V28.3H77.4483V27.068H78.6483V25.036H80.3923V27.068H82.0563V28.3H80.3923ZM90.9357 27.004L87.4797 36.044C86.6957 38.06 85.7837 38.86 84.2477 38.86C83.8957 38.86 83.6717 38.86 83.4157 38.812V37.516C83.6237 37.532 83.7997 37.532 83.9757 37.532C84.7757 37.532 85.3197 37.196 85.7037 36.204L85.8317 35.9L82.4077 27.004H84.3757L86.7117 34.188L89.0317 27.004H90.9357ZM96.5535 26.78C98.9855 26.78 100.377 28.62 100.377 31.1C100.377 34.22 98.4575 35.724 96.2655 35.724C95.5615 35.724 94.6815 35.532 94.2495 35.196L93.6895 34.348V38.636H91.9295V27.004H93.6895V28.332L94.3295 27.42C94.8095 27.02 95.6895 26.78 96.5535 26.78ZM96.0575 34.444C97.4655 34.444 98.5215 33.372 98.5215 31.26C98.5215 29.42 97.6735 28.06 96.1375 28.06C94.8255 28.06 93.6895 28.892 93.6895 31.164V31.596C93.6895 33.676 94.9375 34.444 96.0575 34.444ZM102.665 24.044C103.257 24.044 103.705 24.476 103.705 25.052C103.705 25.644 103.257 26.076 102.665 26.076C102.073 26.076 101.641 25.644 101.641 25.052C101.641 24.476 102.073 24.044 102.665 24.044ZM103.545 35.5H101.785V27.004H103.545V35.5ZM113.145 29.212C113.177 29.644 113.193 30.028 113.193 30.716V35.5H111.433V30.908C111.433 30.508 111.433 30.14 111.401 29.708C111.321 28.748 110.809 28.076 109.609 28.076C108.393 28.076 107.401 29.036 107.401 31.692V35.5H105.641V27.004H107.401V28.412L107.977 27.436C108.649 26.924 109.273 26.78 110.121 26.78C111.945 26.78 112.985 27.724 113.145 29.212ZM122.992 27.004V33.388C122.992 33.916 122.992 34.572 122.976 35.036C122.88 37.612 121.28 38.908 118.72 38.908C116.272 38.908 114.976 37.884 114.8 36.06L114.784 35.9H116.512L116.528 36.044C116.64 36.956 117.424 37.58 118.736 37.58C120.272 37.58 121.152 36.748 121.216 35.228C121.232 34.86 121.232 34.556 121.232 34.252V34.076L120.592 35.004C120.112 35.388 119.28 35.644 118.416 35.644C115.968 35.644 114.544 33.852 114.544 31.356C114.544 28.252 116.464 26.78 118.656 26.78C119.36 26.78 120.24 26.972 120.672 27.308L121.232 28.156V27.004H122.992ZM118.768 34.364C120.096 34.364 121.232 33.532 121.232 31.26V30.892C121.232 28.828 119.984 28.06 118.848 28.06C117.456 28.06 116.4 29.084 116.4 31.196C116.4 33.036 117.248 34.364 118.768 34.364ZM133.119 35.5L132.959 34.268L132.527 35.18C131.951 35.58 131.215 35.724 130.415 35.724C128.911 35.724 127.679 34.86 127.679 33.276C127.679 31.388 129.183 30.364 132.399 30.364H132.943V30.156C132.943 29.836 132.943 29.548 132.911 29.228C132.863 28.54 132.431 28.06 131.423 28.06C130.399 28.06 129.871 28.636 129.775 29.692H128.015C128.127 27.836 129.519 26.78 131.455 26.78C133.647 26.78 134.511 27.708 134.655 29.148C134.687 29.5 134.703 29.948 134.703 30.348V33.34C134.703 33.98 134.735 34.556 134.863 35.5H133.119ZM131.055 34.444C132.159 34.444 132.943 33.692 132.943 32.316V31.532C130.879 31.372 129.535 31.836 129.535 33.132C129.535 34.028 130.127 34.444 131.055 34.444ZM142.431 32.012L141.679 32.844V35.5H139.919V23.74H141.679V31.1L145.391 27.004H147.551L143.679 30.988L147.599 35.5H145.311L142.431 32.012ZM155.649 31.036C155.649 31.196 155.649 31.436 155.617 31.74H149.521C149.665 33.772 150.593 34.444 151.745 34.444C152.769 34.444 153.569 33.82 153.745 32.748H155.521C155.153 34.764 153.537 35.724 151.681 35.724C149.409 35.724 147.697 34.284 147.697 31.276C147.697 28.588 149.409 26.78 151.857 26.78C154.321 26.78 155.649 28.636 155.649 31.036ZM151.793 28.06C150.593 28.06 149.729 28.876 149.537 30.508H153.841C153.713 28.94 153.025 28.06 151.793 28.06ZM164.351 27.004L160.895 36.044C160.111 38.06 159.199 38.86 157.663 38.86C157.311 38.86 157.087 38.86 156.831 38.812V37.516C157.039 37.532 157.215 37.532 157.391 37.532C158.191 37.532 158.735 37.196 159.119 36.204L159.247 35.9L155.823 27.004H157.791L160.127 34.188L162.447 27.004H164.351ZM177.089 27.004L174.385 35.5H172.369L170.689 28.636L168.993 35.5H166.961L164.257 27.004H166.241L167.985 33.932L169.633 27.02H171.777L173.473 33.948L175.217 27.004H177.089ZM181.74 26.78C184.588 26.78 186.044 28.764 186.044 31.244C186.044 33.724 184.588 35.724 181.74 35.724C178.876 35.724 177.436 33.724 177.436 31.244C177.436 28.764 178.876 26.78 181.74 26.78ZM181.74 34.444C183.276 34.444 184.172 33.164 184.172 31.244C184.172 29.324 183.276 28.06 181.74 28.06C180.188 28.06 179.292 29.324 179.292 31.244C179.292 33.164 180.188 34.444 181.74 34.444ZM191.223 26.796C191.463 26.796 191.639 26.828 191.815 26.892V28.268C190.199 28.156 189.191 28.988 189.191 31.084V35.5H187.431V27.004H189.191V28.444L189.911 27.276C190.295 26.972 190.791 26.796 191.223 26.796ZM200.579 23.74V35.5H198.819V34.156L198.179 35.084C197.699 35.468 196.819 35.724 195.955 35.724C193.523 35.724 192.131 33.884 192.131 31.388C192.131 28.284 194.051 26.78 196.243 26.78C196.947 26.78 197.827 26.972 198.259 27.308L198.819 28.156V23.74H200.579ZM196.355 34.444C197.683 34.444 198.819 33.612 198.819 31.34V30.892C198.819 28.828 197.571 28.06 196.435 28.06C195.043 28.06 193.987 29.132 193.987 31.244C193.987 33.084 194.835 34.444 196.355 34.444ZM209.475 26.78C212.323 26.78 213.779 28.764 213.779 31.244C213.779 33.724 212.323 35.724 209.475 35.724C206.611 35.724 205.171 33.724 205.171 31.244C205.171 28.764 206.611 26.78 209.475 26.78ZM209.475 34.444C211.011 34.444 211.907 33.164 211.907 31.244C211.907 29.324 211.011 28.06 209.475 28.06C207.923 28.06 207.027 29.324 207.027 31.244C207.027 33.164 207.923 34.444 209.475 34.444ZM218.958 26.796C219.198 26.796 219.374 26.828 219.55 26.892V28.268C217.934 28.156 216.926 28.988 216.926 31.084V35.5H215.166V27.004H216.926V28.444L217.646 27.276C218.03 26.972 218.526 26.796 218.958 26.796ZM224.664 24.044C225.256 24.044 225.704 24.476 225.704 25.052C225.704 25.644 225.256 26.076 224.664 26.076C224.072 26.076 223.64 25.644 223.64 25.052C223.64 24.476 224.072 24.044 224.664 24.044ZM225.544 35.5H223.784V27.004H225.544V35.5ZM235.143 29.212C235.175 29.644 235.191 30.028 235.191 30.716V35.5H233.431V30.908C233.431 30.508 233.431 30.14 233.399 29.708C233.319 28.748 232.807 28.076 231.607 28.076C230.391 28.076 229.399 29.036 229.399 31.692V35.5H227.639V27.004H229.399V28.412L229.975 27.436C230.647 26.924 231.271 26.78 232.119 26.78C233.943 26.78 234.983 27.724 235.143 29.212ZM244.991 23.74V35.5H243.231V34.156L242.591 35.084C242.111 35.468 241.231 35.724 240.367 35.724C237.935 35.724 236.543 33.884 236.543 31.388C236.543 28.284 238.463 26.78 240.655 26.78C241.359 26.78 242.239 26.972 242.671 27.308L243.231 28.156V23.74H244.991ZM240.767 34.444C242.095 34.444 243.231 33.612 243.231 31.34V30.892C243.231 28.828 241.983 28.06 240.847 28.06C239.455 28.06 238.399 29.132 238.399 31.244C238.399 33.084 239.247 34.444 240.767 34.444ZM254.493 27.004V35.5H252.749V34.044L252.157 35.1C251.485 35.58 250.861 35.724 250.013 35.724C248.253 35.724 247.229 34.732 247.037 33.564C246.973 33.132 246.957 32.748 246.957 32.06V27.004H248.701V31.708C248.701 31.98 248.717 32.444 248.765 32.876C248.893 33.804 249.501 34.412 250.589 34.412C251.821 34.412 252.749 33.468 252.749 31.004V27.004H254.493ZM259.317 26.78C261.269 26.78 262.357 27.884 262.549 29.436H260.757C260.581 28.54 260.053 28.012 259.189 28.012C258.357 28.012 257.957 28.476 257.957 29.116C257.957 29.884 258.581 30.204 259.845 30.54C261.701 31.02 262.677 31.756 262.677 33.26C262.677 34.908 261.221 35.724 259.365 35.724C257.477 35.724 256.085 34.876 255.845 32.956H257.621C257.829 34.044 258.549 34.476 259.429 34.476C260.245 34.476 260.901 34.124 260.901 33.388C260.901 32.652 260.325 32.252 258.885 31.868C257.333 31.468 256.181 30.812 256.181 29.324C256.181 27.74 257.429 26.78 259.317 26.78ZM266.127 28.3V32.748C266.127 33.036 266.127 33.228 266.143 33.452C266.207 34.284 266.527 34.46 267.679 34.348V35.564C267.231 35.628 266.815 35.66 266.383 35.66C265.055 35.66 264.479 35.164 264.399 34.044C264.383 33.756 264.383 33.388 264.383 32.908V28.3H263.183V27.068H264.383V25.036H266.127V27.068H267.791V28.3H266.127ZM273.022 26.796C273.262 26.796 273.438 26.828 273.614 26.892V28.268C271.998 28.156 270.99 28.988 270.99 31.084V35.5H269.23V27.004H270.99V28.444L271.71 27.276C272.094 26.972 272.59 26.796 273.022 26.796ZM282.151 27.004L278.695 36.044C277.911 38.06 276.999 38.86 275.463 38.86C275.111 38.86 274.887 38.86 274.631 38.812V37.516C274.839 37.532 275.015 37.532 275.191 37.532C275.991 37.532 276.535 37.196 276.919 36.204L277.047 35.9L273.623 27.004H275.591L277.927 34.188L280.247 27.004H282.151Z" fill="#141826" fill-opacity="0.6"/>
<rect x="357" y="6" width="101" height="48" rx="8" fill="#0030AD"/>
<rect x="358" y="7" width="99" height="46" rx="7" stroke="white" stroke-opacity="0.19" stroke-width="2"/>
<path d="M380.432 30.028H384.608V35.5H383.136L383.072 33.628L382.576 34.7C381.952 35.372 381.024 35.724 379.792 35.724C376.64 35.724 374.784 33.388 374.784 30.028C374.784 26.556 376.992 24.236 380.096 24.236C382.992 24.236 384.496 25.836 384.72 28.012L384.736 28.172H382.976L382.944 28.012C382.656 26.524 381.744 25.58 380.064 25.58C378.016 25.58 376.688 27.34 376.688 29.948C376.688 32.684 378.016 34.38 379.984 34.38C381.616 34.38 382.8 33.212 382.896 31.436H380.432V30.028ZM393.803 31.036C393.803 31.196 393.803 31.436 393.771 31.74H387.675C387.819 33.772 388.747 34.444 389.899 34.444C390.923 34.444 391.723 33.82 391.899 32.748H393.675C393.307 34.764 391.691 35.724 389.835 35.724C387.563 35.724 385.851 34.284 385.851 31.276C385.851 28.588 387.563 26.78 390.011 26.78C392.475 26.78 393.803 28.636 393.803 31.036ZM389.947 28.06C388.747 28.06 387.883 28.876 387.691 30.508H391.995C391.867 28.94 391.179 28.06 389.947 28.06ZM402.819 29.212C402.851 29.644 402.867 30.028 402.867 30.716V35.5H401.107V30.908C401.107 30.508 401.107 30.14 401.075 29.708C400.995 28.748 400.483 28.076 399.283 28.076C398.067 28.076 397.075 29.036 397.075 31.692V35.5H395.315V27.004H397.075V28.412L397.651 27.436C398.323 26.924 398.947 26.78 399.795 26.78C401.619 26.78 402.659 27.724 402.819 29.212ZM412.17 31.036C412.17 31.196 412.17 31.436 412.138 31.74H406.042C406.186 33.772 407.114 34.444 408.266 34.444C409.29 34.444 410.09 33.82 410.266 32.748H412.042C411.674 34.764 410.058 35.724 408.202 35.724C405.93 35.724 404.218 34.284 404.218 31.276C404.218 28.588 405.93 26.78 408.378 26.78C410.842 26.78 412.17 28.636 412.17 31.036ZM408.314 28.06C407.114 28.06 406.25 28.876 406.058 30.508H410.362C410.234 28.94 409.546 28.06 408.314 28.06ZM417.475 26.796C417.715 26.796 417.891 26.828 418.067 26.892V28.268C416.451 28.156 415.443 28.988 415.443 31.084V35.5H413.683V27.004H415.443V28.444L416.163 27.276C416.547 26.972 417.043 26.796 417.475 26.796ZM424.059 35.5L423.899 34.268L423.467 35.18C422.891 35.58 422.155 35.724 421.355 35.724C419.851 35.724 418.619 34.86 418.619 33.276C418.619 31.388 420.123 30.364 423.339 30.364H423.883V30.156C423.883 29.836 423.883 29.548 423.851 29.228C423.803 28.54 423.371 28.06 422.363 28.06C421.339 28.06 420.811 28.636 420.715 29.692H418.955C419.067 27.836 420.459 26.78 422.395 26.78C424.587 26.78 425.451 27.708 425.595 29.148C425.627 29.5 425.643 29.948 425.643 30.348V33.34C425.643 33.98 425.675 34.556 425.803 35.5H424.059ZM421.995 34.444C423.099 34.444 423.883 33.692 423.883 32.316V31.532C421.819 31.372 420.475 31.836 420.475 33.132C420.475 34.028 421.067 34.444 421.995 34.444ZM429.818 28.3V32.748C429.818 33.036 429.818 33.228 429.834 33.452C429.898 34.284 430.218 34.46 431.37 34.348V35.564C430.922 35.628 430.506 35.66 430.074 35.66C428.746 35.66 428.17 35.164 428.09 34.044C428.074 33.756 428.074 33.388 428.074 32.908V28.3H426.874V27.068H428.074V25.036H429.818V27.068H431.482V28.3H429.818ZM440.046 31.036C440.046 31.196 440.046 31.436 440.014 31.74H433.918C434.062 33.772 434.99 34.444 436.142 34.444C437.166 34.444 437.966 33.82 438.142 32.748H439.918C439.55 34.764 437.934 35.724 436.078 35.724C433.806 35.724 432.094 34.284 432.094 31.276C432.094 28.588 433.806 26.78 436.254 26.78C438.718 26.78 440.046 28.636 440.046 31.036ZM436.19 28.06C434.99 28.06 434.126 28.876 433.934 30.508H438.238C438.11 28.94 437.422 28.06 436.19 28.06Z" fill="white"/>
</svg>
