<svg width="570" height="728" viewBox="0 0 570 728" fill="none" xmlns="http://www.w3.org/2000/svg">
<g clip-path="url(#clip0_515_290)">
<rect width="570" height="728" rx="18.6885" fill="#F9FAFB"/>
<path d="M47.7345 52.583V54H41.2605V45.03H47.6045V46.434H43.0545V48.8H47.2795V50.217H43.0545V52.583H47.7345ZM50.9353 46.2C50.9093 46.382 50.9093 46.616 50.9093 46.798V47.136H52.3263V48.319H50.9093V54H49.1153V48.319H48.3743V47.136H49.1153V46.85C49.1153 46.616 49.1153 46.291 49.1413 46.057C49.2453 44.887 50.0123 44.198 51.6503 44.198C51.9363 44.198 52.2093 44.237 52.4433 44.289V45.537C51.5983 45.381 51.0003 45.615 50.9353 46.2ZM55.3278 46.2C55.3018 46.382 55.3018 46.616 55.3018 46.798V47.136H56.7188V48.319H55.3018V54H53.5078V48.319H52.7668V47.136H53.5078V46.85C53.5078 46.616 53.5078 46.291 53.5338 46.057C53.6378 44.887 54.4048 44.198 56.0428 44.198C56.3288 44.198 56.6018 44.237 56.8358 44.289V45.537C55.9908 45.381 55.3928 45.615 55.3278 46.2ZM60.8384 46.902C63.1394 46.902 64.4264 48.436 64.4264 50.542C64.4264 52.635 63.1394 54.182 60.8384 54.182C58.5374 54.182 57.2504 52.635 57.2504 50.542C57.2504 48.436 58.5374 46.902 60.8384 46.902ZM60.8384 52.921C61.9174 52.921 62.5674 52.024 62.5674 50.542C62.5674 49.047 61.9174 48.163 60.8384 48.163C59.7594 48.163 59.1094 49.047 59.1094 50.542C59.1094 52.024 59.7594 52.921 60.8384 52.921ZM69.1252 46.915C69.3332 46.915 69.4762 46.928 69.6322 46.967V48.41C68.1372 48.306 67.3962 48.969 67.3962 50.828V54H65.6022V47.084H67.3962V48.345L67.9422 47.383C68.2802 47.071 68.7352 46.915 69.1252 46.915ZM72.6857 48.319V51.517C72.6857 51.751 72.6857 51.946 72.6987 52.128C72.7507 52.804 72.9977 52.96 73.9987 52.882V54.052C73.5957 54.117 73.2187 54.143 72.8157 54.143C71.4767 54.143 70.9957 53.701 70.9177 52.726C70.8917 52.414 70.8917 52.115 70.8917 51.725V48.319H69.8777V47.136H70.8917V45.433H72.6857V47.136H74.1157V48.319H72.6857ZM76.9799 44.445V51.738C76.9799 52.011 76.9799 52.193 76.9929 52.375C77.0319 52.726 77.1879 52.843 77.7989 52.804V54.039C77.4479 54.078 77.0969 54.091 76.6939 54.091C75.8099 54.091 75.2509 53.766 75.2119 52.869C75.1859 52.557 75.1859 52.232 75.1859 51.777V44.445H76.9799ZM85.1478 50.399C85.1478 50.568 85.1478 50.776 85.1218 51.01H80.2078C80.3248 52.466 80.9748 52.921 81.8068 52.921C82.5738 52.921 83.1328 52.492 83.2498 51.751H85.0438C84.6928 53.363 83.3928 54.182 81.7678 54.182C79.8698 54.182 78.4008 52.999 78.4008 50.568C78.4008 48.449 79.7918 46.902 81.9108 46.902C84.0298 46.902 85.1478 48.514 85.1478 50.399ZM81.8328 48.163C81.0008 48.163 80.4158 48.696 80.2598 49.84H83.3018C83.1848 48.748 82.6908 48.163 81.8328 48.163ZM88.8544 46.902C90.5054 46.902 91.4414 47.825 91.5974 49.086H89.8034C89.6864 48.449 89.3354 48.085 88.7374 48.085C88.2044 48.085 87.9184 48.397 87.9184 48.826C87.9184 49.346 88.3474 49.619 89.4914 49.905C90.9084 50.269 91.7404 50.841 91.7404 52.115C91.7404 53.506 90.4794 54.182 88.8934 54.182C87.2164 54.182 86.0334 53.454 85.8384 51.894H87.6324C87.7754 52.648 88.2954 52.999 88.9194 52.999C89.4914 52.999 89.9334 52.752 89.9334 52.245C89.9334 51.712 89.4784 51.413 88.2824 51.114C86.9954 50.789 86.1114 50.23 86.1114 49.034C86.1114 47.708 87.2034 46.902 88.8544 46.902ZM95.3163 46.902C96.9673 46.902 97.9033 47.825 98.0593 49.086H96.2653C96.1483 48.449 95.7973 48.085 95.1993 48.085C94.6663 48.085 94.3803 48.397 94.3803 48.826C94.3803 49.346 94.8093 49.619 95.9533 49.905C97.3703 50.269 98.2023 50.841 98.2023 52.115C98.2023 53.506 96.9413 54.182 95.3553 54.182C93.6783 54.182 92.4953 53.454 92.3003 51.894H94.0943C94.2373 52.648 94.7573 52.999 95.3813 52.999C95.9533 52.999 96.3953 52.752 96.3953 52.245C96.3953 51.712 95.9403 51.413 94.7443 51.114C93.4573 50.789 92.5733 50.23 92.5733 49.034C92.5733 47.708 93.6653 46.902 95.3163 46.902ZM106.021 44.848C108.452 44.848 109.713 46.174 109.895 47.942L109.908 48.072H108.114L108.088 47.942C107.867 46.837 107.191 46.187 105.995 46.187C104.552 46.187 103.577 47.422 103.577 49.463C103.577 51.699 104.604 52.843 105.969 52.843C107.139 52.843 107.815 52.141 108.049 51.023L108.075 50.893H109.856L109.843 51.023C109.648 52.934 108.192 54.182 105.891 54.182C103.395 54.182 101.679 52.427 101.679 49.567C101.679 46.629 103.538 44.848 106.021 44.848ZM117.549 47.084V54H115.755V52.83L115.222 53.714C114.715 54.052 114.221 54.182 113.558 54.182C112.128 54.182 111.27 53.376 111.114 52.427C111.062 52.076 111.049 51.725 111.049 51.166V47.084H112.843V50.789C112.843 51.01 112.856 51.387 112.895 51.738C112.986 52.453 113.402 52.908 114.234 52.908C115.131 52.908 115.755 52.167 115.755 50.607V47.084H117.549ZM121.672 46.902C123.323 46.902 124.259 47.825 124.415 49.086H122.621C122.504 48.449 122.153 48.085 121.555 48.085C121.022 48.085 120.736 48.397 120.736 48.826C120.736 49.346 121.165 49.619 122.309 49.905C123.726 50.269 124.558 50.841 124.558 52.115C124.558 53.506 123.297 54.182 121.711 54.182C120.034 54.182 118.851 53.454 118.656 51.894H120.45C120.593 52.648 121.113 52.999 121.737 52.999C122.309 52.999 122.751 52.752 122.751 52.245C122.751 51.712 122.296 51.413 121.1 51.114C119.813 50.789 118.929 50.23 118.929 49.034C118.929 47.708 120.021 46.902 121.672 46.902ZM127.809 48.319V51.517C127.809 51.751 127.809 51.946 127.822 52.128C127.874 52.804 128.121 52.96 129.122 52.882V54.052C128.719 54.117 128.342 54.143 127.939 54.143C126.6 54.143 126.119 53.701 126.041 52.726C126.015 52.414 126.015 52.115 126.015 51.725V48.319H125.001V47.136H126.015V45.433H127.809V47.136H129.239V48.319H127.809ZM133.367 46.902C135.668 46.902 136.955 48.436 136.955 50.542C136.955 52.635 135.668 54.182 133.367 54.182C131.066 54.182 129.779 52.635 129.779 50.542C129.779 48.436 131.066 46.902 133.367 46.902ZM133.367 52.921C134.446 52.921 135.096 52.024 135.096 50.542C135.096 49.047 134.446 48.163 133.367 48.163C132.288 48.163 131.638 49.047 131.638 50.542C131.638 52.024 132.288 52.921 133.367 52.921ZM148.401 48.618C148.453 48.969 148.466 49.32 148.466 49.879V54H146.672V50.399C146.672 49.996 146.659 49.619 146.62 49.268C146.529 48.553 146.139 48.163 145.45 48.163C144.644 48.163 144.189 48.852 144.189 50.451V54H142.408V50.399C142.408 49.996 142.395 49.619 142.356 49.268C142.265 48.553 141.862 48.163 141.173 48.163C140.367 48.163 139.925 48.852 139.925 50.451V54H138.131V47.084H139.925V48.137L140.432 47.305C140.822 47.032 141.277 46.902 141.901 46.902C143.032 46.902 143.747 47.461 144.02 48.215L144.696 47.305C145.086 47.032 145.554 46.902 146.178 46.902C147.491 46.902 148.245 47.669 148.401 48.618ZM150.936 44.51C151.521 44.51 151.924 44.9 151.924 45.459C151.924 46.031 151.521 46.408 150.936 46.408C150.351 46.408 149.948 46.031 149.948 45.459C149.948 44.9 150.351 44.51 150.936 44.51ZM151.833 54H150.039V47.084H151.833V54ZM158.757 52.804V54H153.037V52.869L156.781 48.332H153.271V47.136H158.705V48.319L154.987 52.804H158.757ZM163.971 54L163.841 52.986L163.503 53.727C163.022 54.052 162.437 54.182 161.787 54.182C160.591 54.182 159.564 53.48 159.564 52.167C159.564 50.646 160.864 49.788 163.373 49.788H163.815V49.645C163.815 49.437 163.815 49.229 163.789 48.995C163.737 48.514 163.425 48.163 162.723 48.163C162.008 48.163 161.618 48.579 161.566 49.333L159.824 49.346C159.876 47.786 161.137 46.902 162.788 46.902C164.725 46.902 165.453 47.747 165.557 48.943C165.583 49.268 165.596 49.632 165.596 50.009V52.245C165.596 52.765 165.622 53.233 165.726 54H163.971ZM162.476 52.921C163.204 52.921 163.815 52.414 163.815 51.452V50.893C162.385 50.789 161.423 51.114 161.423 52.024C161.423 52.635 161.839 52.921 162.476 52.921ZM169.399 48.319V51.517C169.399 51.751 169.399 51.946 169.412 52.128C169.464 52.804 169.711 52.96 170.712 52.882V54.052C170.309 54.117 169.932 54.143 169.529 54.143C168.19 54.143 167.709 53.701 167.631 52.726C167.605 52.414 167.605 52.115 167.605 51.725V48.319H166.591V47.136H167.605V45.433H169.399V47.136H170.829V48.319H169.399ZM172.848 44.51C173.433 44.51 173.836 44.9 173.836 45.459C173.836 46.031 173.433 46.408 172.848 46.408C172.263 46.408 171.86 46.031 171.86 45.459C171.86 44.9 172.263 44.51 172.848 44.51ZM173.745 54H171.951V47.084H173.745V54ZM178.524 46.902C180.825 46.902 182.112 48.436 182.112 50.542C182.112 52.635 180.825 54.182 178.524 54.182C176.223 54.182 174.936 52.635 174.936 50.542C174.936 48.436 176.223 46.902 178.524 46.902ZM178.524 52.921C179.603 52.921 180.253 52.024 180.253 50.542C180.253 49.047 179.603 48.163 178.524 48.163C177.445 48.163 176.795 49.047 176.795 50.542C176.795 52.024 177.445 52.921 178.524 52.921ZM189.736 48.839C189.775 49.19 189.788 49.541 189.788 50.1V54H187.994V50.347C187.994 50.061 187.994 49.736 187.968 49.385C187.916 48.657 187.513 48.163 186.642 48.163C185.771 48.163 185.082 48.917 185.082 50.841V54H183.288V47.084H185.082V48.202L185.615 47.383C186.109 47.032 186.616 46.902 187.279 46.902C188.748 46.902 189.593 47.63 189.736 48.839Z" fill="#000103" fill-opacity="0.5"/>
<path d="M55.1185 81.0413C62.4115 81.0413 66.1945 85.0193 66.7405 90.3233L66.7795 90.7133H61.3975L61.3195 90.3233C60.6565 87.0083 58.6285 85.0583 55.0405 85.0583C50.7115 85.0583 47.7865 88.7633 47.7865 94.8863C47.7865 101.594 50.8675 105.026 54.9625 105.026C58.4725 105.026 60.5005 102.92 61.2025 99.5663L61.2805 99.1763H66.6235L66.5845 99.5663C65.9995 105.299 61.6315 109.043 54.7285 109.043C47.2405 109.043 42.0925 103.778 42.0925 95.1983C42.0925 86.3843 47.6695 81.0413 55.1185 81.0413ZM79.9137 87.2033C86.8167 87.2033 90.6777 91.8053 90.6777 98.1233C90.6777 104.402 86.8167 109.043 79.9137 109.043C73.0107 109.043 69.1497 104.402 69.1497 98.1233C69.1497 91.8053 73.0107 87.2033 79.9137 87.2033ZM79.9137 105.26C83.1507 105.26 85.1007 102.569 85.1007 98.1233C85.1007 93.6383 83.1507 90.9863 79.9137 90.9863C76.6767 90.9863 74.7267 93.6383 74.7267 98.1233C74.7267 102.569 76.6767 105.26 79.9137 105.26ZM125.015 92.3513C125.171 93.4043 125.21 94.4573 125.21 96.1343V108.497H119.828V97.6943C119.828 96.4853 119.789 95.3543 119.672 94.3013C119.399 92.1563 118.229 90.9863 116.162 90.9863C113.744 90.9863 112.379 93.0533 112.379 97.8503V108.497H107.036V97.6943C107.036 96.4853 106.997 95.3543 106.88 94.3013C106.607 92.1563 105.398 90.9863 103.331 90.9863C100.913 90.9863 99.587 93.0533 99.587 97.8503V108.497H94.205V87.7493H99.587V90.9083L101.108 88.4123C102.278 87.5933 103.643 87.2033 105.515 87.2033C108.908 87.2033 111.053 88.8803 111.872 91.1423L113.9 88.4123C115.07 87.5933 116.474 87.2033 118.346 87.2033C122.285 87.2033 124.547 89.5043 125.015 92.3513ZM142.254 87.2033C148.065 87.2033 151.497 91.6103 151.497 97.7333C151.497 105.221 146.895 109.043 141.552 109.043C139.836 109.043 137.73 108.614 136.677 107.873L135.312 105.728V116.141H129.93V87.7493H135.312V90.9083L136.872 88.6463C138.042 87.7103 140.148 87.2033 142.254 87.2033ZM140.499 105.26C143.619 105.26 145.92 102.881 145.92 98.0843C145.92 93.8333 143.892 90.9863 140.694 90.9863C137.73 90.9863 135.312 92.8193 135.312 97.8893V98.8643C135.312 103.583 138.003 105.26 140.499 105.26ZM160.216 79.8323V101.711C160.216 102.53 160.216 103.076 160.255 103.622C160.372 104.675 160.84 105.026 162.673 104.909V108.614C161.62 108.731 160.567 108.77 159.358 108.77C156.706 108.77 155.029 107.795 154.912 105.104C154.834 104.168 154.834 103.193 154.834 101.828V79.8323H160.216ZM184.72 97.6943C184.72 98.2013 184.72 98.8253 184.642 99.5273H169.9C170.251 103.895 172.201 105.26 174.697 105.26C176.998 105.26 178.675 103.973 179.026 101.75H184.408C183.355 106.586 179.455 109.043 174.58 109.043C168.886 109.043 164.479 105.494 164.479 98.2013C164.479 91.8443 168.652 87.2033 175.009 87.2033C181.366 87.2033 184.72 92.0393 184.72 97.6943ZM174.775 90.9863C172.279 90.9863 170.524 92.5853 170.056 96.0173H179.182C178.831 92.7413 177.349 90.9863 174.775 90.9863ZM194.865 91.4543V101.048C194.865 101.75 194.865 102.335 194.904 102.881C195.06 104.909 195.801 105.377 198.804 105.143V108.653C197.595 108.848 196.464 108.926 195.255 108.926C191.238 108.926 189.795 107.6 189.561 104.675C189.483 103.739 189.483 102.842 189.483 101.672V91.4543H186.441V87.9053H189.483V82.7963H194.865V87.9053H199.155V91.4543H194.865ZM221.016 97.6943C221.016 98.2013 221.016 98.8253 220.938 99.5273H206.196C206.547 103.895 208.497 105.26 210.993 105.26C213.294 105.26 214.971 103.973 215.322 101.75H220.704C219.651 106.586 215.751 109.043 210.876 109.043C205.182 109.043 200.775 105.494 200.775 98.2013C200.775 91.8443 204.948 87.2033 211.305 87.2033C217.662 87.2033 221.016 92.0393 221.016 97.6943ZM211.071 90.9863C208.575 90.9863 206.82 92.5853 206.352 96.0173H215.478C215.127 92.7413 213.645 90.9863 211.071 90.9863ZM241.275 87.2033C246.891 87.2033 250.362 90.6353 250.752 95.2373H245.448C244.941 92.2343 243.381 90.9863 241.158 90.9863C238.428 90.9863 236.478 93.2093 236.478 97.9283C236.478 103.076 238.428 105.26 241.119 105.26C243.225 105.26 244.785 103.934 245.331 101.321H250.713C249.816 106.43 245.994 109.043 240.807 109.043C235.152 109.043 230.901 105.455 230.901 98.2793C230.901 91.1813 235.581 87.2033 241.275 87.2033ZM263.526 87.2033C270.429 87.2033 274.29 91.8053 274.29 98.1233C274.29 104.402 270.429 109.043 263.526 109.043C256.623 109.043 252.762 104.402 252.762 98.1233C252.762 91.8053 256.623 87.2033 263.526 87.2033ZM263.526 105.26C266.763 105.26 268.713 102.569 268.713 98.1233C268.713 93.6383 266.763 90.9863 263.526 90.9863C260.289 90.9863 258.339 93.6383 258.339 98.1233C258.339 102.569 260.289 105.26 263.526 105.26ZM297.161 93.0143C297.278 94.0673 297.317 95.1203 297.317 96.7973V108.497H291.935V97.5383C291.935 96.6803 291.935 95.7053 291.857 94.6523C291.701 92.4683 290.492 90.9863 287.879 90.9863C285.266 90.9863 283.199 93.2483 283.199 99.0203V108.497H277.817V87.7493H283.199V91.1033L284.798 88.6463C286.28 87.5933 287.801 87.2033 289.79 87.2033C294.197 87.2033 296.732 89.3873 297.161 93.0143ZM308.475 91.4543V101.048C308.475 101.75 308.475 102.335 308.514 102.881C308.67 104.909 309.411 105.377 312.414 105.143V108.653C311.205 108.848 310.074 108.926 308.865 108.926C304.848 108.926 303.405 107.6 303.171 104.675C303.093 103.739 303.093 102.842 303.093 101.672V91.4543H300.051V87.9053H303.093V82.7963H308.475V87.9053H312.765V91.4543H308.475ZM326.701 87.2423C327.325 87.2423 327.754 87.2813 328.222 87.3983V91.7273C323.737 91.4153 321.514 93.4043 321.514 98.9813V108.497H316.132V87.7493H321.514V91.5323L323.152 88.6463C324.166 87.7103 325.531 87.2423 326.701 87.2423ZM340.117 87.2033C347.02 87.2033 350.881 91.8053 350.881 98.1233C350.881 104.402 347.02 109.043 340.117 109.043C333.214 109.043 329.353 104.402 329.353 98.1233C329.353 91.8053 333.214 87.2033 340.117 87.2033ZM340.117 105.26C343.354 105.26 345.304 102.569 345.304 98.1233C345.304 93.6383 343.354 90.9863 340.117 90.9863C336.88 90.9863 334.93 93.6383 334.93 98.1233C334.93 102.569 336.88 105.26 340.117 105.26ZM359.634 79.8323V101.711C359.634 102.53 359.634 103.076 359.673 103.622C359.79 104.675 360.258 105.026 362.091 104.909V108.614C361.038 108.731 359.985 108.77 358.776 108.77C356.124 108.77 354.447 107.795 354.33 105.104C354.252 104.168 354.252 103.193 354.252 101.828V79.8323H359.634ZM384.931 108.497L384.541 105.455L383.527 107.678C382.084 108.653 380.329 109.043 378.379 109.043C374.791 109.043 371.71 106.937 371.71 102.998C371.71 98.4353 375.61 95.8613 383.137 95.8613H384.463V95.4323C384.463 94.8083 384.463 94.1843 384.385 93.4823C384.229 92.0393 383.293 90.9863 381.187 90.9863C379.042 90.9863 377.872 92.2343 377.716 94.4963L372.49 94.5353C372.646 89.8553 376.429 87.2033 381.382 87.2033C387.193 87.2033 389.377 89.7383 389.689 93.3263C389.767 94.3013 389.806 95.3933 389.806 96.5243V103.232C389.806 104.792 389.884 106.196 390.196 108.497H384.931ZM380.446 105.26C382.63 105.26 384.463 103.739 384.463 100.853V99.1763C380.173 98.8643 377.287 99.8393 377.287 102.569C377.287 104.402 378.535 105.26 380.446 105.26ZM401.214 91.4543V101.048C401.214 101.75 401.214 102.335 401.253 102.881C401.409 104.909 402.15 105.377 405.153 105.143V108.653C403.944 108.848 402.813 108.926 401.604 108.926C397.587 108.926 396.144 107.6 395.91 104.675C395.832 103.739 395.832 102.842 395.832 101.672V91.4543H392.79V87.9053H395.832V82.7963H401.214V87.9053H405.504V91.4543H401.214ZM436.106 87.7493L427.76 109.277C425.576 114.893 423.314 116.687 419.102 116.687C418.127 116.687 417.464 116.648 416.684 116.531V112.826C417.23 112.904 417.737 112.904 418.283 112.904C420.116 112.904 421.325 112.202 422.183 110.135L422.456 109.472L413.993 87.7493H419.999L425.147 104.402L430.217 87.7493H436.106ZM447.176 87.2033C454.079 87.2033 457.94 91.8053 457.94 98.1233C457.94 104.402 454.079 109.043 447.176 109.043C440.273 109.043 436.412 104.402 436.412 98.1233C436.412 91.8053 440.273 87.2033 447.176 87.2033ZM447.176 105.26C450.413 105.26 452.363 102.569 452.363 98.1233C452.363 93.6383 450.413 90.9863 447.176 90.9863C443.939 90.9863 441.989 93.6383 441.989 98.1233C441.989 102.569 443.939 105.26 447.176 105.26ZM480.617 87.7493V108.497H475.235V104.987L473.636 107.639C472.115 108.653 470.633 109.043 468.644 109.043C464.354 109.043 461.78 106.625 461.312 103.778C461.156 102.725 461.117 101.672 461.117 99.9953V87.7493H466.499V98.8643C466.499 99.5273 466.538 100.658 466.655 101.711C466.928 103.856 468.176 105.221 470.672 105.221C473.363 105.221 475.235 102.998 475.235 98.3183V87.7493H480.617ZM496.145 87.2423C496.769 87.2423 497.198 87.2813 497.666 87.3983V91.7273C493.181 91.4153 490.958 93.4043 490.958 98.9813V108.497H485.576V87.7493H490.958V91.5323L492.596 88.6463C493.61 87.7103 494.975 87.2423 496.145 87.2423ZM61.0075 134.905V155.497H55.6645V138.454H48.4885V155.497H43.1065V138.454H40.8835V134.905H43.1065V134.554C43.1065 133.852 43.1065 132.916 43.1845 132.214C43.5355 128.353 46.0315 126.091 52.6615 126.091C53.9095 126.091 54.7285 126.208 55.6645 126.364V130.108C50.4385 129.757 48.8005 130.498 48.5665 132.604C48.4885 133.15 48.4885 133.891 48.4885 134.437V134.905H61.0075ZM85.3274 140.014C85.4444 141.067 85.4834 142.12 85.4834 143.797V155.497H80.1014V144.538C80.1014 143.68 80.1014 142.705 80.0234 141.652C79.8674 139.468 78.6584 137.986 76.0454 137.986C73.4324 137.986 71.3654 140.248 71.3654 146.02V155.497H65.9834V134.749H71.3654V138.103L72.9644 135.646C74.4464 134.593 75.9674 134.203 77.9564 134.203C82.3634 134.203 84.8984 136.387 85.3274 140.014ZM110.369 134.749V150.31C110.369 151.597 110.369 153.196 110.33 154.327C110.096 160.801 105.884 163.921 99.332 163.921C93.248 163.921 89.855 161.386 89.387 156.823L89.348 156.433H94.574L94.613 156.784C94.847 158.695 96.641 159.904 99.41 159.904C102.725 159.904 104.753 158.227 104.948 154.912C104.987 154.132 104.987 153.274 104.987 152.377V151.87L103.427 154.171C102.257 155.068 100.385 155.614 98.279 155.614C92.429 155.614 88.802 151.441 88.802 145.357C88.802 137.83 93.404 134.203 98.747 134.203C100.463 134.203 102.569 134.632 103.622 135.373L104.987 137.518V134.749H110.369ZM99.605 151.831C102.569 151.831 104.987 149.998 104.987 144.928V144.343C104.987 139.663 102.296 137.986 99.8 137.986C96.68 137.986 94.379 140.131 94.379 144.889C94.379 149.14 96.407 151.831 99.605 151.831ZM134.18 144.694C134.18 145.201 134.18 145.825 134.102 146.527H119.36C119.711 150.895 121.661 152.26 124.157 152.26C126.458 152.26 128.135 150.973 128.486 148.75H133.868C132.815 153.586 128.915 156.043 124.04 156.043C118.346 156.043 113.939 152.494 113.939 145.201C113.939 138.844 118.112 134.203 124.469 134.203C130.826 134.203 134.18 139.039 134.18 144.694ZM124.235 137.986C121.739 137.986 119.984 139.585 119.516 143.017H128.642C128.291 139.741 126.809 137.986 124.235 137.986ZM148.459 134.242C149.083 134.242 149.512 134.281 149.98 134.398V138.727C145.495 138.415 143.272 140.404 143.272 145.981V155.497H137.89V134.749H143.272V138.532L144.91 135.646C145.924 134.71 147.289 134.242 148.459 134.242ZM159.14 138.454V148.048C159.14 148.75 159.14 149.335 159.179 149.881C159.335 151.909 160.076 152.377 163.079 152.143V155.653C161.87 155.848 160.739 155.926 159.53 155.926C155.513 155.926 154.07 154.6 153.836 151.675C153.758 150.739 153.758 149.842 153.758 148.672V138.454H150.716V134.905H153.758V129.796H159.14V134.905H163.43V138.454H159.14ZM169.488 127.027C171.243 127.027 172.452 128.197 172.452 129.874C172.452 131.59 171.243 132.721 169.488 132.721C167.733 132.721 166.524 131.59 166.524 129.874C166.524 128.197 167.733 127.027 169.488 127.027ZM172.179 155.497H166.797V134.749H172.179V155.497ZM189.48 134.203C195.291 134.203 198.723 138.61 198.723 144.733C198.723 152.221 194.121 156.043 188.778 156.043C187.062 156.043 184.956 155.614 183.903 154.873L182.538 152.728V163.141H177.156V134.749H182.538V137.908L184.098 135.646C185.268 134.71 187.374 134.203 189.48 134.203ZM187.725 152.26C190.845 152.26 193.146 149.881 193.146 145.084C193.146 140.833 191.118 137.986 187.92 137.986C184.956 137.986 182.538 139.819 182.538 144.889V145.864C182.538 150.583 185.229 152.26 187.725 152.26ZM209.627 134.203C214.58 134.203 217.388 136.972 217.856 140.755H212.474C212.123 138.844 211.07 137.752 209.276 137.752C207.677 137.752 206.819 138.688 206.819 139.975C206.819 141.535 208.106 142.354 211.538 143.212C215.789 144.304 218.285 146.02 218.285 149.842C218.285 154.015 214.502 156.043 209.744 156.043C204.713 156.043 201.164 153.859 200.579 149.179H205.961C206.39 151.441 207.95 152.494 209.822 152.494C211.538 152.494 212.864 151.753 212.864 150.232C212.864 148.633 211.499 147.736 207.911 146.839C204.05 145.864 201.398 144.187 201.398 140.599C201.398 136.621 204.674 134.203 209.627 134.203Z" fill="#000103"/>
<path d="M48.2155 186.515L44.7275 195.715C44.0395 197.507 43.1275 198.355 41.7515 198.355C41.4475 198.355 41.2555 198.355 41.0475 198.323V197.203C41.2555 197.219 41.3995 197.219 41.5435 197.219C42.3915 197.219 42.9515 196.851 43.3835 195.731L43.4955 195.427L40.1195 186.515H41.6715L44.1995 193.971L46.7115 186.515H48.2155ZM52.8696 186.291C55.7496 186.291 57.0776 188.355 57.0776 190.755C57.0776 193.139 55.7496 195.219 52.8696 195.219C49.9896 195.219 48.6616 193.139 48.6616 190.755C48.6616 188.355 49.9896 186.291 52.8696 186.291ZM52.8696 194.163C54.5816 194.163 55.5736 192.739 55.5736 190.755C55.5736 188.755 54.5816 187.347 52.8696 187.347C51.1576 187.347 50.1656 188.755 50.1656 190.755C50.1656 192.739 51.1576 194.163 52.8696 194.163ZM65.7806 186.515V194.995H64.4046V193.555L63.8766 194.547C63.1566 195.075 62.5326 195.219 61.6686 195.219C59.9086 195.219 58.8846 194.227 58.6926 193.059C58.6286 192.627 58.6126 192.291 58.6126 191.603V186.515H59.9886V191.347C59.9886 191.619 60.0046 192.083 60.0526 192.515C60.1806 193.475 60.8686 194.131 62.0206 194.131C63.3486 194.131 64.4046 193.139 64.4046 190.243V186.515H65.7806ZM74.9425 186.291C76.9745 186.291 78.2705 187.507 78.5265 189.363H77.0865C76.7825 188.003 76.0465 187.347 74.9105 187.347C73.5825 187.347 72.4625 188.387 72.4625 190.675C72.4625 193.139 73.5505 194.163 74.8145 194.163C75.9345 194.163 76.7185 193.523 77.0065 192.291H78.4465C78.0305 194.259 76.6225 195.219 74.7345 195.219C72.5905 195.219 70.9585 193.875 70.9585 190.771C70.9585 187.907 72.8145 186.291 74.9425 186.291ZM84.9953 194.995L84.8513 193.779L84.3873 194.691C83.8113 195.091 83.0753 195.219 82.2593 195.219C80.7233 195.219 79.5233 194.371 79.5233 192.803C79.5233 190.883 80.9633 189.891 84.2913 189.891H84.8353V189.667C84.8353 189.299 84.8353 188.963 84.8033 188.643C84.7393 187.859 84.2913 187.347 83.1553 187.347C82.0033 187.347 81.4273 187.971 81.3313 189.139H79.8913C80.0193 187.331 81.2833 186.291 83.1553 186.291C85.1713 186.291 86.0193 187.139 86.1633 188.531C86.1953 188.867 86.2113 189.283 86.2113 189.651V192.835C86.2113 193.475 86.2433 194.051 86.3713 194.995H84.9953ZM82.7233 194.163C84.0033 194.163 84.8353 193.315 84.8353 191.779V190.915C82.4993 190.739 81.0273 191.235 81.0273 192.691C81.0273 193.715 81.6833 194.163 82.7233 194.163ZM95.7673 188.771C95.7993 189.203 95.7993 189.539 95.7993 190.227V194.995H94.4233V190.323C94.4233 189.891 94.4233 189.539 94.3913 189.107C94.3113 188.115 93.7673 187.379 92.4553 187.379C91.1273 187.379 90.0073 188.371 90.0073 191.267V194.995H88.6313V186.515H90.0073V187.971L90.5353 186.995C91.2553 186.435 91.8793 186.291 92.7433 186.291C94.5993 186.291 95.6393 187.283 95.7673 188.771ZM102.257 183.731C102.753 183.731 103.137 184.115 103.137 184.611C103.137 185.107 102.753 185.491 102.257 185.491C101.761 185.491 101.377 185.107 101.377 184.611C101.377 184.115 101.761 183.731 102.257 183.731ZM102.945 194.995H101.569V186.515H102.945V194.995ZM112.517 188.771C112.549 189.203 112.549 189.539 112.549 190.227V194.995H111.173V190.323C111.173 189.891 111.173 189.539 111.141 189.107C111.061 188.115 110.517 187.379 109.205 187.379C107.877 187.379 106.757 188.371 106.757 191.267V194.995H105.381V186.515H106.757V187.971L107.285 186.995C108.005 186.435 108.629 186.291 109.493 186.291C111.349 186.291 112.389 187.283 112.517 188.771ZM117.33 186.291C119.234 186.291 120.274 187.379 120.45 188.931H119.01C118.818 187.939 118.21 187.347 117.218 187.347C116.258 187.347 115.81 187.875 115.81 188.611C115.81 189.459 116.514 189.795 117.666 190.099C119.618 190.611 120.546 191.379 120.546 192.819C120.546 194.419 119.186 195.219 117.394 195.219C115.65 195.219 114.322 194.419 114.066 192.499H115.506C115.73 193.731 116.514 194.163 117.49 194.163C118.402 194.163 119.138 193.747 119.138 192.931C119.138 192.115 118.562 191.683 117.138 191.299C115.618 190.883 114.402 190.259 114.402 188.771C114.402 187.219 115.586 186.291 117.33 186.291ZM123.857 187.635V192.515C123.857 192.803 123.857 192.947 123.873 193.171C123.937 193.987 124.273 194.163 125.345 194.035V195.043C124.945 195.107 124.561 195.123 124.177 195.123C123.121 195.123 122.577 194.691 122.497 193.635C122.481 193.411 122.481 193.059 122.481 192.579V187.635H121.345V186.579H122.481V184.611H123.857V186.579H125.441V187.635H123.857ZM132.089 194.995L131.945 193.779L131.481 194.691C130.905 195.091 130.169 195.219 129.353 195.219C127.817 195.219 126.617 194.371 126.617 192.803C126.617 190.883 128.057 189.891 131.385 189.891H131.929V189.667C131.929 189.299 131.929 188.963 131.897 188.643C131.833 187.859 131.385 187.347 130.249 187.347C129.097 187.347 128.521 187.971 128.425 189.139H126.985C127.113 187.331 128.377 186.291 130.249 186.291C132.265 186.291 133.113 187.139 133.257 188.531C133.289 188.867 133.305 189.283 133.305 189.651V192.835C133.305 193.475 133.337 194.051 133.465 194.995H132.089ZM129.817 194.163C131.097 194.163 131.929 193.315 131.929 191.779V190.915C129.593 190.739 128.121 191.235 128.121 192.691C128.121 193.715 128.777 194.163 129.817 194.163ZM142.861 188.771C142.893 189.203 142.893 189.539 142.893 190.227V194.995H141.517V190.323C141.517 189.891 141.517 189.539 141.485 189.107C141.405 188.115 140.861 187.379 139.549 187.379C138.221 187.379 137.101 188.371 137.101 191.267V194.995H135.725V186.515H137.101V187.971L137.629 186.995C138.349 186.435 138.973 186.291 139.837 186.291C141.693 186.291 142.733 187.283 142.861 188.771ZM146.857 187.635V192.515C146.857 192.803 146.857 192.947 146.873 193.171C146.937 193.987 147.273 194.163 148.345 194.035V195.043C147.945 195.107 147.561 195.123 147.177 195.123C146.121 195.123 145.577 194.691 145.497 193.635C145.481 193.411 145.481 193.059 145.481 192.579V187.635H144.345V186.579H145.481V184.611H146.857V186.579H148.441V187.635H146.857ZM151.537 183.235V192.563C151.537 192.819 151.537 193.091 151.553 193.363C151.585 193.907 151.841 194.083 152.593 194.003V194.995C152.289 195.043 151.937 195.059 151.617 195.059C150.817 195.059 150.225 194.803 150.177 193.731C150.161 193.443 150.161 193.075 150.161 192.611V183.235H151.537ZM161.106 186.515L157.618 195.715C156.93 197.507 156.018 198.355 154.642 198.355C154.338 198.355 154.146 198.355 153.938 198.323V197.203C154.146 197.219 154.29 197.219 154.434 197.219C155.282 197.219 155.842 196.851 156.274 195.731L156.386 195.427L153.01 186.515H154.562L157.09 193.971L159.602 186.515H161.106ZM169.162 186.323C169.386 186.323 169.578 186.355 169.738 186.435V187.475C168.298 187.379 167.21 188.227 167.21 190.163V194.995H165.834V186.515H167.21V187.843L167.978 186.707C168.33 186.467 168.762 186.323 169.162 186.323ZM177.888 190.515C177.888 190.643 177.888 190.867 177.856 191.171H171.712C171.84 193.411 172.896 194.163 174.144 194.163C175.248 194.163 176.144 193.475 176.336 192.259H177.776C177.44 194.307 175.824 195.219 174.08 195.219C171.872 195.219 170.224 193.779 170.224 190.787C170.224 188.035 171.936 186.291 174.256 186.291C176.592 186.291 177.888 188.035 177.888 190.515ZM174.224 187.347C172.88 187.347 171.888 188.307 171.728 190.115H176.496C176.368 188.355 175.616 187.347 174.224 187.347ZM187.117 186.515V192.915C187.117 193.443 187.117 194.099 187.101 194.563C187.021 197.043 185.517 198.355 183.069 198.355C180.653 198.355 179.453 197.347 179.277 195.555L179.261 195.395H180.653L180.669 195.539C180.781 196.579 181.613 197.299 183.069 197.299C184.749 197.299 185.661 196.339 185.725 194.707C185.741 194.307 185.741 194.035 185.741 193.779V193.635L185.101 194.547C184.621 194.947 183.725 195.219 182.861 195.219C180.381 195.219 179.005 193.363 179.005 190.883C179.005 187.747 180.957 186.291 183.149 186.291C183.853 186.291 184.749 186.499 185.181 186.851L185.741 187.683V186.515H187.117ZM183.069 194.163C184.477 194.163 185.741 193.267 185.741 190.835V190.371C185.741 188.179 184.365 187.347 183.149 187.347C181.661 187.347 180.509 188.499 180.509 190.723C180.509 192.643 181.373 194.163 183.069 194.163ZM196.513 190.515C196.513 190.643 196.513 190.867 196.481 191.171H190.337C190.465 193.411 191.521 194.163 192.769 194.163C193.873 194.163 194.769 193.475 194.961 192.259H196.401C196.065 194.307 194.449 195.219 192.705 195.219C190.497 195.219 188.849 193.779 188.849 190.787C188.849 188.035 190.561 186.291 192.881 186.291C195.217 186.291 196.513 188.035 196.513 190.515ZM192.849 187.347C191.505 187.347 190.513 188.307 190.353 190.115H195.121C194.993 188.355 194.241 187.347 192.849 187.347ZM205.47 188.771C205.502 189.203 205.502 189.539 205.502 190.227V194.995H204.126V190.323C204.126 189.891 204.126 189.539 204.094 189.107C204.014 188.115 203.47 187.379 202.158 187.379C200.83 187.379 199.71 188.371 199.71 191.267V194.995H198.334V186.515H199.71V187.971L200.238 186.995C200.958 186.435 201.582 186.291 202.446 186.291C204.302 186.291 205.342 187.283 205.47 188.771ZM214.779 190.515C214.779 190.643 214.779 190.867 214.747 191.171H208.603C208.731 193.411 209.787 194.163 211.035 194.163C212.139 194.163 213.035 193.475 213.227 192.259H214.667C214.331 194.307 212.715 195.219 210.971 195.219C208.763 195.219 207.115 193.779 207.115 190.787C207.115 188.035 208.827 186.291 211.147 186.291C213.483 186.291 214.779 188.035 214.779 190.515ZM211.115 187.347C209.771 187.347 208.779 188.307 208.619 190.115H213.387C213.259 188.355 212.507 187.347 211.115 187.347ZM219.928 186.323C220.152 186.323 220.344 186.355 220.504 186.435V187.475C219.064 187.379 217.976 188.227 217.976 190.163V194.995H216.6V186.515H217.976V187.843L218.744 186.707C219.096 186.467 219.528 186.323 219.928 186.323ZM226.745 194.995L226.601 193.779L226.137 194.691C225.561 195.091 224.825 195.219 224.009 195.219C222.473 195.219 221.273 194.371 221.273 192.803C221.273 190.883 222.713 189.891 226.041 189.891H226.585V189.667C226.585 189.299 226.585 188.963 226.553 188.643C226.489 187.859 226.041 187.347 224.905 187.347C223.753 187.347 223.177 187.971 223.081 189.139H221.641C221.769 187.331 223.033 186.291 224.905 186.291C226.921 186.291 227.769 187.139 227.913 188.531C227.945 188.867 227.961 189.283 227.961 189.651V192.835C227.961 193.475 227.993 194.051 228.121 194.995H226.745ZM224.473 194.163C225.753 194.163 226.585 193.315 226.585 191.779V190.915C224.249 190.739 222.777 191.235 222.777 192.691C222.777 193.715 223.433 194.163 224.473 194.163ZM232.029 187.635V192.515C232.029 192.803 232.029 192.947 232.045 193.171C232.109 193.987 232.445 194.163 233.517 194.035V195.043C233.117 195.107 232.733 195.123 232.349 195.123C231.293 195.123 230.749 194.691 230.669 193.635C230.653 193.411 230.653 193.059 230.653 192.579V187.635H229.517V186.579H230.653V184.611H232.029V186.579H233.613V187.635H232.029ZM242.154 190.515C242.154 190.643 242.154 190.867 242.122 191.171H235.978C236.106 193.411 237.162 194.163 238.41 194.163C239.514 194.163 240.41 193.475 240.602 192.259H242.042C241.706 194.307 240.09 195.219 238.346 195.219C236.138 195.219 234.49 193.779 234.49 190.787C234.49 188.035 236.202 186.291 238.522 186.291C240.858 186.291 242.154 188.035 242.154 190.515ZM238.49 187.347C237.146 187.347 236.154 188.307 235.994 190.115H240.762C240.634 188.355 239.882 187.347 238.49 187.347ZM252.292 194.995L252.148 193.779L251.684 194.691C251.108 195.091 250.372 195.219 249.556 195.219C248.02 195.219 246.82 194.371 246.82 192.803C246.82 190.883 248.26 189.891 251.588 189.891H252.132V189.667C252.132 189.299 252.132 188.963 252.1 188.643C252.036 187.859 251.588 187.347 250.452 187.347C249.3 187.347 248.724 187.971 248.628 189.139H247.188C247.316 187.331 248.58 186.291 250.452 186.291C252.468 186.291 253.316 187.139 253.46 188.531C253.492 188.867 253.508 189.283 253.508 189.651V192.835C253.508 193.475 253.54 194.051 253.668 194.995H252.292ZM250.02 194.163C251.3 194.163 252.132 193.315 252.132 191.779V190.915C249.796 190.739 248.324 191.235 248.324 192.691C248.324 193.715 248.98 194.163 250.02 194.163ZM263.064 188.771C263.096 189.203 263.096 189.539 263.096 190.227V194.995H261.72V190.323C261.72 189.891 261.72 189.539 261.688 189.107C261.608 188.115 261.064 187.379 259.752 187.379C258.424 187.379 257.304 188.371 257.304 191.267V194.995H255.928V186.515H257.304V187.971L257.832 186.995C258.552 186.435 259.176 186.291 260.04 186.291C261.896 186.291 262.936 187.283 263.064 188.771ZM272.341 186.515L268.853 195.715C268.165 197.507 267.253 198.355 265.877 198.355C265.573 198.355 265.381 198.355 265.173 198.323V197.203C265.381 197.219 265.525 197.219 265.669 197.219C266.517 197.219 267.077 196.851 267.509 195.731L267.621 195.427L264.245 186.515H265.797L268.325 193.971L270.837 186.515H272.341ZM275.264 187.635V192.515C275.264 192.803 275.264 192.947 275.28 193.171C275.344 193.987 275.68 194.163 276.752 194.035V195.043C276.352 195.107 275.968 195.123 275.584 195.123C274.528 195.123 273.984 194.691 273.904 193.635C273.888 193.411 273.888 193.059 273.888 192.579V187.635H272.752V186.579H273.888V184.611H275.264V186.579H276.848V187.635H275.264ZM285.767 188.771C285.799 189.203 285.799 189.539 285.799 190.227V194.995H284.423V190.323C284.423 189.891 284.423 189.539 284.391 189.107C284.311 188.115 283.767 187.347 282.455 187.379C281.127 187.411 280.007 188.371 280.007 191.267V194.995H278.631V183.155H280.007V187.971L280.535 186.995C281.255 186.435 281.879 186.291 282.743 186.291C284.599 186.291 285.639 187.283 285.767 188.771ZM288.804 183.731C289.3 183.731 289.684 184.115 289.684 184.611C289.684 185.107 289.3 185.491 288.804 185.491C288.308 185.491 287.924 185.107 287.924 184.611C287.924 184.115 288.308 183.731 288.804 183.731ZM289.492 194.995H288.116V186.515H289.492V194.995ZM299.064 188.771C299.096 189.203 299.096 189.539 299.096 190.227V194.995H297.72V190.323C297.72 189.891 297.72 189.539 297.688 189.107C297.608 188.115 297.064 187.379 295.752 187.379C294.424 187.379 293.304 188.371 293.304 191.267V194.995H291.928V186.515H293.304V187.971L293.832 186.995C294.552 186.435 295.176 186.291 296.04 186.291C297.896 186.291 298.936 187.283 299.064 188.771ZM308.821 186.515V192.915C308.821 193.443 308.821 194.099 308.805 194.563C308.725 197.043 307.221 198.355 304.773 198.355C302.357 198.355 301.157 197.347 300.981 195.555L300.965 195.395H302.357L302.373 195.539C302.485 196.579 303.317 197.299 304.773 197.299C306.453 197.299 307.365 196.339 307.429 194.707C307.445 194.307 307.445 194.035 307.445 193.779V193.635L306.805 194.547C306.325 194.947 305.429 195.219 304.565 195.219C302.085 195.219 300.709 193.363 300.709 190.883C300.709 187.747 302.661 186.291 304.853 186.291C305.557 186.291 306.453 186.499 306.885 186.851L307.445 187.683V186.515H308.821ZM304.773 194.163C306.181 194.163 307.445 193.267 307.445 190.835V190.371C307.445 188.179 306.069 187.347 304.853 187.347C303.365 187.347 302.213 188.499 302.213 190.723C302.213 192.643 303.077 194.163 304.773 194.163ZM321.637 186.515L318.149 195.715C317.461 197.507 316.549 198.355 315.173 198.355C314.869 198.355 314.677 198.355 314.469 198.323V197.203C314.677 197.219 314.821 197.219 314.965 197.219C315.813 197.219 316.373 196.851 316.805 195.731L316.917 195.427L313.541 186.515H315.093L317.621 193.971L320.133 186.515H321.637ZM326.292 186.291C329.172 186.291 330.5 188.355 330.5 190.755C330.5 193.139 329.172 195.219 326.292 195.219C323.412 195.219 322.084 193.139 322.084 190.755C322.084 188.355 323.412 186.291 326.292 186.291ZM326.292 194.163C328.004 194.163 328.996 192.739 328.996 190.755C328.996 188.755 328.004 187.347 326.292 187.347C324.58 187.347 323.588 188.755 323.588 190.755C323.588 192.739 324.58 194.163 326.292 194.163ZM339.203 186.515V194.995H337.827V193.555L337.299 194.547C336.579 195.075 335.955 195.219 335.091 195.219C333.331 195.219 332.307 194.227 332.115 193.059C332.051 192.627 332.035 192.291 332.035 191.603V186.515H333.411V191.347C333.411 191.619 333.427 192.083 333.475 192.515C333.603 193.475 334.291 194.131 335.443 194.131C336.771 194.131 337.827 193.139 337.827 190.243V186.515H339.203ZM344.959 186.323C345.183 186.323 345.375 186.355 345.535 186.435V187.475C344.095 187.379 343.007 188.227 343.007 190.163V194.995H341.631V186.515H343.007V187.843L343.775 186.707C344.127 186.467 344.559 186.323 344.959 186.323ZM356.478 191.091H352.414L351.118 194.995H349.646L353.614 183.955H355.47L359.278 194.995H357.79L356.478 191.091ZM352.798 189.971H356.11L354.51 185.043L352.798 189.971ZM362.376 194.995H361V183.955H362.376V194.995ZM371.536 186.291C373.568 186.291 374.864 187.507 375.12 189.363H373.68C373.376 188.003 372.64 187.347 371.504 187.347C370.176 187.347 369.056 188.387 369.056 190.675C369.056 193.139 370.144 194.163 371.408 194.163C372.528 194.163 373.312 193.523 373.6 192.291H375.04C374.624 194.259 373.216 195.219 371.328 195.219C369.184 195.219 367.552 193.875 367.552 190.771C367.552 187.907 369.408 186.291 371.536 186.291ZM380.229 186.291C383.109 186.291 384.437 188.355 384.437 190.755C384.437 193.139 383.109 195.219 380.229 195.219C377.349 195.219 376.021 193.139 376.021 190.755C376.021 188.355 377.349 186.291 380.229 186.291ZM380.229 194.163C381.941 194.163 382.933 192.739 382.933 190.755C382.933 188.755 381.941 187.347 380.229 187.347C378.517 187.347 377.525 188.755 377.525 190.755C377.525 192.739 378.517 194.163 380.229 194.163ZM393.236 188.771C393.268 189.203 393.268 189.539 393.268 190.227V194.995H391.892V190.323C391.892 189.891 391.892 189.539 391.86 189.107C391.78 188.115 391.236 187.379 389.924 187.379C388.596 187.379 387.476 188.371 387.476 191.267V194.995H386.1V186.515H387.476V187.971L388.004 186.995C388.724 186.435 389.348 186.291 390.212 186.291C392.068 186.291 393.108 187.283 393.236 188.771ZM397.232 187.635V192.515C397.232 192.803 397.232 192.947 397.248 193.171C397.312 193.987 397.648 194.163 398.72 194.035V195.043C398.32 195.107 397.936 195.123 397.552 195.123C396.496 195.123 395.952 194.691 395.872 193.635C395.856 193.411 395.856 193.059 395.856 192.579V187.635H394.72V186.579H395.856V184.611H397.232V186.579H398.816V187.635H397.232ZM407.357 190.515C407.357 190.643 407.357 190.867 407.325 191.171H401.181C401.309 193.411 402.365 194.163 403.613 194.163C404.717 194.163 405.613 193.475 405.805 192.259H407.245C406.909 194.307 405.293 195.219 403.549 195.219C401.341 195.219 399.693 193.779 399.693 190.787C399.693 188.035 401.405 186.291 403.725 186.291C406.061 186.291 407.357 188.035 407.357 190.515ZM403.693 187.347C402.349 187.347 401.357 188.307 401.197 190.115H405.965C405.837 188.355 405.085 187.347 403.693 187.347ZM416.314 188.771C416.346 189.203 416.346 189.539 416.346 190.227V194.995H414.97V190.323C414.97 189.891 414.97 189.539 414.938 189.107C414.858 188.115 414.314 187.379 413.002 187.379C411.674 187.379 410.554 188.371 410.554 191.267V194.995H409.178V186.515H410.554V187.971L411.082 186.995C411.802 186.435 412.426 186.291 413.29 186.291C415.146 186.291 416.186 187.283 416.314 188.771ZM420.311 187.635V192.515C420.311 192.803 420.311 192.947 420.327 193.171C420.391 193.987 420.727 194.163 421.799 194.035V195.043C421.399 195.107 421.015 195.123 420.631 195.123C419.575 195.123 419.031 194.691 418.951 193.635C418.935 193.411 418.935 193.059 418.935 192.579V187.635H417.799V186.579H418.935V184.611H420.311V186.579H421.895V187.635H420.311ZM431.387 186.291C433.867 186.291 435.243 188.147 435.243 190.627C435.243 193.763 433.291 195.219 431.099 195.219C430.395 195.219 429.499 195.011 429.067 194.659L428.507 193.827V194.995H427.131V183.235H428.507V187.875L429.147 186.963C429.627 186.563 430.523 186.291 431.387 186.291ZM431.099 194.163C432.587 194.163 433.739 193.011 433.739 190.787C433.739 188.867 432.875 187.347 431.179 187.347C429.771 187.347 428.507 188.243 428.507 190.675V191.139C428.507 193.331 429.883 194.163 431.099 194.163ZM443.953 186.515V194.995H442.577V193.555L442.049 194.547C441.329 195.075 440.705 195.219 439.841 195.219C438.081 195.219 437.057 194.227 436.865 193.059C436.801 192.627 436.785 192.291 436.785 191.603V186.515H438.161V191.347C438.161 191.619 438.177 192.083 438.225 192.515C438.353 193.475 439.041 194.131 440.193 194.131C441.521 194.131 442.577 193.139 442.577 190.243V186.515H443.953ZM447.069 183.731C447.565 183.731 447.949 184.115 447.949 184.611C447.949 185.107 447.565 185.491 447.069 185.491C446.573 185.491 446.189 185.107 446.189 184.611C446.189 184.115 446.573 183.731 447.069 183.731ZM447.757 194.995H446.381V186.515H447.757V194.995ZM451.506 183.235V192.563C451.506 192.819 451.506 193.091 451.522 193.363C451.554 193.907 451.81 194.083 452.562 194.003V194.995C452.258 195.043 451.906 195.059 451.586 195.059C450.786 195.059 450.194 194.803 450.146 193.731C450.13 193.443 450.13 193.075 450.13 192.611V183.235H451.506ZM461.555 183.235V194.995H460.179V193.635L459.539 194.547C459.059 194.947 458.163 195.219 457.299 195.219C454.819 195.219 453.443 193.363 453.443 190.883C453.443 187.747 455.395 186.291 457.587 186.291C458.291 186.291 459.187 186.499 459.619 186.851L460.179 187.683V183.235H461.555ZM457.507 194.163C458.915 194.163 460.179 193.267 460.179 190.835V190.371C460.179 188.179 458.803 187.347 457.587 187.347C456.099 187.347 454.947 188.499 454.947 190.723C454.947 192.643 455.811 194.163 457.507 194.163ZM470.951 190.515C470.951 190.643 470.951 190.867 470.919 191.171H464.775C464.903 193.411 465.959 194.163 467.207 194.163C468.311 194.163 469.207 193.475 469.399 192.259H470.839C470.503 194.307 468.887 195.219 467.143 195.219C464.935 195.219 463.287 193.779 463.287 190.787C463.287 188.035 464.999 186.291 467.319 186.291C469.655 186.291 470.951 188.035 470.951 190.515ZM467.287 187.347C465.943 187.347 464.951 188.307 464.791 190.115H469.559C469.431 188.355 468.679 187.347 467.287 187.347ZM476.1 186.323C476.324 186.323 476.516 186.355 476.676 186.435V187.475C475.236 187.379 474.148 188.227 474.148 190.163V194.995H472.772V186.515H474.148V187.843L474.916 186.707C475.268 186.467 475.7 186.323 476.1 186.323ZM484.786 186.291C486.818 186.291 488.114 187.507 488.37 189.363H486.93C486.626 188.003 485.89 187.347 484.754 187.347C483.426 187.347 482.306 188.387 482.306 190.675C482.306 193.139 483.394 194.163 484.658 194.163C485.778 194.163 486.562 193.523 486.85 192.291H488.29C487.874 194.259 486.466 195.219 484.578 195.219C482.434 195.219 480.802 193.875 480.802 190.771C480.802 187.907 482.658 186.291 484.786 186.291ZM493.303 186.323C493.527 186.323 493.719 186.355 493.879 186.435V187.475C492.439 187.379 491.351 188.227 491.351 190.163V194.995H489.975V186.515H491.351V187.843L492.119 186.707C492.471 186.467 492.903 186.323 493.303 186.323ZM502.029 190.515C502.029 190.643 502.029 190.867 501.997 191.171H495.853C495.981 193.411 497.037 194.163 498.285 194.163C499.389 194.163 500.285 193.475 500.477 192.259H501.917C501.581 194.307 499.965 195.219 498.221 195.219C496.013 195.219 494.365 193.779 494.365 190.787C494.365 188.035 496.077 186.291 498.397 186.291C500.733 186.291 502.029 188.035 502.029 190.515ZM498.365 187.347C497.021 187.347 496.029 188.307 495.869 190.115H500.637C500.509 188.355 499.757 187.347 498.365 187.347ZM508.714 194.995L508.57 193.779L508.106 194.691C507.53 195.091 506.794 195.219 505.978 195.219C504.442 195.219 503.242 194.371 503.242 192.803C503.242 190.883 504.682 189.891 508.01 189.891H508.554V189.667C508.554 189.299 508.554 188.963 508.522 188.643C508.458 187.859 508.01 187.347 506.874 187.347C505.722 187.347 505.146 187.971 505.05 189.139H503.61C503.738 187.331 505.002 186.291 506.874 186.291C508.89 186.291 509.738 187.139 509.882 188.531C509.914 188.867 509.93 189.283 509.93 189.651V192.835C509.93 193.475 509.962 194.051 510.09 194.995H508.714ZM506.442 194.163C507.722 194.163 508.554 193.315 508.554 191.779V190.915C506.218 190.739 504.746 191.235 504.746 192.691C504.746 193.715 505.402 194.163 506.442 194.163ZM513.998 187.635V192.515C513.998 192.803 513.998 192.947 514.014 193.171C514.078 193.987 514.414 194.163 515.486 194.035V195.043C515.086 195.107 514.702 195.123 514.318 195.123C513.262 195.123 512.718 194.691 512.638 193.635C512.622 193.411 512.622 193.059 512.622 192.579V187.635H511.486V186.579H512.622V184.611H513.998V186.579H515.582V187.635H513.998ZM524.123 190.515C524.123 190.643 524.123 190.867 524.091 191.171H517.947C518.075 193.411 519.131 194.163 520.379 194.163C521.483 194.163 522.379 193.475 522.571 192.259H524.011C523.675 194.307 522.059 195.219 520.315 195.219C518.107 195.219 516.459 193.779 516.459 190.787C516.459 188.035 518.171 186.291 520.491 186.291C522.827 186.291 524.123 188.035 524.123 190.515ZM520.459 187.347C519.115 187.347 518.123 188.307 517.963 190.115H522.731C522.603 188.355 521.851 187.347 520.459 187.347ZM533.352 183.235V194.995H531.976V193.635L531.336 194.547C530.856 194.947 529.96 195.219 529.096 195.219C526.616 195.219 525.24 193.363 525.24 190.883C525.24 187.747 527.192 186.291 529.384 186.291C530.088 186.291 530.984 186.499 531.416 186.851L531.976 187.683V183.235H533.352ZM529.304 194.163C530.712 194.163 531.976 193.267 531.976 190.835V190.371C531.976 188.179 530.6 187.347 529.384 187.347C527.896 187.347 526.744 188.499 526.744 190.723C526.744 192.643 527.608 194.163 529.304 194.163ZM42.7755 206.883C42.7435 207.107 42.7275 207.507 42.7275 207.747V208.579H44.4715V209.635H42.7275V216.995H41.3515V209.635H40.4395V208.579H41.3515V207.875C41.3515 207.555 41.3675 207.139 41.3995 206.851C41.5435 205.619 42.3755 204.931 43.6395 204.931C43.9915 204.931 44.3275 204.963 44.6155 205.011V206.147C43.5755 205.955 42.8875 206.195 42.7755 206.883ZM49.4321 208.291C52.3121 208.291 53.6401 210.355 53.6401 212.755C53.6401 215.139 52.3121 217.219 49.4321 217.219C46.5521 217.219 45.2241 215.139 45.2241 212.755C45.2241 210.355 46.5521 208.291 49.4321 208.291ZM49.4321 216.163C51.1441 216.163 52.1361 214.739 52.1361 212.755C52.1361 210.755 51.1441 209.347 49.4321 209.347C47.7201 209.347 46.7281 210.755 46.7281 212.755C46.7281 214.739 47.7201 216.163 49.4321 216.163ZM58.6311 208.323C58.8551 208.323 59.0471 208.355 59.2071 208.435V209.475C57.7671 209.379 56.6791 210.227 56.6791 212.163V216.995H55.3031V208.515H56.6791V209.843L57.4471 208.707C57.7991 208.467 58.2311 208.323 58.6311 208.323ZM70.9655 208.515L67.4775 217.715C66.7895 219.507 65.8775 220.355 64.5015 220.355C64.1975 220.355 64.0055 220.355 63.7975 220.323V219.203C64.0055 219.219 64.1495 219.219 64.2935 219.219C65.1415 219.219 65.7015 218.851 66.1335 217.731L66.2455 217.427L62.8695 208.515H64.4215L66.9495 215.971L69.4615 208.515H70.9655ZM75.6196 208.291C78.4996 208.291 79.8276 210.355 79.8276 212.755C79.8276 215.139 78.4996 217.219 75.6196 217.219C72.7396 217.219 71.4116 215.139 71.4116 212.755C71.4116 210.355 72.7396 208.291 75.6196 208.291ZM75.6196 216.163C77.3316 216.163 78.3236 214.739 78.3236 212.755C78.3236 210.755 77.3316 209.347 75.6196 209.347C73.9076 209.347 72.9156 210.755 72.9156 212.755C72.9156 214.739 73.9076 216.163 75.6196 216.163ZM88.5306 208.515V216.995H87.1546V215.555L86.6266 216.547C85.9066 217.075 85.2826 217.219 84.4186 217.219C82.6586 217.219 81.6346 216.227 81.4426 215.059C81.3786 214.627 81.3626 214.291 81.3626 213.603V208.515H82.7386V213.347C82.7386 213.619 82.7546 214.083 82.8026 214.515C82.9306 215.475 83.6186 216.131 84.7706 216.131C86.0986 216.131 87.1546 215.139 87.1546 212.243V208.515H88.5306ZM91.3914 215.171C91.9834 215.171 92.4154 215.603 92.4154 216.195C92.4154 216.787 91.9834 217.219 91.3914 217.219C90.7994 217.219 90.3674 216.787 90.3674 216.195C90.3674 215.603 90.7994 215.171 91.3914 215.171ZM102.712 205.731C106.072 205.731 107.928 208.099 107.928 211.475C107.928 214.835 106.072 217.219 102.712 217.219C99.3521 217.219 97.4961 214.835 97.4961 211.475C97.4961 208.099 99.3521 205.731 102.712 205.731ZM102.712 216.131C105.032 216.131 106.392 214.339 106.392 211.475C106.392 208.595 105.032 206.819 102.712 206.819C100.392 206.819 99.0321 208.595 99.0321 211.475C99.0321 214.339 100.392 216.131 102.712 216.131ZM113.053 208.323C113.277 208.323 113.469 208.355 113.629 208.435V209.475C112.189 209.379 111.101 210.227 111.101 212.163V216.995H109.725V208.515H111.101V209.843L111.869 208.707C112.221 208.467 112.653 208.323 113.053 208.323ZM121.787 208.323C122.011 208.323 122.203 208.355 122.363 208.435V209.475C120.923 209.379 119.835 210.227 119.835 212.163V216.995H118.459V208.515H119.835V209.843L120.603 208.707C120.955 208.467 121.387 208.323 121.787 208.323ZM127.057 208.291C129.937 208.291 131.265 210.355 131.265 212.755C131.265 215.139 129.937 217.219 127.057 217.219C124.177 217.219 122.849 215.139 122.849 212.755C122.849 210.355 124.177 208.291 127.057 208.291ZM127.057 216.163C128.769 216.163 129.761 214.739 129.761 212.755C129.761 210.755 128.769 209.347 127.057 209.347C125.345 209.347 124.353 210.755 124.353 212.755C124.353 214.739 125.345 216.163 127.057 216.163ZM134.24 205.235V214.563C134.24 214.819 134.24 215.091 134.256 215.363C134.288 215.907 134.544 216.083 135.296 216.003V216.995C134.992 217.043 134.64 217.059 134.32 217.059C133.52 217.059 132.928 216.803 132.88 215.731C132.864 215.443 132.864 215.075 132.864 214.611V205.235H134.24ZM138.193 205.235V214.563C138.193 214.819 138.193 215.091 138.209 215.363C138.241 215.907 138.497 216.083 139.249 216.003V216.995C138.945 217.043 138.593 217.059 138.273 217.059C137.473 217.059 136.881 216.803 136.833 215.731C136.817 215.443 136.817 215.075 136.817 214.611V205.235H138.193ZM151.328 208.515V216.995H149.952V215.555L149.424 216.547C148.704 217.075 148.08 217.219 147.216 217.219C145.456 217.219 144.432 216.227 144.24 215.059C144.176 214.627 144.16 214.291 144.16 213.603V208.515H145.536V213.347C145.536 213.619 145.552 214.083 145.6 214.515C145.728 215.475 146.416 216.131 147.568 216.131C148.896 216.131 149.952 215.139 149.952 212.243V208.515H151.328ZM158.012 208.291C160.492 208.291 161.868 210.147 161.868 212.627C161.868 215.763 159.916 217.219 157.724 217.219C157.02 217.219 156.124 217.011 155.692 216.659L155.132 215.827V220.131H153.756V208.515H155.132V209.875L155.772 208.963C156.252 208.563 157.148 208.291 158.012 208.291ZM157.724 216.163C159.212 216.163 160.364 215.011 160.364 212.787C160.364 210.867 159.5 209.347 157.804 209.347C156.396 209.347 155.132 210.243 155.132 212.675V213.139C155.132 215.331 156.508 216.163 157.724 216.163ZM173.919 208.515L170.431 217.715C169.743 219.507 168.831 220.355 167.455 220.355C167.151 220.355 166.959 220.355 166.751 220.323V219.203C166.959 219.219 167.103 219.219 167.247 219.219C168.095 219.219 168.655 218.851 169.087 217.731L169.199 217.427L165.823 208.515H167.375L169.903 215.971L172.415 208.515H173.919ZM178.573 208.291C181.453 208.291 182.781 210.355 182.781 212.755C182.781 215.139 181.453 217.219 178.573 217.219C175.693 217.219 174.365 215.139 174.365 212.755C174.365 210.355 175.693 208.291 178.573 208.291ZM178.573 216.163C180.285 216.163 181.277 214.739 181.277 212.755C181.277 210.755 180.285 209.347 178.573 209.347C176.861 209.347 175.869 210.755 175.869 212.755C175.869 214.739 176.861 216.163 178.573 216.163ZM191.484 208.515V216.995H190.108V215.555L189.58 216.547C188.86 217.075 188.236 217.219 187.372 217.219C185.612 217.219 184.588 216.227 184.396 215.059C184.332 214.627 184.316 214.291 184.316 213.603V208.515H185.692V213.347C185.692 213.619 185.708 214.083 185.756 214.515C185.884 215.475 186.572 216.131 187.724 216.131C189.052 216.131 190.108 215.139 190.108 212.243V208.515H191.484ZM197.241 208.323C197.465 208.323 197.657 208.355 197.817 208.435V209.475C196.377 209.379 195.289 210.227 195.289 212.163V216.995H193.913V208.515H195.289V209.843L196.057 208.707C196.409 208.467 196.841 208.323 197.241 208.323ZM205.111 208.291C207.015 208.291 208.055 209.379 208.231 210.931H206.791C206.599 209.939 205.991 209.347 204.999 209.347C204.039 209.347 203.591 209.875 203.591 210.611C203.591 211.459 204.295 211.795 205.447 212.099C207.399 212.611 208.327 213.379 208.327 214.819C208.327 216.419 206.967 217.219 205.175 217.219C203.431 217.219 202.103 216.419 201.847 214.499H203.287C203.511 215.731 204.295 216.163 205.271 216.163C206.183 216.163 206.919 215.747 206.919 214.931C206.919 214.115 206.343 213.683 204.919 213.299C203.399 212.883 202.183 212.259 202.183 210.771C202.183 209.219 203.367 208.291 205.111 208.291ZM211.303 205.235V214.563C211.303 214.819 211.303 215.091 211.319 215.363C211.351 215.907 211.607 216.083 212.359 216.003V216.995C212.055 217.043 211.703 217.059 211.383 217.059C210.583 217.059 209.991 216.803 209.943 215.731C209.927 215.443 209.927 215.075 209.927 214.611V205.235H211.303ZM220.904 212.515C220.904 212.643 220.904 212.867 220.872 213.171H214.728C214.856 215.411 215.912 216.163 217.16 216.163C218.264 216.163 219.16 215.475 219.352 214.259H220.792C220.456 216.307 218.84 217.219 217.096 217.219C214.888 217.219 213.24 215.779 213.24 212.787C213.24 210.035 214.952 208.291 217.272 208.291C219.608 208.291 220.904 210.035 220.904 212.515ZM217.24 209.347C215.896 209.347 214.904 210.307 214.744 212.115H219.512C219.384 210.355 218.632 209.347 217.24 209.347ZM229.685 212.515C229.685 212.643 229.685 212.867 229.653 213.171H223.509C223.637 215.411 224.693 216.163 225.941 216.163C227.045 216.163 227.941 215.475 228.133 214.259H229.573C229.237 216.307 227.621 217.219 225.877 217.219C223.669 217.219 222.021 215.779 222.021 212.787C222.021 210.035 223.733 208.291 226.053 208.291C228.389 208.291 229.685 210.035 229.685 212.515ZM226.021 209.347C224.677 209.347 223.685 210.307 223.525 212.115H228.293C228.165 210.355 227.413 209.347 226.021 209.347ZM238.45 208.515L235.234 216.995H233.554L230.338 208.515H231.858L234.45 215.987L236.994 208.515H238.45ZM246.56 212.515C246.56 212.643 246.56 212.867 246.528 213.171H240.384C240.512 215.411 241.568 216.163 242.816 216.163C243.92 216.163 244.816 215.475 245.008 214.259H246.448C246.112 216.307 244.496 217.219 242.752 217.219C240.544 217.219 238.896 215.779 238.896 212.787C238.896 210.035 240.608 208.291 242.928 208.291C245.264 208.291 246.56 210.035 246.56 212.515ZM242.896 209.347C241.552 209.347 240.56 210.307 240.4 212.115H245.168C245.04 210.355 244.288 209.347 242.896 209.347ZM250.845 208.291C252.749 208.291 253.789 209.379 253.965 210.931H252.525C252.333 209.939 251.725 209.347 250.733 209.347C249.773 209.347 249.325 209.875 249.325 210.611C249.325 211.459 250.029 211.795 251.181 212.099C253.133 212.611 254.061 213.379 254.061 214.819C254.061 216.419 252.701 217.219 250.909 217.219C249.165 217.219 247.837 216.419 247.581 214.499H249.021C249.245 215.731 250.029 216.163 251.005 216.163C251.917 216.163 252.653 215.747 252.653 214.931C252.653 214.115 252.077 213.683 250.653 213.299C249.133 212.883 247.917 212.259 247.917 210.771C247.917 209.219 249.101 208.291 250.845 208.291ZM264.042 216.995L263.898 215.779L263.434 216.691C262.858 217.091 262.122 217.219 261.306 217.219C259.77 217.219 258.57 216.371 258.57 214.803C258.57 212.883 260.01 211.891 263.338 211.891H263.882V211.667C263.882 211.299 263.882 210.963 263.85 210.643C263.786 209.859 263.338 209.347 262.202 209.347C261.05 209.347 260.474 209.971 260.378 211.139H258.938C259.066 209.331 260.33 208.291 262.202 208.291C264.218 208.291 265.066 209.139 265.21 210.531C265.242 210.867 265.258 211.283 265.258 211.651V214.835C265.258 215.475 265.29 216.051 265.418 216.995H264.042ZM261.77 216.163C263.05 216.163 263.882 215.315 263.882 213.779V212.915C261.546 212.739 260.074 213.235 260.074 214.691C260.074 215.715 260.73 216.163 261.77 216.163ZM274.814 210.771C274.846 211.203 274.846 211.539 274.846 212.227V216.995H273.47V212.323C273.47 211.891 273.47 211.539 273.438 211.107C273.358 210.115 272.814 209.379 271.502 209.379C270.174 209.379 269.054 210.371 269.054 213.267V216.995H267.678V208.515H269.054V209.971L269.582 208.995C270.302 208.435 270.926 208.291 271.79 208.291C273.646 208.291 274.686 209.283 274.814 210.771ZM284.571 205.235V216.995H283.195V215.635L282.555 216.547C282.075 216.947 281.179 217.219 280.315 217.219C277.835 217.219 276.459 215.363 276.459 212.883C276.459 209.747 278.411 208.291 280.603 208.291C281.307 208.291 282.203 208.499 282.635 208.851L283.195 209.683V205.235H284.571ZM280.523 216.163C281.931 216.163 283.195 215.267 283.195 212.835V212.371C283.195 210.179 281.819 209.347 280.603 209.347C279.115 209.347 277.963 210.499 277.963 212.723C277.963 214.643 278.827 216.163 280.523 216.163ZM301.739 210.355C301.803 210.787 301.819 211.123 301.819 211.811V216.995H300.443V212.451C300.443 211.699 300.427 211.235 300.379 210.803C300.251 209.843 299.643 209.379 298.683 209.379C297.611 209.379 296.827 210.227 296.827 212.803V216.995H295.451V212.451C295.451 211.699 295.435 211.235 295.387 210.803C295.259 209.843 294.651 209.379 293.691 209.379C292.619 209.379 291.835 210.227 291.835 212.803V216.995H290.459V208.515H291.835V209.747L292.379 208.787C292.811 208.435 293.419 208.291 294.171 208.291C295.467 208.291 296.299 208.947 296.619 209.875L297.371 208.787C297.803 208.435 298.411 208.291 299.163 208.291C300.683 208.291 301.547 209.187 301.739 210.355ZM309.011 216.995L308.867 215.779L308.403 216.691C307.827 217.091 307.091 217.219 306.275 217.219C304.739 217.219 303.539 216.371 303.539 214.803C303.539 212.883 304.979 211.891 308.307 211.891H308.851V211.667C308.851 211.299 308.851 210.963 308.819 210.643C308.755 209.859 308.307 209.347 307.171 209.347C306.019 209.347 305.443 209.971 305.347 211.139H303.907C304.035 209.331 305.299 208.291 307.171 208.291C309.187 208.291 310.035 209.139 310.179 210.531C310.211 210.867 310.227 211.283 310.227 211.651V214.835C310.227 215.475 310.259 216.051 310.387 216.995H309.011ZM306.739 216.163C308.019 216.163 308.851 215.315 308.851 213.779V212.915C306.515 212.739 305.043 213.235 305.043 214.691C305.043 215.715 305.699 216.163 306.739 216.163ZM317.911 216.995L314.823 213.411L314.023 214.291V216.995H312.647V205.235H314.023V212.787L317.975 208.515H319.735L315.783 212.515L319.783 216.995H317.911ZM327.826 212.515C327.826 212.643 327.826 212.867 327.794 213.171H321.65C321.778 215.411 322.834 216.163 324.082 216.163C325.186 216.163 326.082 215.475 326.274 214.259H327.714C327.378 216.307 325.762 217.219 324.018 217.219C321.81 217.219 320.162 215.779 320.162 212.787C320.162 210.035 321.874 208.291 324.194 208.291C326.53 208.291 327.826 210.035 327.826 212.515ZM324.162 209.347C322.818 209.347 321.826 210.307 321.666 212.115H326.434C326.306 210.355 325.554 209.347 324.162 209.347ZM332.111 208.291C334.015 208.291 335.055 209.379 335.231 210.931H333.791C333.599 209.939 332.991 209.347 331.999 209.347C331.039 209.347 330.591 209.875 330.591 210.611C330.591 211.459 331.295 211.795 332.447 212.099C334.399 212.611 335.327 213.379 335.327 214.819C335.327 216.419 333.967 217.219 332.175 217.219C330.431 217.219 329.103 216.419 328.847 214.499H330.287C330.511 215.731 331.295 216.163 332.271 216.163C333.183 216.163 333.919 215.747 333.919 214.931C333.919 214.115 333.343 213.683 331.919 213.299C330.399 212.883 329.183 212.259 329.183 210.771C329.183 209.219 330.367 208.291 332.111 208.291ZM347.372 208.515L343.884 217.715C343.196 219.507 342.284 220.355 340.908 220.355C340.604 220.355 340.412 220.355 340.204 220.323V219.203C340.412 219.219 340.556 219.219 340.7 219.219C341.548 219.219 342.108 218.851 342.54 217.731L342.652 217.427L339.276 208.515H340.828L343.356 215.971L345.868 208.515H347.372ZM352.026 208.291C354.906 208.291 356.234 210.355 356.234 212.755C356.234 215.139 354.906 217.219 352.026 217.219C349.146 217.219 347.818 215.139 347.818 212.755C347.818 210.355 349.146 208.291 352.026 208.291ZM352.026 216.163C353.738 216.163 354.73 214.739 354.73 212.755C354.73 210.755 353.738 209.347 352.026 209.347C350.314 209.347 349.322 210.755 349.322 212.755C349.322 214.739 350.314 216.163 352.026 216.163ZM364.937 208.515V216.995H363.561V215.555L363.033 216.547C362.313 217.075 361.689 217.219 360.825 217.219C359.065 217.219 358.041 216.227 357.849 215.059C357.785 214.627 357.769 214.291 357.769 213.603V208.515H359.145V213.347C359.145 213.619 359.161 214.083 359.209 214.515C359.337 215.475 360.025 216.131 361.177 216.131C362.505 216.131 363.561 215.139 363.561 212.243V208.515H364.937ZM370.694 208.323C370.918 208.323 371.11 208.355 371.27 208.435V209.475C369.83 209.379 368.742 210.227 368.742 212.163V216.995H367.366V208.515H368.742V209.843L369.51 208.707C369.862 208.467 370.294 208.323 370.694 208.323ZM379.604 208.291C382.484 208.291 383.812 210.355 383.812 212.755C383.812 215.139 382.484 217.219 379.604 217.219C376.724 217.219 375.396 215.139 375.396 212.755C375.396 210.355 376.724 208.291 379.604 208.291ZM379.604 216.163C381.316 216.163 382.308 214.739 382.308 212.755C382.308 210.755 381.316 209.347 379.604 209.347C377.892 209.347 376.9 210.755 376.9 212.755C376.9 214.739 377.892 216.163 379.604 216.163ZM392.611 210.771C392.643 211.203 392.643 211.539 392.643 212.227V216.995H391.267V212.323C391.267 211.891 391.267 211.539 391.235 211.107C391.155 210.115 390.611 209.379 389.299 209.379C387.971 209.379 386.851 210.371 386.851 213.267V216.995H385.475V208.515H386.851V209.971L387.379 208.995C388.099 208.435 388.723 208.291 389.587 208.291C391.443 208.291 392.483 209.283 392.611 210.771ZM406.239 208.515L403.535 216.995H401.903L400.015 209.859L398.127 216.995H396.495L393.791 208.515H395.375L397.343 215.683L399.199 208.515H400.911L402.799 215.635L404.767 208.515H406.239ZM414.255 208.291C416.287 208.291 417.583 209.507 417.839 211.363H416.399C416.095 210.003 415.359 209.347 414.223 209.347C412.895 209.347 411.775 210.387 411.775 212.675C411.775 215.139 412.863 216.163 414.127 216.163C415.247 216.163 416.031 215.523 416.319 214.291H417.759C417.343 216.259 415.935 217.219 414.047 217.219C411.903 217.219 410.271 215.875 410.271 212.771C410.271 209.907 412.127 208.291 414.255 208.291ZM426.58 210.771C426.612 211.203 426.612 211.539 426.612 212.227V216.995H425.236V212.323C425.236 211.891 425.236 211.539 425.204 211.107C425.124 210.115 424.58 209.347 423.268 209.379C421.94 209.411 420.82 210.371 420.82 213.267V216.995H419.444V205.155H420.82V209.971L421.348 208.995C422.068 208.435 422.692 208.291 423.556 208.291C425.412 208.291 426.452 209.283 426.58 210.771ZM433.792 216.995L433.648 215.779L433.184 216.691C432.608 217.091 431.872 217.219 431.056 217.219C429.52 217.219 428.32 216.371 428.32 214.803C428.32 212.883 429.76 211.891 433.088 211.891H433.632V211.667C433.632 211.299 433.632 210.963 433.6 210.643C433.536 209.859 433.088 209.347 431.952 209.347C430.8 209.347 430.224 209.971 430.128 211.139H428.688C428.816 209.331 430.08 208.291 431.952 208.291C433.968 208.291 434.816 209.139 434.96 210.531C434.992 210.867 435.008 211.283 435.008 211.651V214.835C435.008 215.475 435.04 216.051 435.168 216.995H433.792ZM431.52 216.163C432.8 216.163 433.632 215.315 433.632 213.779V212.915C431.296 212.739 429.824 213.235 429.824 214.691C429.824 215.715 430.48 216.163 431.52 216.163ZM444.564 210.771C444.596 211.203 444.596 211.539 444.596 212.227V216.995H443.22V212.323C443.22 211.891 443.22 211.539 443.188 211.107C443.108 210.115 442.564 209.379 441.252 209.379C439.924 209.379 438.804 210.371 438.804 213.267V216.995H437.428V208.515H438.804V209.971L439.332 208.995C440.052 208.435 440.676 208.291 441.54 208.291C443.396 208.291 444.436 209.283 444.564 210.771ZM454.321 208.515V214.915C454.321 215.443 454.321 216.099 454.305 216.563C454.225 219.043 452.721 220.355 450.273 220.355C447.857 220.355 446.657 219.347 446.481 217.555L446.465 217.395H447.857L447.873 217.539C447.985 218.579 448.817 219.299 450.273 219.299C451.953 219.299 452.865 218.339 452.929 216.707C452.945 216.307 452.945 216.035 452.945 215.779V215.635L452.305 216.547C451.825 216.947 450.929 217.219 450.065 217.219C447.585 217.219 446.209 215.363 446.209 212.883C446.209 209.747 448.161 208.291 450.353 208.291C451.057 208.291 451.953 208.499 452.385 208.851L452.945 209.683V208.515H454.321ZM450.273 216.163C451.681 216.163 452.945 215.267 452.945 212.835V212.371C452.945 210.179 451.569 209.347 450.353 209.347C448.865 209.347 447.713 210.499 447.713 212.723C447.713 214.643 448.577 216.163 450.273 216.163ZM463.716 212.515C463.716 212.643 463.716 212.867 463.684 213.171H457.54C457.668 215.411 458.724 216.163 459.972 216.163C461.076 216.163 461.972 215.475 462.164 214.259H463.604C463.268 216.307 461.652 217.219 459.908 217.219C457.7 217.219 456.052 215.779 456.052 212.787C456.052 210.035 457.764 208.291 460.084 208.291C462.42 208.291 463.716 210.035 463.716 212.515ZM460.052 209.347C458.708 209.347 457.716 210.307 457.556 212.115H462.324C462.196 210.355 461.444 209.347 460.052 209.347ZM468.002 208.291C469.906 208.291 470.946 209.379 471.122 210.931H469.682C469.49 209.939 468.882 209.347 467.89 209.347C466.93 209.347 466.482 209.875 466.482 210.611C466.482 211.459 467.186 211.795 468.338 212.099C470.29 212.611 471.218 213.379 471.218 214.819C471.218 216.419 469.858 217.219 468.066 217.219C466.322 217.219 464.994 216.419 464.738 214.499H466.178C466.402 215.731 467.186 216.163 468.162 216.163C469.074 216.163 469.81 215.747 469.81 214.931C469.81 214.115 469.234 213.683 467.81 213.299C466.29 212.883 465.074 212.259 465.074 210.771C465.074 209.219 466.258 208.291 468.002 208.291ZM477.982 209.635V214.515C477.982 214.803 477.982 214.947 477.998 215.171C478.062 215.987 478.398 216.163 479.47 216.035V217.043C479.07 217.107 478.686 217.123 478.302 217.123C477.246 217.123 476.702 216.691 476.622 215.635C476.606 215.411 476.606 215.059 476.606 214.579V209.635H475.47V208.579H476.606V206.611H477.982V208.579H479.566V209.635H477.982ZM484.651 208.291C487.531 208.291 488.859 210.355 488.859 212.755C488.859 215.139 487.531 217.219 484.651 217.219C481.771 217.219 480.443 215.139 480.443 212.755C480.443 210.355 481.771 208.291 484.651 208.291ZM484.651 216.163C486.363 216.163 487.355 214.739 487.355 212.755C487.355 210.755 486.363 209.347 484.651 209.347C482.939 209.347 481.947 210.755 481.947 212.755C481.947 214.739 482.939 216.163 484.651 216.163ZM495.623 209.635V214.515C495.623 214.803 495.623 214.947 495.639 215.171C495.703 215.987 496.039 216.163 497.111 216.035V217.043C496.711 217.107 496.327 217.123 495.943 217.123C494.887 217.123 494.343 216.691 494.263 215.635C494.247 215.411 494.247 215.059 494.247 214.579V209.635H493.111V208.579H494.247V206.611H495.623V208.579H497.207V209.635H495.623ZM505.748 212.515C505.748 212.643 505.748 212.867 505.716 213.171H499.572C499.7 215.411 500.756 216.163 502.004 216.163C503.108 216.163 504.004 215.475 504.196 214.259H505.636C505.3 216.307 503.684 217.219 501.94 217.219C499.732 217.219 498.084 215.779 498.084 212.787C498.084 210.035 499.796 208.291 502.116 208.291C504.452 208.291 505.748 210.035 505.748 212.515ZM502.084 209.347C500.74 209.347 499.748 210.307 499.588 212.115H504.356C504.228 210.355 503.476 209.347 502.084 209.347ZM510.678 212.675L513.686 216.995H512.086L509.862 213.587L507.654 216.995H506.07L509.11 212.707L506.182 208.515H507.814L509.942 211.795L512.07 208.515H513.654L510.678 212.675ZM516.717 209.635V214.515C516.717 214.803 516.717 214.947 516.733 215.171C516.797 215.987 517.133 216.163 518.205 216.035V217.043C517.805 217.107 517.421 217.123 517.037 217.123C515.981 217.123 515.437 216.691 515.357 215.635C515.341 215.411 515.341 215.059 515.341 214.579V209.635H514.205V208.579H515.341V206.611H516.717V208.579H518.301V209.635H516.717ZM41.9755 227.731C42.4715 227.731 42.8555 228.115 42.8555 228.611C42.8555 229.107 42.4715 229.491 41.9755 229.491C41.4795 229.491 41.0955 229.107 41.0955 228.611C41.0955 228.115 41.4795 227.731 41.9755 227.731ZM42.6635 238.995H41.2875V230.515H42.6635V238.995ZM56.38 232.355C56.444 232.787 56.46 233.123 56.46 233.811V238.995H55.084V234.451C55.084 233.699 55.068 233.235 55.02 232.803C54.892 231.843 54.284 231.379 53.324 231.379C52.252 231.379 51.468 232.227 51.468 234.803V238.995H50.092V234.451C50.092 233.699 50.076 233.235 50.028 232.803C49.9 231.843 49.292 231.379 48.332 231.379C47.26 231.379 46.476 232.227 46.476 234.803V238.995H45.1V230.515H46.476V231.747L47.02 230.787C47.452 230.435 48.06 230.291 48.812 230.291C50.108 230.291 50.94 230.947 51.26 231.875L52.012 230.787C52.444 230.435 53.052 230.291 53.804 230.291C55.324 230.291 56.188 231.187 56.38 232.355ZM63.6515 238.995L63.5075 237.779L63.0435 238.691C62.4675 239.091 61.7315 239.219 60.9155 239.219C59.3795 239.219 58.1795 238.371 58.1795 236.803C58.1795 234.883 59.6195 233.891 62.9475 233.891H63.4915V233.667C63.4915 233.299 63.4915 232.963 63.4595 232.643C63.3955 231.859 62.9475 231.347 61.8115 231.347C60.6595 231.347 60.0835 231.971 59.9875 233.139H58.5475C58.6755 231.331 59.9395 230.291 61.8115 230.291C63.8275 230.291 64.6755 231.139 64.8195 232.531C64.8515 232.867 64.8675 233.283 64.8675 233.651V236.835C64.8675 237.475 64.8995 238.051 65.0275 238.995H63.6515ZM61.3795 238.163C62.6595 238.163 63.4915 237.315 63.4915 235.779V234.915C61.1555 234.739 59.6835 235.235 59.6835 236.691C59.6835 237.715 60.3395 238.163 61.3795 238.163ZM74.6955 230.515V236.915C74.6955 237.443 74.6955 238.099 74.6795 238.563C74.5995 241.043 73.0955 242.355 70.6475 242.355C68.2315 242.355 67.0315 241.347 66.8555 239.555L66.8395 239.395H68.2315L68.2475 239.539C68.3595 240.579 69.1915 241.299 70.6475 241.299C72.3275 241.299 73.2395 240.339 73.3035 238.707C73.3195 238.307 73.3195 238.035 73.3195 237.779V237.635L72.6795 238.547C72.1995 238.947 71.3035 239.219 70.4395 239.219C67.9595 239.219 66.5835 237.363 66.5835 234.883C66.5835 231.747 68.5355 230.291 70.7275 230.291C71.4315 230.291 72.3275 230.499 72.7595 230.851L73.3195 231.683V230.515H74.6955ZM70.6475 238.163C72.0555 238.163 73.3195 237.267 73.3195 234.835V234.371C73.3195 232.179 71.9435 231.347 70.7275 231.347C69.2395 231.347 68.0875 232.499 68.0875 234.723C68.0875 236.643 68.9515 238.163 70.6475 238.163ZM84.0913 234.515C84.0913 234.643 84.0913 234.867 84.0593 235.171H77.9153C78.0433 237.411 79.0993 238.163 80.3473 238.163C81.4513 238.163 82.3473 237.475 82.5393 236.259H83.9793C83.6433 238.307 82.0273 239.219 80.2833 239.219C78.0753 239.219 76.4273 237.779 76.4273 234.787C76.4273 232.035 78.1393 230.291 80.4593 230.291C82.7953 230.291 84.0913 232.035 84.0913 234.515ZM80.4273 231.347C79.0833 231.347 78.0913 232.307 77.9313 234.115H82.6993C82.5713 232.355 81.8193 231.347 80.4273 231.347ZM94.2296 238.995L94.0856 237.779L93.6216 238.691C93.0456 239.091 92.3096 239.219 91.4936 239.219C89.9576 239.219 88.7576 238.371 88.7576 236.803C88.7576 234.883 90.1976 233.891 93.5256 233.891H94.0696V233.667C94.0696 233.299 94.0696 232.963 94.0376 232.643C93.9736 231.859 93.5256 231.347 92.3896 231.347C91.2376 231.347 90.6616 231.971 90.5656 233.139H89.1256C89.2536 231.331 90.5176 230.291 92.3896 230.291C94.4056 230.291 95.2536 231.139 95.3976 232.531C95.4296 232.867 95.4456 233.283 95.4456 233.651V236.835C95.4456 237.475 95.4776 238.051 95.6056 238.995H94.2296ZM91.9576 238.163C93.2376 238.163 94.0696 237.315 94.0696 235.779V234.915C91.7336 234.739 90.2616 235.235 90.2616 236.691C90.2616 237.715 90.9176 238.163 91.9576 238.163ZM105.002 232.771C105.034 233.203 105.034 233.539 105.034 234.227V238.995H103.658V234.323C103.658 233.891 103.658 233.539 103.626 233.107C103.546 232.115 103.002 231.379 101.69 231.379C100.362 231.379 99.2416 232.371 99.2416 235.267V238.995H97.8656V230.515H99.2416V231.971L99.7696 230.995C100.49 230.435 101.114 230.291 101.978 230.291C103.834 230.291 104.874 231.283 105.002 232.771ZM114.758 227.235V238.995H113.382V237.635L112.742 238.547C112.262 238.947 111.366 239.219 110.502 239.219C108.022 239.219 106.646 237.363 106.646 234.883C106.646 231.747 108.598 230.291 110.79 230.291C111.494 230.291 112.39 230.499 112.822 230.851L113.382 231.683V227.235H114.758ZM110.71 238.163C112.118 238.163 113.382 237.267 113.382 234.835V234.371C113.382 232.179 112.006 231.347 110.79 231.347C109.302 231.347 108.15 232.499 108.15 234.723C108.15 236.643 109.014 238.163 110.71 238.163ZM121.959 227.235V236.563C121.959 236.819 121.959 237.091 121.975 237.363C122.007 237.907 122.263 238.083 123.015 238.003V238.995C122.711 239.043 122.359 239.059 122.039 239.059C121.239 239.059 120.647 238.803 120.599 237.731C120.583 237.443 120.583 237.075 120.583 236.611V227.235H121.959ZM129.745 238.995L129.601 237.779L129.137 238.691C128.561 239.091 127.825 239.219 127.009 239.219C125.473 239.219 124.273 238.371 124.273 236.803C124.273 234.883 125.713 233.891 129.041 233.891H129.585V233.667C129.585 233.299 129.585 232.963 129.553 232.643C129.489 231.859 129.041 231.347 127.905 231.347C126.753 231.347 126.177 231.971 126.081 233.139H124.641C124.769 231.331 126.033 230.291 127.905 230.291C129.921 230.291 130.769 231.139 130.913 232.531C130.945 232.867 130.961 233.283 130.961 233.651V236.835C130.961 237.475 130.993 238.051 131.121 238.995H129.745ZM127.473 238.163C128.753 238.163 129.585 237.315 129.585 235.779V234.915C127.249 234.739 125.777 235.235 125.777 236.691C125.777 237.715 126.433 238.163 127.473 238.163ZM140.309 230.515L136.821 239.715C136.133 241.507 135.221 242.355 133.845 242.355C133.541 242.355 133.349 242.355 133.141 242.323V241.203C133.349 241.219 133.493 241.219 133.637 241.219C134.485 241.219 135.045 240.851 135.477 239.731L135.589 239.427L132.213 230.515H133.765L136.293 237.971L138.805 230.515H140.309ZM144.963 230.291C147.843 230.291 149.171 232.355 149.171 234.755C149.171 237.139 147.843 239.219 144.963 239.219C142.083 239.219 140.755 237.139 140.755 234.755C140.755 232.355 142.083 230.291 144.963 230.291ZM144.963 238.163C146.675 238.163 147.667 236.739 147.667 234.755C147.667 232.755 146.675 231.347 144.963 231.347C143.251 231.347 142.259 232.755 142.259 234.755C142.259 236.739 143.251 238.163 144.963 238.163ZM157.874 230.515V238.995H156.498V237.555L155.97 238.547C155.25 239.075 154.626 239.219 153.762 239.219C152.002 239.219 150.978 238.227 150.786 237.059C150.722 236.627 150.706 236.291 150.706 235.603V230.515H152.082V235.347C152.082 235.619 152.098 236.083 152.146 236.515C152.274 237.475 152.962 238.131 154.114 238.131C155.442 238.131 156.498 237.139 156.498 234.243V230.515H157.874ZM161.951 231.635V236.515C161.951 236.803 161.951 236.947 161.967 237.171C162.031 237.987 162.367 238.163 163.439 238.035V239.043C163.039 239.107 162.655 239.123 162.271 239.123C161.215 239.123 160.671 238.691 160.591 237.635C160.575 237.411 160.575 237.059 160.575 236.579V231.635H159.439V230.579H160.575V228.611H161.951V230.579H163.535V231.635H161.951ZM165.751 237.171C166.343 237.171 166.775 237.603 166.775 238.195C166.775 238.787 166.343 239.219 165.751 239.219C165.159 239.219 164.727 238.787 164.727 238.195C164.727 237.603 165.159 237.171 165.751 237.171Z" fill="#000103" fill-opacity="0.7"/>
<path d="M332 614.5C332.276 614.5 332.5 614.276 332.5 614C332.5 613.724 332.276 613.5 332 613.5V614.5ZM165 614.5H332V613.5H165V614.5Z" fill="url(#paint0_linear_515_290)" fill-opacity="0.5"/>
<path d="M348 487.5C348.276 487.5 348.5 487.276 348.5 487C348.5 486.724 348.276 486.5 348 486.5V487.5ZM181 487.5H348V486.5H181V487.5Z" fill="url(#paint1_linear_515_290)" fill-opacity="0.5"/>
<path d="M209 487.5C208.724 487.5 208.5 487.276 208.5 487C208.5 486.724 208.724 486.5 209 486.5V487.5ZM376 487.5H209V486.5H376V487.5Z" fill="url(#paint2_linear_515_290)" fill-opacity="0.5"/>
<g opacity="0.4">
<path d="M215.5 504C215.776 504 216 503.776 216 503.5C216 503.224 215.776 503 215.5 503V504ZM48.5 504H215.5V503H48.5V504Z" fill="url(#paint3_linear_515_290)" fill-opacity="0.5"/>
<path d="M287 527.5C287.276 527.5 287.5 527.276 287.5 527C287.5 526.724 287.276 526.5 287 526.5V527.5ZM120 527.5H287V526.5H120V527.5Z" fill="url(#paint4_linear_515_290)" fill-opacity="0.5"/>
<path d="M525 586.5C525.276 586.5 525.5 586.276 525.5 586C525.5 585.724 525.276 585.5 525 585.5V586.5ZM358 586.5H525V585.5H358V586.5Z" fill="url(#paint5_linear_515_290)" fill-opacity="0.5"/>
<path d="M608 563.5C608.276 563.5 608.5 563.276 608.5 563C608.5 562.724 608.276 562.5 608 562.5V563.5ZM441 563.5H608V562.5H441V563.5Z" fill="url(#paint6_linear_515_290)" fill-opacity="0.5"/>
<path d="M100 563.5C100.276 563.5 100.5 563.276 100.5 563C100.5 562.724 100.276 562.5 100 562.5V563.5ZM-67 563.5H100V562.5H-67V563.5Z" fill="url(#paint7_linear_515_290)" fill-opacity="0.5"/>
<path d="M248 586.5C248.276 586.5 248.5 586.276 248.5 586C248.5 585.724 248.276 585.5 248 585.5V586.5ZM81 586.5H248V585.5H81V586.5Z" fill="url(#paint8_linear_515_290)" fill-opacity="0.5"/>
<path d="M316 557.5C316.276 557.5 316.5 557.276 316.5 557C316.5 556.724 316.276 556.5 316 556.5V557.5ZM149 557.5H316V556.5H149V557.5Z" fill="url(#paint9_linear_515_290)" fill-opacity="0.5"/>
<path d="M464 535.5C464.276 535.5 464.5 535.276 464.5 535C464.5 534.724 464.276 534.5 464 534.5V535.5ZM297 535.5H464V534.5H297V535.5Z" fill="url(#paint10_linear_515_290)" fill-opacity="0.5"/>
<path d="M585 614.5C585.276 614.5 585.5 614.276 585.5 614C585.5 613.724 585.276 613.5 585 613.5V614.5ZM418 614.5H585V613.5H418V614.5Z" fill="url(#paint11_linear_515_290)" fill-opacity="0.5"/>
<path d="M502 504.5C502.276 504.5 502.5 504.276 502.5 504C502.5 503.724 502.276 503.5 502 503.5V504.5ZM335 504.5H502V503.5H335V504.5Z" fill="url(#paint12_linear_515_290)" fill-opacity="0.5"/>
<path d="M592 487.5C592.276 487.5 592.5 487.276 592.5 487C592.5 486.724 592.276 486.5 592 486.5V487.5ZM425 487.5H592V486.5H425V487.5Z" fill="url(#paint13_linear_515_290)" fill-opacity="0.5"/>
<path d="M325.5 631C325.224 631 325 630.776 325 630.5C325 630.224 325.224 630 325.5 630V631ZM492.5 631H325.5V630H492.5V631Z" fill="url(#paint14_linear_515_290)" fill-opacity="0.5"/>
<path d="M254 654.5C253.724 654.5 253.5 654.276 253.5 654C253.5 653.724 253.724 653.5 254 653.5V654.5ZM421 654.5H254V653.5H421V654.5Z" fill="url(#paint15_linear_515_290)" fill-opacity="0.5"/>
<path d="M16 713.5C15.7239 713.5 15.5 713.276 15.5 713C15.5 712.724 15.7239 712.5 16 712.5V713.5ZM183 713.5H16V712.5H183V713.5Z" fill="url(#paint16_linear_515_290)" fill-opacity="0.5"/>
<path d="M-67 690.5C-67.2761 690.5 -67.5 690.276 -67.5 690C-67.5 689.724 -67.2761 689.5 -67 689.5V690.5ZM100 690.5H-67V689.5H100V690.5Z" fill="url(#paint17_linear_515_290)" fill-opacity="0.5"/>
<path d="M441 690.5C440.724 690.5 440.5 690.276 440.5 690C440.5 689.724 440.724 689.5 441 689.5V690.5ZM608 690.5H441V689.5H608V690.5Z" fill="url(#paint18_linear_515_290)" fill-opacity="0.5"/>
<path d="M293 713.5C292.724 713.5 292.5 713.276 292.5 713C292.5 712.724 292.724 712.5 293 712.5V713.5ZM460 713.5H293V712.5H460V713.5Z" fill="url(#paint19_linear_515_290)" fill-opacity="0.5"/>
<path d="M225 684.5C224.724 684.5 224.5 684.276 224.5 684C224.5 683.724 224.724 683.5 225 683.5V684.5ZM392 684.5H225V683.5H392V684.5Z" fill="url(#paint20_linear_515_290)" fill-opacity="0.5"/>
<path d="M193 614.5C192.724 614.5 192.5 614.276 192.5 614C192.5 613.724 192.724 613.5 193 613.5V614.5ZM360 614.5H193V613.5H360V614.5Z" fill="url(#paint21_linear_515_290)" fill-opacity="0.5"/>
<path d="M77 662.5C76.7239 662.5 76.5 662.276 76.5 662C76.5 661.724 76.7239 661.5 77 661.5V662.5ZM244 662.5H77V661.5H244V662.5Z" fill="url(#paint22_linear_515_290)" fill-opacity="0.5"/>
<path d="M39 631.5C38.7239 631.5 38.5 631.276 38.5 631C38.5 630.724 38.7239 630.5 39 630.5V631.5ZM206 631.5H39V630.5H206V631.5Z" fill="url(#paint23_linear_515_290)" fill-opacity="0.5"/>
<path d="M-51 614.5C-51.2761 614.5 -51.5 614.276 -51.5 614C-51.5 613.724 -51.2761 613.5 -51 613.5V614.5ZM116 614.5H-51V613.5H116V614.5Z" fill="url(#paint24_linear_515_290)" fill-opacity="0.5"/>
<path d="M325.5 377C325.224 377 325 376.776 325 376.5C325 376.224 325.224 376 325.5 376V377ZM492.5 377H325.5V376H492.5V377Z" fill="url(#paint25_linear_515_290)" fill-opacity="0.5"/>
<path d="M254 400.5C253.724 400.5 253.5 400.276 253.5 400C253.5 399.724 253.724 399.5 254 399.5V400.5ZM421 400.5H254V399.5H421V400.5Z" fill="url(#paint26_linear_515_290)" fill-opacity="0.5"/>
<path d="M16 459.5C15.7239 459.5 15.5 459.276 15.5 459C15.5 458.724 15.7239 458.5 16 458.5V459.5ZM183 459.5H16V458.5H183V459.5Z" fill="url(#paint27_linear_515_290)" fill-opacity="0.5"/>
<path d="M-67 436.5C-67.2761 436.5 -67.5 436.276 -67.5 436C-67.5 435.724 -67.2761 435.5 -67 435.5V436.5ZM100 436.5H-67V435.5H100V436.5Z" fill="url(#paint28_linear_515_290)" fill-opacity="0.5"/>
<path d="M441 436.5C440.724 436.5 440.5 436.276 440.5 436C440.5 435.724 440.724 435.5 441 435.5V436.5ZM608 436.5H441V435.5H608V436.5Z" fill="url(#paint29_linear_515_290)" fill-opacity="0.5"/>
<path d="M293 459.5C292.724 459.5 292.5 459.276 292.5 459C292.5 458.724 292.724 458.5 293 458.5V459.5ZM460 459.5H293V458.5H460V459.5Z" fill="url(#paint30_linear_515_290)" fill-opacity="0.5"/>
<path d="M225 430.5C224.724 430.5 224.5 430.276 224.5 430C224.5 429.724 224.724 429.5 225 429.5V430.5ZM392 430.5H225V429.5H392V430.5Z" fill="url(#paint31_linear_515_290)" fill-opacity="0.5"/>
<path d="M193 360.5C192.724 360.5 192.5 360.276 192.5 360C192.5 359.724 192.724 359.5 193 359.5V360.5ZM360 360.5H193V359.5H360V360.5Z" fill="url(#paint32_linear_515_290)" fill-opacity="0.5"/>
<path d="M77 408.5C76.7239 408.5 76.5 408.276 76.5 408C76.5 407.724 76.7239 407.5 77 407.5V408.5ZM244 408.5H77V407.5H244V408.5Z" fill="url(#paint33_linear_515_290)" fill-opacity="0.5"/>
<path d="M-44 487.5C-44.2761 487.5 -44.5 487.276 -44.5 487C-44.5 486.724 -44.2761 486.5 -44 486.5V487.5ZM123 487.5H-44V486.5H123V487.5Z" fill="url(#paint34_linear_515_290)" fill-opacity="0.5"/>
<path d="M39 377.5C38.7239 377.5 38.5 377.276 38.5 377C38.5 376.724 38.7239 376.5 39 376.5V377.5ZM206 377.5H39V376.5H206V377.5Z" fill="url(#paint35_linear_515_290)" fill-opacity="0.5"/>
</g>
<path d="M-51 360.5C-51.2761 360.5 -51.5 360.276 -51.5 360C-51.5 359.724 -51.2761 359.5 -51 359.5V360.5ZM116 360.5H-51V359.5H116V360.5Z" fill="url(#paint36_linear_515_290)" fill-opacity="0.5"/>
<line x1="192.5" y1="366.5" x2="192.5" y2="463.5" stroke="url(#paint37_linear_515_290)" stroke-linecap="round"/>
<g filter="url(#filter0_d_515_290)">
<rect x="203" y="499" width="164" height="56" rx="8" fill="white" shape-rendering="crispEdges"/>
<rect x="203.5" y="499.5" width="163" height="55" rx="7.5" stroke="#0030AD" shape-rendering="crispEdges"/>
<path fill-rule="evenodd" clip-rule="evenodd" d="M236.133 528.973H231.657C231.506 528.973 231.358 528.921 231.241 528.825C230.96 528.595 230.919 528.181 231.149 527.9L239.978 517.107C240.147 516.901 240.425 516.817 240.68 516.895C241.027 517.002 241.222 517.37 241.115 517.717L238.866 525.029H243.343C243.494 525.029 243.642 525.081 243.759 525.177C244.04 525.407 244.081 525.821 243.851 526.102L235.021 536.893C234.852 537.1 234.574 537.183 234.319 537.105C233.972 536.998 233.777 536.631 233.884 536.284L236.133 528.973Z" fill="#0030AD"/>
<path d="M261.424 529.716C261.568 531.06 261.776 531.876 262.224 532.5H259.808C259.536 531.748 259.376 531.076 259.264 530.036C259.12 528.852 258.672 528.132 257.776 528.068C257.472 528.052 257.2 528.052 256.912 528.052H255.632V532.5H253.424V521.46H257.456C258.096 521.46 258.512 521.476 259.056 521.54C260.656 521.732 261.952 522.564 261.952 524.468C261.952 525.892 261.104 526.788 259.792 527.156C260.88 527.572 261.296 528.484 261.424 529.716ZM255.632 526.404H257.152C257.536 526.404 257.808 526.404 258.048 526.388C258.928 526.308 259.632 525.876 259.632 524.804C259.632 523.732 259.04 523.348 258.176 523.236C257.92 523.204 257.648 523.188 257.248 523.188H255.632V526.404ZM271.045 528.068C271.045 528.276 271.045 528.532 271.013 528.82H264.965C265.109 530.612 265.909 531.172 266.933 531.172C267.877 531.172 268.565 530.644 268.709 529.732H270.917C270.485 531.716 268.885 532.724 266.885 532.724C264.549 532.724 262.741 531.268 262.741 528.276C262.741 525.668 264.453 523.764 267.061 523.764C269.669 523.764 271.045 525.748 271.045 528.068ZM266.965 525.316C265.941 525.316 265.221 525.972 265.029 527.38H268.773C268.629 526.036 268.021 525.316 266.965 525.316ZM280.679 523.988V530.372C280.679 530.9 280.679 531.556 280.663 532.02C280.567 534.676 278.839 535.956 276.151 535.956C273.655 535.956 272.263 534.916 272.071 533.044L272.055 532.884H274.199L274.215 533.028C274.311 533.812 275.047 534.308 276.183 534.308C277.543 534.308 278.375 533.62 278.455 532.26C278.471 531.94 278.471 531.588 278.471 531.22V531.012L277.831 531.956C277.351 532.324 276.583 532.548 275.719 532.548C273.319 532.548 271.831 530.836 271.831 528.34C271.831 525.252 273.719 523.764 275.911 523.764C276.615 523.764 277.479 523.94 277.911 524.244L278.471 525.124V523.988H280.679ZM276.263 530.996C277.479 530.996 278.471 530.244 278.471 528.164V527.924C278.471 526.004 277.367 525.316 276.343 525.316C275.063 525.316 274.119 526.196 274.119 528.148C274.119 529.892 274.951 530.996 276.263 530.996ZM290.287 528.068C290.287 528.276 290.287 528.532 290.255 528.82H284.207C284.351 530.612 285.151 531.172 286.175 531.172C287.119 531.172 287.807 530.644 287.951 529.732H290.159C289.727 531.716 288.127 532.724 286.127 532.724C283.791 532.724 281.983 531.268 281.983 528.276C281.983 525.668 283.695 523.764 286.303 523.764C288.911 523.764 290.287 525.748 290.287 528.068ZM286.207 525.316C285.183 525.316 284.463 525.972 284.271 527.38H288.015C287.871 526.036 287.263 525.316 286.207 525.316ZM299.585 526.148C299.633 526.58 299.649 527.012 299.649 527.7V532.5H297.441V528.004C297.441 527.652 297.441 527.252 297.409 526.82C297.345 525.924 296.849 525.316 295.777 525.316C294.705 525.316 293.857 526.244 293.857 528.612V532.5H291.649V523.988H293.857V525.364L294.513 524.356C295.121 523.924 295.745 523.764 296.561 523.764C298.369 523.764 299.409 524.66 299.585 526.148ZM309.155 528.068C309.155 528.276 309.155 528.532 309.123 528.82H303.075C303.219 530.612 304.019 531.172 305.043 531.172C305.987 531.172 306.675 530.644 306.819 529.732H309.027C308.595 531.716 306.995 532.724 304.995 532.724C302.659 532.724 300.851 531.268 300.851 528.276C300.851 525.668 302.563 523.764 305.171 523.764C307.779 523.764 309.155 525.748 309.155 528.068ZM305.075 525.316C304.051 525.316 303.331 525.972 303.139 527.38H306.883C306.739 526.036 306.131 525.316 305.075 525.316ZM314.853 523.78C315.109 523.78 315.285 523.796 315.477 523.844V525.62C313.637 525.492 312.725 526.308 312.725 528.596V532.5H310.517V523.988H312.725V525.54L313.397 524.356C313.813 523.972 314.373 523.78 314.853 523.78ZM321.379 532.5L321.219 531.252L320.803 532.164C320.211 532.564 319.491 532.724 318.691 532.724C317.219 532.724 315.955 531.86 315.955 530.244C315.955 528.372 317.555 527.316 320.643 527.316H321.187V527.14C321.187 526.884 321.187 526.628 321.155 526.34C321.091 525.748 320.707 525.316 319.843 525.316C318.963 525.316 318.483 525.828 318.419 526.756L316.275 526.772C316.339 524.852 317.891 523.764 319.923 523.764C322.307 523.764 323.203 524.804 323.331 526.276C323.363 526.676 323.379 527.124 323.379 527.588V530.34C323.379 530.98 323.411 531.556 323.539 532.5H321.379ZM319.539 531.172C320.435 531.172 321.187 530.548 321.187 529.364V528.676C319.427 528.548 318.243 528.948 318.243 530.068C318.243 530.82 318.755 531.172 319.539 531.172ZM327.899 525.508V529.444C327.899 529.732 327.899 529.972 327.915 530.196C327.979 531.028 328.283 531.22 329.515 531.124V532.564C329.019 532.644 328.555 532.676 328.059 532.676C326.411 532.676 325.819 532.132 325.723 530.932C325.691 530.548 325.691 530.18 325.691 529.7V525.508H324.443V524.052H325.691V521.956H327.899V524.052H329.659V525.508H327.899ZM338.468 528.068C338.468 528.276 338.468 528.532 338.436 528.82H332.388C332.532 530.612 333.332 531.172 334.356 531.172C335.3 531.172 335.988 530.644 336.132 529.732H338.34C337.908 531.716 336.308 532.724 334.308 532.724C331.972 532.724 330.164 531.268 330.164 528.276C330.164 525.668 331.876 523.764 334.484 523.764C337.092 523.764 338.468 525.748 338.468 528.068ZM334.388 525.316C333.364 525.316 332.644 525.972 332.452 527.38H336.196C336.052 526.036 335.444 525.316 334.388 525.316Z" fill="#0030AD"/>
</g>
</g>
<defs>
<filter id="filter0_d_515_290" x="174" y="477" width="222" height="114" filterUnits="userSpaceOnUse" color-interpolation-filters="sRGB">
<feFlood flood-opacity="0" result="BackgroundImageFix"/>
<feColorMatrix in="SourceAlpha" type="matrix" values="0 0 0 0 0 0 0 0 0 0 0 0 0 0 0 0 0 0 127 0" result="hardAlpha"/>
<feOffset dy="7"/>
<feGaussianBlur stdDeviation="14.5"/>
<feComposite in2="hardAlpha" operator="out"/>
<feColorMatrix type="matrix" values="0 0 0 0 0 0 0 0 0 0 0 0 0 0 0 0 0 0 0.04 0"/>
<feBlend mode="normal" in2="BackgroundImageFix" result="effect1_dropShadow_515_290"/>
<feBlend mode="normal" in="SourceGraphic" in2="effect1_dropShadow_515_290" result="shape"/>
</filter>
<linearGradient id="paint0_linear_515_290" x1="332.5" y1="614.501" x2="169" y2="613.5" gradientUnits="userSpaceOnUse">
<stop stop-color="#0030AD"/>
<stop offset="1" stop-color="#0030AD" stop-opacity="0"/>
</linearGradient>
<linearGradient id="paint1_linear_515_290" x1="348.5" y1="487.501" x2="185" y2="486.5" gradientUnits="userSpaceOnUse">
<stop stop-color="#0030AD"/>
<stop offset="1" stop-color="#0030AD" stop-opacity="0"/>
</linearGradient>
<linearGradient id="paint2_linear_515_290" x1="208.5" y1="487.501" x2="372" y2="486.5" gradientUnits="userSpaceOnUse">
<stop stop-color="#0030AD"/>
<stop offset="1" stop-color="#0030AD" stop-opacity="0"/>
</linearGradient>
<linearGradient id="paint3_linear_515_290" x1="216" y1="504.001" x2="52.5" y2="503" gradientUnits="userSpaceOnUse">
<stop stop-color="#0030AD"/>
<stop offset="1" stop-color="#0030AD" stop-opacity="0"/>
</linearGradient>
<linearGradient id="paint4_linear_515_290" x1="287.5" y1="527.501" x2="124" y2="526.5" gradientUnits="userSpaceOnUse">
<stop stop-color="#0030AD"/>
<stop offset="1" stop-color="#0030AD" stop-opacity="0"/>
</linearGradient>
<linearGradient id="paint5_linear_515_290" x1="525.5" y1="586.501" x2="362" y2="585.5" gradientUnits="userSpaceOnUse">
<stop stop-color="#0030AD"/>
<stop offset="1" stop-color="#0030AD" stop-opacity="0"/>
</linearGradient>
<linearGradient id="paint6_linear_515_290" x1="608.5" y1="563.501" x2="445" y2="562.5" gradientUnits="userSpaceOnUse">
<stop stop-color="#0030AD"/>
<stop offset="1" stop-color="#0030AD" stop-opacity="0"/>
</linearGradient>
<linearGradient id="paint7_linear_515_290" x1="100.5" y1="563.501" x2="-63" y2="562.5" gradientUnits="userSpaceOnUse">
<stop stop-color="#0030AD"/>
<stop offset="1" stop-color="#0030AD" stop-opacity="0"/>
</linearGradient>
<linearGradient id="paint8_linear_515_290" x1="248.5" y1="586.501" x2="85" y2="585.5" gradientUnits="userSpaceOnUse">
<stop stop-color="#0030AD"/>
<stop offset="1" stop-color="#0030AD" stop-opacity="0"/>
</linearGradient>
<linearGradient id="paint9_linear_515_290" x1="316.5" y1="557.501" x2="153" y2="556.5" gradientUnits="userSpaceOnUse">
<stop stop-color="#0030AD"/>
<stop offset="1" stop-color="#0030AD" stop-opacity="0"/>
</linearGradient>
<linearGradient id="paint10_linear_515_290" x1="464.5" y1="535.501" x2="301" y2="534.5" gradientUnits="userSpaceOnUse">
<stop stop-color="#0030AD"/>
<stop offset="1" stop-color="#0030AD" stop-opacity="0"/>
</linearGradient>
<linearGradient id="paint11_linear_515_290" x1="585.5" y1="614.501" x2="422" y2="613.5" gradientUnits="userSpaceOnUse">
<stop stop-color="#0030AD"/>
<stop offset="1" stop-color="#0030AD" stop-opacity="0"/>
</linearGradient>
<linearGradient id="paint12_linear_515_290" x1="502.5" y1="504.501" x2="339" y2="503.5" gradientUnits="userSpaceOnUse">
<stop stop-color="#0030AD"/>
<stop offset="1" stop-color="#0030AD" stop-opacity="0"/>
</linearGradient>
<linearGradient id="paint13_linear_515_290" x1="592.5" y1="487.501" x2="429" y2="486.5" gradientUnits="userSpaceOnUse">
<stop stop-color="#0030AD"/>
<stop offset="1" stop-color="#0030AD" stop-opacity="0"/>
</linearGradient>
<linearGradient id="paint14_linear_515_290" x1="325" y1="631.001" x2="488.5" y2="630" gradientUnits="userSpaceOnUse">
<stop stop-color="#0030AD"/>
<stop offset="1" stop-color="#0030AD" stop-opacity="0"/>
</linearGradient>
<linearGradient id="paint15_linear_515_290" x1="253.5" y1="654.501" x2="417" y2="653.5" gradientUnits="userSpaceOnUse">
<stop stop-color="#0030AD"/>
<stop offset="1" stop-color="#0030AD" stop-opacity="0"/>
</linearGradient>
<linearGradient id="paint16_linear_515_290" x1="15.5" y1="713.501" x2="179" y2="712.5" gradientUnits="userSpaceOnUse">
<stop stop-color="#0030AD"/>
<stop offset="1" stop-color="#0030AD" stop-opacity="0"/>
</linearGradient>
<linearGradient id="paint17_linear_515_290" x1="-67.5" y1="690.501" x2="96" y2="689.5" gradientUnits="userSpaceOnUse">
<stop stop-color="#0030AD"/>
<stop offset="1" stop-color="#0030AD" stop-opacity="0"/>
</linearGradient>
<linearGradient id="paint18_linear_515_290" x1="440.5" y1="690.501" x2="604" y2="689.5" gradientUnits="userSpaceOnUse">
<stop stop-color="#0030AD"/>
<stop offset="1" stop-color="#0030AD" stop-opacity="0"/>
</linearGradient>
<linearGradient id="paint19_linear_515_290" x1="292.5" y1="713.501" x2="456" y2="712.5" gradientUnits="userSpaceOnUse">
<stop stop-color="#0030AD"/>
<stop offset="1" stop-color="#0030AD" stop-opacity="0"/>
</linearGradient>
<linearGradient id="paint20_linear_515_290" x1="224.5" y1="684.501" x2="388" y2="683.5" gradientUnits="userSpaceOnUse">
<stop stop-color="#0030AD"/>
<stop offset="1" stop-color="#0030AD" stop-opacity="0"/>
</linearGradient>
<linearGradient id="paint21_linear_515_290" x1="192.5" y1="614.501" x2="356" y2="613.5" gradientUnits="userSpaceOnUse">
<stop stop-color="#0030AD"/>
<stop offset="1" stop-color="#0030AD" stop-opacity="0"/>
</linearGradient>
<linearGradient id="paint22_linear_515_290" x1="76.5" y1="662.501" x2="240" y2="661.5" gradientUnits="userSpaceOnUse">
<stop stop-color="#0030AD"/>
<stop offset="1" stop-color="#0030AD" stop-opacity="0"/>
</linearGradient>
<linearGradient id="paint23_linear_515_290" x1="38.5" y1="631.501" x2="202" y2="630.5" gradientUnits="userSpaceOnUse">
<stop stop-color="#0030AD"/>
<stop offset="1" stop-color="#0030AD" stop-opacity="0"/>
</linearGradient>
<linearGradient id="paint24_linear_515_290" x1="-51.5" y1="614.501" x2="112" y2="613.5" gradientUnits="userSpaceOnUse">
<stop stop-color="#0030AD"/>
<stop offset="1" stop-color="#0030AD" stop-opacity="0"/>
</linearGradient>
<linearGradient id="paint25_linear_515_290" x1="325" y1="377.001" x2="488.5" y2="376" gradientUnits="userSpaceOnUse">
<stop stop-color="#0030AD"/>
<stop offset="1" stop-color="#0030AD" stop-opacity="0"/>
</linearGradient>
<linearGradient id="paint26_linear_515_290" x1="253.5" y1="400.501" x2="417" y2="399.5" gradientUnits="userSpaceOnUse">
<stop stop-color="#0030AD"/>
<stop offset="1" stop-color="#0030AD" stop-opacity="0"/>
</linearGradient>
<linearGradient id="paint27_linear_515_290" x1="15.5" y1="459.501" x2="179" y2="458.5" gradientUnits="userSpaceOnUse">
<stop stop-color="#0030AD"/>
<stop offset="1" stop-color="#0030AD" stop-opacity="0"/>
</linearGradient>
<linearGradient id="paint28_linear_515_290" x1="-67.5" y1="436.501" x2="96" y2="435.5" gradientUnits="userSpaceOnUse">
<stop stop-color="#0030AD"/>
<stop offset="1" stop-color="#0030AD" stop-opacity="0"/>
</linearGradient>
<linearGradient id="paint29_linear_515_290" x1="440.5" y1="436.501" x2="604" y2="435.5" gradientUnits="userSpaceOnUse">
<stop stop-color="#0030AD"/>
<stop offset="1" stop-color="#0030AD" stop-opacity="0"/>
</linearGradient>
<linearGradient id="paint30_linear_515_290" x1="292.5" y1="459.501" x2="456" y2="458.5" gradientUnits="userSpaceOnUse">
<stop stop-color="#0030AD"/>
<stop offset="1" stop-color="#0030AD" stop-opacity="0"/>
</linearGradient>
<linearGradient id="paint31_linear_515_290" x1="224.5" y1="430.501" x2="388" y2="429.5" gradientUnits="userSpaceOnUse">
<stop stop-color="#0030AD"/>
<stop offset="1" stop-color="#0030AD" stop-opacity="0"/>
</linearGradient>
<linearGradient id="paint32_linear_515_290" x1="192.5" y1="360.501" x2="356" y2="359.5" gradientUnits="userSpaceOnUse">
<stop stop-color="#0030AD"/>
<stop offset="1" stop-color="#0030AD" stop-opacity="0"/>
</linearGradient>
<linearGradient id="paint33_linear_515_290" x1="76.5" y1="408.501" x2="240" y2="407.5" gradientUnits="userSpaceOnUse">
<stop stop-color="#0030AD"/>
<stop offset="1" stop-color="#0030AD" stop-opacity="0"/>
</linearGradient>
<linearGradient id="paint34_linear_515_290" x1="-44.5" y1="487.501" x2="119" y2="486.5" gradientUnits="userSpaceOnUse">
<stop stop-color="#0030AD"/>
<stop offset="1" stop-color="#0030AD" stop-opacity="0"/>
</linearGradient>
<linearGradient id="paint35_linear_515_290" x1="38.5" y1="377.501" x2="202" y2="376.5" gradientUnits="userSpaceOnUse">
<stop stop-color="#0030AD"/>
<stop offset="1" stop-color="#0030AD" stop-opacity="0"/>
</linearGradient>
<linearGradient id="paint36_linear_515_290" x1="-51.5" y1="360.501" x2="112" y2="359.5" gradientUnits="userSpaceOnUse">
<stop stop-color="#0030AD"/>
<stop offset="1" stop-color="#0030AD" stop-opacity="0"/>
</linearGradient>
<linearGradient id="paint37_linear_515_290" x1="192.434" y1="463.795" x2="191.802" y2="368.61" gradientUnits="userSpaceOnUse">
<stop stop-color="white" stop-opacity="0.5"/>
<stop offset="1" stop-color="white" stop-opacity="0"/>
</linearGradient>
<clipPath id="clip0_515_290">
<rect width="570" height="728" rx="18.6885" fill="white"/>
</clipPath>
</defs>
</svg>
