<svg width="570" height="623" viewBox="0 0 570 623" fill="none" xmlns="http://www.w3.org/2000/svg">
<g clip-path="url(#clip0_289_124)">
<rect width="570" height="622.951" rx="18.6885" fill="#0D1326"/>
<path d="M44.2375 44.848C46.3825 44.848 47.3575 46.07 47.5525 47.669H45.7195C45.6155 46.759 45.1085 46.187 44.1725 46.187C43.4575 46.187 42.9115 46.525 42.9115 47.253C42.9115 48.007 43.3925 48.384 44.8225 48.722C46.7985 49.177 47.6825 50.087 47.6825 51.53C47.6825 53.22 46.1355 54.182 44.3675 54.182C42.2225 54.182 40.8185 53.233 40.6495 51.348H42.4825C42.6775 52.336 43.4315 52.843 44.3415 52.843C45.1605 52.843 45.8105 52.401 45.8105 51.712C45.8105 50.958 45.3425 50.516 44.0165 50.204C42.1835 49.762 41.0265 49.125 41.0265 47.474C41.0265 45.823 42.5215 44.848 44.2375 44.848ZM55.1107 50.399C55.1107 50.568 55.1107 50.776 55.0847 51.01H50.1707C50.2877 52.466 50.9377 52.921 51.7697 52.921C52.5367 52.921 53.0957 52.492 53.2127 51.751H55.0067C54.6557 53.363 53.3557 54.182 51.7307 54.182C49.8327 54.182 48.3637 52.999 48.3637 50.568C48.3637 48.449 49.7547 46.902 51.8737 46.902C53.9927 46.902 55.1107 48.514 55.1107 50.399ZM51.7957 48.163C50.9637 48.163 50.3787 48.696 50.2227 49.84H53.2647C53.1477 48.748 52.6537 48.163 51.7957 48.163ZM59.3373 46.902C61.2093 46.902 62.3663 48.046 62.4963 49.58H60.7283C60.5593 48.579 60.0393 48.163 59.2983 48.163C58.3883 48.163 57.7383 48.904 57.7383 50.477C57.7383 52.193 58.3883 52.921 59.2853 52.921C59.9873 52.921 60.5073 52.479 60.6893 51.608H62.4833C62.1843 53.311 60.9103 54.182 59.1813 54.182C57.2963 54.182 55.8793 52.986 55.8793 50.594C55.8793 48.228 57.4393 46.902 59.3373 46.902ZM70.0174 47.084V54H68.2234V52.83L67.6904 53.714C67.1834 54.052 66.6894 54.182 66.0264 54.182C64.5964 54.182 63.7384 53.376 63.5824 52.427C63.5304 52.076 63.5174 51.725 63.5174 51.166V47.084H65.3114V50.789C65.3114 51.01 65.3244 51.387 65.3634 51.738C65.4544 52.453 65.8704 52.908 66.7024 52.908C67.5994 52.908 68.2234 52.167 68.2234 50.607V47.084H70.0174ZM75.1936 46.915C75.4016 46.915 75.5446 46.928 75.7006 46.967V48.41C74.2056 48.306 73.4646 48.969 73.4646 50.828V54H71.6706V47.084H73.4646V48.345L74.0106 47.383C74.3486 47.071 74.8036 46.915 75.1936 46.915ZM77.506 44.51C78.091 44.51 78.494 44.9 78.494 45.459C78.494 46.031 78.091 46.408 77.506 46.408C76.921 46.408 76.518 46.031 76.518 45.459C76.518 44.9 76.921 44.51 77.506 44.51ZM78.403 54H76.609V47.084H78.403V54ZM82.2072 48.319V51.517C82.2072 51.751 82.2072 51.946 82.2202 52.128C82.2722 52.804 82.5192 52.96 83.5202 52.882V54.052C83.1172 54.117 82.7402 54.143 82.3372 54.143C80.9982 54.143 80.5172 53.701 80.4392 52.726C80.4132 52.414 80.4132 52.115 80.4132 51.725V48.319H79.3992V47.136H80.4132V45.433H82.2072V47.136H83.6372V48.319H82.2072ZM91.3114 47.084L88.5294 54.26C87.8014 56.132 87.0474 56.73 85.6434 56.73C85.3184 56.73 85.0974 56.717 84.8374 56.678V55.443C85.0194 55.469 85.1884 55.469 85.3704 55.469C85.9814 55.469 86.3844 55.235 86.6704 54.546L86.7614 54.325L83.9404 47.084H85.9424L87.6584 52.635L89.3484 47.084H91.3114Z" fill="#D2C0F1"/>
<path d="M59.2915 93.9893C62.7625 94.8863 64.4785 96.9923 64.4785 100.463C64.4785 105.455 60.6955 107.834 57.1075 108.341C55.7425 108.497 54.8845 108.497 53.3635 108.497H43.5745V81.5873H53.2075C54.5725 81.5873 55.3525 81.5873 56.6785 81.7433C61.0465 82.2893 63.4645 84.8243 63.4645 88.4513C63.4645 91.2203 61.9825 93.0533 59.2915 93.9893ZM48.9565 85.7993V92.6243H53.0125C53.6755 92.6243 54.2995 92.5853 54.9235 92.5073C56.8735 92.1953 57.8485 91.1033 57.8485 89.1533C57.8485 87.1253 56.6005 86.1503 54.8065 85.9163C54.1825 85.8383 53.4805 85.7993 52.8565 85.7993H48.9565ZM55.4305 104.207C57.3025 104.051 58.8235 102.764 58.8235 100.502C58.8235 98.0063 57.3025 96.9533 55.3525 96.7583C54.6895 96.6803 54.0655 96.6413 53.4415 96.6413H48.9565V104.246H53.6365C54.2605 104.246 54.9235 104.246 55.4305 104.207ZM87.3414 87.7493V108.497H81.9594V104.987L80.3604 107.639C78.8394 108.653 77.3574 109.043 75.3684 109.043C71.0784 109.043 68.5044 106.625 68.0364 103.778C67.8804 102.725 67.8414 101.672 67.8414 99.9953V87.7493H73.2234V98.8643C73.2234 99.5273 73.2624 100.658 73.3794 101.711C73.6524 103.856 74.9004 105.221 77.3964 105.221C80.0874 105.221 81.9594 102.998 81.9594 98.3183V87.7493H87.3414ZM94.9917 80.0273C96.7468 80.0273 97.9558 81.1973 97.9558 82.8743C97.9558 84.5903 96.7468 85.7213 94.9917 85.7213C93.2368 85.7213 92.0278 84.5903 92.0278 82.8743C92.0278 81.1973 93.2368 80.0273 94.9917 80.0273ZM97.6828 108.497H92.3008V87.7493H97.6828V108.497ZM107.886 79.8323V101.711C107.886 102.53 107.886 103.076 107.925 103.622C108.042 104.675 108.51 105.026 110.343 104.909V108.614C109.29 108.731 108.237 108.77 107.028 108.77C104.376 108.77 102.699 107.795 102.582 105.104C102.504 104.168 102.504 103.193 102.504 101.828V79.8323H107.886ZM119.988 91.4543V101.048C119.988 101.75 119.988 102.335 120.027 102.881C120.183 104.909 120.924 105.377 123.927 105.143V108.653C122.718 108.848 121.587 108.926 120.378 108.926C116.361 108.926 114.918 107.6 114.684 104.675C114.606 103.739 114.606 102.842 114.606 101.672V91.4543H111.564V87.9053H114.606V82.7963H119.988V87.9053H124.278V91.4543H119.988ZM141.659 91.4543V101.048C141.659 101.75 141.659 102.335 141.698 102.881C141.854 104.909 142.595 105.377 145.598 105.143V108.653C144.389 108.848 143.258 108.926 142.049 108.926C138.032 108.926 136.589 107.6 136.355 104.675C136.277 103.739 136.277 102.842 136.277 101.672V91.4543H133.235V87.9053H136.277V82.7963H141.659V87.9053H145.949V91.4543H141.659ZM158.333 87.2033C165.236 87.2033 169.097 91.8053 169.097 98.1233C169.097 104.402 165.236 109.043 158.333 109.043C151.43 109.043 147.569 104.402 147.569 98.1233C147.569 91.8053 151.43 87.2033 158.333 87.2033ZM158.333 105.26C161.57 105.26 163.52 102.569 163.52 98.1233C163.52 93.6383 161.57 90.9863 158.333 90.9863C155.096 90.9863 153.146 93.6383 153.146 98.1233C153.146 102.569 155.096 105.26 158.333 105.26ZM187.613 87.2033C192.566 87.2033 195.374 89.9723 195.842 93.7553H190.46C190.109 91.8443 189.056 90.7523 187.262 90.7523C185.663 90.7523 184.805 91.6883 184.805 92.9753C184.805 94.5353 186.092 95.3543 189.524 96.2123C193.775 97.3043 196.271 99.0203 196.271 102.842C196.271 107.015 192.488 109.043 187.73 109.043C182.699 109.043 179.15 106.859 178.565 102.179H183.947C184.376 104.441 185.936 105.494 187.808 105.494C189.524 105.494 190.85 104.753 190.85 103.232C190.85 101.633 189.485 100.736 185.897 99.8393C182.036 98.8643 179.384 97.1873 179.384 93.5993C179.384 89.6213 182.66 87.2033 187.613 87.2033ZM208.559 87.2033C214.175 87.2033 217.646 90.6353 218.036 95.2373H212.732C212.225 92.2343 210.665 90.9863 208.442 90.9863C205.712 90.9863 203.762 93.2093 203.762 97.9283C203.762 103.076 205.712 105.26 208.403 105.26C210.509 105.26 212.069 103.934 212.615 101.321H217.997C217.1 106.43 213.278 109.043 208.091 109.043C202.436 109.043 198.185 105.455 198.185 98.2793C198.185 91.1813 202.865 87.2033 208.559 87.2033ZM233.501 108.497L233.111 105.455L232.097 107.678C230.654 108.653 228.899 109.043 226.949 109.043C223.361 109.043 220.28 106.937 220.28 102.998C220.28 98.4353 224.18 95.8613 231.707 95.8613H233.033V95.4323C233.033 94.8083 233.033 94.1843 232.955 93.4823C232.799 92.0393 231.863 90.9863 229.757 90.9863C227.612 90.9863 226.442 92.2343 226.286 94.4963L221.06 94.5353C221.216 89.8553 224.999 87.2033 229.952 87.2033C235.763 87.2033 237.947 89.7383 238.259 93.3263C238.337 94.3013 238.376 95.3933 238.376 96.5243V103.232C238.376 104.792 238.454 106.196 238.766 108.497H233.501ZM229.016 105.26C231.2 105.26 233.033 103.739 233.033 100.853V99.1763C228.743 98.8643 225.857 99.8393 225.857 102.569C225.857 104.402 227.105 105.26 229.016 105.26ZM248.576 79.8323V101.711C248.576 102.53 248.576 103.076 248.615 103.622C248.732 104.675 249.2 105.026 251.033 104.909V108.614C249.98 108.731 248.927 108.77 247.718 108.77C245.066 108.77 243.389 107.795 243.272 105.104C243.194 104.168 243.194 103.193 243.194 101.828V79.8323H248.576ZM273.079 97.6943C273.079 98.2013 273.079 98.8253 273.001 99.5273H258.259C258.61 103.895 260.56 105.26 263.056 105.26C265.357 105.26 267.034 103.973 267.385 101.75H272.767C271.714 106.586 267.814 109.043 262.939 109.043C257.245 109.043 252.838 105.494 252.838 98.2013C252.838 91.8443 257.011 87.2033 263.368 87.2033C269.725 87.2033 273.079 92.0393 273.079 97.6943ZM263.134 90.9863C260.638 90.9863 258.883 92.5853 258.415 96.0173H267.541C267.19 92.7413 265.708 90.9863 263.134 90.9863ZM314.359 87.7493L307.768 108.497H301.684L298.174 92.7023L294.625 108.497H288.502L281.911 87.7493H287.917L291.583 104.012L294.976 87.8273H301.45L304.96 103.973L308.587 87.7493H314.359ZM319.47 80.0273C321.225 80.0273 322.434 81.1973 322.434 82.8743C322.434 84.5903 321.225 85.7213 319.47 85.7213C317.715 85.7213 316.506 84.5903 316.506 82.8743C316.506 81.1973 317.715 80.0273 319.47 80.0273ZM322.161 108.497H316.779V87.7493H322.161V108.497ZM333.574 91.4543V101.048C333.574 101.75 333.574 102.335 333.613 102.881C333.769 104.909 334.51 105.377 337.513 105.143V108.653C336.304 108.848 335.173 108.926 333.964 108.926C329.947 108.926 328.504 107.6 328.27 104.675C328.192 103.739 328.192 102.842 328.192 101.672V91.4543H325.15V87.9053H328.192V82.7963H333.574V87.9053H337.864V91.4543H333.574ZM360.574 93.0143C360.691 94.0673 360.73 95.1203 360.73 96.7973V108.497H355.348V97.5383C355.348 96.6803 355.348 95.7053 355.27 94.6523C355.114 92.4683 353.905 90.9863 351.292 90.9863C348.679 91.0253 346.612 93.2483 346.612 99.0203V108.497H341.23V79.6373H346.612V91.1033L348.211 88.6463C349.693 87.5933 351.214 87.2033 353.203 87.2033C357.61 87.2033 360.145 89.3873 360.574 93.0143ZM72.5515 134.749L65.9605 155.497H59.8765L56.3665 139.702L52.8175 155.497H46.6945L40.1035 134.749H46.1095L49.7755 151.012L53.1685 134.827H59.6425L63.1525 150.973L66.7795 134.749H72.5515ZM84.3316 134.203C91.2346 134.203 95.0957 138.805 95.0957 145.123C95.0957 151.402 91.2346 156.043 84.3316 156.043C77.4286 156.043 73.5676 151.402 73.5676 145.123C73.5676 138.805 77.4286 134.203 84.3316 134.203ZM84.3316 152.26C87.5686 152.26 89.5186 149.569 89.5186 145.123C89.5186 140.638 87.5686 137.986 84.3316 137.986C81.0946 137.986 79.1446 140.638 79.1446 145.123C79.1446 149.569 81.0946 152.26 84.3316 152.26ZM109.192 134.242C109.816 134.242 110.245 134.281 110.713 134.398V138.727C106.228 138.415 104.005 140.404 104.005 145.981V155.497H98.623V134.749H104.005V138.532L105.643 135.646C106.657 134.71 108.022 134.242 109.192 134.242ZM118.664 126.832V148.711C118.664 149.53 118.664 150.076 118.703 150.622C118.82 151.675 119.288 152.026 121.121 151.909V155.614C120.068 155.731 119.015 155.77 117.806 155.77C115.154 155.77 113.477 154.795 113.36 152.104C113.282 151.168 113.282 150.193 113.282 148.828V126.832H118.664ZM144.494 126.832V155.497H139.112V152.299L137.552 154.6C136.382 155.497 134.276 156.043 132.17 156.043C126.359 156.043 122.927 151.636 122.927 145.513C122.927 137.986 127.529 134.203 132.872 134.203C134.588 134.203 136.694 134.632 137.747 135.373L139.112 137.518V126.832H144.494ZM133.73 152.26C136.694 152.26 139.112 150.427 139.112 145.357V144.343C139.112 139.663 136.421 137.986 133.925 137.986C130.805 137.986 128.504 140.365 128.504 145.162C128.504 149.413 130.532 152.26 133.73 152.26ZM157.307 145.981H148.259V142.939H157.307V145.981ZM169.978 134.203C175.594 134.203 179.065 137.635 179.455 142.237H174.151C173.644 139.234 172.084 137.986 169.861 137.986C167.131 137.986 165.181 140.209 165.181 144.928C165.181 150.076 167.131 152.26 169.822 152.26C171.928 152.26 173.488 150.934 174.034 148.321H179.416C178.519 153.43 174.697 156.043 169.51 156.043C163.855 156.043 159.604 152.455 159.604 145.279C159.604 138.181 164.284 134.203 169.978 134.203ZM188.095 126.832V148.711C188.095 149.53 188.095 150.076 188.134 150.622C188.251 151.675 188.719 152.026 190.552 151.909V155.614C189.499 155.731 188.446 155.77 187.237 155.77C184.585 155.77 182.908 154.795 182.791 152.104C182.713 151.168 182.713 150.193 182.713 148.828V126.832H188.095ZM206.346 155.497L205.956 152.455L204.942 154.678C203.499 155.653 201.744 156.043 199.794 156.043C196.206 156.043 193.125 153.937 193.125 149.998C193.125 145.435 197.025 142.861 204.552 142.861H205.878V142.432C205.878 141.808 205.878 141.184 205.8 140.482C205.644 139.039 204.708 137.986 202.602 137.986C200.457 137.986 199.287 139.234 199.131 141.496L193.905 141.535C194.061 136.855 197.844 134.203 202.797 134.203C208.608 134.203 210.792 136.738 211.104 140.326C211.182 141.301 211.221 142.393 211.221 143.524V150.232C211.221 151.792 211.299 153.196 211.611 155.497H206.346ZM201.861 152.26C204.045 152.26 205.878 150.739 205.878 147.853V146.176C201.588 145.864 198.702 146.839 198.702 149.569C198.702 151.402 199.95 152.26 201.861 152.26ZM223.604 134.203C228.557 134.203 231.365 136.972 231.833 140.755H226.451C226.1 138.844 225.047 137.752 223.253 137.752C221.654 137.752 220.796 138.688 220.796 139.975C220.796 141.535 222.083 142.354 225.515 143.212C229.766 144.304 232.262 146.02 232.262 149.842C232.262 154.015 228.479 156.043 223.721 156.043C218.69 156.043 215.141 153.859 214.556 149.179H219.938C220.367 151.441 221.927 152.494 223.799 152.494C225.515 152.494 226.841 151.753 226.841 150.232C226.841 148.633 225.476 147.736 221.888 146.839C218.027 145.864 215.375 144.187 215.375 140.599C215.375 136.621 218.651 134.203 223.604 134.203ZM242.99 134.203C247.943 134.203 250.751 136.972 251.219 140.755H245.837C245.486 138.844 244.433 137.752 242.639 137.752C241.04 137.752 240.182 138.688 240.182 139.975C240.182 141.535 241.469 142.354 244.901 143.212C249.152 144.304 251.648 146.02 251.648 149.842C251.648 154.015 247.865 156.043 243.107 156.043C238.076 156.043 234.527 153.859 233.942 149.179H239.324C239.753 151.441 241.313 152.494 243.185 152.494C244.901 152.494 246.227 151.753 246.227 150.232C246.227 148.633 244.862 147.736 241.274 146.839C237.413 145.864 234.761 144.187 234.761 140.599C234.761 136.621 238.037 134.203 242.99 134.203ZM269.955 134.203C274.908 134.203 277.716 136.972 278.184 140.755H272.802C272.451 138.844 271.398 137.752 269.604 137.752C268.005 137.752 267.147 138.688 267.147 139.975C267.147 141.535 268.434 142.354 271.866 143.212C276.117 144.304 278.613 146.02 278.613 149.842C278.613 154.015 274.83 156.043 270.072 156.043C265.041 156.043 261.492 153.859 260.907 149.179H266.289C266.718 151.441 268.278 152.494 270.15 152.494C271.866 152.494 273.192 151.753 273.192 150.232C273.192 148.633 271.827 147.736 268.239 146.839C264.378 145.864 261.726 144.187 261.726 140.599C261.726 136.621 265.002 134.203 269.955 134.203ZM300.768 144.694C300.768 145.201 300.768 145.825 300.69 146.527H285.948C286.299 150.895 288.249 152.26 290.745 152.26C293.046 152.26 294.723 150.973 295.074 148.75H300.456C299.403 153.586 295.503 156.043 290.628 156.043C284.934 156.043 280.527 152.494 280.527 145.201C280.527 138.844 284.7 134.203 291.057 134.203C297.414 134.203 300.768 139.039 300.768 144.694ZM290.823 137.986C288.327 137.986 286.572 139.585 286.104 143.017H295.23C294.879 139.741 293.397 137.986 290.823 137.986ZM313.448 134.203C319.064 134.203 322.535 137.635 322.925 142.237H317.621C317.114 139.234 315.554 137.986 313.331 137.986C310.601 137.986 308.651 140.209 308.651 144.928C308.651 150.076 310.601 152.26 313.292 152.26C315.398 152.26 316.958 150.934 317.504 148.321H322.886C321.989 153.43 318.167 156.043 312.98 156.043C307.325 156.043 303.074 152.455 303.074 145.279C303.074 138.181 307.754 134.203 313.448 134.203ZM345.488 134.749V155.497H340.106V151.987L338.507 154.639C336.986 155.653 335.504 156.043 333.515 156.043C329.225 156.043 326.651 153.625 326.183 150.778C326.027 149.725 325.988 148.672 325.988 146.995V134.749H331.37V145.864C331.37 146.527 331.409 147.658 331.526 148.711C331.799 150.856 333.047 152.221 335.543 152.221C338.234 152.221 340.106 149.998 340.106 145.318V134.749H345.488ZM361.016 134.242C361.64 134.242 362.069 134.281 362.537 134.398V138.727C358.052 138.415 355.829 140.404 355.829 145.981V155.497H350.447V134.749H355.829V138.532L357.467 135.646C358.481 134.71 359.846 134.242 361.016 134.242ZM367.954 127.027C369.709 127.027 370.918 128.197 370.918 129.874C370.918 131.59 369.709 132.721 367.954 132.721C366.199 132.721 364.99 131.59 364.99 129.874C364.99 128.197 366.199 127.027 367.954 127.027ZM370.645 155.497H365.263V134.749H370.645V155.497ZM382.057 138.454V148.048C382.057 148.75 382.057 149.335 382.096 149.881C382.252 151.909 382.993 152.377 385.996 152.143V155.653C384.787 155.848 383.656 155.926 382.447 155.926C378.43 155.926 376.987 154.6 376.753 151.675C376.675 150.739 376.675 149.842 376.675 148.672V138.454H373.633V134.905H376.675V129.796H382.057V134.905H386.347V138.454H382.057ZM409.37 134.749L401.024 156.277C398.84 161.893 396.578 163.687 392.366 163.687C391.391 163.687 390.728 163.648 389.948 163.531V159.826C390.494 159.904 391.001 159.904 391.547 159.904C393.38 159.904 394.589 159.202 395.447 157.135L395.72 156.472L387.257 134.749H393.263L398.411 151.402L403.481 134.749H409.37Z" fill="white"/>
<path d="M49.0475 191.875V192.995H41.7035V181.955H48.8875V183.075H43.0795V186.915H48.4075V188.035H43.0795V191.875H49.0475ZM57.6221 184.515L54.4061 192.995H52.7261L49.5101 184.515H51.0301L53.6221 191.987L56.1661 184.515H57.6221ZM65.7319 188.515C65.7319 188.643 65.7319 188.867 65.6999 189.171H59.5559C59.6839 191.411 60.7399 192.163 61.9879 192.163C63.0919 192.163 63.9879 191.475 64.1799 190.259H65.6199C65.2839 192.307 63.6679 193.219 61.9239 193.219C59.7159 193.219 58.0679 191.779 58.0679 188.787C58.0679 186.035 59.7799 184.291 62.0999 184.291C64.4359 184.291 65.7319 186.035 65.7319 188.515ZM62.0679 185.347C60.7239 185.347 59.7319 186.307 59.5719 188.115H64.3399C64.2119 186.355 63.4599 185.347 62.0679 185.347ZM70.8811 184.323C71.1051 184.323 71.2971 184.355 71.4571 184.435V185.475C70.0171 185.379 68.9291 186.227 68.9291 188.163V192.995H67.5531V184.515H68.9291V185.843L69.6971 184.707C70.0491 184.467 70.4811 184.323 70.8811 184.323ZM79.7624 184.515L76.2744 193.715C75.5864 195.507 74.6744 196.355 73.2984 196.355C72.9944 196.355 72.8024 196.355 72.5944 196.323V195.203C72.8024 195.219 72.9464 195.219 73.0904 195.219C73.9384 195.219 74.4984 194.851 74.9304 193.731L75.0424 193.427L71.6664 184.515H73.2184L75.7464 191.971L78.2584 184.515H79.7624ZM86.9546 184.291C88.8586 184.291 89.8986 185.379 90.0746 186.931H88.6346C88.4426 185.939 87.8346 185.347 86.8426 185.347C85.8826 185.347 85.4346 185.875 85.4346 186.611C85.4346 187.459 86.1386 187.795 87.2906 188.099C89.2426 188.611 90.1706 189.379 90.1706 190.819C90.1706 192.419 88.8106 193.219 87.0186 193.219C85.2746 193.219 83.9466 192.419 83.6906 190.499H85.1306C85.3546 191.731 86.1386 192.163 87.1146 192.163C88.0266 192.163 88.7626 191.747 88.7626 190.931C88.7626 190.115 88.1866 189.683 86.7626 189.299C85.2426 188.883 84.0266 188.259 84.0266 186.771C84.0266 185.219 85.2106 184.291 86.9546 184.291ZM92.5224 181.731C93.0184 181.731 93.4024 182.115 93.4024 182.611C93.4024 183.107 93.0184 183.491 92.5224 183.491C92.0264 183.491 91.6424 183.107 91.6424 182.611C91.6424 182.115 92.0264 181.731 92.5224 181.731ZM93.2104 192.995H91.8344V184.515H93.2104V192.995ZM97.2949 185.635V190.515C97.2949 190.803 97.2949 190.947 97.3109 191.171C97.3749 191.987 97.7109 192.163 98.7829 192.035V193.043C98.3829 193.107 97.9989 193.123 97.6149 193.123C96.5589 193.123 96.0149 192.691 95.9349 191.635C95.9189 191.411 95.9189 191.059 95.9189 190.579V185.635H94.7829V184.579H95.9189V182.611H97.2949V184.579H98.8789V185.635H97.2949ZM107.419 188.515C107.419 188.643 107.419 188.867 107.387 189.171H101.243C101.371 191.411 102.427 192.163 103.675 192.163C104.779 192.163 105.675 191.475 105.867 190.259H107.307C106.971 192.307 105.355 193.219 103.611 193.219C101.403 193.219 99.7554 191.779 99.7554 188.787C99.7554 186.035 101.467 184.291 103.787 184.291C106.123 184.291 107.419 186.035 107.419 188.515ZM103.755 185.347C102.411 185.347 101.419 186.307 101.259 188.115H106.027C105.899 186.355 105.147 185.347 103.755 185.347ZM113.382 181.731C113.878 181.731 114.262 182.115 114.262 182.611C114.262 183.107 113.878 183.491 113.382 183.491C112.886 183.491 112.502 183.107 112.502 182.611C112.502 182.115 112.886 181.731 113.382 181.731ZM114.07 192.995H112.694V184.515H114.07V192.995ZM118.97 184.291C120.874 184.291 121.914 185.379 122.09 186.931H120.65C120.458 185.939 119.85 185.347 118.858 185.347C117.898 185.347 117.45 185.875 117.45 186.611C117.45 187.459 118.154 187.795 119.306 188.099C121.258 188.611 122.186 189.379 122.186 190.819C122.186 192.419 120.826 193.219 119.034 193.219C117.29 193.219 115.962 192.419 115.706 190.499H117.146C117.37 191.731 118.154 192.163 119.13 192.163C120.042 192.163 120.778 191.747 120.778 190.931C120.778 190.115 120.202 189.683 118.778 189.299C117.258 188.883 116.042 188.259 116.042 186.771C116.042 185.219 117.226 184.291 118.97 184.291ZM129.767 184.291C131.671 184.291 132.711 185.379 132.887 186.931H131.447C131.255 185.939 130.647 185.347 129.655 185.347C128.695 185.347 128.247 185.875 128.247 186.611C128.247 187.459 128.951 187.795 130.103 188.099C132.055 188.611 132.983 189.379 132.983 190.819C132.983 192.419 131.623 193.219 129.831 193.219C128.087 193.219 126.759 192.419 126.503 190.499H127.943C128.167 191.731 128.951 192.163 129.927 192.163C130.839 192.163 131.575 191.747 131.575 190.931C131.575 190.115 130.999 189.683 129.575 189.299C128.055 188.883 126.839 188.259 126.839 186.771C126.839 185.219 128.023 184.291 129.767 184.291ZM141.607 188.515C141.607 188.643 141.607 188.867 141.575 189.171H135.431C135.559 191.411 136.615 192.163 137.863 192.163C138.967 192.163 139.863 191.475 140.055 190.259H141.495C141.159 192.307 139.543 193.219 137.799 193.219C135.591 193.219 133.943 191.779 133.943 188.787C133.943 186.035 135.655 184.291 137.975 184.291C140.311 184.291 141.607 186.035 141.607 188.515ZM137.943 185.347C136.599 185.347 135.607 186.307 135.447 188.115H140.215C140.087 186.355 139.335 185.347 137.943 185.347ZM146.708 184.291C148.74 184.291 150.036 185.507 150.292 187.363H148.852C148.548 186.003 147.812 185.347 146.676 185.347C145.348 185.347 144.228 186.387 144.228 188.675C144.228 191.139 145.316 192.163 146.58 192.163C147.7 192.163 148.484 191.523 148.772 190.291H150.212C149.796 192.259 148.388 193.219 146.5 193.219C144.356 193.219 142.724 191.875 142.724 188.771C142.724 185.907 144.58 184.291 146.708 184.291ZM158.937 184.515V192.995H157.561V191.555L157.033 192.547C156.313 193.075 155.689 193.219 154.825 193.219C153.065 193.219 152.041 192.227 151.849 191.059C151.785 190.627 151.769 190.291 151.769 189.603V184.515H153.145V189.347C153.145 189.619 153.161 190.083 153.209 190.515C153.337 191.475 154.025 192.131 155.177 192.131C156.505 192.131 157.561 191.139 157.561 188.243V184.515H158.937ZM164.694 184.323C164.918 184.323 165.11 184.355 165.27 184.435V185.475C163.83 185.379 162.742 186.227 162.742 188.163V192.995H161.366V184.515H162.742V185.843L163.51 184.707C163.862 184.467 164.294 184.323 164.694 184.323ZM173.419 188.515C173.419 188.643 173.419 188.867 173.387 189.171H167.243C167.371 191.411 168.427 192.163 169.675 192.163C170.779 192.163 171.675 191.475 171.867 190.259H173.307C172.971 192.307 171.355 193.219 169.611 193.219C167.403 193.219 165.755 191.779 165.755 188.787C165.755 186.035 167.467 184.291 169.787 184.291C172.123 184.291 173.419 186.035 173.419 188.515ZM169.755 185.347C168.411 185.347 167.419 186.307 167.259 188.115H172.027C171.899 186.355 171.147 185.347 169.755 185.347ZM182.649 181.235V192.995H181.273V191.635L180.633 192.547C180.153 192.947 179.257 193.219 178.393 193.219C175.913 193.219 174.537 191.363 174.537 188.883C174.537 185.747 176.489 184.291 178.681 184.291C179.385 184.291 180.281 184.499 180.713 184.851L181.273 185.683V181.235H182.649ZM178.601 192.163C180.009 192.163 181.273 191.267 181.273 188.835V188.371C181.273 186.179 179.897 185.347 178.681 185.347C177.193 185.347 176.041 186.499 176.041 188.723C176.041 190.643 176.905 192.163 178.601 192.163ZM199.818 184.515L197.114 192.995H195.482L193.594 185.859L191.706 192.995H190.074L187.37 184.515H188.954L190.922 191.683L192.778 184.515H194.49L196.378 191.635L198.346 184.515H199.818ZM201.788 181.731C202.284 181.731 202.668 182.115 202.668 182.611C202.668 183.107 202.284 183.491 201.788 183.491C201.292 183.491 200.908 183.107 200.908 182.611C200.908 182.115 201.292 181.731 201.788 181.731ZM202.476 192.995H201.1V184.515H202.476V192.995ZM206.561 185.635V190.515C206.561 190.803 206.561 190.947 206.577 191.171C206.641 191.987 206.977 192.163 208.049 192.035V193.043C207.649 193.107 207.265 193.123 206.881 193.123C205.825 193.123 205.281 192.691 205.201 191.635C205.185 191.411 205.185 191.059 205.185 190.579V185.635H204.049V184.579H205.185V182.611H206.561V184.579H208.145V185.635H206.561ZM217.064 186.771C217.096 187.203 217.096 187.539 217.096 188.227V192.995H215.72V188.323C215.72 187.891 215.72 187.539 215.688 187.107C215.608 186.115 215.064 185.347 213.752 185.379C212.424 185.411 211.304 186.371 211.304 189.267V192.995H209.928V181.155H211.304V185.971L211.832 184.995C212.552 184.435 213.176 184.291 214.04 184.291C215.896 184.291 216.936 185.283 217.064 186.771ZM227.122 184.291C229.602 184.291 230.978 186.147 230.978 188.627C230.978 191.763 229.026 193.219 226.834 193.219C226.13 193.219 225.234 193.011 224.802 192.659L224.242 191.827V196.131H222.866V184.515H224.242V185.875L224.882 184.963C225.362 184.563 226.258 184.291 227.122 184.291ZM226.834 192.163C228.322 192.163 229.474 191.011 229.474 188.787C229.474 186.867 228.61 185.347 226.914 185.347C225.506 185.347 224.242 186.243 224.242 188.675V189.139C224.242 191.331 225.618 192.163 226.834 192.163ZM236.151 184.291C239.031 184.291 240.359 186.355 240.359 188.755C240.359 191.139 239.031 193.219 236.151 193.219C233.271 193.219 231.943 191.139 231.943 188.755C231.943 186.355 233.271 184.291 236.151 184.291ZM236.151 192.163C237.863 192.163 238.855 190.739 238.855 188.755C238.855 186.755 237.863 185.347 236.151 185.347C234.439 185.347 233.447 186.755 233.447 188.755C233.447 190.739 234.439 192.163 236.151 192.163ZM253.302 184.515L250.598 192.995H248.966L247.078 185.859L245.19 192.995H243.558L240.854 184.515H242.438L244.406 191.683L246.262 184.515H247.974L249.862 191.635L251.83 184.515H253.302ZM261.544 188.515C261.544 188.643 261.544 188.867 261.512 189.171H255.368C255.496 191.411 256.552 192.163 257.8 192.163C258.904 192.163 259.8 191.475 259.992 190.259H261.432C261.096 192.307 259.48 193.219 257.736 193.219C255.528 193.219 253.88 191.779 253.88 188.787C253.88 186.035 255.592 184.291 257.912 184.291C260.248 184.291 261.544 186.035 261.544 188.515ZM257.88 185.347C256.536 185.347 255.544 186.307 255.384 188.115H260.152C260.024 186.355 259.272 185.347 257.88 185.347ZM266.694 184.323C266.918 184.323 267.11 184.355 267.27 184.435V185.475C265.83 185.379 264.742 186.227 264.742 188.163V192.995H263.366V184.515H264.742V185.843L265.51 184.707C265.862 184.467 266.294 184.323 266.694 184.323ZM270.135 182.883C270.103 183.107 270.087 183.507 270.087 183.747V184.579H271.831V185.635H270.087V192.995H268.711V185.635H267.799V184.579H268.711V183.875C268.711 183.555 268.727 183.139 268.759 182.851C268.903 181.619 269.735 180.931 270.999 180.931C271.351 180.931 271.687 180.963 271.975 181.011V182.147C270.935 181.955 270.247 182.195 270.135 182.883ZM280.328 184.515V192.995H278.952V191.555L278.424 192.547C277.704 193.075 277.08 193.219 276.216 193.219C274.456 193.219 273.432 192.227 273.24 191.059C273.176 190.627 273.16 190.291 273.16 189.603V184.515H274.536V189.347C274.536 189.619 274.552 190.083 274.6 190.515C274.728 191.475 275.416 192.131 276.568 192.131C277.896 192.131 278.952 191.139 278.952 188.243V184.515H280.328ZM284.068 181.235V190.563C284.068 190.819 284.068 191.091 284.084 191.363C284.116 191.907 284.372 192.083 285.124 192.003V192.995C284.82 193.043 284.468 193.059 284.148 193.059C283.348 193.059 282.756 192.803 282.708 191.731C282.692 191.443 282.692 191.075 282.692 190.611V181.235H284.068ZM295.347 182.019C297.907 182.339 299.715 184.051 299.715 187.347C299.715 190.595 297.827 192.611 295.267 192.931C294.707 192.995 294.451 192.995 293.859 192.995H290.579V181.955H293.939C294.531 181.955 294.787 181.955 295.347 182.019ZM295.123 191.795C296.995 191.491 298.211 189.955 298.211 187.347C298.211 184.899 297.075 183.459 295.203 183.155C294.851 183.091 294.435 183.075 293.859 183.075H291.955V191.875H293.779C294.355 191.875 294.771 191.859 295.123 191.795ZM306.69 182.019C309.25 182.339 311.058 184.051 311.058 187.347C311.058 190.595 309.17 192.611 306.61 192.931C306.05 192.995 305.794 192.995 305.202 192.995H301.922V181.955H305.282C305.874 181.955 306.13 181.955 306.69 182.019ZM306.466 191.795C308.338 191.491 309.554 189.955 309.554 187.347C309.554 184.899 308.418 183.459 306.546 183.155C306.194 183.091 305.778 183.075 305.202 183.075H303.298V191.875H305.122C305.698 191.875 306.114 191.859 306.466 191.795ZM317.634 181.731C320.994 181.731 322.85 184.099 322.85 187.475C322.85 190.835 320.994 193.219 317.634 193.219C314.274 193.219 312.418 190.835 312.418 187.475C312.418 184.099 314.274 181.731 317.634 181.731ZM317.634 192.131C319.954 192.131 321.314 190.339 321.314 187.475C321.314 184.595 319.954 182.819 317.634 182.819C315.314 182.819 313.954 184.595 313.954 187.475C313.954 190.339 315.314 192.131 317.634 192.131ZM328.487 181.731C330.775 181.731 331.975 183.123 332.183 185.011H330.711C330.583 183.619 329.767 182.819 328.375 182.819C327.207 182.819 326.279 183.363 326.279 184.515C326.279 185.715 326.967 186.227 328.647 186.611C331.079 187.171 332.295 188.163 332.295 190.035C332.295 191.971 330.631 193.219 328.503 193.219C326.071 193.219 324.535 191.987 324.295 189.859H325.767C326.087 191.315 327.095 192.131 328.535 192.131C329.799 192.131 330.823 191.443 330.823 190.291C330.823 188.947 330.055 188.339 328.119 187.891C326.167 187.443 324.807 186.659 324.807 184.835C324.807 182.931 326.455 181.731 328.487 181.731ZM341.715 184.291C344.195 184.291 345.571 186.147 345.571 188.627C345.571 191.763 343.619 193.219 341.427 193.219C340.723 193.219 339.827 193.011 339.395 192.659L338.835 191.827V196.131H337.459V184.515H338.835V185.875L339.475 184.963C339.955 184.563 340.851 184.291 341.715 184.291ZM341.427 192.163C342.915 192.163 344.067 191.011 344.067 188.787C344.067 186.867 343.203 185.347 341.507 185.347C340.099 185.347 338.835 186.243 338.835 188.675V189.139C338.835 191.331 340.211 192.163 341.427 192.163ZM350.569 184.323C350.793 184.323 350.985 184.355 351.145 184.435V185.475C349.705 185.379 348.617 186.227 348.617 188.163V192.995H347.241V184.515H348.617V185.843L349.385 184.707C349.737 184.467 350.169 184.323 350.569 184.323ZM355.838 184.291C358.718 184.291 360.046 186.355 360.046 188.755C360.046 191.139 358.718 193.219 355.838 193.219C352.958 193.219 351.63 191.139 351.63 188.755C351.63 186.355 352.958 184.291 355.838 184.291ZM355.838 192.163C357.55 192.163 358.542 190.739 358.542 188.755C358.542 186.755 357.55 185.347 355.838 185.347C354.126 185.347 353.134 186.755 353.134 188.755C353.134 190.739 354.126 192.163 355.838 192.163ZM363.357 185.635V190.515C363.357 190.803 363.357 190.947 363.373 191.171C363.437 191.987 363.773 192.163 364.845 192.035V193.043C364.445 193.107 364.061 193.123 363.677 193.123C362.621 193.123 362.077 192.691 361.997 191.635C361.981 191.411 361.981 191.059 361.981 190.579V185.635H360.845V184.579H361.981V182.611H363.357V184.579H364.941V185.635H363.357ZM373.482 188.515C373.482 188.643 373.482 188.867 373.45 189.171H367.306C367.434 191.411 368.49 192.163 369.738 192.163C370.842 192.163 371.738 191.475 371.93 190.259H373.37C373.034 192.307 371.418 193.219 369.674 193.219C367.466 193.219 365.818 191.779 365.818 188.787C365.818 186.035 367.53 184.291 369.85 184.291C372.186 184.291 373.482 186.035 373.482 188.515ZM369.818 185.347C368.474 185.347 367.482 186.307 367.322 188.115H372.09C371.962 186.355 371.21 185.347 369.818 185.347ZM378.583 184.291C380.615 184.291 381.911 185.507 382.167 187.363H380.727C380.423 186.003 379.687 185.347 378.551 185.347C377.223 185.347 376.103 186.387 376.103 188.675C376.103 191.139 377.191 192.163 378.455 192.163C379.575 192.163 380.359 191.523 380.647 190.291H382.087C381.671 192.259 380.263 193.219 378.375 193.219C376.231 193.219 374.599 191.875 374.599 188.771C374.599 185.907 376.455 184.291 378.583 184.291ZM385.42 185.635V190.515C385.42 190.803 385.42 190.947 385.436 191.171C385.5 191.987 385.836 192.163 386.908 192.035V193.043C386.508 193.107 386.124 193.123 385.74 193.123C384.684 193.123 384.14 192.691 384.06 191.635C384.044 191.411 384.044 191.059 384.044 190.579V185.635H382.908V184.579H384.044V182.611H385.42V184.579H387.004V185.635H385.42ZM389.476 181.731C389.972 181.731 390.356 182.115 390.356 182.611C390.356 183.107 389.972 183.491 389.476 183.491C388.98 183.491 388.596 183.107 388.596 182.611C388.596 182.115 388.98 181.731 389.476 181.731ZM390.164 192.995H388.788V184.515H390.164V192.995ZM396.104 184.291C398.984 184.291 400.312 186.355 400.312 188.755C400.312 191.139 398.984 193.219 396.104 193.219C393.224 193.219 391.896 191.139 391.896 188.755C391.896 186.355 393.224 184.291 396.104 184.291ZM396.104 192.163C397.816 192.163 398.808 190.739 398.808 188.755C398.808 186.755 397.816 185.347 396.104 185.347C394.392 185.347 393.4 186.755 393.4 188.755C393.4 190.739 394.392 192.163 396.104 192.163ZM409.111 186.771C409.143 187.203 409.143 187.539 409.143 188.227V192.995H407.767V188.323C407.767 187.891 407.767 187.539 407.735 187.107C407.655 186.115 407.111 185.379 405.799 185.379C404.471 185.379 403.351 186.371 403.351 189.267V192.995H401.975V184.515H403.351V185.971L403.879 184.995C404.599 184.435 405.223 184.291 406.087 184.291C407.943 184.291 408.983 185.283 409.111 186.771ZM412.515 191.555L411.075 194.915H409.779L411.027 191.395H412.515V191.555ZM45.1275 200.731C47.4155 200.731 48.6155 202.123 48.8235 204.011H47.3515C47.2235 202.619 46.4075 201.819 45.0155 201.819C43.8475 201.819 42.9195 202.363 42.9195 203.515C42.9195 204.715 43.6075 205.227 45.2875 205.611C47.7195 206.171 48.9355 207.163 48.9355 209.035C48.9355 210.971 47.2715 212.219 45.1435 212.219C42.7115 212.219 41.1755 210.987 40.9355 208.859H42.4075C42.7275 210.315 43.7355 211.131 45.1755 211.131C46.4395 211.131 47.4635 210.443 47.4635 209.291C47.4635 207.947 46.6955 207.339 44.7595 206.891C42.8075 206.443 41.4475 205.659 41.4475 203.835C41.4475 201.931 43.0955 200.731 45.1275 200.731ZM54.4869 200.731C56.7749 200.731 57.9749 202.123 58.1829 204.011H56.7109C56.5829 202.619 55.7669 201.819 54.3749 201.819C53.2069 201.819 52.2789 202.363 52.2789 203.515C52.2789 204.715 52.9669 205.227 54.6469 205.611C57.0789 206.171 58.2949 207.163 58.2949 209.035C58.2949 210.971 56.6309 212.219 54.5029 212.219C52.0709 212.219 50.5349 210.987 50.2949 208.859H51.7669C52.0869 210.315 53.0949 211.131 54.5349 211.131C55.7989 211.131 56.8229 210.443 56.8229 209.291C56.8229 207.947 56.0549 207.339 54.1189 206.891C52.1669 206.443 50.8069 205.659 50.8069 203.835C50.8069 201.931 52.4549 200.731 54.4869 200.731ZM67.7663 210.875V211.995H60.4223V200.955H61.7983V210.875H67.7663ZM70.2654 210.555L68.8254 213.915H67.5294L68.7774 210.395H70.2654V210.555ZM77.9701 202.075V205.915H83.1381V207.035H77.9701V211.995H76.5941V200.955H83.7781V202.075H77.9701ZM85.9443 200.731C86.4403 200.731 86.8243 201.115 86.8243 201.611C86.8243 202.107 86.4403 202.491 85.9443 202.491C85.4483 202.491 85.0643 202.107 85.0643 201.611C85.0643 201.115 85.4483 200.731 85.9443 200.731ZM86.6323 211.995H85.2563V203.515H86.6323V211.995ZM92.3968 203.323C92.6208 203.323 92.8128 203.355 92.9728 203.435V204.475C91.5328 204.379 90.4448 205.227 90.4448 207.163V211.995H89.0688V203.515H90.4448V204.843L91.2128 203.707C91.5648 203.467 91.9968 203.323 92.3968 203.323ZM101.123 207.515C101.123 207.643 101.123 207.867 101.091 208.171H94.9465C95.0745 210.411 96.1305 211.163 97.3785 211.163C98.4825 211.163 99.3785 210.475 99.5705 209.259H101.011C100.675 211.307 99.0585 212.219 97.3145 212.219C95.1065 212.219 93.4585 210.779 93.4585 207.787C93.4585 205.035 95.1705 203.291 97.4905 203.291C99.8265 203.291 101.123 205.035 101.123 207.515ZM97.4585 204.347C96.1145 204.347 95.1225 205.307 94.9625 207.115H99.7305C99.6025 205.355 98.8505 204.347 97.4585 204.347ZM114.224 203.515L111.52 211.995H109.888L108 204.859L106.112 211.995H104.48L101.776 203.515H103.36L105.328 210.683L107.184 203.515H108.896L110.784 210.635L112.752 203.515H114.224ZM120.37 211.995L120.226 210.779L119.762 211.691C119.186 212.091 118.45 212.219 117.634 212.219C116.098 212.219 114.898 211.371 114.898 209.803C114.898 207.883 116.338 206.891 119.666 206.891H120.21V206.667C120.21 206.299 120.21 205.963 120.178 205.643C120.114 204.859 119.666 204.347 118.53 204.347C117.378 204.347 116.802 204.971 116.706 206.139H115.266C115.394 204.331 116.658 203.291 118.53 203.291C120.546 203.291 121.394 204.139 121.538 205.531C121.57 205.867 121.586 206.283 121.586 206.651V209.835C121.586 210.475 121.618 211.051 121.746 211.995H120.37ZM118.098 211.163C119.378 211.163 120.21 210.315 120.21 208.779V207.915C117.874 207.739 116.402 208.235 116.402 209.691C116.402 210.715 117.058 211.163 118.098 211.163ZM125.318 200.235V209.563C125.318 209.819 125.318 210.091 125.334 210.363C125.366 210.907 125.622 211.083 126.374 211.003V211.995C126.07 212.043 125.718 212.059 125.398 212.059C124.598 212.059 124.006 211.803 123.958 210.731C123.942 210.443 123.942 210.075 123.942 209.611V200.235H125.318ZM129.271 200.235V209.563C129.271 209.819 129.271 210.091 129.287 210.363C129.319 210.907 129.575 211.083 130.327 211.003V211.995C130.023 212.043 129.671 212.059 129.351 212.059C128.551 212.059 127.959 211.803 127.911 210.731C127.895 210.443 127.895 210.075 127.895 209.611V200.235H129.271ZM132.969 210.555L131.529 213.915H130.233L131.481 210.395H132.969V210.555ZM143.745 211.995L143.601 210.779L143.137 211.691C142.561 212.091 141.825 212.219 141.009 212.219C139.473 212.219 138.273 211.371 138.273 209.803C138.273 207.883 139.713 206.891 143.041 206.891H143.585V206.667C143.585 206.299 143.585 205.963 143.553 205.643C143.489 204.859 143.041 204.347 141.905 204.347C140.753 204.347 140.177 204.971 140.081 206.139H138.641C138.769 204.331 140.033 203.291 141.905 203.291C143.921 203.291 144.769 204.139 144.913 205.531C144.945 205.867 144.961 206.283 144.961 206.651V209.835C144.961 210.475 144.993 211.051 145.121 211.995H143.745ZM141.473 211.163C142.753 211.163 143.585 210.315 143.585 208.779V207.915C141.249 207.739 139.777 208.235 139.777 209.691C139.777 210.715 140.433 211.163 141.473 211.163ZM154.517 205.771C154.549 206.203 154.549 206.539 154.549 207.227V211.995H153.173V207.323C153.173 206.891 153.173 206.539 153.141 206.107C153.061 205.115 152.517 204.379 151.205 204.379C149.877 204.379 148.757 205.371 148.757 208.267V211.995H147.381V203.515H148.757V204.971L149.285 203.995C150.005 203.435 150.629 203.291 151.493 203.291C153.349 203.291 154.389 204.283 154.517 205.771ZM164.274 200.235V211.995H162.898V210.635L162.258 211.547C161.778 211.947 160.882 212.219 160.018 212.219C157.538 212.219 156.162 210.363 156.162 207.883C156.162 204.747 158.114 203.291 160.306 203.291C161.01 203.291 161.906 203.499 162.338 203.851L162.898 204.683V200.235H164.274ZM160.226 211.163C161.634 211.163 162.898 210.267 162.898 207.835V207.371C162.898 205.179 161.522 204.347 160.306 204.347C158.818 204.347 157.666 205.499 157.666 207.723C157.666 209.643 158.53 211.163 160.226 211.163ZM175.027 211.995L174.883 210.779L174.419 211.691C173.843 212.091 173.107 212.219 172.291 212.219C170.755 212.219 169.555 211.371 169.555 209.803C169.555 207.883 170.995 206.891 174.323 206.891H174.867V206.667C174.867 206.299 174.867 205.963 174.835 205.643C174.771 204.859 174.323 204.347 173.187 204.347C172.035 204.347 171.459 204.971 171.363 206.139H169.923C170.051 204.331 171.315 203.291 173.187 203.291C175.203 203.291 176.051 204.139 176.195 205.531C176.227 205.867 176.243 206.283 176.243 206.651V209.835C176.243 210.475 176.275 211.051 176.403 211.995H175.027ZM172.755 211.163C174.035 211.163 174.867 210.315 174.867 208.779V207.915C172.531 207.739 171.059 208.235 171.059 209.691C171.059 210.715 171.715 211.163 172.755 211.163ZM189.524 203.515V209.915C189.524 210.443 189.524 211.099 189.508 211.563C189.428 214.043 187.924 215.355 185.476 215.355C183.06 215.355 181.86 214.347 181.684 212.555L181.668 212.395H183.06L183.076 212.539C183.188 213.579 184.02 214.299 185.476 214.299C187.156 214.299 188.068 213.339 188.132 211.707C188.148 211.307 188.148 211.035 188.148 210.779V210.635L187.508 211.547C187.028 211.947 186.132 212.219 185.268 212.219C182.788 212.219 181.412 210.363 181.412 207.883C181.412 204.747 183.364 203.291 185.556 203.291C186.26 203.291 187.156 203.499 187.588 203.851L188.148 204.683V203.515H189.524ZM185.476 211.163C186.884 211.163 188.148 210.267 188.148 207.835V207.371C188.148 205.179 186.772 204.347 185.556 204.347C184.068 204.347 182.916 205.499 182.916 207.723C182.916 209.643 183.78 211.163 185.476 211.163ZM193.271 200.235V209.563C193.271 209.819 193.271 210.091 193.287 210.363C193.319 210.907 193.575 211.083 194.327 211.003V211.995C194.023 212.043 193.671 212.059 193.351 212.059C192.551 212.059 191.959 211.803 191.911 210.731C191.895 210.443 191.895 210.075 191.895 209.611V200.235H193.271ZM199.417 203.291C202.297 203.291 203.625 205.355 203.625 207.755C203.625 210.139 202.297 212.219 199.417 212.219C196.537 212.219 195.209 210.139 195.209 207.755C195.209 205.355 196.537 203.291 199.417 203.291ZM199.417 211.163C201.129 211.163 202.121 209.739 202.121 207.755C202.121 205.755 201.129 204.347 199.417 204.347C197.705 204.347 196.713 205.755 196.713 207.755C196.713 209.739 197.705 211.163 199.417 211.163ZM209.544 203.291C212.024 203.291 213.4 205.147 213.4 207.627C213.4 210.763 211.448 212.219 209.256 212.219C208.552 212.219 207.656 212.011 207.224 211.659L206.664 210.827V211.995H205.288V200.235H206.664V204.875L207.304 203.963C207.784 203.563 208.68 203.291 209.544 203.291ZM209.256 211.163C210.744 211.163 211.896 210.011 211.896 207.787C211.896 205.867 211.032 204.347 209.336 204.347C207.928 204.347 206.664 205.243 206.664 207.675V208.139C206.664 210.331 208.04 211.163 209.256 211.163ZM219.933 211.995L219.789 210.779L219.325 211.691C218.749 212.091 218.013 212.219 217.197 212.219C215.661 212.219 214.461 211.371 214.461 209.803C214.461 207.883 215.901 206.891 219.229 206.891H219.773V206.667C219.773 206.299 219.773 205.963 219.741 205.643C219.677 204.859 219.229 204.347 218.093 204.347C216.941 204.347 216.365 204.971 216.269 206.139H214.829C214.957 204.331 216.221 203.291 218.093 203.291C220.109 203.291 220.957 204.139 221.101 205.531C221.133 205.867 221.149 206.283 221.149 206.651V209.835C221.149 210.475 221.181 211.051 221.309 211.995H219.933ZM217.661 211.163C218.941 211.163 219.773 210.315 219.773 208.779V207.915C217.437 207.739 215.965 208.235 215.965 209.691C215.965 210.715 216.621 211.163 217.661 211.163ZM224.881 200.235V209.563C224.881 209.819 224.881 210.091 224.897 210.363C224.929 210.907 225.185 211.083 225.937 211.003V211.995C225.633 212.043 225.281 212.059 224.961 212.059C224.161 212.059 223.569 211.803 223.521 210.731C223.505 210.443 223.505 210.075 223.505 209.611V200.235H224.881ZM235.759 200.731C238.559 200.731 240.031 202.315 240.255 204.475L240.271 204.635H238.895L238.863 204.475C238.543 202.891 237.567 201.819 235.727 201.819C233.471 201.819 232.079 203.787 232.079 206.459C232.079 209.179 233.455 211.131 235.631 211.131C237.471 211.131 238.447 210.059 238.767 208.475L238.799 208.315H240.175L240.159 208.475C239.951 210.475 238.463 212.219 235.551 212.219C232.335 212.219 230.543 209.755 230.543 206.523C230.543 203.163 232.623 200.731 235.759 200.731ZM247.347 201.019C249.907 201.339 251.715 203.051 251.715 206.347C251.715 209.595 249.827 211.611 247.267 211.931C246.707 211.995 246.451 211.995 245.859 211.995H242.579V200.955H245.939C246.531 200.955 246.787 200.955 247.347 201.019ZM247.123 210.795C248.995 210.491 250.211 208.955 250.211 206.347C250.211 203.899 249.075 202.459 247.203 202.155C246.851 202.091 246.435 202.075 245.859 202.075H243.955V210.875H245.779C246.355 210.875 246.771 210.859 247.123 210.795ZM262.562 211.995H260.45L255.25 202.299C255.282 203.595 255.298 205.179 255.298 206.475V211.995H253.922V200.955H256.034L261.234 210.651C261.202 209.355 261.186 207.771 261.186 206.475V200.955H262.53L262.562 211.995ZM265.423 210.171C266.015 210.171 266.447 210.603 266.447 211.195C266.447 211.787 266.015 212.219 265.423 212.219C264.831 212.219 264.399 211.787 264.399 211.195C264.399 210.603 264.831 210.171 265.423 210.171Z" fill="white" fill-opacity="0.7"/>
<path opacity="0.2" d="M277.667 227.218C282.085 224.669 287.53 224.669 291.949 227.218L446.168 316.18C450.587 318.729 453.309 323.44 453.309 328.538V506.462C453.309 511.56 450.587 516.271 446.168 518.82L291.949 607.781C287.53 610.331 282.085 610.331 277.667 607.781L123.448 518.82C119.029 516.271 116.307 511.56 116.307 506.462V328.538C116.307 323.44 119.029 318.729 123.448 316.18L277.667 227.218ZM277.667 253.942C282.086 251.392 287.53 251.392 291.949 253.942L423.005 329.542C427.424 332.091 430.146 336.802 430.146 341.9V493.1C430.146 498.198 427.424 502.909 423.005 505.458L291.949 581.058C287.53 583.607 282.086 583.607 277.667 581.058L146.611 505.458C142.192 502.909 139.47 498.198 139.47 493.1V341.9C139.47 336.802 142.192 332.091 146.611 329.542L277.667 253.942ZM292.256 253.41C287.647 250.752 281.969 250.752 277.36 253.41L146.304 329.011C141.696 331.669 138.856 336.582 138.856 341.9V493.1C138.856 498.417 141.696 503.331 146.304 505.989L277.36 581.59C281.969 584.248 287.647 584.248 292.256 581.59L423.312 505.989C427.92 503.331 430.759 498.417 430.759 493.1V341.9C430.759 336.582 427.92 331.669 423.312 329.011L292.256 253.41ZM277.666 275.806C282.085 273.257 287.529 273.257 291.948 275.806L404.053 340.474C408.472 343.023 411.194 347.734 411.194 352.832V482.168C411.194 487.266 408.472 491.977 404.053 494.526L291.948 559.194C287.529 561.743 282.085 561.743 277.666 559.194L165.561 494.526C161.142 491.977 158.42 487.266 158.42 482.168V352.832C158.42 347.734 161.142 343.023 165.561 340.474L277.666 275.806ZM292.255 275.275C287.646 272.616 281.968 272.616 277.359 275.275L165.255 339.943C160.646 342.601 157.807 347.515 157.807 352.832V482.168C157.807 487.485 160.646 492.399 165.255 495.057L277.359 559.725C281.968 562.384 287.646 562.384 292.255 559.725L404.359 495.057C408.968 492.399 411.807 487.485 411.807 482.168V352.832C411.807 347.515 408.968 342.601 404.359 339.943L292.255 275.275ZM277.666 296.051C282.085 293.502 287.53 293.502 291.949 296.051L386.506 350.596C390.925 353.145 393.647 357.856 393.647 362.954V472.046C393.647 477.143 390.925 481.854 386.506 484.403L291.949 538.949C287.53 541.498 282.085 541.498 277.666 538.949L183.109 484.403C178.69 481.854 175.968 477.143 175.968 472.046V362.954C175.968 357.856 178.69 353.145 183.109 350.596L277.666 296.051ZM292.255 295.519C287.647 292.861 281.969 292.861 277.36 295.519L182.803 350.065C178.194 352.724 175.355 357.637 175.355 362.954V472.046C175.355 477.363 178.194 482.276 182.803 484.935L277.36 539.48C281.969 542.139 287.647 542.139 292.255 539.48L386.812 484.935C391.421 482.276 394.26 477.363 394.26 472.046V362.954C394.26 357.637 391.421 352.724 386.812 350.065L292.255 295.519ZM277.667 315.486C282.086 312.937 287.53 312.937 291.949 315.486L369.661 360.314C374.08 362.863 376.802 367.574 376.802 372.672V462.328C376.802 467.426 374.08 472.137 369.661 474.686L291.949 519.514C287.53 522.063 282.086 522.063 277.667 519.514L199.955 474.686C195.536 472.137 192.814 467.426 192.814 462.328V372.672C192.814 367.574 195.536 362.863 199.955 360.314L277.667 315.486ZM292.256 314.955C287.647 312.296 281.969 312.296 277.36 314.955L199.649 359.783C195.04 362.441 192.201 367.355 192.201 372.672V462.328C192.201 467.645 195.04 472.559 199.649 475.217L277.36 520.045C281.969 522.704 287.647 522.704 292.256 520.045L369.967 475.217C374.576 472.559 377.415 467.645 377.415 462.328V372.672C377.415 367.355 374.576 362.441 369.967 359.783L292.256 314.955Z" stroke="url(#paint0_linear_289_124)" stroke-width="0.613306"/>
<g filter="url(#filter0_f_289_124)">
<path d="M279.288 334.802C282.703 332.83 286.912 332.83 290.327 334.802L353.666 371.371C357.082 373.343 359.186 376.987 359.186 380.931V454.069C359.186 458.013 357.082 461.657 353.666 463.629L290.327 500.198C286.912 502.17 282.703 502.17 279.288 500.198L215.949 463.629C212.533 461.657 210.429 458.013 210.429 454.069V380.931C210.429 376.987 212.533 373.343 215.949 371.371L279.288 334.802Z" fill="url(#paint1_radial_289_124)"/>
<path d="M279.538 335.235C282.799 333.353 286.816 333.353 290.077 335.235L353.416 371.804C356.677 373.687 358.686 377.166 358.686 380.931V454.069C358.686 457.834 356.677 461.314 353.416 463.196L290.077 499.765C286.816 501.648 282.799 501.648 279.538 499.765L216.199 463.196C212.938 461.314 210.929 457.834 210.929 454.069V380.931C210.929 377.166 212.938 373.687 216.199 371.804L279.538 335.235Z" stroke="#EADDFF"/>
</g>
<g filter="url(#filter1_ii_289_124)">
<path d="M263.682 411.222V404.351C263.682 398.884 265.845 393.641 269.696 389.776C273.547 385.91 278.769 383.739 284.215 383.739C289.661 383.739 294.884 385.91 298.734 389.776C302.585 393.641 304.748 398.884 304.748 404.351V411.222H308.171C309.986 411.222 311.727 411.945 313.01 413.234C314.294 414.523 315.015 416.27 315.015 418.092V445.575C315.015 447.398 314.294 449.145 313.01 450.434C311.727 451.722 309.986 452.446 308.171 452.446H260.259C258.444 452.446 256.703 451.722 255.42 450.434C254.136 449.145 253.415 447.398 253.415 445.575V418.092C253.415 414.313 256.495 411.222 260.259 411.222H263.682ZM280.793 434.342V442.14H287.637V434.342C288.942 433.585 289.962 432.418 290.538 431.021C291.115 429.623 291.216 428.074 290.826 426.613C290.436 425.152 289.577 423.861 288.382 422.941C287.186 422.02 285.722 421.521 284.215 421.521C282.708 421.521 281.244 422.02 280.048 422.941C278.853 423.861 277.994 425.152 277.604 426.613C277.214 428.074 277.315 429.623 277.892 431.021C278.468 432.418 279.488 433.585 280.793 434.342ZM273.948 404.351V411.222H294.482V404.351C294.482 401.617 293.4 398.996 291.475 397.063C289.549 395.131 286.938 394.045 284.215 394.045C281.492 394.045 278.881 395.131 276.955 397.063C275.03 398.996 273.948 401.617 273.948 404.351Z" fill="#0030AD"/>
</g>
<circle cx="50.5188" cy="425.284" r="10.0188" fill="#3D3D3D" fill-opacity="0.3" stroke="#606083"/>
<path d="M52.2265 421.249C51.8162 420.806 51.2432 420.562 50.6107 420.562C49.9748 420.562 49.3998 420.804 48.9915 421.244C48.5786 421.69 48.3775 422.294 48.4247 422.948C48.5183 424.236 49.4989 425.284 50.6107 425.284C51.7224 425.284 52.7013 424.236 52.7964 422.948C52.8442 422.301 52.6418 421.697 52.2265 421.249Z" fill="#606083"/>
<path d="M54.3208 430.007H46.8994C46.8023 430.008 46.7061 429.988 46.6178 429.947C46.5295 429.907 46.4514 429.847 46.3892 429.772C46.2521 429.609 46.1969 429.385 46.2378 429.159C46.4157 428.171 46.9711 427.342 47.8439 426.76C48.6194 426.243 49.6017 425.959 50.6101 425.959C51.6185 425.959 52.6008 426.244 53.3762 426.76C54.2491 427.342 54.8044 428.171 54.9824 429.158C55.0233 429.385 54.968 429.608 54.831 429.772C54.7687 429.847 54.6906 429.907 54.6024 429.947C54.5141 429.988 54.4179 430.008 54.3208 430.007Z" fill="#606083"/>
<circle cx="50.5188" cy="453.667" r="10.0188" fill="#3D3D3D" fill-opacity="0.3" stroke="#606083"/>
<path d="M52.2265 449.632C51.8162 449.189 51.2432 448.945 50.6107 448.945C49.9748 448.945 49.3998 449.187 48.9915 449.628C48.5786 450.073 48.3775 450.677 48.4247 451.331C48.5183 452.619 49.4989 453.668 50.6107 453.668C51.7224 453.668 52.7013 452.619 52.7964 451.331C52.8442 450.684 52.6418 450.08 52.2265 449.632Z" fill="#606083"/>
<path d="M54.3208 458.39H46.8994C46.8023 458.392 46.7061 458.371 46.6178 458.331C46.5295 458.29 46.4514 458.23 46.3892 458.156C46.2521 457.992 46.1969 457.768 46.2378 457.542C46.4157 456.555 46.9711 455.726 47.8439 455.143C48.6194 454.627 49.6017 454.342 50.6101 454.342C51.6185 454.342 52.6008 454.627 53.3762 455.143C54.2491 455.725 54.8044 456.555 54.9824 457.542C55.0233 457.768 54.968 457.992 54.831 458.155C54.7687 458.23 54.6906 458.29 54.6024 458.33C54.5141 458.371 54.4179 458.392 54.3208 458.39Z" fill="#606083"/>
<circle cx="50.5188" cy="396.902" r="10.0188" fill="#3D3D3D" fill-opacity="0.3" stroke="#606083"/>
<path d="M52.2265 392.866C51.8162 392.423 51.2432 392.179 50.6107 392.179C49.9748 392.179 49.3998 392.421 48.9915 392.862C48.5786 393.307 48.3775 393.912 48.4247 394.565C48.5183 395.853 49.4989 396.902 50.6107 396.902C51.7224 396.902 52.7013 395.854 52.7964 394.565C52.8442 393.918 52.6418 393.314 52.2265 392.866Z" fill="#606083"/>
<path d="M54.3208 401.624H46.8994C46.8023 401.626 46.7061 401.605 46.6178 401.565C46.5295 401.524 46.4514 401.464 46.3892 401.39C46.2521 401.226 46.1969 401.002 46.2378 400.776C46.4157 399.789 46.9711 398.96 47.8439 398.378C48.6194 397.861 49.6017 397.576 50.6101 397.576C51.6185 397.576 52.6008 397.861 53.3762 398.378C54.2491 398.959 54.8044 399.789 54.9824 400.776C55.0233 401.002 54.968 401.226 54.831 401.39C54.7687 401.464 54.6906 401.524 54.6024 401.565C54.5141 401.605 54.4179 401.626 54.3208 401.624Z" fill="#606083"/>
<circle cx="50.5188" cy="368.519" r="10.0188" fill="#3D3D3D" fill-opacity="0.3" stroke="#606083"/>
<path d="M52.2265 364.483C51.8162 364.04 51.2432 363.796 50.6107 363.796C49.9748 363.796 49.3998 364.038 48.9915 364.479C48.5786 364.924 48.3775 365.529 48.4247 366.182C48.5183 367.47 49.4989 368.519 50.6107 368.519C51.7224 368.519 52.7013 367.471 52.7964 366.182C52.8442 365.535 52.6418 364.931 52.2265 364.483Z" fill="#606083"/>
<path d="M54.3208 373.241H46.8994C46.8023 373.243 46.7061 373.222 46.6178 373.182C46.5295 373.141 46.4514 373.081 46.3892 373.007C46.2521 372.843 46.1969 372.619 46.2378 372.393C46.4157 371.406 46.9711 370.577 47.8439 369.995C48.6194 369.478 49.6017 369.193 50.6101 369.193C51.6185 369.193 52.6008 369.478 53.3762 369.995C54.2491 370.576 54.8044 371.406 54.9824 372.393C55.0233 372.619 54.968 372.843 54.831 373.007C54.7687 373.081 54.6906 373.141 54.6024 373.182C54.5141 373.222 54.4179 373.243 54.3208 373.241Z" fill="#606083"/>
<circle cx="77.5559" cy="425.284" r="10.0188" fill="#3D3D3D" fill-opacity="0.3" stroke="#606083"/>
<path d="M79.2636 421.249C78.8533 420.806 78.2803 420.562 77.6478 420.562C77.0119 420.562 76.437 420.804 76.0286 421.244C75.6158 421.69 75.4146 422.294 75.4618 422.948C75.5555 424.236 76.536 425.284 77.6478 425.284C78.7595 425.284 79.7384 424.236 79.8335 422.948C79.8814 422.301 79.6789 421.697 79.2636 421.249Z" fill="#606083"/>
<path d="M81.3588 430.007H73.9375C73.8403 430.009 73.7441 429.988 73.6559 429.948C73.5676 429.907 73.4895 429.847 73.4273 429.773C73.2902 429.609 73.235 429.385 73.2759 429.159C73.4538 428.172 74.0092 427.343 74.882 426.76C75.6575 426.244 76.6397 425.959 77.6482 425.959C78.6566 425.959 79.6389 426.244 80.4143 426.76C81.2872 427.342 81.8425 428.172 82.0204 429.159C82.0613 429.385 82.0061 429.609 81.8691 429.772C81.8068 429.847 81.7287 429.907 81.6405 429.947C81.5522 429.988 81.456 430.008 81.3588 430.007Z" fill="#606083"/>
<circle cx="77.5559" cy="453.667" r="10.0188" fill="#3D3D3D" fill-opacity="0.3" stroke="#606083"/>
<path d="M79.2636 449.632C78.8533 449.189 78.2803 448.945 77.6478 448.945C77.0119 448.945 76.437 449.187 76.0286 449.628C75.6158 450.073 75.4146 450.677 75.4618 451.331C75.5555 452.619 76.536 453.668 77.6478 453.668C78.7595 453.668 79.7384 452.619 79.8335 451.331C79.8814 450.684 79.6789 450.08 79.2636 449.632Z" fill="#606083"/>
<path d="M81.3588 458.39H73.9375C73.8403 458.392 73.7441 458.371 73.6559 458.331C73.5676 458.29 73.4895 458.23 73.4273 458.156C73.2902 457.992 73.235 457.768 73.2759 457.542C73.4538 456.555 74.0092 455.726 74.882 455.143C75.6575 454.627 76.6397 454.342 77.6482 454.342C78.6566 454.342 79.6389 454.627 80.4143 455.143C81.2872 455.725 81.8425 456.555 82.0204 457.542C82.0613 457.768 82.0061 457.992 81.8691 458.155C81.8068 458.23 81.7287 458.29 81.6405 458.33C81.5522 458.371 81.456 458.392 81.3588 458.39Z" fill="#606083"/>
<circle cx="77.5559" cy="396.902" r="10.0188" fill="#3D3D3D" fill-opacity="0.3" stroke="#606083"/>
<path d="M79.2636 392.866C78.8533 392.423 78.2803 392.179 77.6478 392.179C77.0119 392.179 76.437 392.421 76.0286 392.862C75.6158 393.307 75.4146 393.912 75.4618 394.565C75.5555 395.853 76.536 396.902 77.6478 396.902C78.7595 396.902 79.7384 395.854 79.8335 394.565C79.8814 393.918 79.6789 393.314 79.2636 392.866Z" fill="#606083"/>
<path d="M81.3588 401.624H73.9375C73.8403 401.626 73.7441 401.605 73.6559 401.565C73.5676 401.524 73.4895 401.464 73.4273 401.39C73.2902 401.226 73.235 401.002 73.2759 400.776C73.4538 399.789 74.0092 398.96 74.882 398.378C75.6575 397.861 76.6397 397.576 77.6482 397.576C78.6566 397.576 79.6389 397.861 80.4143 398.378C81.2872 398.959 81.8425 399.789 82.0204 400.776C82.0613 401.002 82.0061 401.226 81.8691 401.39C81.8068 401.464 81.7287 401.524 81.6405 401.565C81.5522 401.605 81.456 401.626 81.3588 401.624Z" fill="#606083"/>
<circle cx="77.5559" cy="368.519" r="10.0188" fill="#3D3D3D" fill-opacity="0.3" stroke="#606083"/>
<path d="M79.2636 364.483C78.8533 364.04 78.2803 363.796 77.6478 363.796C77.0119 363.796 76.437 364.038 76.0286 364.479C75.6158 364.924 75.4146 365.529 75.4618 366.182C75.5555 367.47 76.536 368.519 77.6478 368.519C78.7595 368.519 79.7384 367.471 79.8335 366.182C79.8814 365.535 79.6789 364.931 79.2636 364.483Z" fill="#606083"/>
<path d="M81.3588 373.241H73.9375C73.8403 373.243 73.7441 373.222 73.6559 373.182C73.5676 373.141 73.4895 373.081 73.4273 373.007C73.2902 372.843 73.235 372.619 73.2759 372.393C73.4538 371.406 74.0092 370.577 74.882 369.995C75.6575 369.478 76.6397 369.193 77.6482 369.193C78.6566 369.193 79.6389 369.478 80.4143 369.995C81.2872 370.576 81.8425 371.406 82.0204 372.393C82.0613 372.619 82.0061 372.843 81.8691 373.007C81.8068 373.081 81.7287 373.141 81.6405 373.182C81.5522 373.222 81.456 373.243 81.3588 373.241Z" fill="#606083"/>
<circle cx="104.594" cy="425.284" r="10.0188" fill="#3D3D3D" fill-opacity="0.3" stroke="#606083"/>
<path d="M106.302 421.249C105.891 420.806 105.318 420.562 104.686 420.562C104.05 420.562 103.475 420.804 103.067 421.244C102.654 421.69 102.453 422.294 102.5 422.948C102.594 424.236 103.574 425.284 104.686 425.284C105.798 425.284 106.776 424.236 106.872 422.948C106.919 422.301 106.717 421.697 106.302 421.249Z" fill="#606083"/>
<path d="M108.397 430.007H100.976C100.878 430.008 100.782 429.988 100.694 429.947C100.606 429.907 100.528 429.847 100.465 429.772C100.328 429.609 100.273 429.385 100.314 429.159C100.492 428.171 101.047 427.342 101.92 426.76C102.696 426.243 103.678 425.959 104.686 425.959C105.695 425.959 106.677 426.244 107.452 426.76C108.325 427.342 108.881 428.171 109.059 429.158C109.099 429.385 109.044 429.608 108.907 429.772C108.845 429.847 108.767 429.907 108.679 429.947C108.59 429.988 108.494 430.008 108.397 430.007Z" fill="#606083"/>
<circle cx="104.594" cy="453.667" r="10.0188" fill="#3D3D3D" fill-opacity="0.3" stroke="#606083"/>
<path d="M106.302 449.632C105.891 449.189 105.318 448.945 104.686 448.945C104.05 448.945 103.475 449.187 103.067 449.628C102.654 450.073 102.453 450.677 102.5 451.331C102.594 452.619 103.574 453.668 104.686 453.668C105.798 453.668 106.776 452.619 106.872 451.331C106.919 450.684 106.717 450.08 106.302 449.632Z" fill="#606083"/>
<path d="M108.397 458.39H100.976C100.878 458.392 100.782 458.371 100.694 458.331C100.606 458.29 100.528 458.23 100.465 458.156C100.328 457.992 100.273 457.768 100.314 457.542C100.492 456.555 101.047 455.726 101.92 455.143C102.696 454.627 103.678 454.342 104.686 454.342C105.695 454.342 106.677 454.627 107.452 455.143C108.325 455.725 108.881 456.555 109.059 457.542C109.099 457.768 109.044 457.992 108.907 458.155C108.845 458.23 108.767 458.29 108.679 458.33C108.59 458.371 108.494 458.392 108.397 458.39Z" fill="#606083"/>
<circle cx="104.594" cy="396.902" r="10.0188" fill="#3D3D3D" fill-opacity="0.3" stroke="#606083"/>
<path d="M106.302 392.866C105.891 392.423 105.318 392.179 104.686 392.179C104.05 392.179 103.475 392.421 103.067 392.862C102.654 393.307 102.453 393.912 102.5 394.565C102.594 395.853 103.574 396.902 104.686 396.902C105.798 396.902 106.776 395.854 106.872 394.565C106.919 393.918 106.717 393.314 106.302 392.866Z" fill="#606083"/>
<path d="M108.397 401.624H100.976C100.878 401.626 100.782 401.605 100.694 401.565C100.606 401.524 100.528 401.464 100.465 401.39C100.328 401.226 100.273 401.002 100.314 400.776C100.492 399.789 101.047 398.96 101.92 398.378C102.696 397.861 103.678 397.576 104.686 397.576C105.695 397.576 106.677 397.861 107.452 398.378C108.325 398.959 108.881 399.789 109.059 400.776C109.099 401.002 109.044 401.226 108.907 401.39C108.845 401.464 108.767 401.524 108.679 401.565C108.59 401.605 108.494 401.626 108.397 401.624Z" fill="#606083"/>
<circle cx="104.594" cy="368.519" r="10.0188" fill="#3D3D3D" fill-opacity="0.3" stroke="#606083"/>
<path d="M106.302 364.483C105.891 364.04 105.318 363.796 104.686 363.796C104.05 363.796 103.475 364.038 103.067 364.479C102.654 364.924 102.453 365.529 102.5 366.182C102.594 367.47 103.574 368.519 104.686 368.519C105.798 368.519 106.776 367.471 106.872 366.182C106.919 365.535 106.717 364.931 106.302 364.483Z" fill="#606083"/>
<path d="M108.397 373.241H100.976C100.878 373.243 100.782 373.222 100.694 373.182C100.606 373.141 100.528 373.081 100.465 373.007C100.328 372.843 100.273 372.619 100.314 372.393C100.492 371.406 101.047 370.577 101.92 369.995C102.696 369.478 103.678 369.193 104.686 369.193C105.695 369.193 106.677 369.478 107.452 369.995C108.325 370.576 108.881 371.406 109.059 372.393C109.099 372.619 109.044 372.843 108.907 373.007C108.845 373.081 108.767 373.141 108.679 373.182C108.59 373.222 108.494 373.243 108.397 373.241Z" fill="#606083"/>
<circle cx="131.631" cy="425.284" r="10.0188" fill="#3D3D3D" fill-opacity="0.3" stroke="#606083"/>
<path d="M133.339 421.249C132.929 420.806 132.355 420.562 131.723 420.562C131.087 420.562 130.512 420.804 130.104 421.244C129.691 421.69 129.49 422.294 129.537 422.948C129.631 424.236 130.611 425.284 131.723 425.284C132.835 425.284 133.814 424.236 133.909 422.948C133.957 422.301 133.754 421.697 133.339 421.249Z" fill="#606083"/>
<path d="M135.434 430.007H128.013C127.916 430.008 127.819 429.988 127.731 429.947C127.643 429.907 127.565 429.847 127.502 429.772C127.365 429.609 127.31 429.385 127.351 429.159C127.529 428.171 128.084 427.342 128.957 426.76C129.733 426.243 130.715 425.959 131.723 425.959C132.732 425.959 133.714 426.244 134.49 426.76C135.362 427.342 135.918 428.171 136.096 429.158C136.137 429.385 136.081 429.608 135.944 429.772C135.882 429.847 135.804 429.907 135.716 429.947C135.627 429.988 135.531 430.008 135.434 430.007Z" fill="#606083"/>
<circle cx="131.631" cy="453.667" r="10.0188" fill="#3D3D3D" fill-opacity="0.3" stroke="#606083"/>
<path d="M133.339 449.632C132.929 449.189 132.355 448.945 131.723 448.945C131.087 448.945 130.512 449.187 130.104 449.628C129.691 450.073 129.49 450.677 129.537 451.331C129.631 452.619 130.611 453.668 131.723 453.668C132.835 453.668 133.814 452.619 133.909 451.331C133.957 450.684 133.754 450.08 133.339 449.632Z" fill="#606083"/>
<path d="M135.434 458.39H128.013C127.916 458.392 127.819 458.371 127.731 458.331C127.643 458.29 127.565 458.23 127.502 458.156C127.365 457.992 127.31 457.768 127.351 457.542C127.529 456.555 128.084 455.726 128.957 455.143C129.733 454.627 130.715 454.342 131.723 454.342C132.732 454.342 133.714 454.627 134.49 455.143C135.362 455.725 135.918 456.555 136.096 457.542C136.137 457.768 136.081 457.992 135.944 458.155C135.882 458.23 135.804 458.29 135.716 458.33C135.627 458.371 135.531 458.392 135.434 458.39Z" fill="#606083"/>
<circle cx="131.631" cy="396.902" r="10.0188" fill="#3D3D3D" fill-opacity="0.3" stroke="#606083"/>
<path d="M133.339 392.866C132.929 392.423 132.355 392.179 131.723 392.179C131.087 392.179 130.512 392.421 130.104 392.862C129.691 393.307 129.49 393.912 129.537 394.565C129.631 395.853 130.611 396.902 131.723 396.902C132.835 396.902 133.814 395.854 133.909 394.565C133.957 393.918 133.754 393.314 133.339 392.866Z" fill="#606083"/>
<path d="M135.434 401.624H128.013C127.916 401.626 127.819 401.605 127.731 401.565C127.643 401.524 127.565 401.464 127.502 401.39C127.365 401.226 127.31 401.002 127.351 400.776C127.529 399.789 128.084 398.96 128.957 398.378C129.733 397.861 130.715 397.576 131.723 397.576C132.732 397.576 133.714 397.861 134.49 398.378C135.362 398.959 135.918 399.789 136.096 400.776C136.137 401.002 136.081 401.226 135.944 401.39C135.882 401.464 135.804 401.524 135.716 401.565C135.627 401.605 135.531 401.626 135.434 401.624Z" fill="#606083"/>
<circle cx="131.631" cy="368.519" r="10.0188" fill="#3D3D3D" fill-opacity="0.3" stroke="#606083"/>
<path d="M133.339 364.483C132.929 364.04 132.355 363.796 131.723 363.796C131.087 363.796 130.512 364.038 130.104 364.479C129.691 364.924 129.49 365.529 129.537 366.182C129.631 367.47 130.611 368.519 131.723 368.519C132.835 368.519 133.814 367.471 133.909 366.182C133.957 365.535 133.754 364.931 133.339 364.483Z" fill="#606083"/>
<path d="M135.434 373.241H128.013C127.916 373.243 127.819 373.222 127.731 373.182C127.643 373.141 127.565 373.081 127.502 373.007C127.365 372.843 127.31 372.619 127.351 372.393C127.529 371.406 128.084 370.577 128.957 369.995C129.733 369.478 130.715 369.193 131.723 369.193C132.732 369.193 133.714 369.478 134.49 369.995C135.362 370.576 135.918 371.406 136.096 372.393C136.137 372.619 136.081 372.843 135.944 373.007C135.882 373.081 135.804 373.141 135.716 373.182C135.627 373.222 135.531 373.243 135.434 373.241Z" fill="#606083"/>
<circle cx="440.519" cy="425.284" r="10.0188" fill="#3D3D3D" fill-opacity="0.3" stroke="#606083"/>
<path d="M442.226 421.249C441.816 420.806 441.243 420.562 440.611 420.562C439.975 420.562 439.4 420.804 438.991 421.244C438.579 421.69 438.378 422.294 438.425 422.948C438.518 424.236 439.499 425.284 440.611 425.284C441.722 425.284 442.701 424.236 442.796 422.948C442.844 422.301 442.642 421.697 442.226 421.249Z" fill="#606083"/>
<path d="M444.321 430.007H436.899C436.802 430.008 436.706 429.988 436.618 429.947C436.53 429.907 436.451 429.847 436.389 429.772C436.252 429.609 436.197 429.385 436.238 429.159C436.416 428.171 436.971 427.342 437.844 426.76C438.619 426.243 439.602 425.959 440.61 425.959C441.618 425.959 442.601 426.244 443.376 426.76C444.249 427.342 444.804 428.171 444.982 429.158C445.023 429.385 444.968 429.608 444.831 429.772C444.769 429.847 444.691 429.907 444.602 429.947C444.514 429.988 444.418 430.008 444.321 430.007Z" fill="#606083"/>
<circle cx="440.519" cy="453.667" r="10.0188" fill="#3D3D3D" fill-opacity="0.3" stroke="#606083"/>
<path d="M442.226 449.632C441.816 449.189 441.243 448.945 440.611 448.945C439.975 448.945 439.4 449.187 438.991 449.628C438.579 450.073 438.378 450.677 438.425 451.331C438.518 452.619 439.499 453.668 440.611 453.668C441.722 453.668 442.701 452.619 442.796 451.331C442.844 450.684 442.642 450.08 442.226 449.632Z" fill="#606083"/>
<path d="M444.321 458.39H436.899C436.802 458.392 436.706 458.371 436.618 458.331C436.53 458.29 436.451 458.23 436.389 458.156C436.252 457.992 436.197 457.768 436.238 457.542C436.416 456.555 436.971 455.726 437.844 455.143C438.619 454.627 439.602 454.342 440.61 454.342C441.618 454.342 442.601 454.627 443.376 455.143C444.249 455.725 444.804 456.555 444.982 457.542C445.023 457.768 444.968 457.992 444.831 458.155C444.769 458.23 444.691 458.29 444.602 458.33C444.514 458.371 444.418 458.392 444.321 458.39Z" fill="#606083"/>
<circle cx="440.519" cy="396.902" r="10.0188" fill="#3D3D3D" fill-opacity="0.3" stroke="#606083"/>
<path d="M442.226 392.866C441.816 392.423 441.243 392.179 440.611 392.179C439.975 392.179 439.4 392.421 438.991 392.862C438.579 393.307 438.378 393.912 438.425 394.565C438.518 395.853 439.499 396.902 440.611 396.902C441.722 396.902 442.701 395.854 442.796 394.565C442.844 393.918 442.642 393.314 442.226 392.866Z" fill="#606083"/>
<path d="M444.321 401.624H436.899C436.802 401.626 436.706 401.605 436.618 401.565C436.53 401.524 436.451 401.464 436.389 401.39C436.252 401.226 436.197 401.002 436.238 400.776C436.416 399.789 436.971 398.96 437.844 398.378C438.619 397.861 439.602 397.576 440.61 397.576C441.618 397.576 442.601 397.861 443.376 398.378C444.249 398.959 444.804 399.789 444.982 400.776C445.023 401.002 444.968 401.226 444.831 401.39C444.769 401.464 444.691 401.524 444.602 401.565C444.514 401.605 444.418 401.626 444.321 401.624Z" fill="#606083"/>
<circle cx="440.519" cy="368.519" r="10.0188" fill="#3D3D3D" fill-opacity="0.3" stroke="#606083"/>
<path d="M442.226 364.483C441.816 364.04 441.243 363.796 440.611 363.796C439.975 363.796 439.4 364.038 438.991 364.479C438.579 364.924 438.378 365.529 438.425 366.182C438.518 367.47 439.499 368.519 440.611 368.519C441.722 368.519 442.701 367.471 442.796 366.182C442.844 365.535 442.642 364.931 442.226 364.483Z" fill="#606083"/>
<path d="M444.321 373.241H436.899C436.802 373.243 436.706 373.222 436.618 373.182C436.53 373.141 436.451 373.081 436.389 373.007C436.252 372.843 436.197 372.619 436.238 372.393C436.416 371.406 436.971 370.577 437.844 369.995C438.619 369.478 439.602 369.193 440.61 369.193C441.618 369.193 442.601 369.478 443.376 369.995C444.249 370.576 444.804 371.406 444.982 372.393C445.023 372.619 444.968 372.843 444.831 373.007C444.769 373.081 444.691 373.141 444.602 373.182C444.514 373.222 444.418 373.243 444.321 373.241Z" fill="#606083"/>
<circle cx="467.556" cy="425.284" r="10.0188" fill="#3D3D3D" fill-opacity="0.3" stroke="#606083"/>
<path d="M469.264 421.249C468.853 420.806 468.28 420.562 467.648 420.562C467.012 420.562 466.437 420.804 466.029 421.244C465.616 421.69 465.415 422.294 465.462 422.948C465.555 424.236 466.536 425.284 467.648 425.284C468.76 425.284 469.738 424.236 469.833 422.948C469.881 422.301 469.679 421.697 469.264 421.249Z" fill="#606083"/>
<path d="M471.359 430.007H463.937C463.84 430.009 463.744 429.988 463.656 429.948C463.568 429.907 463.49 429.847 463.427 429.773C463.29 429.609 463.235 429.385 463.276 429.159C463.454 428.172 464.009 427.343 464.882 426.76C465.657 426.244 466.64 425.959 467.648 425.959C468.657 425.959 469.639 426.244 470.414 426.76C471.287 427.342 471.842 428.172 472.02 429.159C472.061 429.385 472.006 429.609 471.869 429.772C471.807 429.847 471.729 429.907 471.64 429.947C471.552 429.988 471.456 430.008 471.359 430.007Z" fill="#606083"/>
<circle cx="467.556" cy="453.667" r="10.0188" fill="#3D3D3D" fill-opacity="0.3" stroke="#606083"/>
<path d="M469.264 449.632C468.853 449.189 468.28 448.945 467.648 448.945C467.012 448.945 466.437 449.187 466.029 449.628C465.616 450.073 465.415 450.677 465.462 451.331C465.555 452.619 466.536 453.668 467.648 453.668C468.76 453.668 469.738 452.619 469.833 451.331C469.881 450.684 469.679 450.08 469.264 449.632Z" fill="#606083"/>
<path d="M471.359 458.39H463.937C463.84 458.392 463.744 458.371 463.656 458.331C463.568 458.29 463.49 458.23 463.427 458.156C463.29 457.992 463.235 457.768 463.276 457.542C463.454 456.555 464.009 455.726 464.882 455.143C465.657 454.627 466.64 454.342 467.648 454.342C468.657 454.342 469.639 454.627 470.414 455.143C471.287 455.725 471.842 456.555 472.02 457.542C472.061 457.768 472.006 457.992 471.869 458.155C471.807 458.23 471.729 458.29 471.64 458.33C471.552 458.371 471.456 458.392 471.359 458.39Z" fill="#606083"/>
<circle cx="467.556" cy="396.902" r="10.0188" fill="#3D3D3D" fill-opacity="0.3" stroke="#606083"/>
<path d="M469.264 392.866C468.853 392.423 468.28 392.179 467.648 392.179C467.012 392.179 466.437 392.421 466.029 392.862C465.616 393.307 465.415 393.912 465.462 394.565C465.555 395.853 466.536 396.902 467.648 396.902C468.76 396.902 469.738 395.854 469.833 394.565C469.881 393.918 469.679 393.314 469.264 392.866Z" fill="#606083"/>
<path d="M471.359 401.624H463.937C463.84 401.626 463.744 401.605 463.656 401.565C463.568 401.524 463.49 401.464 463.427 401.39C463.29 401.226 463.235 401.002 463.276 400.776C463.454 399.789 464.009 398.96 464.882 398.378C465.657 397.861 466.64 397.576 467.648 397.576C468.657 397.576 469.639 397.861 470.414 398.378C471.287 398.959 471.842 399.789 472.02 400.776C472.061 401.002 472.006 401.226 471.869 401.39C471.807 401.464 471.729 401.524 471.64 401.565C471.552 401.605 471.456 401.626 471.359 401.624Z" fill="#606083"/>
<circle cx="467.556" cy="368.519" r="10.0188" fill="#3D3D3D" fill-opacity="0.3" stroke="#606083"/>
<path d="M469.264 364.483C468.853 364.04 468.28 363.796 467.648 363.796C467.012 363.796 466.437 364.038 466.029 364.479C465.616 364.924 465.415 365.529 465.462 366.182C465.555 367.47 466.536 368.519 467.648 368.519C468.76 368.519 469.738 367.471 469.833 366.182C469.881 365.535 469.679 364.931 469.264 364.483Z" fill="#606083"/>
<path d="M471.359 373.241H463.937C463.84 373.243 463.744 373.222 463.656 373.182C463.568 373.141 463.49 373.081 463.427 373.007C463.29 372.843 463.235 372.619 463.276 372.393C463.454 371.406 464.009 370.577 464.882 369.995C465.657 369.478 466.64 369.193 467.648 369.193C468.657 369.193 469.639 369.478 470.414 369.995C471.287 370.576 471.842 371.406 472.02 372.393C472.061 372.619 472.006 372.843 471.869 373.007C471.807 373.081 471.729 373.141 471.64 373.182C471.552 373.222 471.456 373.243 471.359 373.241Z" fill="#606083"/>
<circle cx="494.594" cy="425.284" r="10.0188" fill="#3D3D3D" fill-opacity="0.3" stroke="#606083"/>
<path d="M496.302 421.249C495.891 420.806 495.318 420.562 494.686 420.562C494.05 420.562 493.475 420.804 493.067 421.244C492.654 421.69 492.453 422.294 492.5 422.948C492.594 424.236 493.574 425.284 494.686 425.284C495.798 425.284 496.776 424.236 496.872 422.948C496.919 422.301 496.717 421.697 496.302 421.249Z" fill="#606083"/>
<path d="M498.397 430.007H490.976C490.878 430.008 490.782 429.988 490.694 429.947C490.606 429.907 490.528 429.847 490.465 429.772C490.328 429.609 490.273 429.385 490.314 429.159C490.492 428.171 491.047 427.342 491.92 426.76C492.696 426.243 493.678 425.959 494.686 425.959C495.695 425.959 496.677 426.244 497.452 426.76C498.325 427.342 498.881 428.171 499.059 429.158C499.099 429.385 499.044 429.608 498.907 429.772C498.845 429.847 498.767 429.907 498.679 429.947C498.59 429.988 498.494 430.008 498.397 430.007Z" fill="#606083"/>
<circle cx="494.594" cy="453.667" r="10.0188" fill="#3D3D3D" fill-opacity="0.3" stroke="#606083"/>
<path d="M496.302 449.632C495.891 449.189 495.318 448.945 494.686 448.945C494.05 448.945 493.475 449.187 493.067 449.628C492.654 450.073 492.453 450.677 492.5 451.331C492.594 452.619 493.574 453.668 494.686 453.668C495.798 453.668 496.776 452.619 496.872 451.331C496.919 450.684 496.717 450.08 496.302 449.632Z" fill="#606083"/>
<path d="M498.397 458.39H490.976C490.878 458.392 490.782 458.371 490.694 458.331C490.606 458.29 490.528 458.23 490.465 458.156C490.328 457.992 490.273 457.768 490.314 457.542C490.492 456.555 491.047 455.726 491.92 455.143C492.696 454.627 493.678 454.342 494.686 454.342C495.695 454.342 496.677 454.627 497.452 455.143C498.325 455.725 498.881 456.555 499.059 457.542C499.099 457.768 499.044 457.992 498.907 458.155C498.845 458.23 498.767 458.29 498.679 458.33C498.59 458.371 498.494 458.392 498.397 458.39Z" fill="#606083"/>
<circle cx="494.594" cy="396.902" r="10.0188" fill="#3D3D3D" fill-opacity="0.3" stroke="#606083"/>
<path d="M496.302 392.866C495.891 392.423 495.318 392.179 494.686 392.179C494.05 392.179 493.475 392.421 493.067 392.862C492.654 393.307 492.453 393.912 492.5 394.565C492.594 395.853 493.574 396.902 494.686 396.902C495.798 396.902 496.776 395.854 496.872 394.565C496.919 393.918 496.717 393.314 496.302 392.866Z" fill="#606083"/>
<path d="M498.397 401.624H490.976C490.878 401.626 490.782 401.605 490.694 401.565C490.606 401.524 490.528 401.464 490.465 401.39C490.328 401.226 490.273 401.002 490.314 400.776C490.492 399.789 491.047 398.96 491.92 398.378C492.696 397.861 493.678 397.576 494.686 397.576C495.695 397.576 496.677 397.861 497.452 398.378C498.325 398.959 498.881 399.789 499.059 400.776C499.099 401.002 499.044 401.226 498.907 401.39C498.845 401.464 498.767 401.524 498.679 401.565C498.59 401.605 498.494 401.626 498.397 401.624Z" fill="#606083"/>
<circle cx="494.594" cy="368.519" r="10.0188" fill="#3D3D3D" fill-opacity="0.3" stroke="#606083"/>
<path d="M496.302 364.483C495.891 364.04 495.318 363.796 494.686 363.796C494.05 363.796 493.475 364.038 493.067 364.479C492.654 364.924 492.453 365.529 492.5 366.182C492.594 367.47 493.574 368.519 494.686 368.519C495.798 368.519 496.776 367.471 496.872 366.182C496.919 365.535 496.717 364.931 496.302 364.483Z" fill="#606083"/>
<path d="M498.397 373.241H490.976C490.878 373.243 490.782 373.222 490.694 373.182C490.606 373.141 490.528 373.081 490.465 373.007C490.328 372.843 490.273 372.619 490.314 372.393C490.492 371.406 491.047 370.577 491.92 369.995C492.696 369.478 493.678 369.193 494.686 369.193C495.695 369.193 496.677 369.478 497.452 369.995C498.325 370.576 498.881 371.406 499.059 372.393C499.099 372.619 499.044 372.843 498.907 373.007C498.845 373.081 498.767 373.141 498.679 373.182C498.59 373.222 498.494 373.243 498.397 373.241Z" fill="#606083"/>
<circle cx="521.631" cy="425.284" r="10.0188" fill="#3D3D3D" fill-opacity="0.3" stroke="#606083"/>
<path d="M523.339 421.249C522.929 420.806 522.355 420.562 521.723 420.562C521.087 420.562 520.512 420.804 520.104 421.244C519.691 421.69 519.49 422.294 519.537 422.948C519.631 424.236 520.611 425.284 521.723 425.284C522.835 425.284 523.814 424.236 523.909 422.948C523.957 422.301 523.754 421.697 523.339 421.249Z" fill="#606083"/>
<path d="M525.434 430.007H518.013C517.916 430.008 517.819 429.988 517.731 429.947C517.643 429.907 517.565 429.847 517.502 429.772C517.365 429.609 517.31 429.385 517.351 429.159C517.529 428.171 518.084 427.342 518.957 426.76C519.733 426.243 520.715 425.959 521.723 425.959C522.732 425.959 523.714 426.244 524.49 426.76C525.362 427.342 525.918 428.171 526.096 429.158C526.137 429.385 526.081 429.608 525.944 429.772C525.882 429.847 525.804 429.907 525.716 429.947C525.627 429.988 525.531 430.008 525.434 430.007Z" fill="#606083"/>
<circle cx="521.631" cy="453.667" r="10.0188" fill="#3D3D3D" fill-opacity="0.3" stroke="#606083"/>
<path d="M523.339 449.632C522.929 449.189 522.355 448.945 521.723 448.945C521.087 448.945 520.512 449.187 520.104 449.628C519.691 450.073 519.49 450.677 519.537 451.331C519.631 452.619 520.611 453.668 521.723 453.668C522.835 453.668 523.814 452.619 523.909 451.331C523.957 450.684 523.754 450.08 523.339 449.632Z" fill="#606083"/>
<path d="M525.434 458.39H518.013C517.916 458.392 517.819 458.371 517.731 458.331C517.643 458.29 517.565 458.23 517.502 458.156C517.365 457.992 517.31 457.768 517.351 457.542C517.529 456.555 518.084 455.726 518.957 455.143C519.733 454.627 520.715 454.342 521.723 454.342C522.732 454.342 523.714 454.627 524.49 455.143C525.362 455.725 525.918 456.555 526.096 457.542C526.137 457.768 526.081 457.992 525.944 458.155C525.882 458.23 525.804 458.29 525.716 458.33C525.627 458.371 525.531 458.392 525.434 458.39Z" fill="#606083"/>
<circle cx="521.631" cy="396.902" r="10.0188" fill="#3D3D3D" fill-opacity="0.3" stroke="#606083"/>
<path d="M523.339 392.866C522.929 392.423 522.355 392.179 521.723 392.179C521.087 392.179 520.512 392.421 520.104 392.862C519.691 393.307 519.49 393.912 519.537 394.565C519.631 395.853 520.611 396.902 521.723 396.902C522.835 396.902 523.814 395.854 523.909 394.565C523.957 393.918 523.754 393.314 523.339 392.866Z" fill="#606083"/>
<path d="M525.434 401.624H518.013C517.916 401.626 517.819 401.605 517.731 401.565C517.643 401.524 517.565 401.464 517.502 401.39C517.365 401.226 517.31 401.002 517.351 400.776C517.529 399.789 518.084 398.96 518.957 398.378C519.733 397.861 520.715 397.576 521.723 397.576C522.732 397.576 523.714 397.861 524.49 398.378C525.362 398.959 525.918 399.789 526.096 400.776C526.137 401.002 526.081 401.226 525.944 401.39C525.882 401.464 525.804 401.524 525.716 401.565C525.627 401.605 525.531 401.626 525.434 401.624Z" fill="#606083"/>
<circle cx="521.631" cy="368.519" r="10.0188" fill="#3D3D3D" fill-opacity="0.3" stroke="#606083"/>
<path d="M523.339 364.483C522.929 364.04 522.355 363.796 521.723 363.796C521.087 363.796 520.512 364.038 520.104 364.479C519.691 364.924 519.49 365.529 519.537 366.182C519.631 367.47 520.611 368.519 521.723 368.519C522.835 368.519 523.814 367.471 523.909 366.182C523.957 365.535 523.754 364.931 523.339 364.483Z" fill="#606083"/>
<path d="M525.434 373.241H518.013C517.916 373.243 517.819 373.222 517.731 373.182C517.643 373.141 517.565 373.081 517.502 373.007C517.365 372.843 517.31 372.619 517.351 372.393C517.529 371.406 518.084 370.577 518.957 369.995C519.733 369.478 520.715 369.193 521.723 369.193C522.732 369.193 523.714 369.478 524.49 369.995C525.362 370.576 525.918 371.406 526.096 372.393C526.137 372.619 526.081 372.843 525.944 373.007C525.882 373.081 525.804 373.141 525.716 373.182C525.627 373.222 525.531 373.243 525.434 373.241Z" fill="#606083"/>
<line x1="287.682" y1="293.815" x2="389.815" y2="352.318" stroke="url(#paint2_linear_289_124)" stroke-linecap="round"/>
<line x1="284.193" y1="560.32" x2="405.32" y2="492.807" stroke="url(#paint3_linear_289_124)" stroke-linecap="round"/>
<line x1="192.5" y1="366.5" x2="192.5" y2="463.5" stroke="url(#paint4_linear_289_124)" stroke-linecap="round"/>
</g>
<defs>
<filter id="filter0_f_289_124" x="209.43" y="332.323" width="150.756" height="170.354" filterUnits="userSpaceOnUse" color-interpolation-filters="sRGB">
<feFlood flood-opacity="0" result="BackgroundImageFix"/>
<feBlend mode="normal" in="SourceGraphic" in2="BackgroundImageFix" result="shape"/>
<feGaussianBlur stdDeviation="0.5" result="effect1_foregroundBlur_289_124"/>
</filter>
<filter id="filter1_ii_289_124" x="253.415" y="383.739" width="61.5996" height="71.161" filterUnits="userSpaceOnUse" color-interpolation-filters="sRGB">
<feFlood flood-opacity="0" result="BackgroundImageFix"/>
<feBlend mode="normal" in="SourceGraphic" in2="BackgroundImageFix" result="shape"/>
<feColorMatrix in="SourceAlpha" type="matrix" values="0 0 0 0 0 0 0 0 0 0 0 0 0 0 0 0 0 0 127 0" result="hardAlpha"/>
<feOffset dy="1.22661"/>
<feGaussianBlur stdDeviation="0.919958"/>
<feComposite in2="hardAlpha" operator="arithmetic" k2="-1" k3="1"/>
<feColorMatrix type="matrix" values="0 0 0 0 1 0 0 0 0 1 0 0 0 0 1 0 0 0 0.77 0"/>
<feBlend mode="normal" in2="shape" result="effect1_innerShadow_289_124"/>
<feColorMatrix in="SourceAlpha" type="matrix" values="0 0 0 0 0 0 0 0 0 0 0 0 0 0 0 0 0 0 127 0" result="hardAlpha"/>
<feOffset dy="2.45322"/>
<feGaussianBlur stdDeviation="23.4589"/>
<feComposite in2="hardAlpha" operator="arithmetic" k2="-1" k3="1"/>
<feColorMatrix type="matrix" values="0 0 0 0 1 0 0 0 0 1 0 0 0 0 1 0 0 0 0.25 0"/>
<feBlend mode="normal" in2="effect1_innerShadow_289_124" result="effect2_innerShadow_289_124"/>
</filter>
<linearGradient id="paint0_linear_289_124" x1="284.808" y1="225" x2="284.808" y2="610" gradientUnits="userSpaceOnUse">
<stop stop-color="white" stop-opacity="0"/>
<stop offset="0.470668" stop-color="white" stop-opacity="0.25"/>
<stop offset="1" stop-color="white" stop-opacity="0"/>
</linearGradient>
<radialGradient id="paint1_radial_289_124" cx="0" cy="0" r="1" gradientUnits="userSpaceOnUse" gradientTransform="translate(284.807 417.5) rotate(90) scale(85.8846)">
<stop offset="0.124418" stop-color="#1E2334"/>
<stop offset="0.616813" stop-color="#2B254D" stop-opacity="0.58"/>
<stop offset="1" stop-color="#392A52" stop-opacity="0.01"/>
</radialGradient>
<linearGradient id="paint2_linear_289_124" x1="390" y1="352.5" x2="289.5" y2="296" gradientUnits="userSpaceOnUse">
<stop stop-color="white" stop-opacity="0.5"/>
<stop offset="1" stop-color="white" stop-opacity="0"/>
</linearGradient>
<linearGradient id="paint3_linear_289_124" x1="405.533" y1="492.764" x2="287.668" y2="559.928" gradientUnits="userSpaceOnUse">
<stop stop-color="white" stop-opacity="0.5"/>
<stop offset="1" stop-color="white" stop-opacity="0"/>
</linearGradient>
<linearGradient id="paint4_linear_289_124" x1="192.434" y1="463.795" x2="191.802" y2="368.61" gradientUnits="userSpaceOnUse">
<stop stop-color="white" stop-opacity="0.5"/>
<stop offset="1" stop-color="white" stop-opacity="0"/>
</linearGradient>
<clipPath id="clip0_289_124">
<rect width="570" height="622.951" rx="18.6885" fill="white"/>
</clipPath>
</defs>
</svg>
